<svg width="708" height="708" viewBox="0 0 708 708" fill="none" xmlns="http://www.w3.org/2000/svg">
<rect x="510" y="346" width="30" height="24" fill="#202B43"/>
<path d="M311 29H369V151L351 169V208H311V151V29Z" fill="#202B43"/>
<rect x="184" y="169" width="127" height="29" fill="#202B43"/>
<rect x="266" y="198" width="21" height="52" fill="#202B43"/>
<rect x="225" y="235" width="41" height="15" fill="#202B43"/>
<rect x="260" y="311" width="40" height="48" fill="#202B43"/>
<rect x="300" y="335" width="6" height="24" fill="#202B43"/>
<rect x="248" y="335" width="12" height="24" fill="#202B43"/>
<rect x="204" y="270" width="44" height="115" fill="#202B43"/>
<rect x="225" y="250" width="23" height="20" fill="#202B43"/>
<rect x="201" y="270" width="3" height="40" fill="#202B43"/>
<path fill-rule="evenodd" clip-rule="evenodd" d="M9 160H54V203H176V270H201V336H155V321H9V160ZM124 253H66V281H124V253Z" fill="#202B43"/>
<rect x="99" y="131" width="62" height="35" fill="#202B43"/>
<rect x="123" y="166" width="20" height="37" fill="#202B43"/>
<rect x="161" y="131" width="23" height="23" fill="#202B43"/>
<rect x="184" y="113" width="31" height="56" fill="#202B43"/>
<rect x="528" y="87" width="88" height="41" fill="#202B43"/>
<rect x="522" y="87" width="6" height="25" fill="#202B43"/>
<rect x="476" y="87" width="46" height="64" fill="#202B43"/>
<rect x="426" y="151" width="18" height="13" fill="#202B43"/>
<rect x="369" y="127" width="107" height="24" fill="#202B43"/>
<rect x="517" y="206" width="3" height="18" fill="#202B43"/>
<rect x="610" y="384" width="28" height="35" fill="#202B43"/>
<rect x="605" y="327" width="33" height="57" fill="#202B43"/>
<path d="M540 326H587V351H605V384H598L574 408H540V326Z" fill="#202B43"/>
<path d="M446 276H503V298L494 315V346H510V394H464L446 376V276Z" fill="#202B43"/>
<rect x="477" y="273" width="14" height="3" fill="#202B43"/>
<rect x="427" y="253" width="64" height="20" fill="#202B43"/>
<path d="M426 164H517V237H491V253H452V212H426V164Z" fill="#202B43"/>
<path fill-rule="evenodd" clip-rule="evenodd" d="M540 198H520V224L529 243V297H563V326H587V274H639L673 306H699V283H696V195H699V170H656V145H540V198ZM640 163H590V203H640V163Z" fill="#202B43"/>
<rect x="566" y="128" width="19" height="6" fill="#202B43"/>
<rect x="561" y="134" width="28" height="11" fill="#202B43"/>
<rect x="43" y="321" width="23" height="45" fill="#202B43"/>
<rect x="306" y="370" width="33" height="26" fill="#202B43"/>
<rect x="306" y="317" width="58" height="53" fill="#202B43"/>
<rect x="341" y="314" width="15" height="3" fill="#202B43"/>
<rect x="324" y="273" width="64" height="41" fill="#202B43"/>
<rect x="388" y="295" width="12" height="19" fill="#202B43"/>
<rect x="400" y="253" width="27" height="61" fill="#202B43"/>
<rect x="126" y="419" width="23" height="13" fill="#202B43"/>
<rect x="33" y="366" width="120" height="53" fill="#202B43"/>
<rect x="33" y="419" width="52" height="24" fill="#202B43"/>
<rect x="178" y="492" width="12" height="21" fill="#202B43"/>
<rect x="190" y="434" width="35" height="79" fill="#202B43"/>
<rect x="225" y="454" width="22" height="24" fill="#202B43"/>
<rect x="247" y="430" width="40" height="73" fill="#202B43"/>
<rect x="287" y="454" width="5" height="24" fill="#202B43"/>
<rect x="595" y="436" width="3" height="14" fill="#202B43"/>
<rect x="549" y="431" width="46" height="24" fill="#202B43"/>
<rect x="549" y="455" width="23" height="10" fill="#202B43"/>
<rect x="423" y="465" width="149" height="24" fill="#202B43"/>
<rect x="423" y="408" width="18" height="57" fill="#202B43"/>
<rect x="361" y="431" width="62" height="23" fill="#202B43"/>
<rect x="291" y="396" width="70" height="100" fill="#202B43"/>
<rect x="499" y="500" width="140" height="37" fill="#202B43"/>
<path d="M639 459H598V466H587V500H639V459Z" fill="#202B43"/>
<rect x="598" y="419" width="75" height="40" fill="#202B43"/>
<rect x="271" y="565" width="13" height="25" fill="#202B43"/>
<path d="M284 565H375V678H345V677H326V675H297V674H281V600H284V565Z" fill="#202B43"/>
<rect x="360" y="545" width="15" height="20" fill="#202B43"/>
<rect x="220" y="565" width="51" height="31" fill="#202B43"/>
<path d="M108 531H215V560L220 565V596H169V577H108V531Z" fill="#202B43"/>
<rect x="108" y="431" width="70" height="100" fill="#202B43"/>
<rect x="375" y="562" width="69" height="31" fill="#202B43"/>
<rect x="444" y="500" width="55" height="93" fill="#202B43"/>
<rect x="458" y="500" width="24" height="13" fill="#273552"/>
<rect x="627" y="459" width="12" height="20" fill="#273552"/>
<rect x="633" y="490" width="6" height="28" fill="#273552"/>
<rect x="627" y="529" width="12" height="8" fill="#273552"/>
<rect x="654" y="227" width="12" height="24" fill="#273552"/>
<rect x="628" y="203" width="12" height="12" fill="#273552"/>
<rect x="540" y="239" width="12" height="12" fill="#273552"/>
<rect x="539" y="198" width="1" height="99" fill="#182338"/>
<rect x="452" y="212" width="12" height="12" fill="#273552"/>
<rect x="452" y="224" width="11" height="6" fill="#273552"/>
<rect x="446" y="308" width="7" height="6" fill="#273552"/>
<rect x="446" y="314" width="15" height="12" fill="#273552"/>
<rect x="427" y="253" width="1" height="21" fill="#182338"/>
<rect x="419" y="295" width="8" height="6" fill="#273552"/>
<rect x="418" y="301" width="9" height="13" fill="#273552"/>
<rect x="399" y="295" width="1" height="19" fill="#182338"/>
<rect x="339" y="420" width="22" height="11" fill="#273552"/>
<path d="M302 484H293V486H292V494H293V496H302V494H303V486H302V484Z" fill="#273552"/>
<path d="M308 489H304V490H303V495H304V496H308V495H309V490H308V489Z" fill="#273552"/>
<rect x="274" y="430" width="13" height="13" fill="#273552"/>
<rect x="190" y="434" width="6" height="58" fill="#273552"/>
<rect x="108" y="431" width="19" height="42" fill="#273552"/>
<rect x="127" y="465" width="5" height="8" fill="#273552"/>
<rect x="33" y="431" width="12" height="12" fill="#273552"/>
<rect x="45" y="440" width="16" height="3" fill="#273552"/>
<rect x="33" y="427" width="4" height="4" fill="#273552"/>
<rect x="108" y="366" width="13" height="13" fill="#273552"/>
<path d="M126 366H122V367H121V372H122V373H126V372H127V367H126V366Z" fill="#273552"/>
<rect x="9" y="309" width="24" height="12" fill="#273552"/>
<rect x="9" y="232" width="31" height="13" fill="#273552"/>
<rect x="43" y="160" width="12" height="12" fill="#273552"/>
<rect x="48" y="172" width="7" height="6" fill="#273552"/>
<rect x="91" y="241" width="11" height="12" fill="#273552"/>
<rect x="155" y="228" width="11" height="10" fill="#273552"/>
<rect x="184" y="186" width="12" height="11" fill="#273552"/>
<rect x="237" y="301" width="11" height="13" fill="#273552"/>
<rect x="572" y="431" width="1" height="23" fill="#182338"/>
<path fill-rule="evenodd" clip-rule="evenodd" d="M166 203H167V291H177V282H178H201H202V283V310H201V283H178V291V292H177H176V321H175H154V320H175V292H167H166V203Z" fill="#182338"/>
<path d="M560 326H559V343H540V344H560V326Z" fill="#182338"/>
<rect x="493" y="371" width="17" height="1" fill="#182338"/>
<path d="M108 565H130V566H135V567H141V568H147V569H153V566H169V569V577H108V565Z" fill="#273552"/>
</svg>
