<svg width="708" height="708" viewBox="0 0 708 708" fill="none" xmlns="http://www.w3.org/2000/svg">
<g clip-path="url(#clip0)">
<path d="M308.436 632L307.916 630.505H304.445L303.925 632H302.183L305.472 622.9H306.967L310.243 632H308.436ZM306.174 625.5L304.939 629.049H307.422L306.2 625.5H306.174ZM311.314 629.543V626.54H310.248V625.11H311.353V623.42H312.952V625.11H314.694V626.54H312.978V629.387C312.978 629.751 313.038 630.007 313.16 630.154C313.281 630.301 313.528 630.375 313.901 630.375H314.46V632H313.745C312.817 632 312.18 631.805 311.834 631.415C311.487 631.025 311.314 630.401 311.314 629.543ZM316.214 629.543V626.54H315.148V625.11H316.253V623.42H317.852V625.11H319.594V626.54H317.878V629.387C317.878 629.751 317.939 630.007 318.06 630.154C318.181 630.301 318.428 630.375 318.801 630.375H319.36V632H318.645C317.718 632 317.081 631.805 316.734 631.415C316.387 631.025 316.214 630.401 316.214 629.543ZM324.69 632V631.337H324.664C324.646 631.363 324.625 631.398 324.599 631.441C324.573 631.476 324.508 631.541 324.404 631.636C324.3 631.731 324.183 631.818 324.053 631.896C323.923 631.974 323.745 632.043 323.52 632.104C323.294 632.165 323.052 632.195 322.792 632.195C321.96 632.195 321.336 632 320.92 631.61C320.512 631.211 320.309 630.726 320.309 630.154C320.309 629.556 320.486 629.101 320.842 628.789C321.197 628.477 321.799 628.217 322.649 628.009C323.437 627.818 323.931 627.667 324.131 627.554C324.33 627.441 324.43 627.281 324.43 627.073C324.43 626.865 324.33 626.692 324.131 626.553C323.94 626.414 323.65 626.345 323.26 626.345C322.8 626.345 322.471 626.449 322.272 626.657C322.072 626.856 321.916 627.129 321.804 627.476L320.4 626.891C320.564 626.31 320.885 625.838 321.362 625.474C321.838 625.101 322.462 624.915 323.234 624.915C324.074 624.915 324.763 625.136 325.301 625.578C325.838 626.02 326.107 626.705 326.107 627.632V632H324.69ZM322.987 629.179C322.553 629.283 322.267 629.409 322.129 629.556C321.999 629.695 321.934 629.855 321.934 630.037C321.934 630.505 322.272 630.739 322.948 630.739C323.459 630.739 323.84 630.644 324.092 630.453C324.352 630.254 324.482 630.011 324.482 629.725V628.529H324.456C324.421 628.598 324.382 628.655 324.339 628.698C324.304 628.733 324.174 628.798 323.949 628.893C323.723 628.98 323.403 629.075 322.987 629.179ZM331.931 629.218L333.53 629.634C333.374 630.457 333.036 631.09 332.516 631.532C331.996 631.974 331.341 632.195 330.553 632.195C329.617 632.195 328.845 631.874 328.239 631.233C327.641 630.592 327.342 629.699 327.342 628.555C327.342 627.42 327.649 626.531 328.265 625.89C328.889 625.24 329.656 624.915 330.566 624.915C331.337 624.915 331.983 625.14 332.503 625.591C333.023 626.042 333.343 626.644 333.465 627.398L331.892 627.697C331.727 626.856 331.285 626.436 330.566 626.436C330.089 626.436 329.708 626.618 329.422 626.982C329.144 627.337 329.006 627.862 329.006 628.555C329.006 629.248 329.144 629.777 329.422 630.141C329.699 630.496 330.08 630.674 330.566 630.674C331.328 630.674 331.783 630.189 331.931 629.218ZM334.83 632V622.51H336.52V627.957H336.546L339.055 625.11H341.174L338.691 627.905L341.395 632H339.523L337.417 628.854H337.391L336.52 629.842V632H334.83ZM346.526 629.621L347.709 630.661C347.007 631.684 346.058 632.195 344.862 632.195C343.9 632.195 343.115 631.866 342.509 631.207C341.902 630.54 341.599 629.656 341.599 628.555C341.599 627.454 341.898 626.575 342.496 625.916C343.102 625.249 343.865 624.915 344.784 624.915C345.702 624.915 346.456 625.249 347.046 625.916C347.644 626.575 347.943 627.454 347.943 628.555V629.062H343.315C343.341 629.591 343.484 629.998 343.744 630.284C344.012 630.561 344.376 630.7 344.836 630.7C345.226 630.7 345.546 630.605 345.798 630.414C346.058 630.215 346.3 629.95 346.526 629.621ZM343.315 627.801H346.305C346.261 627.359 346.11 627.017 345.85 626.774C345.59 626.523 345.234 626.397 344.784 626.397C344.368 626.397 344.025 626.531 343.757 626.8C343.497 627.069 343.349 627.402 343.315 627.801ZM349.303 632V625.11H350.902V625.838H350.928C351.058 625.578 351.248 625.37 351.5 625.214C351.76 625.058 352.041 624.98 352.345 624.98C352.561 624.98 352.769 625.023 352.969 625.11L352.709 626.748C352.518 626.679 352.34 626.644 352.176 626.644C351.387 626.644 350.993 627.168 350.993 628.217V632H349.303ZM353.556 629.725L355.077 629.335C355.198 630.297 355.714 630.778 356.624 630.778C357.04 630.778 357.369 630.713 357.612 630.583C357.863 630.444 357.989 630.254 357.989 630.011C357.989 629.812 357.894 629.664 357.703 629.569C357.512 629.465 357.114 629.326 356.507 629.153C356.342 629.11 356.217 629.075 356.13 629.049C355.333 628.824 354.748 628.559 354.375 628.256C354.002 627.944 353.816 627.532 353.816 627.021C353.816 626.449 354.046 625.955 354.505 625.539C354.973 625.123 355.61 624.915 356.416 624.915C357.959 624.915 358.925 625.591 359.315 626.943L357.911 627.372C357.79 627.043 357.616 626.783 357.391 626.592C357.174 626.401 356.854 626.306 356.429 626.306C356.1 626.306 355.835 626.371 355.636 626.501C355.445 626.622 355.35 626.77 355.35 626.943C355.35 627.134 355.463 627.285 355.688 627.398C355.922 627.502 356.498 627.684 357.417 627.944C358.223 628.161 358.769 628.438 359.055 628.776C359.35 629.105 359.497 629.53 359.497 630.05C359.497 630.605 359.254 631.103 358.769 631.545C358.292 631.978 357.599 632.195 356.689 632.195C355.736 632.195 354.999 631.957 354.479 631.48C353.968 630.995 353.66 630.41 353.556 629.725Z" fill="#24E8CC"/>
<path d="M124.489 523V516.098H127.418C128.029 516.098 128.519 516.279 128.887 516.64C129.261 516.995 129.449 517.432 129.449 517.952C129.449 518.53 129.199 518.967 128.699 519.263V519.273C128.995 519.398 129.235 519.598 129.419 519.874C129.61 520.144 129.705 520.469 129.705 520.851C129.705 521.508 129.505 522.034 129.104 522.428C128.703 522.809 128.042 523 127.122 523H124.489ZM125.82 521.768H127.427C128.059 521.768 128.374 521.462 128.374 520.851C128.374 520.568 128.289 520.351 128.118 520.2C127.953 520.042 127.727 519.963 127.437 519.963H125.82V521.768ZM125.82 518.879H127.25C127.519 518.879 127.73 518.816 127.881 518.691C128.039 518.56 128.118 518.369 128.118 518.119C128.118 517.856 128.042 517.659 127.891 517.528C127.74 517.396 127.526 517.331 127.25 517.331H125.82V518.879ZM133.357 523V516.098H134.688V521.768H137.538V523H133.357ZM139.604 521.58C139.815 521.856 140.104 521.994 140.472 521.994C140.84 521.994 141.129 521.856 141.34 521.58C141.55 521.298 141.655 520.9 141.655 520.387C141.655 519.874 141.547 519.48 141.33 519.204C141.119 518.921 140.833 518.78 140.472 518.78C140.11 518.78 139.821 518.918 139.604 519.194C139.394 519.47 139.289 519.868 139.289 520.387C139.289 520.906 139.394 521.304 139.604 521.58ZM142.227 522.418C141.767 522.905 141.182 523.148 140.472 523.148C139.762 523.148 139.177 522.905 138.717 522.418C138.257 521.932 138.027 521.255 138.027 520.387C138.027 519.533 138.263 518.859 138.736 518.366C139.21 517.873 139.788 517.626 140.472 517.626C141.155 517.626 141.734 517.873 142.207 518.366C142.68 518.859 142.917 519.533 142.917 520.387C142.917 521.255 142.687 521.932 142.227 522.418ZM145.238 519.904V520.86C145.238 521.176 145.337 521.445 145.534 521.669C145.738 521.886 146.014 521.994 146.362 521.994C146.737 521.994 147.026 521.86 147.23 521.59C147.44 521.314 147.545 520.913 147.545 520.387C147.545 519.855 147.44 519.454 147.23 519.184C147.026 518.915 146.737 518.78 146.362 518.78C146.014 518.78 145.738 518.888 145.534 519.105C145.337 519.322 145.238 519.588 145.238 519.904ZM143.956 523V515.802H145.238V518.277H145.258C145.271 518.257 145.287 518.234 145.307 518.208C145.327 518.175 145.376 518.123 145.455 518.05C145.541 517.978 145.629 517.912 145.721 517.853C145.82 517.794 145.945 517.741 146.096 517.695C146.254 517.649 146.418 517.626 146.589 517.626C147.233 517.626 147.766 517.883 148.186 518.395C148.614 518.902 148.827 519.565 148.827 520.387C148.827 521.229 148.62 521.899 148.206 522.399C147.798 522.898 147.25 523.148 146.559 523.148C146.277 523.148 146.02 523.095 145.79 522.99C145.56 522.878 145.403 522.77 145.317 522.665L145.179 522.497H145.159V523H143.956ZM151.141 519.904V520.86C151.141 521.176 151.239 521.445 151.436 521.669C151.64 521.886 151.916 521.994 152.265 521.994C152.639 521.994 152.929 521.86 153.132 521.59C153.343 521.314 153.448 520.913 153.448 520.387C153.448 519.855 153.343 519.454 153.132 519.184C152.929 518.915 152.639 518.78 152.265 518.78C151.916 518.78 151.64 518.888 151.436 519.105C151.239 519.322 151.141 519.588 151.141 519.904ZM149.859 523V515.802H151.141V518.277H151.16C151.174 518.257 151.19 518.234 151.21 518.208C151.229 518.175 151.279 518.123 151.358 518.05C151.443 517.978 151.532 517.912 151.624 517.853C151.722 517.794 151.847 517.741 151.998 517.695C152.156 517.649 152.321 517.626 152.491 517.626C153.136 517.626 153.668 517.883 154.089 518.395C154.516 518.902 154.73 519.565 154.73 520.387C154.73 521.229 154.523 521.899 154.108 522.399C153.701 522.898 153.152 523.148 152.462 523.148C152.179 523.148 151.923 523.095 151.693 522.99C151.463 522.878 151.305 522.77 151.22 522.665L151.081 522.497H151.062V523H149.859ZM155.973 525.218L157.018 522.744L154.928 517.774H156.229L157.58 521.314H157.6L158.951 517.774H160.252L157.245 525.218H155.973Z" fill="#7986A3"/>
<path d="M202.726 468V461.098H205.654C206.266 461.098 206.755 461.279 207.123 461.64C207.498 461.995 207.685 462.432 207.685 462.952C207.685 463.53 207.436 463.967 206.936 464.263V464.273C207.232 464.398 207.472 464.598 207.656 464.874C207.846 465.144 207.942 465.469 207.942 465.851C207.942 466.508 207.741 467.034 207.34 467.428C206.939 467.809 206.279 468 205.358 468H202.726ZM204.057 466.768H205.664C206.295 466.768 206.611 466.462 206.611 465.851C206.611 465.568 206.525 465.351 206.354 465.2C206.19 465.042 205.963 464.963 205.674 464.963H204.057V466.768ZM204.057 463.879H205.487C205.756 463.879 205.967 463.816 206.118 463.691C206.275 463.56 206.354 463.369 206.354 463.119C206.354 462.856 206.279 462.659 206.128 462.528C205.976 462.396 205.763 462.331 205.487 462.331H204.057V463.879ZM211.594 468V461.098H212.925V466.768H215.775V468H211.594ZM216.608 468V462.774H217.89V468H216.608ZM216.608 462.015V460.802H217.89V462.015H216.608ZM219.266 468V462.774H220.498V463.277H220.518C220.663 463.093 220.86 462.939 221.11 462.814C221.359 462.689 221.622 462.626 221.899 462.626C222.477 462.626 222.931 462.801 223.259 463.149C223.588 463.491 223.752 463.967 223.752 464.579V468H222.47V464.894C222.47 464.533 222.401 464.263 222.263 464.086C222.125 463.902 221.889 463.81 221.553 463.81C221.238 463.81 220.991 463.902 220.814 464.086C220.636 464.263 220.548 464.503 220.548 464.805V468H219.266ZM225.082 468V460.802H226.364V464.934H226.383L228.286 462.774H229.893L228.01 464.894L230.061 468H228.641L227.044 465.614H227.024L226.364 466.363V468H225.082Z" fill="#7986A3"/>
<path d="M303.285 468V461.098H306.214C306.825 461.098 307.315 461.279 307.683 461.64C308.058 461.995 308.245 462.432 308.245 462.952C308.245 463.53 307.995 463.967 307.496 464.263V464.273C307.791 464.398 308.031 464.598 308.215 464.874C308.406 465.144 308.501 465.469 308.501 465.851C308.501 466.508 308.301 467.034 307.9 467.428C307.499 467.809 306.838 468 305.918 468H303.285ZM304.617 466.768H306.224C306.855 466.768 307.17 466.462 307.17 465.851C307.17 465.568 307.085 465.351 306.914 465.2C306.75 465.042 306.523 464.963 306.234 464.963H304.617V466.768ZM304.617 463.879H306.046C306.316 463.879 306.526 463.816 306.677 463.691C306.835 463.56 306.914 463.369 306.914 463.119C306.914 462.856 306.838 462.659 306.687 462.528C306.536 462.396 306.322 462.331 306.046 462.331H304.617V463.879ZM310.823 466.58C311.033 466.856 311.322 466.994 311.69 466.994C312.058 466.994 312.348 466.856 312.558 466.58C312.768 466.298 312.873 465.9 312.873 465.387C312.873 464.874 312.765 464.48 312.548 464.204C312.338 463.921 312.052 463.78 311.69 463.78C311.329 463.78 311.039 463.918 310.823 464.194C310.612 464.47 310.507 464.868 310.507 465.387C310.507 465.906 310.612 466.304 310.823 466.58ZM313.445 467.418C312.985 467.905 312.4 468.148 311.69 468.148C310.98 468.148 310.395 467.905 309.935 467.418C309.475 466.932 309.245 466.255 309.245 465.387C309.245 464.533 309.482 463.859 309.955 463.366C310.428 462.873 311.007 462.626 311.69 462.626C312.374 462.626 312.952 462.873 313.426 463.366C313.899 463.859 314.135 464.533 314.135 465.387C314.135 466.255 313.905 466.932 313.445 467.418ZM315.441 466.136V463.859H314.632V462.774H315.471V461.492H316.683V462.774H318.005V463.859H316.703V466.018C316.703 466.294 316.749 466.488 316.841 466.6C316.933 466.712 317.12 466.768 317.403 466.768H317.827V468H317.285C316.581 468 316.098 467.852 315.835 467.556C315.572 467.261 315.441 466.787 315.441 466.136ZM319.158 466.136V463.859H318.349V462.774H319.187V461.492H320.4V462.774H321.721V463.859H320.42V466.018C320.42 466.294 320.466 466.488 320.558 466.6C320.65 466.712 320.837 466.768 321.12 466.768H321.544V468H321.001C320.298 468 319.815 467.852 319.552 467.556C319.289 467.261 319.158 466.787 319.158 466.136ZM323.937 466.58C324.147 466.856 324.437 466.994 324.805 466.994C325.173 466.994 325.462 466.856 325.672 466.58C325.883 466.298 325.988 465.9 325.988 465.387C325.988 464.874 325.879 464.48 325.662 464.204C325.452 463.921 325.166 463.78 324.805 463.78C324.443 463.78 324.154 463.918 323.937 464.194C323.727 464.47 323.621 464.868 323.621 465.387C323.621 465.906 323.727 466.304 323.937 466.58ZM326.56 467.418C326.1 467.905 325.515 468.148 324.805 468.148C324.095 468.148 323.51 467.905 323.05 467.418C322.589 466.932 322.359 466.255 322.359 465.387C322.359 464.533 322.596 463.859 323.069 463.366C323.543 462.873 324.121 462.626 324.805 462.626C325.488 462.626 326.067 462.873 326.54 463.366C327.013 463.859 327.25 464.533 327.25 465.387C327.25 466.255 327.02 466.932 326.56 467.418ZM328.289 468V462.774H329.463V463.277H329.482C329.601 463.093 329.771 462.939 329.995 462.814C330.225 462.689 330.475 462.626 330.744 462.626C331.02 462.626 331.28 462.692 331.523 462.824C331.766 462.948 331.951 463.113 332.075 463.317H332.095C332.227 463.113 332.414 462.948 332.657 462.824C332.9 462.692 333.167 462.626 333.456 462.626C334.08 462.626 334.573 462.791 334.935 463.119C335.303 463.448 335.487 463.882 335.487 464.421V468H334.314V464.687C334.314 464.431 334.238 464.22 334.087 464.056C333.942 463.892 333.715 463.81 333.406 463.81C333.117 463.81 332.894 463.885 332.736 464.036C332.585 464.187 332.509 464.381 332.509 464.618V468H331.336V464.687C331.336 464.437 331.257 464.23 331.099 464.066C330.942 463.895 330.718 463.81 330.429 463.81C330.133 463.81 329.91 463.885 329.758 464.036C329.607 464.187 329.532 464.381 329.532 464.618V468H328.289ZM339.384 468V461.098H340.754L342.756 465.574H342.776L344.777 461.098H346.158V468H344.856V463.76H344.836L342.874 468H342.657L340.695 463.76H340.676V468H339.384ZM347.634 468V462.774H348.915V468H347.634ZM347.634 462.015V460.802H348.915V462.015H347.634ZM353.535 465.86V464.904C353.535 464.588 353.433 464.322 353.229 464.105C353.032 463.888 352.759 463.78 352.411 463.78C352.036 463.78 351.744 463.915 351.533 464.184C351.33 464.454 351.228 464.855 351.228 465.387C351.228 465.913 351.33 466.314 351.533 466.59C351.744 466.86 352.036 466.994 352.411 466.994C352.759 466.994 353.032 466.886 353.229 466.669C353.433 466.445 353.535 466.176 353.535 465.86ZM353.614 468V467.497H353.594C353.561 467.543 353.512 467.602 353.446 467.675C353.387 467.747 353.236 467.846 352.993 467.97C352.756 468.089 352.496 468.148 352.214 468.148C351.524 468.148 350.971 467.898 350.557 467.399C350.15 466.899 349.946 466.229 349.946 465.387C349.946 464.539 350.169 463.869 350.616 463.376C351.063 462.876 351.589 462.626 352.194 462.626C352.47 462.626 352.717 462.682 352.934 462.794C353.157 462.899 353.308 463.004 353.387 463.109L353.515 463.277H353.535V460.802H354.817V468H353.614Z" fill="#7986A3"/>
<path d="M483.247 480L482.852 478.866H480.22L479.825 480H478.504L480.999 473.098H482.133L484.617 480H483.247ZM481.531 475.07L480.594 477.762H482.478L481.551 475.07H481.531ZM487.476 477.693L488.876 477.387C488.961 477.926 489.099 478.317 489.29 478.56C489.487 478.797 489.806 478.915 490.246 478.915C490.621 478.915 490.92 478.85 491.143 478.718C491.367 478.58 491.479 478.38 491.479 478.117C491.479 477.841 491.37 477.63 491.153 477.486C490.943 477.335 490.457 477.141 489.694 476.904C488.978 476.68 488.468 476.411 488.166 476.095C487.87 475.773 487.722 475.379 487.722 474.912C487.722 474.373 487.929 473.913 488.343 473.532C488.764 473.144 489.333 472.95 490.049 472.95C490.7 472.95 491.258 473.108 491.725 473.423C492.198 473.739 492.494 474.209 492.613 474.833L491.321 475.159C491.117 474.508 490.693 474.183 490.049 474.183C489.707 474.183 489.451 474.248 489.28 474.38C489.116 474.511 489.033 474.686 489.033 474.902C489.033 475.106 489.129 475.264 489.319 475.376C489.51 475.481 490 475.668 490.788 475.938C491.551 476.201 492.074 476.487 492.356 476.796C492.639 477.098 492.78 477.509 492.78 478.028C492.78 478.639 492.55 479.145 492.09 479.546C491.63 479.947 491.015 480.148 490.246 480.148C489.464 480.148 488.83 479.944 488.343 479.537C487.863 479.122 487.574 478.508 487.476 477.693ZM497.105 478.196L498.003 478.984C497.47 479.76 496.75 480.148 495.843 480.148C495.114 480.148 494.519 479.898 494.059 479.399C493.598 478.892 493.368 478.222 493.368 477.387C493.368 476.552 493.595 475.885 494.049 475.386C494.509 474.879 495.087 474.626 495.784 474.626C496.481 474.626 497.053 474.879 497.5 475.386C497.953 475.885 498.18 476.552 498.18 477.387V477.772H494.67C494.69 478.173 494.798 478.482 494.995 478.698C495.199 478.909 495.475 479.014 495.824 479.014C496.119 479.014 496.363 478.942 496.553 478.797C496.75 478.646 496.934 478.445 497.105 478.196ZM494.67 476.815H496.938C496.905 476.48 496.79 476.22 496.593 476.036C496.395 475.846 496.126 475.75 495.784 475.75C495.469 475.75 495.209 475.852 495.005 476.056C494.808 476.26 494.696 476.513 494.67 476.815ZM499.971 480L498.817 474.774H500.069L500.76 478.265H500.789L501.953 474.774H503.116L504.191 478.255H504.211L504.999 474.774H506.232L504.98 480H503.718L502.524 476.243H502.505L501.213 480H499.971ZM510.509 478.196L511.406 478.984C510.873 479.76 510.154 480.148 509.247 480.148C508.517 480.148 507.922 479.898 507.462 479.399C507.002 478.892 506.772 478.222 506.772 477.387C506.772 476.552 506.998 475.885 507.452 475.386C507.912 474.879 508.491 474.626 509.187 474.626C509.884 474.626 510.456 474.879 510.903 475.386C511.357 475.885 511.583 476.552 511.583 477.387V477.772H508.073C508.093 478.173 508.201 478.482 508.399 478.698C508.602 478.909 508.878 479.014 509.227 479.014C509.523 479.014 509.766 478.942 509.956 478.797C510.154 478.646 510.338 478.445 510.509 478.196ZM508.073 476.815H510.341C510.308 476.48 510.193 476.22 509.996 476.036C509.799 475.846 509.529 475.75 509.187 475.75C508.872 475.75 508.612 475.852 508.408 476.056C508.211 476.26 508.1 476.513 508.073 476.815ZM512.615 480V474.774H513.828V475.326H513.847C513.946 475.129 514.091 474.971 514.281 474.853C514.478 474.735 514.692 474.676 514.922 474.676C515.086 474.676 515.244 474.709 515.395 474.774L515.198 476.017C515.054 475.964 514.919 475.938 514.794 475.938C514.196 475.938 513.897 476.335 513.897 477.131V480H512.615Z" fill="#7986A3"/>
<path d="M602.589 489L602.194 487.866H599.562L599.167 489H597.846L600.341 482.098H601.474L603.959 489H602.589ZM600.873 484.07L599.936 486.762H601.82L600.893 484.07H600.873ZM607.261 489V482.098H608.592V487.768H611.442V489H607.261ZM613.508 487.58C613.718 487.856 614.007 487.994 614.376 487.994C614.744 487.994 615.033 487.856 615.243 487.58C615.454 487.298 615.559 486.9 615.559 486.387C615.559 485.874 615.45 485.48 615.233 485.204C615.023 484.921 614.737 484.78 614.376 484.78C614.014 484.78 613.725 484.918 613.508 485.194C613.298 485.47 613.192 485.868 613.192 486.387C613.192 486.906 613.298 487.304 613.508 487.58ZM616.131 488.418C615.67 488.905 615.085 489.148 614.376 489.148C613.666 489.148 613.081 488.905 612.62 488.418C612.16 487.932 611.93 487.255 611.93 486.387C611.93 485.533 612.167 484.859 612.64 484.366C613.113 483.873 613.692 483.626 614.376 483.626C615.059 483.626 615.638 483.873 616.111 484.366C616.584 484.859 616.821 485.533 616.821 486.387C616.821 487.255 616.591 487.932 616.131 488.418ZM619.142 485.904V486.86C619.142 487.176 619.24 487.445 619.438 487.669C619.641 487.886 619.918 487.994 620.266 487.994C620.641 487.994 620.93 487.86 621.134 487.59C621.344 487.314 621.449 486.913 621.449 486.387C621.449 485.855 621.344 485.454 621.134 485.184C620.93 484.915 620.641 484.78 620.266 484.78C619.918 484.78 619.641 484.888 619.438 485.105C619.24 485.322 619.142 485.588 619.142 485.904ZM617.86 489V481.802H619.142V484.277H619.162C619.175 484.257 619.191 484.234 619.211 484.208C619.231 484.175 619.28 484.123 619.359 484.05C619.444 483.978 619.533 483.912 619.625 483.853C619.724 483.794 619.849 483.741 620 483.695C620.157 483.649 620.322 483.626 620.493 483.626C621.137 483.626 621.669 483.883 622.09 484.395C622.517 484.902 622.731 485.565 622.731 486.387C622.731 487.229 622.524 487.899 622.11 488.399C621.702 488.898 621.153 489.148 620.463 489.148C620.18 489.148 619.924 489.095 619.694 488.99C619.464 488.878 619.306 488.77 619.221 488.665L619.083 488.497H619.063V489H617.86ZM625.044 485.904V486.86C625.044 487.176 625.143 487.445 625.34 487.669C625.544 487.886 625.82 487.994 626.168 487.994C626.543 487.994 626.832 487.86 627.036 487.59C627.246 487.314 627.352 486.913 627.352 486.387C627.352 485.855 627.246 485.454 627.036 485.184C626.832 484.915 626.543 484.78 626.168 484.78C625.82 484.78 625.544 484.888 625.34 485.105C625.143 485.322 625.044 485.588 625.044 485.904ZM623.763 489V481.802H625.044V484.277H625.064C625.077 484.257 625.094 484.234 625.113 484.208C625.133 484.175 625.182 484.123 625.261 484.05C625.347 483.978 625.435 483.912 625.527 483.853C625.626 483.794 625.751 483.741 625.902 483.695C626.06 483.649 626.224 483.626 626.395 483.626C627.039 483.626 627.572 483.883 627.992 484.395C628.42 484.902 628.633 485.565 628.633 486.387C628.633 487.229 628.426 487.899 628.012 488.399C627.605 488.898 627.056 489.148 626.366 489.148C626.083 489.148 625.827 489.095 625.597 488.99C625.366 488.878 625.209 488.77 625.123 488.665L624.985 488.497H624.965V489H623.763ZM629.877 491.218L630.922 488.744L628.832 483.774H630.133L631.484 487.314H631.504L632.854 483.774H634.156L631.149 491.218H629.877Z" fill="#7986A3"/>
<path d="M553.376 366L552.982 364.866H550.349L549.955 366H548.634L551.128 359.098H552.262L554.747 366H553.376ZM551.661 361.07L550.724 363.762H552.607L551.68 361.07H551.661ZM558.049 366V359.098H559.419L561.421 363.574H561.44L563.442 359.098H564.822V366H563.521V361.76H563.501L561.539 366H561.322L559.36 361.76H559.34V366H558.049ZM569.276 366V365.497H569.256C569.243 365.517 569.227 365.543 569.207 365.576C569.187 365.602 569.138 365.652 569.059 365.724C568.98 365.796 568.891 365.862 568.793 365.921C568.694 365.98 568.559 366.033 568.389 366.079C568.218 366.125 568.034 366.148 567.836 366.148C567.205 366.148 566.732 366 566.417 365.704C566.108 365.402 565.953 365.034 565.953 364.6C565.953 364.146 566.088 363.801 566.357 363.565C566.627 363.328 567.084 363.131 567.728 362.973C568.326 362.828 568.701 362.713 568.852 362.628C569.003 362.542 569.079 362.421 569.079 362.263C569.079 362.105 569.003 361.974 568.852 361.869C568.707 361.764 568.487 361.711 568.191 361.711C567.843 361.711 567.593 361.79 567.442 361.948C567.291 362.099 567.172 362.306 567.087 362.569L566.022 362.125C566.147 361.685 566.39 361.326 566.752 361.05C567.113 360.768 567.587 360.626 568.172 360.626C568.809 360.626 569.332 360.794 569.739 361.129C570.147 361.464 570.351 361.984 570.351 362.687V366H569.276ZM567.984 363.86C567.656 363.939 567.439 364.035 567.333 364.146C567.235 364.252 567.186 364.373 567.186 364.511C567.186 364.866 567.442 365.044 567.955 365.044C568.342 365.044 568.632 364.971 568.822 364.827C569.02 364.675 569.118 364.491 569.118 364.275V363.367H569.098C569.072 363.42 569.043 363.463 569.01 363.496C568.983 363.522 568.885 363.571 568.714 363.643C568.543 363.709 568.3 363.782 567.984 363.86ZM571.633 366V360.774H572.914V366H571.633ZM571.633 360.015V358.802H572.914V360.015H571.633ZM574.29 366V360.774H575.523V361.277H575.542C575.687 361.093 575.884 360.939 576.134 360.814C576.384 360.689 576.647 360.626 576.923 360.626C577.501 360.626 577.955 360.801 578.283 361.149C578.612 361.491 578.776 361.967 578.776 362.579V366H577.495V362.894C577.495 362.533 577.426 362.263 577.288 362.086C577.15 361.902 576.913 361.81 576.578 361.81C576.262 361.81 576.016 361.902 575.838 362.086C575.661 362.263 575.572 362.503 575.572 362.805V366H574.29Z" fill="#7986A3"/>
<path d="M466.383 363L465.989 361.866H463.356L462.962 363H461.64L464.135 356.098H465.269L467.754 363H466.383ZM464.667 358.07L463.731 360.762H465.614L464.687 358.07H464.667ZM471.055 363V356.098H473.856C474.566 356.098 475.137 356.299 475.571 356.7C476.012 357.094 476.232 357.626 476.232 358.297C476.232 358.796 476.1 359.22 475.838 359.569C475.581 359.917 475.226 360.164 474.773 360.308L476.242 363H474.802L473.412 360.436H472.387V363H471.055ZM472.387 359.283H473.747C474.503 359.283 474.881 358.954 474.881 358.297C474.881 357.633 474.503 357.301 473.747 357.301H472.387V359.283ZM480.203 363V362.497H480.183C480.17 362.517 480.154 362.543 480.134 362.576C480.114 362.602 480.065 362.652 479.986 362.724C479.907 362.796 479.818 362.862 479.72 362.921C479.621 362.98 479.486 363.033 479.316 363.079C479.145 363.125 478.961 363.148 478.763 363.148C478.132 363.148 477.659 363 477.344 362.704C477.035 362.402 476.88 362.034 476.88 361.6C476.88 361.146 477.015 360.801 477.284 360.565C477.554 360.328 478.011 360.131 478.655 359.973C479.253 359.828 479.628 359.713 479.779 359.628C479.93 359.542 480.006 359.421 480.006 359.263C480.006 359.105 479.93 358.974 479.779 358.869C479.634 358.764 479.414 358.711 479.118 358.711C478.77 358.711 478.52 358.79 478.369 358.948C478.218 359.099 478.099 359.306 478.014 359.569L476.949 359.125C477.074 358.685 477.317 358.326 477.679 358.05C478.04 357.768 478.514 357.626 479.099 357.626C479.736 357.626 480.259 357.794 480.666 358.129C481.074 358.464 481.278 358.984 481.278 359.687V363H480.203ZM478.911 360.86C478.583 360.939 478.366 361.035 478.261 361.146C478.162 361.252 478.113 361.373 478.113 361.511C478.113 361.866 478.369 362.044 478.882 362.044C479.27 362.044 479.559 361.971 479.749 361.827C479.947 361.675 480.045 361.491 480.045 361.275V360.367H480.025C479.999 360.42 479.97 360.463 479.937 360.496C479.91 360.522 479.812 360.571 479.641 360.643C479.47 360.709 479.227 360.782 478.911 360.86ZM482.56 363V357.774H483.733V358.277H483.753C483.871 358.093 484.042 357.939 484.265 357.814C484.495 357.689 484.745 357.626 485.015 357.626C485.291 357.626 485.55 357.692 485.794 357.824C486.037 357.948 486.221 358.113 486.346 358.317H486.366C486.497 358.113 486.684 357.948 486.928 357.824C487.171 357.692 487.437 357.626 487.726 357.626C488.351 357.626 488.844 357.791 489.205 358.119C489.573 358.448 489.757 358.882 489.757 359.421V363H488.584V359.687C488.584 359.431 488.508 359.22 488.357 359.056C488.213 358.892 487.986 358.81 487.677 358.81C487.388 358.81 487.164 358.885 487.006 359.036C486.855 359.187 486.78 359.381 486.78 359.618V363H485.606V359.687C485.606 359.437 485.527 359.23 485.37 359.066C485.212 358.895 484.988 358.81 484.699 358.81C484.403 358.81 484.18 358.885 484.029 359.036C483.878 359.187 483.802 359.381 483.802 359.618V363H482.56ZM492.373 359.845V360.92C492.373 361.222 492.474 361.478 492.678 361.689C492.882 361.892 493.155 361.994 493.497 361.994C493.871 361.994 494.177 361.856 494.414 361.58C494.657 361.304 494.778 360.906 494.778 360.387C494.778 359.868 494.66 359.47 494.423 359.194C494.187 358.918 493.878 358.78 493.497 358.78C493.155 358.78 492.882 358.885 492.678 359.095C492.474 359.299 492.373 359.549 492.373 359.845ZM491.091 365.218V357.774H492.313V358.277H492.333C492.346 358.257 492.363 358.234 492.382 358.208C492.402 358.175 492.451 358.123 492.53 358.05C492.616 357.978 492.708 357.912 492.806 357.853C492.905 357.794 493.036 357.741 493.201 357.695C493.372 357.649 493.552 357.626 493.743 357.626C494.361 357.626 494.9 357.876 495.36 358.376C495.827 358.869 496.06 359.539 496.06 360.387C496.06 361.242 495.837 361.915 495.39 362.408C494.943 362.901 494.4 363.148 493.763 363.148C493.572 363.148 493.395 363.125 493.23 363.079C493.073 363.033 492.944 362.98 492.846 362.921C492.747 362.855 492.662 362.793 492.589 362.734C492.517 362.668 492.465 362.612 492.432 362.566L492.392 362.497H492.373V365.218H491.091Z" fill="#7986A3"/>
<path d="M517.878 271L517.484 269.866H514.851L514.457 271H513.135L515.63 264.098H516.764L519.249 271H517.878ZM516.162 266.07L515.226 268.762H517.109L516.182 266.07H516.162ZM522.551 271V264.098H525.351C526.061 264.098 526.633 264.299 527.066 264.7C527.507 265.094 527.727 265.626 527.727 266.297C527.727 266.796 527.596 267.22 527.333 267.569C527.076 267.917 526.721 268.164 526.268 268.308L527.737 271H526.297L524.907 268.436H523.882V271H522.551ZM523.882 267.283H525.242C525.998 267.283 526.376 266.954 526.376 266.297C526.376 265.633 525.998 265.301 525.242 265.301H523.882V267.283ZM531.698 271V270.497H531.678C531.665 270.517 531.649 270.543 531.629 270.576C531.609 270.602 531.56 270.652 531.481 270.724C531.402 270.796 531.313 270.862 531.215 270.921C531.116 270.98 530.982 271.033 530.811 271.079C530.64 271.125 530.456 271.148 530.258 271.148C529.627 271.148 529.154 271 528.839 270.704C528.53 270.402 528.375 270.034 528.375 269.6C528.375 269.146 528.51 268.801 528.779 268.565C529.049 268.328 529.506 268.131 530.15 267.973C530.748 267.828 531.123 267.713 531.274 267.628C531.425 267.542 531.501 267.421 531.501 267.263C531.501 267.105 531.425 266.974 531.274 266.869C531.129 266.764 530.909 266.711 530.613 266.711C530.265 266.711 530.015 266.79 529.864 266.948C529.713 267.099 529.595 267.306 529.509 267.569L528.444 267.125C528.569 266.685 528.812 266.326 529.174 266.05C529.535 265.768 530.009 265.626 530.594 265.626C531.231 265.626 531.754 265.794 532.161 266.129C532.569 266.464 532.773 266.984 532.773 267.687V271H531.698ZM530.406 268.86C530.078 268.939 529.861 269.035 529.756 269.146C529.657 269.252 529.608 269.373 529.608 269.511C529.608 269.866 529.864 270.044 530.377 270.044C530.765 270.044 531.054 269.971 531.244 269.827C531.442 269.675 531.54 269.491 531.54 269.275V268.367H531.521C531.494 268.42 531.465 268.463 531.432 268.496C531.406 268.522 531.307 268.571 531.136 268.643C530.965 268.709 530.722 268.782 530.406 268.86ZM534.321 271V266.859H533.512V265.774H534.35V265.035C534.35 264.588 534.466 264.272 534.696 264.088C534.932 263.898 535.274 263.802 535.721 263.802H536.746V264.936H535.987C535.829 264.936 535.718 264.969 535.652 265.035C535.593 265.094 535.563 265.199 535.563 265.35V265.774H536.884V266.859H535.603V271H534.321ZM537.845 269.136V266.859H537.037V265.774H537.875V264.492H539.087V265.774H540.409V266.859H539.107V269.018C539.107 269.294 539.153 269.488 539.245 269.6C539.337 269.712 539.525 269.768 539.807 269.768H540.231V271H539.689C538.986 271 538.502 270.852 538.239 270.556C537.977 270.261 537.845 269.787 537.845 269.136ZM544.784 269.196L545.681 269.984C545.148 270.76 544.429 271.148 543.522 271.148C542.792 271.148 542.197 270.898 541.737 270.399C541.277 269.892 541.047 269.222 541.047 268.387C541.047 267.552 541.274 266.885 541.727 266.386C542.187 265.879 542.766 265.626 543.462 265.626C544.159 265.626 544.731 265.879 545.178 266.386C545.632 266.885 545.858 267.552 545.858 268.387V268.772H542.348C542.368 269.173 542.476 269.482 542.674 269.698C542.877 269.909 543.153 270.014 543.502 270.014C543.798 270.014 544.041 269.942 544.232 269.797C544.429 269.646 544.613 269.445 544.784 269.196ZM542.348 267.815H544.616C544.583 267.48 544.468 267.22 544.271 267.036C544.074 266.846 543.804 266.75 543.462 266.75C543.147 266.75 542.887 266.852 542.684 267.056C542.486 267.26 542.375 267.513 542.348 267.815ZM546.89 271V265.774H548.103V266.326H548.122C548.221 266.129 548.366 265.971 548.556 265.853C548.753 265.735 548.967 265.676 549.197 265.676C549.361 265.676 549.519 265.709 549.67 265.774L549.473 267.017C549.329 266.964 549.194 266.938 549.069 266.938C548.471 266.938 548.172 267.335 548.172 268.131V271H546.89ZM550.116 269.275L551.27 268.979C551.362 269.708 551.753 270.073 552.443 270.073C552.758 270.073 553.008 270.024 553.192 269.925C553.383 269.82 553.478 269.675 553.478 269.491C553.478 269.34 553.406 269.229 553.261 269.156C553.117 269.077 552.814 268.972 552.354 268.841C552.229 268.808 552.134 268.782 552.068 268.762C551.463 268.591 551.02 268.39 550.737 268.16C550.454 267.924 550.313 267.611 550.313 267.224C550.313 266.79 550.487 266.415 550.836 266.1C551.191 265.784 551.674 265.626 552.285 265.626C553.455 265.626 554.188 266.139 554.484 267.164L553.419 267.49C553.327 267.24 553.196 267.043 553.025 266.898C552.86 266.754 552.617 266.681 552.295 266.681C552.045 266.681 551.845 266.731 551.694 266.829C551.549 266.921 551.477 267.033 551.477 267.164C551.477 267.309 551.562 267.424 551.733 267.51C551.91 267.588 552.348 267.727 553.044 267.924C553.656 268.088 554.07 268.298 554.287 268.555C554.51 268.805 554.622 269.127 554.622 269.521C554.622 269.942 554.438 270.32 554.07 270.655C553.708 270.984 553.182 271.148 552.492 271.148C551.769 271.148 551.21 270.967 550.816 270.606C550.428 270.237 550.195 269.794 550.116 269.275Z" fill="#7986A3"/>
<path d="M457.594 193L457.2 191.866H454.567L454.173 193H452.851L455.346 186.098H456.48L458.965 193H457.594ZM455.878 188.07L454.942 190.762H456.825L455.898 188.07H455.878ZM462.267 193V186.098H463.598V188.879H465.964V186.098H467.295V193H465.964V190.012H463.598V193H462.267ZM472.165 191.196L473.062 191.984C472.53 192.76 471.81 193.148 470.903 193.148C470.173 193.148 469.579 192.898 469.118 192.399C468.658 191.892 468.428 191.222 468.428 190.387C468.428 189.552 468.655 188.885 469.109 188.386C469.569 187.879 470.147 187.626 470.844 187.626C471.541 187.626 472.113 187.879 472.559 188.386C473.013 188.885 473.24 189.552 473.24 190.387V190.772H469.73C469.749 191.173 469.858 191.482 470.055 191.698C470.259 191.909 470.535 192.014 470.883 192.014C471.179 192.014 471.422 191.942 471.613 191.797C471.81 191.646 471.994 191.445 472.165 191.196ZM469.73 189.815H471.997C471.965 189.48 471.85 189.22 471.652 189.036C471.455 188.846 471.186 188.75 470.844 188.75C470.528 188.75 470.269 188.852 470.065 189.056C469.868 189.26 469.756 189.513 469.73 189.815ZM477.249 193V192.497H477.229C477.216 192.517 477.2 192.543 477.18 192.576C477.16 192.602 477.111 192.652 477.032 192.724C476.953 192.796 476.864 192.862 476.766 192.921C476.667 192.98 476.533 193.033 476.362 193.079C476.191 193.125 476.007 193.148 475.809 193.148C475.178 193.148 474.705 193 474.39 192.704C474.081 192.402 473.926 192.034 473.926 191.6C473.926 191.146 474.061 190.801 474.331 190.565C474.6 190.328 475.057 190.131 475.701 189.973C476.299 189.828 476.674 189.713 476.825 189.628C476.976 189.542 477.052 189.421 477.052 189.263C477.052 189.105 476.976 188.974 476.825 188.869C476.68 188.764 476.46 188.711 476.164 188.711C475.816 188.711 475.566 188.79 475.415 188.948C475.264 189.099 475.146 189.306 475.06 189.569L473.995 189.125C474.12 188.685 474.363 188.326 474.725 188.05C475.086 187.768 475.56 187.626 476.145 187.626C476.782 187.626 477.305 187.794 477.712 188.129C478.12 188.464 478.324 188.984 478.324 189.687V193H477.249ZM475.957 190.86C475.629 190.939 475.412 191.035 475.307 191.146C475.208 191.252 475.159 191.373 475.159 191.511C475.159 191.866 475.415 192.044 475.928 192.044C476.316 192.044 476.605 191.971 476.795 191.827C476.993 191.675 477.091 191.491 477.091 191.275V190.367H477.072C477.045 190.42 477.016 190.463 476.983 190.496C476.957 190.522 476.858 190.571 476.687 190.643C476.516 190.709 476.273 190.782 475.957 190.86ZM480.806 193L478.716 187.774H480.047L481.348 191.136H481.368L482.669 187.774H483.981L481.891 193H480.806ZM487.966 191.196L488.863 191.984C488.331 192.76 487.611 193.148 486.704 193.148C485.974 193.148 485.379 192.898 484.919 192.399C484.459 191.892 484.229 191.222 484.229 190.387C484.229 189.552 484.456 188.885 484.909 188.386C485.37 187.879 485.948 187.626 486.645 187.626C487.342 187.626 487.913 187.879 488.36 188.386C488.814 188.885 489.041 189.552 489.041 190.387V190.772H485.531C485.55 191.173 485.659 191.482 485.856 191.698C486.06 191.909 486.336 192.014 486.684 192.014C486.98 192.014 487.223 191.942 487.414 191.797C487.611 191.646 487.795 191.445 487.966 191.196ZM485.531 189.815H487.798C487.766 189.48 487.65 189.22 487.453 189.036C487.256 188.846 486.987 188.75 486.645 188.75C486.329 188.75 486.07 188.852 485.866 189.056C485.669 189.26 485.557 189.513 485.531 189.815ZM490.072 193V187.774H491.305V188.277H491.324C491.469 188.093 491.666 187.939 491.916 187.814C492.166 187.689 492.429 187.626 492.705 187.626C493.283 187.626 493.737 187.801 494.066 188.149C494.394 188.491 494.559 188.967 494.559 189.579V193H493.277V189.894C493.277 189.533 493.208 189.263 493.07 189.086C492.932 188.902 492.695 188.81 492.36 188.81C492.044 188.81 491.798 188.902 491.62 189.086C491.443 189.263 491.354 189.503 491.354 189.805V193H490.072Z" fill="#7986A3"/>
<path d="M606.837 157V150.098H611.205V151.331H608.168V152.879H610.928V154.062H608.168V155.768H611.205V157H606.837ZM612.438 157V149.802H613.769V157H612.438ZM616.435 153.904V154.86C616.435 155.176 616.534 155.445 616.731 155.669C616.935 155.886 617.211 155.994 617.559 155.994C617.934 155.994 618.223 155.86 618.427 155.59C618.637 155.314 618.743 154.913 618.743 154.387C618.743 153.855 618.637 153.454 618.427 153.184C618.223 152.915 617.934 152.78 617.559 152.78C617.211 152.78 616.935 152.888 616.731 153.105C616.534 153.322 616.435 153.588 616.435 153.904ZM615.154 157V149.802H616.435V152.277H616.455C616.468 152.257 616.485 152.234 616.504 152.208C616.524 152.175 616.573 152.123 616.652 152.05C616.738 151.978 616.827 151.912 616.919 151.853C617.017 151.794 617.142 151.741 617.293 151.695C617.451 151.649 617.615 151.626 617.786 151.626C618.43 151.626 618.963 151.883 619.384 152.395C619.811 152.902 620.024 153.565 620.024 154.387C620.024 155.229 619.817 155.899 619.403 156.399C618.996 156.898 618.447 157.148 617.757 157.148C617.474 157.148 617.218 157.095 616.988 156.99C616.757 156.878 616.6 156.77 616.514 156.665L616.376 156.497H616.357V157H615.154ZM622.289 155.58C622.499 155.856 622.788 155.994 623.156 155.994C623.524 155.994 623.814 155.856 624.024 155.58C624.234 155.298 624.339 154.9 624.339 154.387C624.339 153.874 624.231 153.48 624.014 153.204C623.804 152.921 623.518 152.78 623.156 152.78C622.795 152.78 622.506 152.918 622.289 153.194C622.078 153.47 621.973 153.868 621.973 154.387C621.973 154.906 622.078 155.304 622.289 155.58ZM624.911 156.418C624.451 156.905 623.866 157.148 623.156 157.148C622.446 157.148 621.861 156.905 621.401 156.418C620.941 155.932 620.711 155.255 620.711 154.387C620.711 153.533 620.948 152.859 621.421 152.366C621.894 151.873 622.473 151.626 623.156 151.626C623.84 151.626 624.418 151.873 624.892 152.366C625.365 152.859 625.602 153.533 625.602 154.387C625.602 155.255 625.371 155.932 624.911 156.418ZM627.4 157L626.246 151.774H627.499L628.189 155.265H628.218L629.382 151.774H630.545L631.62 155.255H631.64L632.429 151.774H633.661L632.409 157H631.147L629.954 153.243H629.934L628.642 157H627.4Z" fill="#7986A3"/>
<path d="M555.968 108.693L557.369 108.387C557.454 108.926 557.592 109.317 557.783 109.56C557.98 109.797 558.299 109.915 558.739 109.915C559.114 109.915 559.413 109.85 559.636 109.718C559.86 109.58 559.972 109.38 559.972 109.117C559.972 108.841 559.863 108.63 559.646 108.486C559.436 108.335 558.949 108.141 558.187 107.904C557.47 107.68 556.961 107.411 556.659 107.095C556.363 106.773 556.215 106.379 556.215 105.912C556.215 105.373 556.422 104.913 556.836 104.532C557.257 104.144 557.825 103.95 558.542 103.95C559.193 103.95 559.751 104.108 560.218 104.423C560.691 104.739 560.987 105.209 561.106 105.833L559.814 106.159C559.61 105.508 559.186 105.183 558.542 105.183C558.2 105.183 557.944 105.248 557.773 105.38C557.609 105.511 557.526 105.686 557.526 105.902C557.526 106.106 557.622 106.264 557.812 106.376C558.003 106.481 558.493 106.668 559.281 106.938C560.044 107.201 560.566 107.487 560.849 107.796C561.132 108.098 561.273 108.509 561.273 109.028C561.273 109.639 561.043 110.145 560.583 110.546C560.123 110.947 559.508 111.148 558.739 111.148C557.957 111.148 557.323 110.944 556.836 110.537C556.356 110.122 556.067 109.508 555.968 108.693ZM565.342 108.89L566.555 109.205C566.436 109.83 566.18 110.31 565.786 110.645C565.391 110.98 564.895 111.148 564.297 111.148C563.587 111.148 563.002 110.905 562.542 110.418C562.088 109.932 561.861 109.255 561.861 108.387C561.861 107.526 562.095 106.852 562.561 106.366C563.035 105.873 563.616 105.626 564.307 105.626C564.892 105.626 565.381 105.797 565.776 106.139C566.17 106.481 566.413 106.938 566.505 107.51L565.312 107.736C565.187 107.099 564.852 106.78 564.307 106.78C563.945 106.78 563.656 106.918 563.439 107.194C563.229 107.464 563.123 107.861 563.123 108.387C563.123 108.913 563.229 109.314 563.439 109.59C563.649 109.86 563.938 109.994 564.307 109.994C564.885 109.994 565.23 109.626 565.342 108.89ZM567.541 111V105.774H568.754V106.326H568.773C568.872 106.129 569.016 105.971 569.207 105.853C569.404 105.735 569.618 105.676 569.848 105.676C570.012 105.676 570.17 105.709 570.321 105.774L570.124 107.017C569.979 106.964 569.845 106.938 569.72 106.938C569.122 106.938 568.823 107.335 568.823 108.131V111H567.541ZM574.553 109.196L575.45 109.984C574.918 110.76 574.198 111.148 573.291 111.148C572.561 111.148 571.966 110.898 571.506 110.399C571.046 109.892 570.816 109.222 570.816 108.387C570.816 107.552 571.043 106.885 571.496 106.386C571.957 105.879 572.535 105.626 573.232 105.626C573.929 105.626 574.5 105.879 574.947 106.386C575.401 106.885 575.628 107.552 575.628 108.387V108.772H572.118C572.137 109.173 572.246 109.482 572.443 109.698C572.647 109.909 572.923 110.014 573.271 110.014C573.567 110.014 573.81 109.942 574.001 109.797C574.198 109.646 574.382 109.445 574.553 109.196ZM572.118 107.815H574.385C574.353 107.48 574.238 107.22 574.04 107.036C573.843 106.846 573.574 106.75 573.232 106.75C572.916 106.75 572.657 106.852 572.453 107.056C572.256 107.26 572.144 107.513 572.118 107.815ZM580.051 109.196L580.948 109.984C580.416 110.76 579.696 111.148 578.789 111.148C578.059 111.148 577.465 110.898 577.004 110.399C576.544 109.892 576.314 109.222 576.314 108.387C576.314 107.552 576.541 106.885 576.995 106.386C577.455 105.879 578.033 105.626 578.73 105.626C579.427 105.626 579.999 105.879 580.445 106.386C580.899 106.885 581.126 107.552 581.126 108.387V108.772H577.616C577.635 109.173 577.744 109.482 577.941 109.698C578.145 109.909 578.421 110.014 578.769 110.014C579.065 110.014 579.308 109.942 579.499 109.797C579.696 109.646 579.88 109.445 580.051 109.196ZM577.616 107.815H579.883C579.851 107.48 579.736 107.22 579.538 107.036C579.341 106.846 579.072 106.75 578.73 106.75C578.414 106.75 578.155 106.852 577.951 107.056C577.754 107.26 577.642 107.513 577.616 107.815ZM582.157 111V105.774H583.39V106.277H583.41C583.554 106.093 583.751 105.939 584.001 105.814C584.251 105.689 584.514 105.626 584.79 105.626C585.368 105.626 585.822 105.801 586.151 106.149C586.479 106.491 586.644 106.967 586.644 107.579V111H585.362V107.894C585.362 107.533 585.293 107.263 585.155 107.086C585.017 106.902 584.78 106.81 584.445 106.81C584.129 106.81 583.883 106.902 583.705 107.086C583.528 107.263 583.439 107.503 583.439 107.805V111H582.157ZM587.579 109.275L588.732 108.979C588.824 109.708 589.216 110.073 589.906 110.073C590.221 110.073 590.471 110.024 590.655 109.925C590.846 109.82 590.941 109.675 590.941 109.491C590.941 109.34 590.869 109.229 590.724 109.156C590.579 109.077 590.277 108.972 589.817 108.841C589.692 108.808 589.597 108.782 589.531 108.762C588.926 108.591 588.483 108.39 588.2 108.16C587.917 107.924 587.776 107.611 587.776 107.224C587.776 106.79 587.95 106.415 588.299 106.1C588.653 105.784 589.137 105.626 589.748 105.626C590.918 105.626 591.651 106.139 591.947 107.164L590.882 107.49C590.79 107.24 590.658 107.043 590.487 106.898C590.323 106.754 590.08 106.681 589.758 106.681C589.508 106.681 589.308 106.731 589.156 106.829C589.012 106.921 588.939 107.033 588.939 107.164C588.939 107.309 589.025 107.424 589.196 107.51C589.373 107.588 589.81 107.727 590.507 107.924C591.118 108.088 591.533 108.298 591.75 108.555C591.973 108.805 592.085 109.127 592.085 109.521C592.085 109.942 591.901 110.32 591.533 110.655C591.171 110.984 590.645 111.148 589.955 111.148C589.232 111.148 588.673 110.967 588.279 110.606C587.891 110.237 587.658 109.794 587.579 109.275Z" fill="#7986A3"/>
<path d="M372.626 307V300.098H373.997L375.998 304.574H376.018L378.019 300.098H379.4V307H378.098V302.76H378.079L376.116 307H375.9L373.937 302.76H373.918V307H372.626ZM380.876 307V301.774H382.157V307H380.876ZM380.876 301.015V299.802H382.157V301.015H380.876ZM386.777 304.86V303.904C386.777 303.588 386.675 303.322 386.471 303.105C386.274 302.888 386.001 302.78 385.653 302.78C385.278 302.78 384.986 302.915 384.776 303.184C384.572 303.454 384.47 303.855 384.47 304.387C384.47 304.913 384.572 305.314 384.776 305.59C384.986 305.86 385.278 305.994 385.653 305.994C386.001 305.994 386.274 305.886 386.471 305.669C386.675 305.445 386.777 305.176 386.777 304.86ZM386.856 307V306.497H386.836C386.803 306.543 386.754 306.602 386.688 306.675C386.629 306.747 386.478 306.846 386.235 306.97C385.998 307.089 385.739 307.148 385.456 307.148C384.766 307.148 384.214 306.898 383.799 306.399C383.392 305.899 383.188 305.229 383.188 304.387C383.188 303.539 383.412 302.869 383.859 302.376C384.306 301.876 384.831 301.626 385.436 301.626C385.712 301.626 385.959 301.682 386.176 301.794C386.399 301.899 386.55 302.004 386.629 302.109L386.757 302.277H386.777V299.802H388.059V307H386.856ZM393.754 307L391.26 300.098H392.66L394.366 304.998H394.395L396.052 300.098H397.432L394.967 307H393.754ZM401.118 305.196L402.015 305.984C401.483 306.76 400.763 307.148 399.856 307.148C399.126 307.148 398.531 306.898 398.071 306.399C397.611 305.892 397.381 305.222 397.381 304.387C397.381 303.552 397.608 302.885 398.061 302.386C398.521 301.879 399.1 301.626 399.797 301.626C400.493 301.626 401.065 301.879 401.512 302.386C401.966 302.885 402.193 303.552 402.193 304.387V304.772H398.682C398.702 305.173 398.811 305.482 399.008 305.698C399.212 305.909 399.488 306.014 399.836 306.014C400.132 306.014 400.375 305.942 400.566 305.797C400.763 305.646 400.947 305.445 401.118 305.196ZM398.682 303.815H400.95C400.917 303.48 400.802 303.22 400.605 303.036C400.408 302.846 400.138 302.75 399.797 302.75C399.481 302.75 399.221 302.852 399.018 303.056C398.821 303.26 398.709 303.513 398.682 303.815ZM403.224 307V301.774H404.457V302.277H404.476C404.621 302.093 404.818 301.939 405.068 301.814C405.318 301.689 405.581 301.626 405.857 301.626C406.435 301.626 406.889 301.801 407.217 302.149C407.546 302.491 407.71 302.967 407.71 303.579V307H406.429V303.894C406.429 303.533 406.36 303.263 406.222 303.086C406.084 302.902 405.847 302.81 405.512 302.81C405.196 302.81 404.95 302.902 404.772 303.086C404.595 303.263 404.506 303.503 404.506 303.805V307H403.224ZM409.306 305.136V302.859H408.498V301.774H409.336V300.492H410.549V301.774H411.87V302.859H410.568V305.018C410.568 305.294 410.614 305.488 410.706 305.6C410.798 305.712 410.986 305.768 411.268 305.768H411.692V307H411.15C410.447 307 409.963 306.852 409.701 306.556C409.438 306.261 409.306 305.787 409.306 305.136Z" fill="#7986A3"/>
<path d="M319.244 350V344.331H317.223V343.098H322.596V344.331H320.575V350H319.244ZM323.832 348.58C324.043 348.856 324.332 348.994 324.7 348.994C325.068 348.994 325.357 348.856 325.568 348.58C325.778 348.298 325.883 347.9 325.883 347.387C325.883 346.874 325.775 346.48 325.558 346.204C325.347 345.921 325.061 345.78 324.7 345.78C324.338 345.78 324.049 345.918 323.832 346.194C323.622 346.47 323.517 346.868 323.517 347.387C323.517 347.906 323.622 348.304 323.832 348.58ZM326.455 349.418C325.995 349.905 325.41 350.148 324.7 350.148C323.99 350.148 323.405 349.905 322.945 349.418C322.485 348.932 322.255 348.255 322.255 347.387C322.255 346.533 322.491 345.859 322.965 345.366C323.438 344.873 324.016 344.626 324.7 344.626C325.384 344.626 325.962 344.873 326.435 345.366C326.909 345.859 327.145 346.533 327.145 347.387C327.145 348.255 326.915 348.932 326.455 349.418ZM329.466 346.845V347.92C329.466 348.222 329.568 348.478 329.772 348.689C329.976 348.892 330.249 348.994 330.59 348.994C330.965 348.994 331.271 348.856 331.507 348.58C331.751 348.304 331.872 347.906 331.872 347.387C331.872 346.868 331.754 346.47 331.517 346.194C331.281 345.918 330.972 345.78 330.59 345.78C330.249 345.78 329.976 345.885 329.772 346.095C329.568 346.299 329.466 346.549 329.466 346.845ZM328.185 352.218V344.774H329.407V345.277H329.427C329.44 345.257 329.456 345.234 329.476 345.208C329.496 345.175 329.545 345.123 329.624 345.05C329.71 344.978 329.802 344.912 329.9 344.853C329.999 344.794 330.13 344.741 330.295 344.695C330.465 344.649 330.646 344.626 330.837 344.626C331.455 344.626 331.994 344.876 332.454 345.376C332.921 345.869 333.154 346.539 333.154 347.387C333.154 348.242 332.93 348.915 332.483 349.408C332.036 349.901 331.494 350.148 330.857 350.148C330.666 350.148 330.488 350.125 330.324 350.079C330.166 350.033 330.038 349.98 329.94 349.921C329.841 349.855 329.756 349.793 329.683 349.734C329.611 349.668 329.558 349.612 329.525 349.566L329.486 349.497H329.466V352.218H328.185ZM336.756 350V343.098H338.127L340.129 347.574H340.148L342.15 343.098H343.53V350H342.229V345.76H342.209L340.247 350H340.03L338.068 345.76H338.048V350H336.756ZM345.006 350V344.774H346.288V350H345.006ZM345.006 344.015V342.802H346.288V344.015H345.006ZM350.908 347.86V346.904C350.908 346.588 350.806 346.322 350.602 346.105C350.405 345.888 350.132 345.78 349.784 345.78C349.409 345.78 349.116 345.915 348.906 346.184C348.702 346.454 348.6 346.855 348.6 347.387C348.6 347.913 348.702 348.314 348.906 348.59C349.116 348.86 349.409 348.994 349.784 348.994C350.132 348.994 350.405 348.886 350.602 348.669C350.806 348.445 350.908 348.176 350.908 347.86ZM350.986 350V349.497H350.967C350.934 349.543 350.885 349.602 350.819 349.675C350.76 349.747 350.608 349.846 350.365 349.97C350.129 350.089 349.869 350.148 349.586 350.148C348.896 350.148 348.344 349.898 347.93 349.399C347.522 348.899 347.319 348.229 347.319 347.387C347.319 346.539 347.542 345.869 347.989 345.376C348.436 344.876 348.962 344.626 349.567 344.626C349.843 344.626 350.089 344.682 350.306 344.794C350.53 344.899 350.681 345.004 350.76 345.109L350.888 345.277H350.908V342.802H352.189V350H350.986Z" fill="#7986A3"/>
<path d="M242.574 350V343.098H243.945L245.947 347.574H245.966L247.968 343.098H249.348V350H248.047V345.76H248.027L246.065 350H245.848L243.886 345.76H243.866V350H242.574ZM250.824 350V344.774H252.106V350H250.824ZM250.824 344.015V342.802H252.106V344.015H250.824ZM256.726 347.86V346.904C256.726 346.588 256.624 346.322 256.42 346.105C256.223 345.888 255.95 345.78 255.602 345.78C255.227 345.78 254.934 345.915 254.724 346.184C254.52 346.454 254.418 346.855 254.418 347.387C254.418 347.913 254.52 348.314 254.724 348.59C254.934 348.86 255.227 348.994 255.602 348.994C255.95 348.994 256.223 348.886 256.42 348.669C256.624 348.445 256.726 348.176 256.726 347.86ZM256.804 350V349.497H256.785C256.752 349.543 256.703 349.602 256.637 349.675C256.578 349.747 256.426 349.846 256.183 349.97C255.947 350.089 255.687 350.148 255.404 350.148C254.714 350.148 254.162 349.898 253.748 349.399C253.34 348.899 253.137 348.229 253.137 347.387C253.137 346.539 253.36 345.869 253.807 345.376C254.254 344.876 254.78 344.626 255.385 344.626C255.661 344.626 255.907 344.682 256.124 344.794C256.348 344.899 256.499 345.004 256.578 345.109L256.706 345.277H256.726V342.802H258.007V350H256.804ZM261.948 350V343.098H263.318L265.32 347.574H265.339L267.341 343.098H268.721V350H267.42V345.76H267.4L265.438 350H265.221L263.259 345.76H263.239V350H261.948ZM273.175 350V349.497H273.155C273.142 349.517 273.126 349.543 273.106 349.576C273.086 349.602 273.037 349.652 272.958 349.724C272.879 349.796 272.79 349.862 272.692 349.921C272.593 349.98 272.458 350.033 272.288 350.079C272.117 350.125 271.933 350.148 271.735 350.148C271.104 350.148 270.631 350 270.316 349.704C270.007 349.402 269.852 349.034 269.852 348.6C269.852 348.146 269.987 347.801 270.256 347.565C270.526 347.328 270.983 347.131 271.627 346.973C272.225 346.828 272.6 346.713 272.751 346.628C272.902 346.542 272.978 346.421 272.978 346.263C272.978 346.105 272.902 345.974 272.751 345.869C272.606 345.764 272.386 345.711 272.09 345.711C271.742 345.711 271.492 345.79 271.341 345.948C271.19 346.099 271.072 346.306 270.986 346.569L269.921 346.125C270.046 345.685 270.289 345.326 270.651 345.05C271.012 344.768 271.486 344.626 272.071 344.626C272.708 344.626 273.231 344.794 273.638 345.129C274.046 345.464 274.25 345.984 274.25 346.687V350H273.175ZM271.883 347.86C271.555 347.939 271.338 348.035 271.233 348.146C271.134 348.252 271.085 348.373 271.085 348.511C271.085 348.866 271.341 349.044 271.854 349.044C272.242 349.044 272.531 348.971 272.721 348.827C272.919 348.675 273.017 348.491 273.017 348.275V347.367H272.997C272.971 347.42 272.942 347.463 272.909 347.496C272.882 347.522 272.784 347.571 272.613 347.643C272.442 347.709 272.199 347.782 271.883 347.86ZM275.532 350V344.774H276.813V350H275.532ZM275.532 344.015V342.802H276.813V344.015H275.532ZM278.189 350V342.802H279.52V350H278.189Z" fill="#7986A3"/>
<path d="M204.495 296V289.098H207.423C208.034 289.098 208.524 289.279 208.892 289.64C209.267 289.995 209.454 290.432 209.454 290.952C209.454 291.53 209.204 291.967 208.705 292.263V292.273C209.001 292.398 209.241 292.598 209.425 292.874C209.615 293.144 209.711 293.469 209.711 293.851C209.711 294.508 209.51 295.034 209.109 295.428C208.708 295.809 208.048 296 207.127 296H204.495ZM205.826 294.768H207.433C208.064 294.768 208.379 294.462 208.379 293.851C208.379 293.568 208.294 293.351 208.123 293.2C207.959 293.042 207.732 292.963 207.443 292.963H205.826V294.768ZM205.826 291.879H207.255C207.525 291.879 207.735 291.816 207.886 291.691C208.044 291.56 208.123 291.369 208.123 291.119C208.123 290.856 208.048 290.659 207.896 290.528C207.745 290.396 207.532 290.331 207.255 290.331H205.826V291.879ZM213.363 296V289.098H214.694V291.879H217.06V289.098H218.391V296H217.06V293.012H214.694V296H213.363ZM223.261 294.196L224.159 294.984C223.626 295.76 222.906 296.148 221.999 296.148C221.27 296.148 220.675 295.898 220.215 295.399C219.755 294.892 219.524 294.222 219.524 293.387C219.524 292.552 219.751 291.885 220.205 291.386C220.665 290.879 221.243 290.626 221.94 290.626C222.637 290.626 223.209 290.879 223.656 291.386C224.109 291.885 224.336 292.552 224.336 293.387V293.772H220.826C220.846 294.173 220.954 294.482 221.151 294.698C221.355 294.909 221.631 295.014 221.98 295.014C222.275 295.014 222.519 294.942 222.709 294.797C222.906 294.646 223.09 294.445 223.261 294.196ZM220.826 292.815H223.094C223.061 292.48 222.946 292.22 222.749 292.036C222.551 291.846 222.282 291.75 221.94 291.75C221.625 291.75 221.365 291.852 221.161 292.056C220.964 292.26 220.852 292.513 220.826 292.815ZM228.345 296V295.497H228.326C228.312 295.517 228.296 295.543 228.276 295.576C228.257 295.602 228.207 295.652 228.128 295.724C228.05 295.796 227.961 295.862 227.862 295.921C227.764 295.98 227.629 296.033 227.458 296.079C227.287 296.125 227.103 296.148 226.906 296.148C226.275 296.148 225.801 296 225.486 295.704C225.177 295.402 225.023 295.034 225.023 294.6C225.023 294.146 225.157 293.801 225.427 293.565C225.696 293.328 226.153 293.131 226.797 292.973C227.395 292.828 227.77 292.713 227.921 292.628C228.073 292.542 228.148 292.421 228.148 292.263C228.148 292.105 228.073 291.974 227.921 291.869C227.777 291.764 227.557 291.711 227.261 291.711C226.912 291.711 226.663 291.79 226.511 291.948C226.36 292.099 226.242 292.306 226.156 292.569L225.092 292.125C225.216 291.685 225.46 291.326 225.821 291.05C226.183 290.768 226.656 290.626 227.241 290.626C227.879 290.626 228.401 290.794 228.809 291.129C229.216 291.464 229.42 291.984 229.42 292.687V296H228.345ZM227.054 293.86C226.725 293.939 226.508 294.035 226.403 294.146C226.304 294.252 226.255 294.373 226.255 294.511C226.255 294.866 226.511 295.044 227.024 295.044C227.412 295.044 227.701 294.971 227.892 294.827C228.089 294.675 228.188 294.491 228.188 294.275V293.367H228.168C228.142 293.42 228.112 293.463 228.079 293.496C228.053 293.522 227.954 293.571 227.783 293.643C227.612 293.709 227.369 293.782 227.054 293.86ZM231.902 296L229.812 290.774H231.143L232.445 294.136H232.464L233.766 290.774H235.077L232.987 296H231.902ZM239.062 294.196L239.96 294.984C239.427 295.76 238.707 296.148 237.8 296.148C237.071 296.148 236.476 295.898 236.016 295.399C235.555 294.892 235.325 294.222 235.325 293.387C235.325 292.552 235.552 291.885 236.006 291.386C236.466 290.879 237.044 290.626 237.741 290.626C238.438 290.626 239.01 290.879 239.457 291.386C239.91 291.885 240.137 292.552 240.137 293.387V293.772H236.627C236.647 294.173 236.755 294.482 236.952 294.698C237.156 294.909 237.432 295.014 237.78 295.014C238.076 295.014 238.32 294.942 238.51 294.797C238.707 294.646 238.891 294.445 239.062 294.196ZM236.627 292.815H238.895C238.862 292.48 238.747 292.22 238.55 292.036C238.352 291.846 238.083 291.75 237.741 291.75C237.426 291.75 237.166 291.852 236.962 292.056C236.765 292.26 236.653 292.513 236.627 292.815ZM241.169 296V290.774H242.401V291.277H242.421C242.565 291.093 242.763 290.939 243.012 290.814C243.262 290.689 243.525 290.626 243.801 290.626C244.38 290.626 244.833 290.801 245.162 291.149C245.49 291.491 245.655 291.967 245.655 292.579V296H244.373V292.894C244.373 292.533 244.304 292.263 244.166 292.086C244.028 291.902 243.791 291.81 243.456 291.81C243.141 291.81 242.894 291.902 242.717 292.086C242.539 292.263 242.45 292.503 242.45 292.805V296H241.169Z" fill="#7986A3"/>
<path d="M259.197 224V217.098H262.125C262.737 217.098 263.226 217.279 263.594 217.64C263.969 217.995 264.156 218.432 264.156 218.952C264.156 219.53 263.907 219.967 263.407 220.263V220.273C263.703 220.398 263.943 220.598 264.127 220.874C264.318 221.144 264.413 221.469 264.413 221.851C264.413 222.508 264.212 223.034 263.811 223.428C263.41 223.809 262.75 224 261.83 224H259.197ZM260.528 222.768H262.135C262.766 222.768 263.082 222.462 263.082 221.851C263.082 221.568 262.996 221.351 262.825 221.2C262.661 221.042 262.434 220.963 262.145 220.963H260.528V222.768ZM260.528 219.879H261.958C262.227 219.879 262.438 219.816 262.589 219.691C262.746 219.56 262.825 219.369 262.825 219.119C262.825 218.856 262.75 218.659 262.599 218.528C262.447 218.396 262.234 218.331 261.958 218.331H260.528V219.879ZM267.621 221.693L269.021 221.387C269.107 221.926 269.245 222.317 269.436 222.56C269.633 222.797 269.952 222.915 270.392 222.915C270.767 222.915 271.066 222.85 271.289 222.718C271.513 222.58 271.625 222.38 271.625 222.117C271.625 221.841 271.516 221.63 271.299 221.486C271.089 221.335 270.602 221.141 269.84 220.904C269.123 220.68 268.614 220.411 268.312 220.095C268.016 219.773 267.868 219.379 267.868 218.912C267.868 218.373 268.075 217.913 268.489 217.532C268.91 217.144 269.478 216.95 270.195 216.95C270.846 216.95 271.404 217.108 271.871 217.423C272.344 217.739 272.64 218.209 272.758 218.833L271.467 219.159C271.263 218.508 270.839 218.183 270.195 218.183C269.853 218.183 269.597 218.248 269.426 218.38C269.261 218.511 269.179 218.686 269.179 218.902C269.179 219.106 269.275 219.264 269.465 219.376C269.656 219.481 270.146 219.668 270.934 219.938C271.697 220.201 272.219 220.487 272.502 220.796C272.785 221.098 272.926 221.509 272.926 222.028C272.926 222.639 272.696 223.145 272.236 223.546C271.776 223.947 271.161 224.148 270.392 224.148C269.61 224.148 268.975 223.944 268.489 223.537C268.009 223.122 267.72 222.508 267.621 221.693ZM274.126 222.136V219.859H273.317V218.774H274.155V217.492H275.368V218.774H276.689V219.859H275.388V222.018C275.388 222.294 275.434 222.488 275.526 222.6C275.618 222.712 275.805 222.768 276.088 222.768H276.512V224H275.969C275.266 224 274.783 223.852 274.52 223.556C274.257 223.261 274.126 222.787 274.126 222.136ZM280.554 224V223.497H280.534C280.521 223.517 280.504 223.543 280.485 223.576C280.465 223.602 280.416 223.652 280.337 223.724C280.258 223.796 280.169 223.862 280.071 223.921C279.972 223.98 279.837 224.033 279.666 224.079C279.495 224.125 279.311 224.148 279.114 224.148C278.483 224.148 278.01 224 277.694 223.704C277.385 223.402 277.231 223.034 277.231 222.6C277.231 222.146 277.366 221.801 277.635 221.565C277.905 221.328 278.362 221.131 279.006 220.973C279.604 220.828 279.979 220.713 280.13 220.628C280.281 220.542 280.357 220.421 280.357 220.263C280.357 220.105 280.281 219.974 280.13 219.869C279.985 219.764 279.765 219.711 279.469 219.711C279.121 219.711 278.871 219.79 278.72 219.948C278.569 220.099 278.45 220.306 278.365 220.569L277.3 220.125C277.425 219.685 277.668 219.326 278.03 219.05C278.391 218.768 278.864 218.626 279.449 218.626C280.087 218.626 280.61 218.794 281.017 219.129C281.425 219.464 281.628 219.984 281.628 220.687V224H280.554ZM279.262 221.86C278.933 221.939 278.717 222.035 278.611 222.146C278.513 222.252 278.463 222.373 278.463 222.511C278.463 222.866 278.72 223.044 279.233 223.044C279.62 223.044 279.91 222.971 280.1 222.827C280.297 222.675 280.396 222.491 280.396 222.275V221.367H280.376C280.35 221.42 280.32 221.463 280.288 221.496C280.261 221.522 280.163 221.571 279.992 221.643C279.821 221.709 279.578 221.782 279.262 221.86ZM282.91 224V218.774H284.192V224H282.91ZM282.91 218.015V216.802H284.192V218.015H282.91ZM285.568 224V218.774H286.781V219.326H286.8C286.899 219.129 287.044 218.971 287.234 218.853C287.431 218.735 287.645 218.676 287.875 218.676C288.04 218.676 288.197 218.709 288.348 218.774L288.151 220.017C288.007 219.964 287.872 219.938 287.747 219.938C287.149 219.938 286.85 220.335 286.85 221.131V224H285.568ZM288.794 222.275L289.948 221.979C290.04 222.708 290.431 223.073 291.121 223.073C291.436 223.073 291.686 223.024 291.87 222.925C292.061 222.82 292.156 222.675 292.156 222.491C292.156 222.34 292.084 222.229 291.939 222.156C291.795 222.077 291.492 221.972 291.032 221.841C290.907 221.808 290.812 221.782 290.746 221.762C290.142 221.591 289.698 221.39 289.415 221.16C289.133 220.924 288.991 220.611 288.991 220.224C288.991 219.79 289.165 219.415 289.514 219.1C289.869 218.784 290.352 218.626 290.963 218.626C292.133 218.626 292.866 219.139 293.162 220.164L292.097 220.49C292.005 220.24 291.874 220.043 291.703 219.898C291.538 219.754 291.295 219.681 290.973 219.681C290.723 219.681 290.523 219.731 290.372 219.829C290.227 219.921 290.155 220.033 290.155 220.164C290.155 220.309 290.24 220.424 290.411 220.51C290.589 220.588 291.026 220.727 291.722 220.924C292.334 221.088 292.748 221.298 292.965 221.555C293.188 221.805 293.3 222.127 293.3 222.521C293.3 222.942 293.116 223.32 292.748 223.655C292.386 223.984 291.86 224.148 291.17 224.148C290.447 224.148 289.888 223.967 289.494 223.606C289.106 223.237 288.873 222.794 288.794 222.275Z" fill="#7986A3"/>
<path d="M120.171 151V144.098H123.099C123.711 144.098 124.2 144.279 124.568 144.64C124.943 144.995 125.13 145.432 125.13 145.952C125.13 146.53 124.881 146.967 124.381 147.263V147.273C124.677 147.398 124.917 147.598 125.101 147.874C125.291 148.144 125.387 148.469 125.387 148.851C125.387 149.508 125.186 150.034 124.785 150.428C124.384 150.809 123.724 151 122.803 151H120.171ZM121.502 149.768H123.109C123.74 149.768 124.056 149.462 124.056 148.851C124.056 148.568 123.97 148.351 123.799 148.2C123.635 148.042 123.408 147.963 123.119 147.963H121.502V149.768ZM121.502 146.879H122.932C123.201 146.879 123.411 146.816 123.563 146.691C123.72 146.56 123.799 146.369 123.799 146.119C123.799 145.856 123.724 145.659 123.573 145.528C123.421 145.396 123.208 145.331 122.932 145.331H121.502V146.879ZM133.042 151L132.648 149.866H130.015L129.621 151H128.299L130.794 144.098H131.928L134.413 151H133.042ZM131.326 146.07L130.39 148.762H132.273L131.346 146.07H131.326ZM135.151 151V143.802H136.482V151H135.151ZM137.866 151V143.802H139.197V151H137.866ZM143.973 149.196L144.871 149.984C144.338 150.76 143.618 151.148 142.711 151.148C141.982 151.148 141.387 150.898 140.927 150.399C140.467 149.892 140.237 149.222 140.237 148.387C140.237 147.552 140.463 146.885 140.917 146.386C141.377 145.879 141.955 145.626 142.652 145.626C143.349 145.626 143.921 145.879 144.368 146.386C144.821 146.885 145.048 147.552 145.048 148.387V148.772H141.538C141.558 149.173 141.666 149.482 141.863 149.698C142.067 149.909 142.343 150.014 142.692 150.014C142.987 150.014 143.231 149.942 143.421 149.797C143.618 149.646 143.803 149.445 143.973 149.196ZM141.538 147.815H143.806C143.773 147.48 143.658 147.22 143.461 147.036C143.264 146.846 142.994 146.75 142.652 146.75C142.337 146.75 142.077 146.852 141.873 147.056C141.676 147.26 141.564 147.513 141.538 147.815ZM146.291 153.218L147.337 150.744L145.246 145.774H146.548L147.899 149.314H147.918L149.269 145.774H150.571L147.563 153.218H146.291Z" fill="#7986A3"/>
<path d="M17.9831 187V180.098H20.9115C21.5228 180.098 22.0125 180.279 22.3806 180.64C22.7553 180.995 22.9426 181.432 22.9426 181.952C22.9426 182.53 22.6928 182.967 22.1933 183.263V183.273C22.4891 183.398 22.729 183.598 22.913 183.874C23.1037 184.144 23.199 184.469 23.199 184.851C23.199 185.508 22.9985 186.034 22.5975 186.428C22.1965 186.809 21.5359 187 20.6157 187H17.9831ZM19.3142 185.768H20.9213C21.5524 185.768 21.8679 185.462 21.8679 184.851C21.8679 184.568 21.7824 184.351 21.6115 184.2C21.4472 184.042 21.2204 183.963 20.9312 183.963H19.3142V185.768ZM19.3142 182.879H20.7439C21.0134 182.879 21.2237 182.816 21.3749 182.691C21.5326 182.56 21.6115 182.369 21.6115 182.119C21.6115 181.856 21.5359 181.659 21.3847 181.528C21.2336 181.396 21.0199 181.331 20.7439 181.331H19.3142V182.879ZM27.2653 187V186.497H27.2456C27.2325 186.517 27.216 186.543 27.1963 186.576C27.1766 186.602 27.1273 186.652 27.0484 186.724C26.9695 186.796 26.8808 186.862 26.7822 186.921C26.6836 186.98 26.5489 187.033 26.3779 187.079C26.207 187.125 26.023 187.148 25.8258 187.148C25.1948 187.148 24.7215 187 24.406 186.704C24.097 186.402 23.9425 186.034 23.9425 185.6C23.9425 185.146 24.0773 184.801 24.3468 184.565C24.6163 184.328 25.0732 184.131 25.7173 183.973C26.3155 183.828 26.6902 183.713 26.8414 183.628C26.9926 183.542 27.0681 183.421 27.0681 183.263C27.0681 183.105 26.9926 182.974 26.8414 182.869C26.6968 182.764 26.4765 182.711 26.1808 182.711C25.8324 182.711 25.5826 182.79 25.4314 182.948C25.2802 183.099 25.1619 183.306 25.0764 183.569L24.0116 183.125C24.1365 182.685 24.3797 182.326 24.7412 182.05C25.1027 181.768 25.576 181.626 26.161 181.626C26.7986 181.626 27.3212 181.794 27.7288 182.129C28.1363 182.464 28.3401 182.984 28.3401 183.687V187H27.2653ZM25.9737 184.86C25.645 184.939 25.4281 185.035 25.3229 185.146C25.2243 185.252 25.175 185.373 25.175 185.511C25.175 185.866 25.4314 186.044 25.9441 186.044C26.3319 186.044 26.6212 185.971 26.8118 185.827C27.009 185.675 27.1076 185.491 27.1076 185.275V184.367H27.0879C27.0616 184.42 27.032 184.463 26.9991 184.496C26.9728 184.522 26.8742 184.571 26.7033 184.643C26.5324 184.709 26.2892 184.782 25.9737 184.86ZM32.7575 184.89L33.9702 185.205C33.8519 185.83 33.5956 186.31 33.2012 186.645C32.8068 186.98 32.3105 187.148 31.7123 187.148C31.0024 187.148 30.4174 186.905 29.9573 186.418C29.5037 185.932 29.2769 185.255 29.2769 184.387C29.2769 183.526 29.5103 182.852 29.977 182.366C30.4503 181.873 31.032 181.626 31.7222 181.626C32.3072 181.626 32.7969 181.797 33.1913 182.139C33.5857 182.481 33.8289 182.938 33.9209 183.51L32.7279 183.736C32.603 183.099 32.2678 182.78 31.7222 182.78C31.3607 182.78 31.0714 182.918 30.8545 183.194C30.6442 183.464 30.539 183.861 30.539 184.387C30.539 184.913 30.6442 185.314 30.8545 185.59C31.0649 185.86 31.3541 185.994 31.7222 185.994C32.3006 185.994 32.6457 185.626 32.7575 184.89ZM34.9564 187V179.802H36.2382V183.934H36.2579L38.1609 181.774H39.768L37.8848 183.894L39.9356 187H38.5158L36.9185 184.614H36.8988L36.2382 185.363V187H34.9564ZM43.1913 187V180.098H46.1197C46.7311 180.098 47.2208 180.279 47.5889 180.64C47.9635 180.995 48.1509 181.432 48.1509 181.952C48.1509 182.53 47.9011 182.967 47.4015 183.263V183.273C47.6973 183.398 47.9373 183.598 48.1213 183.874C48.3119 184.144 48.4072 184.469 48.4072 184.851C48.4072 185.508 48.2068 186.034 47.8058 186.428C47.4048 186.809 46.7442 187 45.8239 187H43.1913ZM44.5224 185.768H46.1296C46.7606 185.768 47.0762 185.462 47.0762 184.851C47.0762 184.568 46.9907 184.351 46.8198 184.2C46.6555 184.042 46.4287 183.963 46.1395 183.963H44.5224V185.768ZM44.5224 182.879H45.9521C46.2216 182.879 46.432 182.816 46.5832 182.691C46.7409 182.56 46.8198 182.369 46.8198 182.119C46.8198 181.856 46.7442 181.659 46.593 181.528C46.4418 181.396 46.2282 181.331 45.9521 181.331H44.5224V182.879Z" fill="#7986A3"/>
<path d="M152.779 252V245.098H155.707C156.318 245.098 156.808 245.279 157.176 245.64C157.551 245.995 157.738 246.432 157.738 246.952C157.738 247.53 157.488 247.967 156.989 248.263V248.273C157.285 248.398 157.525 248.598 157.709 248.874C157.899 249.144 157.995 249.469 157.995 249.851C157.995 250.508 157.794 251.034 157.393 251.428C156.992 251.809 156.332 252 155.411 252H152.779ZM154.11 250.768H155.717C156.348 250.768 156.664 250.462 156.664 249.851C156.664 249.568 156.578 249.351 156.407 249.2C156.243 249.042 156.016 248.963 155.727 248.963H154.11V250.768ZM154.11 247.879H155.539C155.809 247.879 156.019 247.816 156.171 247.691C156.328 247.56 156.407 247.369 156.407 247.119C156.407 246.856 156.332 246.659 156.18 246.528C156.029 246.396 155.816 246.331 155.539 246.331H154.11V247.879ZM161.647 252V245.098H164.447C165.157 245.098 165.729 245.299 166.163 245.7C166.603 246.094 166.823 246.626 166.823 247.297C166.823 247.796 166.692 248.22 166.429 248.569C166.173 248.917 165.818 249.164 165.364 249.308L166.833 252H165.394L164.003 249.436H162.978V252H161.647ZM162.978 248.283H164.339C165.095 248.283 165.472 247.954 165.472 247.297C165.472 246.633 165.095 246.301 164.339 246.301H162.978V248.283ZM170.794 252V251.497H170.775C170.761 251.517 170.745 251.543 170.725 251.576C170.706 251.602 170.656 251.652 170.577 251.724C170.499 251.796 170.41 251.862 170.311 251.921C170.213 251.98 170.078 252.033 169.907 252.079C169.736 252.125 169.552 252.148 169.355 252.148C168.724 252.148 168.25 252 167.935 251.704C167.626 251.402 167.472 251.034 167.472 250.6C167.472 250.146 167.606 249.801 167.876 249.565C168.145 249.328 168.602 249.131 169.246 248.973C169.844 248.828 170.219 248.713 170.37 248.628C170.522 248.542 170.597 248.421 170.597 248.263C170.597 248.105 170.522 247.974 170.37 247.869C170.226 247.764 170.006 247.711 169.71 247.711C169.361 247.711 169.112 247.79 168.96 247.948C168.809 248.099 168.691 248.306 168.605 248.569L167.541 248.125C167.665 247.685 167.909 247.326 168.27 247.05C168.632 246.768 169.105 246.626 169.69 246.626C170.328 246.626 170.85 246.794 171.258 247.129C171.665 247.464 171.869 247.984 171.869 248.687V252H170.794ZM169.503 249.86C169.174 249.939 168.957 250.035 168.852 250.146C168.753 250.252 168.704 250.373 168.704 250.511C168.704 250.866 168.96 251.044 169.473 251.044C169.861 251.044 170.15 250.971 170.341 250.827C170.538 250.675 170.637 250.491 170.637 250.275V249.367H170.617C170.591 249.42 170.561 249.463 170.528 249.496C170.502 249.522 170.403 249.571 170.232 249.643C170.061 249.709 169.818 249.782 169.503 249.86ZM173.417 252V247.859H172.609V246.774H173.447V246.035C173.447 245.588 173.562 245.272 173.792 245.088C174.029 244.898 174.37 244.802 174.817 244.802H175.843V245.936H175.084C174.926 245.936 174.814 245.969 174.748 246.035C174.689 246.094 174.66 246.199 174.66 246.35V246.774H175.981V247.859H174.699V252H173.417ZM176.941 250.136V247.859H176.133V246.774H176.971V245.492H178.184V246.774H179.505V247.859H178.203V250.018C178.203 250.294 178.249 250.488 178.341 250.6C178.433 250.712 178.621 250.768 178.903 250.768H179.327V252H178.785C178.082 252 177.599 251.852 177.336 251.556C177.073 251.261 176.941 250.787 176.941 250.136ZM183.88 250.196L184.777 250.984C184.245 251.76 183.525 252.148 182.618 252.148C181.888 252.148 181.293 251.898 180.833 251.399C180.373 250.892 180.143 250.222 180.143 249.387C180.143 248.552 180.37 247.885 180.823 247.386C181.284 246.879 181.862 246.626 182.559 246.626C183.255 246.626 183.827 246.879 184.274 247.386C184.728 247.885 184.955 248.552 184.955 249.387V249.772H181.445C181.464 250.173 181.573 250.482 181.77 250.698C181.974 250.909 182.25 251.014 182.598 251.014C182.894 251.014 183.137 250.942 183.328 250.797C183.525 250.646 183.709 250.445 183.88 250.196ZM181.445 248.815H183.712C183.679 248.48 183.564 248.22 183.367 248.036C183.17 247.846 182.901 247.75 182.559 247.75C182.243 247.75 181.984 247.852 181.78 248.056C181.583 248.26 181.471 248.513 181.445 248.815ZM185.986 252V246.774H187.199V247.326H187.219C187.317 247.129 187.462 246.971 187.653 246.853C187.85 246.735 188.063 246.676 188.293 246.676C188.458 246.676 188.616 246.709 188.767 246.774L188.57 248.017C188.425 247.964 188.29 247.938 188.165 247.938C187.567 247.938 187.268 248.335 187.268 249.131V252H185.986ZM189.212 250.275L190.366 249.979C190.458 250.708 190.849 251.073 191.539 251.073C191.855 251.073 192.104 251.024 192.289 250.925C192.479 250.82 192.574 250.675 192.574 250.491C192.574 250.34 192.502 250.229 192.358 250.156C192.213 250.077 191.911 249.972 191.45 249.841C191.326 249.808 191.23 249.782 191.165 249.762C190.56 249.591 190.116 249.39 189.833 249.16C189.551 248.924 189.409 248.611 189.409 248.224C189.409 247.79 189.584 247.415 189.932 247.1C190.287 246.784 190.77 246.626 191.381 246.626C192.551 246.626 193.284 247.139 193.58 248.164L192.515 248.49C192.423 248.24 192.292 248.043 192.121 247.898C191.957 247.754 191.713 247.681 191.391 247.681C191.142 247.681 190.941 247.731 190.79 247.829C190.645 247.921 190.573 248.033 190.573 248.164C190.573 248.309 190.658 248.424 190.829 248.51C191.007 248.588 191.444 248.727 192.141 248.924C192.752 249.088 193.166 249.298 193.383 249.555C193.606 249.805 193.718 250.127 193.718 250.521C193.718 250.942 193.534 251.32 193.166 251.655C192.805 251.984 192.279 252.148 191.588 252.148C190.865 252.148 190.307 251.967 189.912 251.606C189.524 251.237 189.291 250.794 189.212 250.275Z" fill="#7986A3"/>
<path d="M61.2768 401V394.098H64.2051C64.8165 394.098 65.3062 394.279 65.6743 394.64C66.049 394.995 66.2363 395.432 66.2363 395.952C66.2363 396.53 65.9865 396.967 65.4869 397.263V397.273C65.7827 397.398 66.0227 397.598 66.2067 397.874C66.3973 398.144 66.4927 398.469 66.4927 398.851C66.4927 399.508 66.2922 400.034 65.8912 400.428C65.4902 400.809 64.8296 401 63.9094 401H61.2768ZM62.6078 399.768H64.215C64.846 399.768 65.1616 399.462 65.1616 398.851C65.1616 398.568 65.0761 398.351 64.9052 398.2C64.7409 398.042 64.5141 397.963 64.2249 397.963H62.6078V399.768ZM62.6078 396.879H64.0375C64.307 396.879 64.5174 396.816 64.6686 396.691C64.8263 396.56 64.9052 396.369 64.9052 396.119C64.9052 395.856 64.8296 395.659 64.6784 395.528C64.5272 395.396 64.3136 395.331 64.0375 395.331H62.6078V396.879ZM70.1449 401V394.098H71.5154L73.517 398.574H73.5367L75.5383 394.098H76.9187V401H75.6172V396.76H75.5974L73.6353 401H73.4184L71.4563 396.76H71.4366V401H70.1449ZM81.3722 401V400.497H81.3525C81.3393 400.517 81.3229 400.543 81.3032 400.576C81.2835 400.602 81.2342 400.652 81.1553 400.724C81.0764 400.796 80.9877 400.862 80.8891 400.921C80.7905 400.98 80.6557 401.033 80.4848 401.079C80.3139 401.125 80.1298 401.148 79.9326 401.148C79.3016 401.148 78.8283 401 78.5128 400.704C78.2039 400.402 78.0494 400.034 78.0494 399.6C78.0494 399.146 78.1841 398.801 78.4537 398.565C78.7232 398.328 79.18 398.131 79.8242 397.973C80.4224 397.828 80.797 397.713 80.9482 397.628C81.0994 397.542 81.175 397.421 81.175 397.263C81.175 397.105 81.0994 396.974 80.9482 396.869C80.8036 396.764 80.5834 396.711 80.2876 396.711C79.9392 396.711 79.6894 396.79 79.5382 396.948C79.3871 397.099 79.2687 397.306 79.1833 397.569L78.1184 397.125C78.2433 396.685 78.4865 396.326 78.8481 396.05C79.2096 395.768 79.6829 395.626 80.2679 395.626C80.9055 395.626 81.4281 395.794 81.8356 396.129C82.2431 396.464 82.4469 396.984 82.4469 397.687V401H81.3722ZM80.0805 398.86C79.7519 398.939 79.535 399.035 79.4298 399.146C79.3312 399.252 79.2819 399.373 79.2819 399.511C79.2819 399.866 79.5382 400.044 80.051 400.044C80.4388 400.044 80.728 399.971 80.9186 399.827C81.1158 399.675 81.2144 399.491 81.2144 399.275V398.367H81.1947C81.1684 398.42 81.1388 398.463 81.106 398.496C81.0797 398.522 80.9811 398.571 80.8102 398.643C80.6393 398.709 80.3961 398.782 80.0805 398.86ZM83.7289 401V395.774H85.0107V401H83.7289ZM83.7289 395.015V393.802H85.0107V395.015H83.7289ZM86.3864 401V395.774H87.6189V396.277H87.6386C87.7832 396.093 87.9804 395.939 88.2302 395.814C88.48 395.689 88.7429 395.626 89.019 395.626C89.5975 395.626 90.051 395.801 90.3797 396.149C90.7084 396.491 90.8727 396.967 90.8727 397.579V401H89.5909V397.894C89.5909 397.533 89.5219 397.263 89.3838 397.086C89.2458 396.902 89.0092 396.81 88.6739 396.81C88.3584 396.81 88.1119 396.902 87.9344 397.086C87.757 397.263 87.6682 397.503 87.6682 397.805V401H86.3864Z" fill="#7986A3"/>
<path d="M311.888 84.375H313.097C313.409 84.375 313.682 84.3403 313.916 84.271C314.15 84.193 314.371 84.0543 314.579 83.855C314.787 83.6557 314.948 83.3567 315.06 82.958C315.173 82.5507 315.229 82.0437 315.229 81.437C315.229 80.423 315.039 79.6863 314.657 79.227C314.285 78.759 313.791 78.525 313.175 78.525H311.888V84.375ZM310.133 86V76.9H313.175C313.695 76.9 314.185 76.991 314.644 77.173C315.104 77.355 315.52 77.6237 315.892 77.979C316.265 78.3343 316.56 78.811 316.776 79.409C317.002 79.9983 317.114 80.6743 317.114 81.437C317.114 82.269 317.002 82.9927 316.776 83.608C316.551 84.2233 316.243 84.7 315.853 85.038C315.463 85.3673 315.039 85.61 314.579 85.766C314.129 85.922 313.635 86 313.097 86H310.133ZM322.956 83.621L324.139 84.661C323.437 85.6837 322.488 86.195 321.292 86.195C320.33 86.195 319.545 85.8657 318.939 85.207C318.332 84.5397 318.029 83.6557 318.029 82.555C318.029 81.4543 318.328 80.5747 318.926 79.916C319.532 79.2487 320.295 78.915 321.214 78.915C322.132 78.915 322.886 79.2487 323.476 79.916C324.074 80.5747 324.373 81.4543 324.373 82.555V83.062H319.745C319.771 83.5907 319.914 83.998 320.174 84.284C320.442 84.5613 320.806 84.7 321.266 84.7C321.656 84.7 321.976 84.6047 322.228 84.414C322.488 84.2147 322.73 83.9503 322.956 83.621ZM319.745 81.801H322.735C322.691 81.359 322.54 81.0167 322.28 80.774C322.02 80.5227 321.664 80.397 321.214 80.397C320.798 80.397 320.455 80.5313 320.187 80.8C319.927 81.0687 319.779 81.4023 319.745 81.801ZM326.084 86V80.54H325.018V79.11H326.123V78.135C326.123 77.5457 326.274 77.1297 326.578 76.887C326.89 76.6357 327.34 76.51 327.93 76.51H329.282V78.005H328.281C328.073 78.005 327.925 78.0483 327.839 78.135C327.761 78.213 327.722 78.3517 327.722 78.551V79.11H329.464V80.54H327.774V86H326.084ZM334.851 83.621L336.034 84.661C335.332 85.6837 334.383 86.195 333.187 86.195C332.225 86.195 331.441 85.8657 330.834 85.207C330.228 84.5397 329.924 83.6557 329.924 82.555C329.924 81.4543 330.223 80.5747 330.821 79.916C331.428 79.2487 332.191 78.915 333.109 78.915C334.028 78.915 334.782 79.2487 335.371 79.916C335.969 80.5747 336.268 81.4543 336.268 82.555V83.062H331.64C331.666 83.5907 331.809 83.998 332.069 84.284C332.338 84.5613 332.702 84.7 333.161 84.7C333.551 84.7 333.872 84.6047 334.123 84.414C334.383 84.2147 334.626 83.9503 334.851 83.621ZM331.64 81.801H334.63C334.587 81.359 334.435 81.0167 334.175 80.774C333.915 80.5227 333.56 80.397 333.109 80.397C332.693 80.397 332.351 80.5313 332.082 80.8C331.822 81.0687 331.675 81.4023 331.64 81.801ZM337.628 86V79.11H339.253V79.773H339.279C339.47 79.5303 339.73 79.3267 340.059 79.162C340.389 78.9973 340.735 78.915 341.099 78.915C341.862 78.915 342.46 79.1447 342.893 79.604C343.327 80.0547 343.543 80.683 343.543 81.489V86H341.853V81.905C341.853 81.4283 341.762 81.073 341.58 80.839C341.398 80.5963 341.086 80.475 340.644 80.475C340.228 80.475 339.903 80.5963 339.669 80.839C339.435 81.073 339.318 81.3893 339.318 81.788V86H337.628ZM349.573 83.179V81.918C349.573 81.502 349.439 81.151 349.17 80.865C348.91 80.579 348.551 80.436 348.091 80.436C347.597 80.436 347.212 80.6137 346.934 80.969C346.666 81.3243 346.531 81.853 346.531 82.555C346.531 83.2483 346.666 83.777 346.934 84.141C347.212 84.4963 347.597 84.674 348.091 84.674C348.551 84.674 348.91 84.531 349.17 84.245C349.439 83.9503 349.573 83.595 349.573 83.179ZM349.677 86V85.337H349.651C349.608 85.3977 349.543 85.4757 349.456 85.571C349.378 85.6663 349.179 85.7963 348.858 85.961C348.546 86.117 348.204 86.195 347.831 86.195C346.921 86.195 346.193 85.8657 345.647 85.207C345.11 84.5483 344.841 83.6643 344.841 82.555C344.841 81.437 345.136 80.553 345.725 79.903C346.315 79.2443 347.008 78.915 347.805 78.915C348.169 78.915 348.494 78.9887 348.78 79.136C349.075 79.2747 349.274 79.4133 349.378 79.552L349.547 79.773H349.573V76.51H351.263V86H349.677ZM357.55 83.621L358.733 84.661C358.031 85.6837 357.082 86.195 355.886 86.195C354.924 86.195 354.14 85.8657 353.533 85.207C352.927 84.5397 352.623 83.6557 352.623 82.555C352.623 81.4543 352.922 80.5747 353.52 79.916C354.127 79.2487 354.89 78.915 355.808 78.915C356.727 78.915 357.481 79.2487 358.07 79.916C358.668 80.5747 358.967 81.4543 358.967 82.555V83.062H354.339C354.365 83.5907 354.508 83.998 354.768 84.284C355.037 84.5613 355.401 84.7 355.86 84.7C356.25 84.7 356.571 84.6047 356.822 84.414C357.082 84.2147 357.325 83.9503 357.55 83.621ZM354.339 81.801H357.329C357.286 81.359 357.134 81.0167 356.874 80.774C356.614 80.5227 356.259 80.397 355.808 80.397C355.392 80.397 355.05 80.5313 354.781 80.8C354.521 81.0687 354.374 81.4023 354.339 81.801ZM360.327 86V79.11H361.926V79.838H361.952C362.082 79.578 362.273 79.37 362.524 79.214C362.784 79.058 363.066 78.98 363.369 78.98C363.586 78.98 363.794 79.0233 363.993 79.11L363.733 80.748C363.543 80.6787 363.365 80.644 363.2 80.644C362.412 80.644 362.017 81.1683 362.017 82.217V86H360.327ZM364.581 83.725L366.102 83.335C366.223 84.297 366.739 84.778 367.649 84.778C368.065 84.778 368.394 84.713 368.637 84.583C368.888 84.4443 369.014 84.2537 369.014 84.011C369.014 83.8117 368.919 83.6643 368.728 83.569C368.537 83.465 368.139 83.3263 367.532 83.153C367.367 83.1097 367.242 83.075 367.155 83.049C366.358 82.8237 365.773 82.5593 365.4 82.256C365.027 81.944 364.841 81.5323 364.841 81.021C364.841 80.449 365.071 79.955 365.53 79.539C365.998 79.123 366.635 78.915 367.441 78.915C368.984 78.915 369.95 79.591 370.34 80.943L368.936 81.372C368.815 81.0427 368.641 80.7827 368.416 80.592C368.199 80.4013 367.879 80.306 367.454 80.306C367.125 80.306 366.86 80.371 366.661 80.501C366.47 80.6223 366.375 80.7697 366.375 80.943C366.375 81.1337 366.488 81.2853 366.713 81.398C366.947 81.502 367.523 81.684 368.442 81.944C369.248 82.1607 369.794 82.438 370.08 82.776C370.375 83.1053 370.522 83.53 370.522 84.05C370.522 84.6047 370.279 85.103 369.794 85.545C369.317 85.9783 368.624 86.195 367.714 86.195C366.761 86.195 366.024 85.9567 365.504 85.48C364.993 84.9947 364.685 84.4097 364.581 83.725Z" fill="#F44348"/>
<path opacity="0.5" d="M611 207.108C611 204.839 612.839 203 615.108 203H635.892C638.161 203 640 201.161 640 198.892V174.108C640 171.839 641.839 170 644.108 170H694.892C697.161 170 699 171.839 699 174.108V193.5C699 194.328 698.328 195 697.5 195C696.672 195 696 195.672 696 196.5V281.5C696 282.328 696.672 283 697.5 283C698.328 283 699 283.672 699 284.5V301.892C699 304.161 697.161 306 694.892 306H674.629C673.583 306 672.576 305.601 671.814 304.883L640.186 275.117C639.424 274.399 638.417 274 637.371 274H615.108C612.839 274 611 272.161 611 269.892V207.108Z" fill="#4D5F83" fill-opacity="0.15" stroke="#4D5F83" stroke-width="1.64332" stroke-miterlimit="16"/>
<g opacity="0.15">
<mask id="mask0" mask-type="alpha" maskUnits="userSpaceOnUse" x="611" y="170" width="88" height="136">
<path d="M611 207.108C611 204.839 612.839 203 615.108 203H635.892C638.161 203 640 201.161 640 198.892V174.108C640 171.839 641.839 170 644.108 170H694.892C697.161 170 699 171.839 699 174.108V193.5C699 194.328 698.328 195 697.5 195C696.672 195 696 195.672 696 196.5V281.5C696 282.328 696.672 283 697.5 283C698.328 283 699 283.672 699 284.5V301.892C699 304.161 697.161 306 694.892 306H674.629C673.583 306 672.576 305.601 671.814 304.883L640.186 275.117C639.424 274.399 638.417 274 637.371 274H615.108C612.839 274 611 272.161 611 269.892V207.108Z" fill="#C4C4C4"/>
</mask>
<g mask="url(#mask0)">
<rect width="181.441" height="3.68409" transform="matrix(0.706777 -0.706232 0.706777 0.706232 645.301 353.814)" fill="#4D5F83"/>
<rect width="181.441" height="3.68409" transform="matrix(0.706777 -0.706232 0.706777 0.706232 640.094 348.611)" fill="#4D5F83"/>
<rect width="181.441" height="3.68409" transform="matrix(0.706777 -0.706232 0.706777 0.706232 634.886 343.406)" fill="#4D5F83"/>
<rect width="181.441" height="3.68409" transform="matrix(0.706777 -0.706232 0.706777 0.706232 629.678 338.203)" fill="#4D5F83"/>
<rect width="181.441" height="3.68409" transform="matrix(0.706777 -0.706232 0.706777 0.706232 624.471 332.999)" fill="#4D5F83"/>
<rect width="181.441" height="3.68409" transform="matrix(0.706777 -0.706232 0.706777 0.706232 619.264 327.796)" fill="#4D5F83"/>
<rect width="181.441" height="3.68409" transform="matrix(0.706777 -0.706232 0.706777 0.706232 614.055 322.592)" fill="#4D5F83"/>
<rect width="181.441" height="3.68409" transform="matrix(0.706777 -0.706232 0.706777 0.706232 608.848 317.389)" fill="#4D5F83"/>
<rect width="181.441" height="3.68409" transform="matrix(0.706777 -0.706232 0.706777 0.706232 603.64 312.186)" fill="#4D5F83"/>
<rect width="181.441" height="3.68409" transform="matrix(0.706777 -0.706232 0.706777 0.706232 598.433 306.982)" fill="#4D5F83"/>
<rect width="181.441" height="3.68409" transform="matrix(0.706777 -0.706232 0.706777 0.706232 593.225 301.778)" fill="#4D5F83"/>
<rect width="181.441" height="3.68409" transform="matrix(0.706777 -0.706232 0.706777 0.706232 588.017 296.575)" fill="#4D5F83"/>
<rect width="181.441" height="3.68409" transform="matrix(0.706777 -0.706232 0.706777 0.706232 582.809 291.371)" fill="#4D5F83"/>
<rect width="181.441" height="3.68409" transform="matrix(0.706777 -0.706232 0.706777 0.706232 577.602 286.167)" fill="#4D5F83"/>
<rect width="181.441" height="3.68409" transform="matrix(0.706777 -0.706232 0.706777 0.706232 572.395 280.963)" fill="#4D5F83"/>
<rect width="181.441" height="3.68409" transform="matrix(0.706777 -0.706232 0.706777 0.706232 567.186 275.759)" fill="#4D5F83"/>
<rect width="181.441" height="3.68409" transform="matrix(0.706777 -0.706232 0.706777 0.706232 561.979 270.556)" fill="#4D5F83"/>
<rect width="181.441" height="3.68409" transform="matrix(0.706777 -0.706232 0.706777 0.706232 556.771 265.353)" fill="#4D5F83"/>
<rect width="181.441" height="3.68409" transform="matrix(0.706777 -0.706232 0.706777 0.706232 551.564 260.149)" fill="#4D5F83"/>
<rect width="181.441" height="3.68409" transform="matrix(0.706777 -0.706232 0.706777 0.706232 546.356 254.945)" fill="#4D5F83"/>
<rect width="181.441" height="3.68409" transform="matrix(0.706777 -0.706232 0.706777 0.706232 541.148 249.742)" fill="#4D5F83"/>
</g>
</g>
<rect opacity="0.5" x="80" y="203" width="86" height="50" rx="4.1083" fill="#4D5F83" fill-opacity="0.15" stroke="#4D5F83" stroke-width="1.64332" stroke-miterlimit="16"/>
<g opacity="0.15">
<mask id="mask1" mask-type="alpha" maskUnits="userSpaceOnUse" x="80" y="203" width="86" height="50">
<rect x="80" y="203" width="86" height="50" rx="4.1083" fill="#C4C4C4"/>
</mask>
<g mask="url(#mask1)">
<rect width="181.441" height="3.68409" transform="matrix(0.706777 -0.706232 0.706777 0.706232 112.28 362.967)" fill="#4D5F83"/>
<rect width="181.441" height="3.68409" transform="matrix(0.706777 -0.706232 0.706777 0.706232 107.073 357.763)" fill="#4D5F83"/>
<rect width="181.441" height="3.68409" transform="matrix(0.706777 -0.706232 0.706777 0.706232 101.865 352.559)" fill="#4D5F83"/>
<rect width="181.441" height="3.68409" transform="matrix(0.706777 -0.706232 0.706777 0.706232 96.6573 347.356)" fill="#4D5F83"/>
<rect width="181.441" height="3.68409" transform="matrix(0.706777 -0.706232 0.706777 0.706232 91.4498 342.152)" fill="#4D5F83"/>
<rect width="181.441" height="3.68409" transform="matrix(0.706777 -0.706232 0.706777 0.706232 86.2424 336.948)" fill="#4D5F83"/>
<rect width="181.441" height="3.68409" transform="matrix(0.706777 -0.706232 0.706777 0.706232 81.0343 331.745)" fill="#4D5F83"/>
<rect width="181.441" height="3.68409" transform="matrix(0.706777 -0.706232 0.706777 0.706232 75.8271 326.541)" fill="#4D5F83"/>
<rect width="181.441" height="3.68409" transform="matrix(0.706777 -0.706232 0.706777 0.706232 70.6194 321.338)" fill="#4D5F83"/>
<rect width="181.441" height="3.68409" transform="matrix(0.706777 -0.706232 0.706777 0.706232 65.4117 316.134)" fill="#4D5F83"/>
<rect width="181.441" height="3.68409" transform="matrix(0.706777 -0.706232 0.706777 0.706232 60.2039 310.93)" fill="#4D5F83"/>
<rect width="181.441" height="3.68409" transform="matrix(0.706777 -0.706232 0.706777 0.706232 54.9962 305.727)" fill="#4D5F83"/>
<rect width="181.441" height="3.68409" transform="matrix(0.706777 -0.706232 0.706777 0.706232 49.7883 300.523)" fill="#4D5F83"/>
<rect width="181.441" height="3.68409" transform="matrix(0.706777 -0.706232 0.706777 0.706232 44.5807 295.319)" fill="#4D5F83"/>
<rect width="181.441" height="3.68409" transform="matrix(0.706777 -0.706232 0.706777 0.706232 39.3734 290.115)" fill="#4D5F83"/>
<rect width="181.441" height="3.68409" transform="matrix(0.706777 -0.706232 0.706777 0.706232 34.1653 284.912)" fill="#4D5F83"/>
<rect width="181.441" height="3.68409" transform="matrix(0.706777 -0.706232 0.706777 0.706232 28.9581 279.708)" fill="#4D5F83"/>
<rect width="181.441" height="3.68409" transform="matrix(0.706777 -0.706232 0.706777 0.706232 23.7498 274.505)" fill="#4D5F83"/>
<rect width="181.441" height="3.68409" transform="matrix(0.706777 -0.706232 0.706777 0.706232 18.5432 269.301)" fill="#4D5F83"/>
<rect width="181.441" height="3.68409" transform="matrix(0.706777 -0.706232 0.706777 0.706232 13.3353 264.097)" fill="#4D5F83"/>
<rect width="181.441" height="3.68409" transform="matrix(0.706777 -0.706232 0.706777 0.706232 8.12683 258.894)" fill="#4D5F83"/>
</g>
</g>
<path d="M121.479 233V221.497H126.359C127.378 221.497 128.194 221.798 128.808 222.401C129.432 222.992 129.745 223.721 129.745 224.586C129.745 225.55 129.328 226.279 128.496 226.772V226.788C128.989 226.996 129.389 227.331 129.695 227.791C130.013 228.24 130.172 228.782 130.172 229.418C130.172 230.513 129.838 231.39 129.169 232.047C128.501 232.682 127.4 233 125.866 233H121.479ZM123.697 230.946H126.376C127.427 230.946 127.953 230.436 127.953 229.418C127.953 228.946 127.811 228.585 127.526 228.333C127.252 228.07 126.874 227.939 126.392 227.939H123.697V230.946ZM123.697 226.131H126.08C126.529 226.131 126.88 226.027 127.132 225.819C127.395 225.6 127.526 225.282 127.526 224.866C127.526 224.427 127.4 224.099 127.148 223.88C126.896 223.66 126.54 223.551 126.08 223.551H123.697V226.131Z" fill="#E5EBEF"/>
<path d="M660.311 243L659.654 241.11H655.266L654.609 243H652.407L656.564 231.497H658.454L662.595 243H660.311ZM657.452 234.783L655.891 239.27H659.029L657.485 234.783H657.452Z" fill="#E5EBEF"/>
</g>
<defs>
<clipPath id="clip0">
<path d="M0 0H708V708H0V0Z" fill="white"/>
</clipPath>
</defs>
</svg>
