<svg xmlns="http://www.w3.org/2000/svg" viewBox="0 0 1920 1080" width="1920" height="1080">
	<defs>
		<clipPath clipPathUnits="userSpaceOnUse" id="cp1">
			<path d="M420 0L1500 0L1500 1080L420 1080L420 0Z" />
		</clipPath>
		<clipPath clipPathUnits="userSpaceOnUse" id="cp2">
			<path d="M1352.03 315.93C1352.03 312.47 1354.84 309.66 1358.3 309.66L1390 309.66C1393.47 309.66 1396.27 306.86 1396.27 303.39L1396.27 265.59C1396.27 262.13 1399.08 259.32 1402.54 259.32L1480 259.32C1483.47 259.32 1486.27 262.13 1486.27 265.59L1486.27 295.17C1486.27 296.43 1485.25 297.46 1483.98 297.46C1482.72 297.46 1481.69 298.48 1481.69 299.75L1481.69 429.41C1481.69 430.67 1482.72 431.69 1483.98 431.69C1485.25 431.69 1486.27 432.72 1486.27 433.98L1486.27 460.51C1486.27 463.97 1483.47 466.78 1480 466.78L1449.1 466.78C1447.5 466.78 1445.96 466.17 1444.8 465.08L1396.55 419.67C1395.39 418.57 1393.86 417.97 1392.26 417.97L1358.3 417.97C1354.84 417.97 1352.03 415.16 1352.03 411.7L1352.03 315.93Z" />
		</clipPath>
		<clipPath clipPathUnits="userSpaceOnUse" id="cp3">
			<path d="M548.3 309.66L666.95 309.66C670.42 309.66 673.22 312.46 673.22 315.93L673.22 379.67C673.22 383.13 670.42 385.93 666.95 385.93L548.3 385.93C544.84 385.93 542.03 383.13 542.03 379.67L542.03 315.93C542.03 312.46 544.84 309.66 548.3 309.66Z" />
		</clipPath>
	</defs>
	<style>
		tspan { white-space:pre }
		.shp0 { fill: #24e8cc } 
		.shp1 { fill: #7986a3 } 
		.shp2 { fill: #f44348 } 
		.shp3 { opacity: 0.075;fill: #4d5f83;stroke: #4d5f83;stroke-width: 2.507 } 
		.shp4 { fill: #4d5f83 } 
		.shp5 { fill: #e5ebef } 
	</style>
	<g id="Clip-Path" clip-path="url(#cp1)">
		<g id="Layer">
			<path id="Layer" fill-rule="evenodd" class="shp0" d="M890.5 964.07L889.7 961.79L884.41 961.79L883.61 964.07L880.96 964.07L885.97 950.19L888.25 950.19L893.25 964.07L890.5 964.07ZM887.05 954.15L885.16 959.57L888.95 959.57L887.08 954.15L887.05 954.15ZM894.89 960.32L894.89 955.74L893.26 955.74L893.26 953.56L894.95 953.56L894.95 950.98L897.38 950.98L897.38 953.56L900.04 953.56L900.04 955.74L897.42 955.74L897.42 960.08C897.42 960.64 897.52 961.03 897.7 961.25C897.89 961.48 898.26 961.59 898.83 961.59L899.68 961.59L899.68 964.07L898.59 964.07C897.18 964.07 896.21 963.77 895.68 963.18C895.15 962.58 894.89 961.63 894.89 960.32ZM902.36 960.32L902.36 955.74L900.73 955.74L900.73 953.56L902.42 953.56L902.42 950.98L904.86 950.98L904.86 953.56L907.52 953.56L907.52 955.74L904.9 955.74L904.9 960.08C904.9 960.64 904.99 961.03 905.18 961.25C905.36 961.48 905.74 961.59 906.31 961.59L907.16 961.59L907.16 964.07L906.07 964.07C904.65 964.07 903.68 963.77 903.15 963.18C902.62 962.58 902.36 961.63 902.36 960.32ZM915.29 964.07L915.29 963.06L915.25 963.06C915.22 963.1 915.19 963.15 915.15 963.22C915.11 963.27 915.01 963.37 914.85 963.51C914.69 963.66 914.52 963.79 914.32 963.91C914.12 964.03 913.85 964.13 913.51 964.23C913.16 964.32 912.79 964.37 912.39 964.37C911.13 964.37 910.17 964.07 909.54 963.47C908.92 962.86 908.61 962.12 908.61 961.25C908.61 960.34 908.88 959.65 909.42 959.17C909.96 958.69 910.88 958.3 912.18 957.98C913.38 957.69 914.13 957.46 914.44 957.29C914.74 957.11 914.89 956.87 914.89 956.55C914.89 956.23 914.74 955.97 914.44 955.76C914.15 955.55 913.7 955.44 913.11 955.44C912.41 955.44 911.9 955.6 911.6 955.92C911.3 956.22 911.06 956.64 910.89 957.17L908.75 956.27C909 955.39 909.49 954.67 910.21 954.11C910.94 953.54 911.89 953.26 913.07 953.26C914.35 953.26 915.4 953.6 916.22 954.27C917.04 954.95 917.45 955.99 917.45 957.4L917.45 964.07L915.29 964.07ZM912.69 959.76C912.03 959.92 911.59 960.12 911.38 960.34C911.18 960.55 911.09 960.8 911.09 961.07C911.09 961.79 911.6 962.14 912.63 962.14C913.41 962.14 913.99 962 914.38 961.71C914.77 961.4 914.97 961.03 914.97 960.6L914.97 958.77L914.93 958.77C914.88 958.88 914.82 958.97 914.75 959.03C914.7 959.08 914.5 959.18 914.16 959.33C913.81 959.46 913.33 959.61 912.69 959.76ZM926.34 959.82L928.77 960.46C928.54 961.71 928.02 962.68 927.23 963.35C926.43 964.03 925.44 964.37 924.23 964.37C922.81 964.37 921.63 963.88 920.7 962.9C919.79 961.92 919.34 960.56 919.34 958.81C919.34 957.08 919.8 955.73 920.74 954.75C921.7 953.76 922.87 953.26 924.25 953.26C925.43 953.26 926.41 953.6 927.21 954.29C928 954.98 928.49 955.9 928.68 957.05L926.28 957.5C926.02 956.22 925.35 955.58 924.25 955.58C923.53 955.58 922.94 955.86 922.51 956.41C922.08 956.95 921.87 957.76 921.87 958.81C921.87 959.87 922.08 960.68 922.51 961.23C922.93 961.77 923.51 962.05 924.25 962.05C925.42 962.05 926.11 961.31 926.34 959.82ZM930.76 964.07L930.76 949.59L933.34 949.59L933.34 957.9L933.38 957.9L937.2 953.56L940.43 953.56L936.65 957.82L940.77 964.07L937.92 964.07L934.7 959.27L934.66 959.27L933.34 960.78L933.34 964.07L930.76 964.07ZM948.6 960.44L950.4 962.03C949.33 963.59 947.89 964.37 946.06 964.37C944.59 964.37 943.4 963.86 942.47 962.86C941.55 961.84 941.08 960.49 941.08 958.81C941.08 957.13 941.54 955.79 942.45 954.79C943.38 953.77 944.54 953.26 945.94 953.26C947.34 953.26 948.49 953.77 949.39 954.79C950.3 955.79 950.76 957.13 950.76 958.81L950.76 959.59L943.7 959.59C943.74 960.39 943.96 961.01 944.36 961.45C944.76 961.87 945.32 962.08 946.02 962.08C946.62 962.08 947.1 961.94 947.49 961.65C947.89 961.34 948.25 960.94 948.6 960.44ZM943.7 957.66L948.26 957.66C948.19 956.99 947.96 956.47 947.57 956.1C947.17 955.71 946.63 955.52 945.94 955.52C945.31 955.52 944.78 955.73 944.38 956.14C943.98 956.55 943.75 957.05 943.7 957.66ZM952.84 964.07L952.84 953.56L955.27 953.56L955.27 954.67L955.31 954.67C955.51 954.27 955.8 953.95 956.19 953.72C956.58 953.48 957.01 953.36 957.48 953.36C957.8 953.36 958.12 953.42 958.43 953.56L958.03 956.06C957.74 955.95 957.47 955.9 957.22 955.9C956.01 955.9 955.41 956.7 955.41 958.3L955.41 964.07L952.84 964.07ZM959.32 960.6L961.64 960C961.83 961.47 962.61 962.2 964 962.2C964.64 962.2 965.14 962.1 965.51 961.91C965.89 961.69 966.08 961.4 966.08 961.03C966.08 960.73 965.94 960.5 965.65 960.36C965.36 960.2 964.75 959.99 963.82 959.72C963.57 959.66 963.38 959.61 963.25 959.57C962.03 959.22 961.14 958.82 960.57 958.36C960 957.88 959.72 957.25 959.72 956.47C959.72 955.6 960.07 954.85 960.77 954.21C961.48 953.58 962.46 953.26 963.69 953.26C966.04 953.26 967.51 954.29 968.11 956.35L965.97 957.01C965.78 956.51 965.52 956.11 965.17 955.82C964.84 955.53 964.35 955.38 963.71 955.38C963.2 955.38 962.8 955.48 962.5 955.68C962.2 955.86 962.06 956.09 962.06 956.35C962.06 956.65 962.23 956.88 962.57 957.05C962.93 957.21 963.81 957.48 965.21 957.88C966.44 958.21 967.27 958.63 967.71 959.15C968.16 959.65 968.39 960.3 968.39 961.09C968.39 961.94 968.01 962.7 967.27 963.37C966.55 964.03 965.49 964.37 964.1 964.37C962.65 964.37 961.52 964 960.73 963.27C959.95 962.53 959.48 961.64 959.32 960.6Z" />
			<path id="Layer" fill-rule="evenodd" class="shp1" d="M609.9 797.8L609.9 787.27L614.37 787.27C615.3 787.27 616.05 787.54 616.61 788.09C617.18 788.64 617.46 789.3 617.46 790.1C617.46 790.98 617.08 791.64 616.32 792.1L616.32 792.11C616.77 792.3 617.14 792.61 617.42 793.03C617.71 793.44 617.86 793.94 617.86 794.52C617.86 795.52 617.55 796.32 616.94 796.92C616.33 797.51 615.32 797.8 613.91 797.8L609.9 797.8ZM611.93 795.92L614.38 795.92C615.34 795.92 615.82 795.45 615.82 794.52C615.82 794.09 615.7 793.76 615.43 793.53C615.18 793.28 614.84 793.16 614.4 793.16L611.93 793.16L611.93 795.92ZM611.93 791.51L614.11 791.51C614.52 791.51 614.84 791.41 615.07 791.22C615.31 791.02 615.43 790.73 615.43 790.35C615.43 789.95 615.32 789.65 615.09 789.45C614.86 789.25 614.53 789.15 614.11 789.15L611.93 789.15L611.93 791.51ZM623.43 797.8L623.43 787.27L625.46 787.27L625.46 795.92L629.8 795.92L629.8 797.8L623.43 797.8ZM636.96 796.91C636.25 797.65 635.36 798.02 634.28 798.02C633.2 798.02 632.3 797.65 631.6 796.91C630.9 796.17 630.55 795.13 630.55 793.81C630.55 792.51 630.91 791.48 631.63 790.73C632.35 789.98 633.24 789.6 634.28 789.6C635.32 789.6 636.2 789.98 636.93 790.73C637.65 791.48 638.01 792.51 638.01 793.81C638.01 795.13 637.66 796.17 636.96 796.91ZM632.96 795.63C633.28 796.05 633.72 796.26 634.28 796.26C634.84 796.26 635.28 796.05 635.6 795.63C635.92 795.2 636.08 794.59 636.08 793.81C636.08 793.03 635.92 792.43 635.59 792.01C635.27 791.57 634.83 791.36 634.28 791.36C633.73 791.36 633.29 791.57 632.96 791.99C632.63 792.41 632.47 793.02 632.47 793.81C632.47 794.6 632.63 795.21 632.96 795.63ZM639.59 797.8L639.59 786.82L641.55 786.82L641.55 790.59L641.58 790.59C641.6 790.56 641.62 790.53 641.65 790.49C641.69 790.44 641.76 790.36 641.88 790.25C642.01 790.14 642.15 790.04 642.29 789.95C642.44 789.86 642.63 789.77 642.86 789.7C643.1 789.63 643.35 789.6 643.61 789.6C644.59 789.6 645.41 789.99 646.05 790.77C646.7 791.55 647.02 792.56 647.02 793.81C647.02 795.1 646.71 796.12 646.08 796.88C645.45 797.64 644.62 798.02 643.56 798.02C643.13 798.02 642.74 797.94 642.39 797.78C642.04 797.61 641.8 797.45 641.67 797.29L641.46 797.03L641.43 797.03L641.43 797.8L639.59 797.8ZM641.55 793.07L641.55 794.53C641.55 795.01 641.7 795.42 642 795.77C642.31 796.1 642.73 796.26 643.26 796.26C643.84 796.26 644.28 796.06 644.59 795.65C644.91 795.22 645.07 794.61 645.07 793.81C645.07 793 644.91 792.39 644.59 791.98C644.28 791.57 643.84 791.36 643.26 791.36C642.73 791.36 642.31 791.52 642 791.86C641.7 792.19 641.55 792.59 641.55 793.07ZM648.6 797.8L648.6 786.82L650.55 786.82L650.55 790.59L650.58 790.59C650.6 790.56 650.63 790.53 650.66 790.49C650.69 790.44 650.76 790.36 650.89 790.25C651.01 790.14 651.15 790.04 651.29 789.95C651.44 789.86 651.63 789.77 651.86 789.7C652.1 789.63 652.35 789.6 652.61 789.6C653.6 789.6 654.41 789.99 655.05 790.77C655.7 791.55 656.03 792.56 656.03 793.81C656.03 795.1 655.71 796.12 655.08 796.88C654.46 797.64 653.62 798.02 652.57 798.02C652.14 798.02 651.75 797.94 651.4 797.78C651.05 797.61 650.8 797.45 650.67 797.29L650.46 797.03L650.43 797.03L650.43 797.8L648.6 797.8ZM650.55 793.07L650.55 794.53C650.55 795.01 650.7 795.42 651 795.77C651.32 796.1 651.74 796.26 652.27 796.26C652.84 796.26 653.28 796.06 653.59 795.65C653.91 795.22 654.07 794.61 654.07 793.81C654.07 793 653.91 792.39 653.59 791.98C653.28 791.57 652.84 791.36 652.27 791.36C651.74 791.36 651.32 791.52 651 791.86C650.7 792.19 650.55 792.59 650.55 793.07ZM657.92 801.18L659.52 797.41L656.33 789.82L658.32 789.82L660.38 795.22L660.41 795.22L662.47 789.82L664.45 789.82L659.87 801.18L657.92 801.18Z" />
			<path id="Layer" fill-rule="evenodd" class="shp1" d="M729.24 713.9L729.24 703.37L733.71 703.37C734.64 703.37 735.39 703.65 735.95 704.2C736.52 704.74 736.81 705.4 736.81 706.2C736.81 707.08 736.43 707.75 735.67 708.2L735.67 708.21C736.12 708.4 736.48 708.71 736.76 709.13C737.05 709.54 737.2 710.04 737.2 710.62C737.2 711.62 736.89 712.42 736.28 713.03C735.67 713.61 734.66 713.9 733.26 713.9L729.24 713.9ZM731.27 712.02L733.72 712.02C734.69 712.02 735.17 711.55 735.17 710.62C735.17 710.19 735.04 709.86 734.78 709.63C734.53 709.39 734.18 709.27 733.74 709.27L731.27 709.27L731.27 712.02ZM731.27 707.61L733.45 707.61C733.87 707.61 734.19 707.52 734.42 707.33C734.66 707.13 734.78 706.83 734.78 706.45C734.78 706.05 734.66 705.75 734.43 705.55C734.2 705.35 733.88 705.25 733.45 705.25L731.27 705.25L731.27 707.61ZM742.77 713.9L742.77 703.37L744.8 703.37L744.8 712.02L749.15 712.02L749.15 713.9L742.77 713.9ZM750.42 713.9L750.42 705.93L752.37 705.93L752.37 713.9L750.42 713.9ZM750.42 704.77L750.42 702.92L752.37 702.92L752.37 704.77L750.42 704.77ZM754.47 713.9L754.47 705.93L756.35 705.93L756.35 706.69L756.38 706.69C756.6 706.41 756.91 706.18 757.29 705.99C757.67 705.8 758.07 705.7 758.49 705.7C759.37 705.7 760.06 705.97 760.56 706.5C761.07 707.02 761.32 707.75 761.32 708.68L761.32 713.9L759.36 713.9L759.36 709.16C759.36 708.61 759.26 708.2 759.05 707.93C758.83 707.65 758.47 707.51 757.96 707.51C757.48 707.51 757.1 707.65 756.83 707.93C756.56 708.2 756.43 708.56 756.43 709.02L756.43 713.9L754.47 713.9ZM763.35 713.9L763.35 702.92L765.3 702.92L765.3 709.22L765.33 709.22L768.23 705.93L770.68 705.93L767.81 709.16L770.94 713.9L768.77 713.9L766.34 710.26L766.31 710.26L765.3 711.4L765.3 713.9L763.35 713.9Z" />
			<path id="Layer" fill-rule="evenodd" class="shp1" d="M882.64 713.9L882.64 703.37L887.11 703.37C888.04 703.37 888.79 703.65 889.35 704.2C889.92 704.74 890.2 705.4 890.2 706.2C890.2 707.08 889.82 707.75 889.06 708.2L889.06 708.21C889.51 708.4 889.88 708.71 890.16 709.13C890.45 709.54 890.59 710.04 890.59 710.62C890.59 711.62 890.29 712.42 889.68 713.03C889.07 713.61 888.06 713.9 886.65 713.9L882.64 713.9ZM884.67 712.02L887.12 712.02C888.08 712.02 888.56 711.55 888.56 710.62C888.56 710.19 888.43 709.86 888.17 709.63C887.92 709.39 887.58 709.27 887.14 709.27L884.67 709.27L884.67 712.02ZM884.67 707.61L886.85 707.61C887.26 707.61 887.58 707.52 887.81 707.33C888.05 707.13 888.17 706.83 888.17 706.45C888.17 706.05 888.06 705.75 887.83 705.55C887.6 705.35 887.27 705.25 886.85 705.25L884.67 705.25L884.67 707.61ZM898.14 713.01C897.43 713.75 896.54 714.12 895.46 714.12C894.38 714.12 893.48 713.75 892.78 713.01C892.08 712.27 891.73 711.24 891.73 709.91C891.73 708.61 892.09 707.58 892.81 706.83C893.53 706.08 894.42 705.7 895.46 705.7C896.5 705.7 897.38 706.08 898.11 706.83C898.83 707.58 899.19 708.61 899.19 709.91C899.19 711.24 898.84 712.27 898.14 713.01ZM894.14 711.73C894.46 712.15 894.9 712.36 895.46 712.36C896.02 712.36 896.46 712.15 896.78 711.73C897.1 711.3 897.26 710.69 897.26 709.91C897.26 709.13 897.1 708.53 896.77 708.11C896.45 707.68 896.01 707.46 895.46 707.46C894.91 707.46 894.47 707.67 894.14 708.09C893.81 708.51 893.65 709.12 893.65 709.91C893.65 710.7 893.81 711.31 894.14 711.73ZM901.18 711.05L901.18 707.58L899.95 707.58L899.95 705.93L901.23 705.93L901.23 703.97L903.08 703.97L903.08 705.93L905.09 705.93L905.09 707.58L903.11 707.58L903.11 710.87C903.11 711.3 903.18 711.59 903.32 711.76C903.46 711.93 903.74 712.02 904.17 712.02L904.82 712.02L904.82 713.9L903.99 713.9C902.92 713.9 902.18 713.67 901.78 713.22C901.38 712.77 901.18 712.05 901.18 711.05ZM906.85 711.05L906.85 707.58L905.62 707.58L905.62 705.93L906.9 705.93L906.9 703.97L908.75 703.97L908.75 705.93L910.76 705.93L910.76 707.58L908.78 707.58L908.78 710.87C908.78 711.3 908.85 711.59 908.99 711.76C909.13 711.93 909.41 712.02 909.84 712.02L910.49 712.02L910.49 713.9L909.66 713.9C908.59 713.9 907.85 713.67 907.45 713.22C907.05 712.77 906.85 712.05 906.85 711.05ZM918.14 713.01C917.44 713.75 916.55 714.12 915.47 714.12C914.38 714.12 913.49 713.75 912.79 713.01C912.08 712.27 911.73 711.24 911.73 709.91C911.73 708.61 912.1 707.58 912.82 706.83C913.54 706.08 914.42 705.7 915.47 705.7C916.51 705.7 917.39 706.08 918.11 706.83C918.83 707.58 919.19 708.61 919.19 709.91C919.19 711.24 918.84 712.27 918.14 713.01ZM914.14 711.73C914.46 712.15 914.9 712.36 915.47 712.36C916.03 712.36 916.47 712.15 916.79 711.73C917.11 711.3 917.27 710.69 917.27 709.91C917.27 709.13 917.1 708.53 916.77 708.11C916.45 707.68 916.02 707.46 915.47 707.46C914.91 707.46 914.47 707.67 914.14 708.09C913.82 708.51 913.66 709.12 913.66 709.91C913.66 710.7 913.82 711.31 914.14 711.73ZM920.78 713.9L920.78 705.93L922.57 705.93L922.57 706.69L922.6 706.69C922.78 706.41 923.04 706.18 923.38 705.99C923.73 705.8 924.11 705.7 924.52 705.7C924.95 705.7 925.34 705.8 925.71 706C926.08 706.19 926.37 706.44 926.56 706.75L926.59 706.75C926.79 706.44 927.07 706.19 927.44 706C927.81 705.8 928.22 705.7 928.66 705.7C929.61 705.7 930.37 705.95 930.92 706.45C931.48 706.95 931.76 707.62 931.76 708.44L931.76 713.9L929.97 713.9L929.97 708.84C929.97 708.45 929.85 708.13 929.62 707.88C929.4 707.63 929.06 707.51 928.59 707.51C928.14 707.51 927.8 707.62 927.56 707.85C927.33 708.08 927.22 708.38 927.22 708.74L927.22 713.9L925.43 713.9L925.43 708.84C925.43 708.46 925.31 708.15 925.07 707.9C924.83 707.64 924.49 707.51 924.04 707.51C923.59 707.51 923.25 707.62 923.02 707.85C922.79 708.08 922.68 708.38 922.68 708.74L922.68 713.9L920.78 713.9ZM937.7 713.9L937.7 703.37L939.79 703.37L942.85 710.2L942.88 710.2L945.93 703.37L948.04 703.37L948.04 713.9L946.05 713.9L946.05 707.43L946.02 707.43L943.03 713.9L942.7 713.9L939.7 707.43L939.68 707.43L939.68 713.9L937.7 713.9ZM950.29 713.9L950.29 705.93L952.24 705.93L952.24 713.9L950.29 713.9ZM950.29 704.77L950.29 702.92L952.24 702.92L952.24 704.77L950.29 704.77ZM959.41 713.9L959.41 713.13L959.38 713.13C959.33 713.2 959.26 713.29 959.15 713.4C959.06 713.51 958.83 713.66 958.46 713.85C958.1 714.03 957.71 714.12 957.28 714.12C956.22 714.12 955.38 713.74 954.75 712.98C954.13 712.22 953.82 711.2 953.82 709.91C953.82 708.62 954.16 707.6 954.84 706.84C955.52 706.08 956.32 705.7 957.25 705.7C957.67 705.7 958.04 705.79 958.37 705.96C958.71 706.12 958.94 706.28 959.06 706.44L959.26 706.69L959.29 706.69L959.29 702.92L961.25 702.92L961.25 713.9L959.41 713.9ZM959.29 710.63L959.29 709.18C959.29 708.69 959.14 708.29 958.82 707.96C958.52 707.63 958.11 707.46 957.58 707.46C957 707.46 956.56 707.67 956.24 708.08C955.93 708.49 955.77 709.1 955.77 709.91C955.77 710.71 955.93 711.33 956.24 711.75C956.56 712.16 957 712.36 957.58 712.36C958.11 712.36 958.52 712.2 958.82 711.87C959.14 711.53 959.29 711.12 959.29 710.63Z" />
			<path id="Layer" fill-rule="evenodd" class="shp1" d="M1157.16 732.2L1156.55 730.47L1152.54 730.47L1151.94 732.2L1149.92 732.2L1153.73 721.67L1155.46 721.67L1159.25 732.2L1157.16 732.2ZM1154.54 724.68L1153.11 728.79L1155.98 728.79L1154.57 724.68L1154.54 724.68ZM1163.61 728.68L1165.74 728.22C1165.87 729.04 1166.08 729.64 1166.37 730.01C1166.68 730.37 1167.16 730.55 1167.83 730.55C1168.4 730.55 1168.86 730.45 1169.2 730.25C1169.54 730.04 1169.71 729.73 1169.71 729.33C1169.71 728.91 1169.55 728.59 1169.22 728.37C1168.9 728.14 1168.15 727.84 1166.99 727.48C1165.9 727.14 1165.12 726.73 1164.66 726.25C1164.21 725.76 1163.98 725.15 1163.98 724.44C1163.98 723.62 1164.3 722.92 1164.93 722.34C1165.57 721.75 1166.44 721.45 1167.53 721.45C1168.53 721.45 1169.38 721.69 1170.09 722.17C1170.81 722.65 1171.26 723.37 1171.44 724.32L1169.47 724.82C1169.16 723.83 1168.51 723.33 1167.53 723.33C1167.01 723.33 1166.62 723.43 1166.36 723.63C1166.11 723.83 1165.98 724.1 1165.98 724.43C1165.98 724.74 1166.13 724.98 1166.42 725.15C1166.71 725.31 1167.46 725.6 1168.66 726.01C1169.82 726.41 1170.62 726.84 1171.05 727.32C1171.48 727.78 1171.7 728.4 1171.7 729.2C1171.7 730.13 1171.35 730.9 1170.65 731.51C1169.94 732.12 1169.01 732.43 1167.83 732.43C1166.64 732.43 1165.67 732.12 1164.93 731.5C1164.2 730.86 1163.76 729.93 1163.61 728.68ZM1178.3 729.45L1179.67 730.65C1178.85 731.84 1177.75 732.43 1176.37 732.43C1175.26 732.43 1174.35 732.05 1173.65 731.29C1172.95 730.51 1172.6 729.49 1172.6 728.22C1172.6 726.94 1172.94 725.93 1173.63 725.17C1174.34 724.39 1175.22 724.01 1176.28 724.01C1177.34 724.01 1178.22 724.39 1178.9 725.17C1179.59 725.93 1179.94 726.94 1179.94 728.22L1179.94 728.8L1174.58 728.8C1174.61 729.42 1174.78 729.89 1175.08 730.22C1175.39 730.54 1175.81 730.7 1176.34 730.7C1176.79 730.7 1177.16 730.59 1177.45 730.37C1177.75 730.14 1178.03 729.83 1178.3 729.45ZM1174.58 727.34L1178.04 727.34C1177.99 726.83 1177.82 726.44 1177.51 726.16C1177.21 725.87 1176.8 725.72 1176.28 725.72C1175.8 725.72 1175.4 725.88 1175.09 726.19C1174.79 726.5 1174.62 726.88 1174.58 727.34ZM1182.67 732.2L1180.91 724.23L1182.82 724.23L1183.87 729.56L1183.92 729.56L1185.69 724.23L1187.47 724.23L1189.1 729.54L1189.14 729.54L1190.34 724.23L1192.22 724.23L1190.31 732.2L1188.38 732.2L1186.56 726.47L1186.53 726.47L1184.56 732.2L1182.67 732.2ZM1198.74 729.45L1200.11 730.65C1199.3 731.84 1198.2 732.43 1196.82 732.43C1195.7 732.43 1194.8 732.05 1194.09 731.29C1193.39 730.51 1193.04 729.49 1193.04 728.22C1193.04 726.94 1193.39 725.93 1194.08 725.17C1194.78 724.39 1195.66 724.01 1196.73 724.01C1197.79 724.01 1198.66 724.39 1199.34 725.17C1200.04 725.93 1200.38 726.94 1200.38 728.22L1200.38 728.8L1195.03 728.8C1195.06 729.42 1195.22 729.89 1195.52 730.22C1195.83 730.54 1196.25 730.7 1196.79 730.7C1197.24 730.7 1197.61 730.59 1197.9 730.37C1198.2 730.14 1198.48 729.83 1198.74 729.45ZM1195.03 727.34L1198.49 727.34C1198.44 726.83 1198.26 726.44 1197.96 726.16C1197.66 725.87 1197.25 725.72 1196.73 725.72C1196.25 725.72 1195.85 725.88 1195.54 726.19C1195.24 726.5 1195.07 726.88 1195.03 727.34ZM1201.96 732.2L1201.96 724.23L1203.81 724.23L1203.81 725.07L1203.83 725.07C1203.99 724.77 1204.21 724.53 1204.5 724.35C1204.8 724.17 1205.12 724.08 1205.47 724.08C1205.72 724.08 1205.97 724.13 1206.2 724.23L1205.9 726.13C1205.68 726.05 1205.47 726.01 1205.28 726.01C1204.37 726.01 1203.91 726.61 1203.91 727.83L1203.91 732.2L1201.96 732.2Z" />
			<path id="Layer" fill-rule="evenodd" class="shp1" d="M1339.2 745.93L1338.6 744.2L1334.59 744.2L1333.98 745.93L1331.97 745.93L1335.77 735.4L1337.5 735.4L1341.29 745.93L1339.2 745.93ZM1336.59 738.41L1335.16 742.52L1338.03 742.52L1336.62 738.41L1336.59 738.41ZM1346.33 745.93L1346.33 735.4L1348.36 735.4L1348.36 744.05L1352.71 744.05L1352.71 745.93L1346.33 745.93ZM1359.86 745.04C1359.16 745.79 1358.27 746.16 1357.18 746.16C1356.1 746.16 1355.21 745.79 1354.51 745.04C1353.8 744.3 1353.45 743.27 1353.45 741.95C1353.45 740.64 1353.81 739.62 1354.54 738.86C1355.26 738.11 1356.14 737.73 1357.18 737.73C1358.23 737.73 1359.11 738.11 1359.83 738.86C1360.55 739.62 1360.91 740.64 1360.91 741.95C1360.91 743.27 1360.56 744.3 1359.86 745.04ZM1355.86 743.77C1356.18 744.19 1356.62 744.4 1357.18 744.4C1357.75 744.4 1358.19 744.19 1358.51 743.77C1358.83 743.34 1358.99 742.73 1358.99 741.95C1358.99 741.16 1358.82 740.56 1358.49 740.14C1358.17 739.71 1357.73 739.49 1357.18 739.49C1356.63 739.49 1356.19 739.71 1355.86 740.13C1355.54 740.55 1355.38 741.15 1355.38 741.95C1355.38 742.74 1355.54 743.35 1355.86 743.77ZM1362.5 745.93L1362.5 734.95L1364.45 734.95L1364.45 738.73L1364.48 738.73C1364.5 738.7 1364.53 738.66 1364.56 738.62C1364.59 738.57 1364.66 738.49 1364.78 738.38C1364.91 738.27 1365.05 738.17 1365.19 738.08C1365.34 737.99 1365.53 737.91 1365.76 737.84C1366 737.77 1366.25 737.73 1366.51 737.73C1367.5 737.73 1368.31 738.13 1368.95 738.91C1369.6 739.68 1369.93 740.69 1369.93 741.95C1369.93 743.23 1369.61 744.25 1368.98 745.02C1368.36 745.78 1367.52 746.16 1366.47 746.16C1366.04 746.16 1365.65 746.08 1365.3 745.92C1364.95 745.75 1364.7 745.58 1364.57 745.42L1364.36 745.16L1364.33 745.16L1364.33 745.93L1362.5 745.93ZM1364.45 741.21L1364.45 742.67C1364.45 743.15 1364.6 743.56 1364.91 743.9C1365.22 744.23 1365.64 744.4 1366.17 744.4C1366.74 744.4 1367.18 744.19 1367.49 743.78C1367.81 743.36 1367.97 742.75 1367.97 741.95C1367.97 741.13 1367.81 740.52 1367.49 740.11C1367.18 739.7 1366.74 739.49 1366.17 739.49C1365.64 739.49 1365.22 739.66 1364.91 739.99C1364.6 740.32 1364.45 740.73 1364.45 741.21ZM1371.5 745.93L1371.5 734.95L1373.46 734.95L1373.46 738.73L1373.49 738.73C1373.51 738.7 1373.53 738.66 1373.56 738.62C1373.59 738.57 1373.67 738.49 1373.79 738.38C1373.92 738.27 1374.05 738.17 1374.19 738.08C1374.34 737.99 1374.54 737.91 1374.77 737.84C1375.01 737.77 1375.26 737.73 1375.52 737.73C1376.5 737.73 1377.31 738.13 1377.95 738.91C1378.61 739.68 1378.93 740.69 1378.93 741.95C1378.93 743.23 1378.62 744.25 1377.98 745.02C1377.36 745.78 1376.53 746.16 1375.47 746.16C1375.04 746.16 1374.65 746.08 1374.3 745.92C1373.95 745.75 1373.71 745.58 1373.58 745.42L1373.37 745.16L1373.34 745.16L1373.34 745.93L1371.5 745.93ZM1373.46 741.21L1373.46 742.67C1373.46 743.15 1373.61 743.56 1373.91 743.9C1374.22 744.23 1374.64 744.4 1375.17 744.4C1375.74 744.4 1376.18 744.19 1376.5 743.78C1376.82 743.36 1376.98 742.75 1376.98 741.95C1376.98 741.13 1376.82 740.52 1376.5 740.11C1376.18 739.7 1375.74 739.49 1375.17 739.49C1374.64 739.49 1374.22 739.66 1373.91 739.99C1373.61 740.32 1373.46 740.73 1373.46 741.21ZM1380.83 749.32L1382.42 745.54L1379.24 737.96L1381.22 737.96L1383.28 743.36L1383.31 743.36L1385.37 737.96L1387.36 737.96L1382.77 749.32L1380.83 749.32Z" />
			<path id="Layer" fill-rule="evenodd" class="shp1" d="M1264.13 558.31L1263.53 556.58L1259.52 556.58L1258.91 558.31L1256.9 558.31L1260.7 547.78L1262.43 547.78L1266.22 558.31L1264.13 558.31ZM1261.52 550.78L1260.09 554.89L1262.96 554.89L1261.55 550.78L1261.52 550.78ZM1271.26 558.31L1271.26 547.78L1273.35 547.78L1276.4 554.6L1276.43 554.6L1279.49 547.78L1281.59 547.78L1281.59 558.31L1279.61 558.31L1279.61 551.84L1279.58 551.84L1276.58 558.31L1276.25 558.31L1273.26 551.84L1273.23 551.84L1273.23 558.31L1271.26 558.31ZM1288.39 558.31L1288.39 557.54L1288.36 557.54C1288.34 557.57 1288.31 557.61 1288.28 557.66C1288.25 557.7 1288.18 557.77 1288.06 557.88C1287.94 557.99 1287.8 558.09 1287.65 558.18C1287.5 558.27 1287.29 558.36 1287.03 558.43C1286.77 558.5 1286.49 558.53 1286.19 558.53C1285.23 558.53 1284.51 558.31 1284.03 557.85C1283.55 557.39 1283.32 556.83 1283.32 556.17C1283.32 555.48 1283.52 554.95 1283.93 554.59C1284.35 554.23 1285.04 553.93 1286.03 553.69C1286.94 553.47 1287.51 553.29 1287.74 553.16C1287.97 553.03 1288.09 552.85 1288.09 552.6C1288.09 552.36 1287.97 552.16 1287.74 552C1287.52 551.84 1287.18 551.76 1286.73 551.76C1286.2 551.76 1285.82 551.88 1285.59 552.12C1285.36 552.35 1285.18 552.67 1285.05 553.07L1283.42 552.39C1283.61 551.72 1283.98 551.18 1284.54 550.75C1285.09 550.32 1285.81 550.11 1286.7 550.11C1287.67 550.11 1288.47 550.36 1289.09 550.87C1289.72 551.39 1290.03 552.18 1290.03 553.25L1290.03 558.31L1288.39 558.31ZM1286.42 555.04C1285.92 555.16 1285.58 555.31 1285.42 555.48C1285.27 555.64 1285.2 555.82 1285.2 556.03C1285.2 556.58 1285.59 556.85 1286.37 556.85C1286.96 556.85 1287.4 556.74 1287.69 556.52C1288 556.28 1288.15 556 1288.15 555.67L1288.15 554.29L1288.12 554.29C1288.08 554.37 1288.03 554.44 1287.98 554.49C1287.94 554.53 1287.79 554.6 1287.53 554.71C1287.27 554.81 1286.9 554.92 1286.42 555.04ZM1291.98 558.31L1291.98 550.33L1293.94 550.33L1293.94 558.31L1291.98 558.31ZM1291.98 549.18L1291.98 547.33L1293.94 547.33L1293.94 549.18L1291.98 549.18ZM1296.04 558.31L1296.04 550.33L1297.92 550.33L1297.92 551.1L1297.95 551.1C1298.17 550.82 1298.47 550.58 1298.85 550.39C1299.23 550.2 1299.63 550.11 1300.05 550.11C1300.93 550.11 1301.63 550.37 1302.13 550.91C1302.63 551.43 1302.88 552.15 1302.88 553.09L1302.88 558.31L1300.92 558.31L1300.92 553.57C1300.92 553.02 1300.82 552.6 1300.61 552.33C1300.4 552.05 1300.04 551.91 1299.53 551.91C1299.04 551.91 1298.67 552.05 1298.4 552.33C1298.13 552.6 1297.99 552.97 1297.99 553.43L1297.99 558.31L1296.04 558.31Z" />
			<path id="Layer" fill-rule="evenodd" class="shp1" d="M1131.43 553.73L1130.83 552L1126.81 552L1126.21 553.73L1124.2 553.73L1128 543.2L1129.73 543.2L1133.52 553.73L1131.43 553.73ZM1128.81 546.21L1127.39 550.31L1130.26 550.31L1128.84 546.21L1128.81 546.21ZM1138.56 553.73L1138.56 543.2L1142.83 543.2C1143.91 543.2 1144.79 543.51 1145.45 544.12C1146.12 544.72 1146.46 545.53 1146.46 546.55C1146.46 547.32 1146.25 547.96 1145.85 548.5C1145.46 549.03 1144.92 549.4 1144.23 549.62L1146.47 553.73L1144.27 553.73L1142.15 549.82L1140.59 549.82L1140.59 553.73L1138.56 553.73ZM1140.59 548.06L1142.66 548.06C1143.82 548.06 1144.39 547.56 1144.39 546.55C1144.39 545.54 1143.82 545.04 1142.66 545.04L1140.59 545.04L1140.59 548.06ZM1152.51 553.73L1152.51 552.96L1152.48 552.96C1152.46 552.99 1152.44 553.03 1152.41 553.08C1152.38 553.12 1152.3 553.2 1152.18 553.31C1152.06 553.42 1151.93 553.52 1151.78 553.61C1151.63 553.7 1151.42 553.78 1151.16 553.85C1150.9 553.92 1150.62 553.95 1150.32 553.95C1149.35 553.95 1148.63 553.73 1148.15 553.28C1147.68 552.82 1147.44 552.26 1147.44 551.59C1147.44 550.9 1147.65 550.37 1148.06 550.01C1148.47 549.65 1149.17 549.35 1150.15 549.11C1151.06 548.89 1151.64 548.71 1151.87 548.59C1152.1 548.45 1152.21 548.27 1152.21 548.03C1152.21 547.79 1152.1 547.59 1151.87 547.43C1151.65 547.27 1151.31 547.19 1150.86 547.19C1150.33 547.19 1149.95 547.31 1149.72 547.55C1149.49 547.78 1149.3 548.09 1149.17 548.5L1147.55 547.82C1147.74 547.15 1148.11 546.6 1148.66 546.18C1149.21 545.75 1149.94 545.53 1150.83 545.53C1151.8 545.53 1152.6 545.79 1153.22 546.3C1153.84 546.81 1154.15 547.6 1154.15 548.68L1154.15 553.73L1152.51 553.73ZM1150.54 550.46C1150.04 550.58 1149.71 550.73 1149.55 550.9C1149.4 551.06 1149.32 551.25 1149.32 551.46C1149.32 552 1149.72 552.27 1150.5 552.27C1151.09 552.27 1151.53 552.16 1151.82 551.94C1152.12 551.71 1152.27 551.43 1152.27 551.1L1152.27 549.71L1152.24 549.71C1152.2 549.79 1152.16 549.86 1152.11 549.91C1152.07 549.95 1151.92 550.02 1151.66 550.13C1151.39 550.23 1151.02 550.35 1150.54 550.46ZM1156.11 553.73L1156.11 545.76L1157.9 545.76L1157.9 546.52L1157.93 546.52C1158.11 546.24 1158.37 546.01 1158.71 545.82C1159.06 545.63 1159.44 545.53 1159.85 545.53C1160.27 545.53 1160.67 545.63 1161.04 545.83C1161.41 546.02 1161.69 546.27 1161.88 546.59L1161.91 546.59C1162.11 546.27 1162.4 546.02 1162.77 545.83C1163.14 545.63 1163.55 545.53 1163.99 545.53C1164.94 545.53 1165.69 545.78 1166.24 546.28C1166.81 546.79 1167.09 547.45 1167.09 548.27L1167.09 553.73L1165.3 553.73L1165.3 548.68C1165.3 548.28 1165.18 547.96 1164.95 547.71C1164.73 547.46 1164.39 547.34 1163.91 547.34C1163.47 547.34 1163.13 547.45 1162.89 547.68C1162.66 547.91 1162.55 548.21 1162.55 548.57L1162.55 553.73L1160.75 553.73L1160.75 548.68C1160.75 548.29 1160.63 547.98 1160.39 547.73C1160.15 547.47 1159.81 547.34 1159.37 547.34C1158.92 547.34 1158.58 547.45 1158.35 547.68C1158.12 547.91 1158 548.21 1158 548.57L1158 553.73L1156.11 553.73ZM1169.12 557.11L1169.12 545.76L1170.99 545.76L1170.99 546.52L1171.02 546.52C1171.04 546.49 1171.06 546.46 1171.09 546.42C1171.12 546.37 1171.2 546.29 1171.32 546.18C1171.45 546.07 1171.59 545.97 1171.74 545.88C1171.89 545.79 1172.09 545.71 1172.34 545.64C1172.6 545.57 1172.88 545.53 1173.17 545.53C1174.11 545.53 1174.93 545.91 1175.63 546.68C1176.35 547.43 1176.7 548.45 1176.7 549.74C1176.7 551.05 1176.36 552.07 1175.68 552.83C1175 553.58 1174.17 553.95 1173.2 553.95C1172.91 553.95 1172.64 553.92 1172.38 553.85C1172.15 553.78 1171.95 553.7 1171.8 553.61C1171.65 553.51 1171.52 553.41 1171.41 553.32C1171.3 553.22 1171.22 553.14 1171.17 553.07L1171.11 552.96L1171.08 552.96L1171.08 557.11L1169.12 557.11ZM1171.08 548.92L1171.08 550.56C1171.08 551.02 1171.23 551.41 1171.54 551.73C1171.85 552.04 1172.27 552.19 1172.79 552.19C1173.36 552.19 1173.83 551.98 1174.19 551.56C1174.56 551.14 1174.75 550.53 1174.75 549.74C1174.75 548.95 1174.57 548.34 1174.2 547.92C1173.84 547.5 1173.37 547.29 1172.79 547.29C1172.27 547.29 1171.85 547.45 1171.54 547.77C1171.23 548.08 1171.08 548.46 1171.08 548.92Z" />
			<path id="Layer" fill-rule="evenodd" class="shp1" d="M1209.98 413.39L1209.38 411.66L1205.37 411.66L1204.76 413.39L1202.75 413.39L1206.55 402.86L1208.28 402.86L1212.07 413.39L1209.98 413.39ZM1207.37 405.87L1205.94 409.98L1208.81 409.98L1207.4 405.87L1207.37 405.87ZM1217.11 413.39L1217.11 402.86L1221.38 402.86C1222.47 402.86 1223.34 403.17 1224 403.78C1224.67 404.38 1225.01 405.19 1225.01 406.22C1225.01 406.98 1224.81 407.62 1224.41 408.16C1224.01 408.69 1223.47 409.06 1222.78 409.28L1225.02 413.39L1222.83 413.39L1220.71 409.48L1219.14 409.48L1219.14 413.39L1217.11 413.39ZM1219.14 407.72L1221.22 407.72C1222.37 407.72 1222.95 407.22 1222.95 406.22C1222.95 405.2 1222.37 404.7 1221.22 404.7L1219.14 404.7L1219.14 407.72ZM1231.06 413.39L1231.06 412.62L1231.03 412.62C1231.01 412.65 1230.99 412.69 1230.96 412.74C1230.93 412.78 1230.85 412.86 1230.73 412.97C1230.61 413.08 1230.48 413.18 1230.33 413.27C1230.18 413.36 1229.97 413.44 1229.71 413.51C1229.45 413.58 1229.17 413.62 1228.87 413.62C1227.91 413.62 1227.18 413.39 1226.7 412.94C1226.23 412.48 1226 411.92 1226 411.25C1226 410.56 1226.2 410.04 1226.61 409.68C1227.02 409.31 1227.72 409.01 1228.7 408.77C1229.62 408.55 1230.19 408.38 1230.42 408.25C1230.65 408.11 1230.76 407.93 1230.76 407.69C1230.76 407.45 1230.65 407.25 1230.42 407.09C1230.2 406.93 1229.86 406.85 1229.41 406.85C1228.88 406.85 1228.5 406.97 1228.27 407.21C1228.04 407.44 1227.86 407.75 1227.73 408.16L1226.1 407.48C1226.29 406.81 1226.66 406.26 1227.21 405.84C1227.77 405.41 1228.49 405.19 1229.38 405.19C1230.35 405.19 1231.15 405.45 1231.77 405.96C1232.39 406.47 1232.7 407.26 1232.7 408.34L1232.7 413.39L1231.06 413.39ZM1229.09 410.13C1228.59 410.25 1228.26 410.39 1228.1 410.56C1227.95 410.72 1227.88 410.91 1227.88 411.12C1227.88 411.66 1228.27 411.93 1229.05 411.93C1229.64 411.93 1230.08 411.82 1230.37 411.6C1230.67 411.37 1230.82 411.09 1230.82 410.76L1230.82 409.37L1230.79 409.37C1230.75 409.45 1230.71 409.52 1230.66 409.57C1230.62 409.61 1230.47 409.68 1230.21 409.79C1229.95 409.9 1229.58 410.01 1229.09 410.13ZM1235.07 413.39L1235.07 407.07L1233.83 407.07L1233.83 405.42L1235.11 405.42L1235.11 404.29C1235.11 403.61 1235.29 403.13 1235.64 402.85C1236 402.56 1236.52 402.41 1237.2 402.41L1238.77 402.41L1238.77 404.14L1237.61 404.14C1237.37 404.14 1237.2 404.19 1237.1 404.29C1237.01 404.38 1236.96 404.54 1236.96 404.77L1236.96 405.42L1238.98 405.42L1238.98 407.07L1237.02 407.07L1237.02 413.39L1235.07 413.39ZM1240.44 410.55L1240.44 407.07L1239.21 407.07L1239.21 405.42L1240.49 405.42L1240.49 403.46L1242.34 403.46L1242.34 405.42L1244.35 405.42L1244.35 407.07L1242.37 407.07L1242.37 410.37C1242.37 410.79 1242.44 411.08 1242.58 411.25C1242.72 411.43 1243 411.51 1243.43 411.51L1244.08 411.51L1244.08 413.39L1243.25 413.39C1242.18 413.39 1241.44 413.16 1241.04 412.71C1240.64 412.26 1240.44 411.54 1240.44 410.55ZM1251.03 410.64L1252.39 411.84C1251.58 413.02 1250.48 413.62 1249.1 413.62C1247.99 413.62 1247.08 413.23 1246.38 412.47C1245.68 411.7 1245.33 410.68 1245.33 409.4C1245.33 408.13 1245.67 407.11 1246.36 406.35C1247.06 405.58 1247.95 405.19 1249.01 405.19C1250.07 405.19 1250.95 405.58 1251.63 406.35C1252.32 407.11 1252.66 408.13 1252.66 409.4L1252.66 409.99L1247.31 409.99C1247.34 410.6 1247.51 411.07 1247.81 411.4C1248.12 411.73 1248.54 411.89 1249.07 411.89C1249.52 411.89 1249.89 411.78 1250.18 411.55C1250.48 411.32 1250.77 411.02 1251.03 410.64ZM1247.31 408.53L1250.77 408.53C1250.72 408.02 1250.54 407.62 1250.24 407.34C1249.94 407.05 1249.53 406.91 1249.01 406.91C1248.53 406.91 1248.13 407.06 1247.82 407.37C1247.52 407.68 1247.35 408.07 1247.31 408.53ZM1254.24 413.39L1254.24 405.42L1256.09 405.42L1256.09 406.26L1256.12 406.26C1256.27 405.96 1256.49 405.72 1256.78 405.54C1257.08 405.36 1257.41 405.27 1257.76 405.27C1258.01 405.27 1258.25 405.32 1258.48 405.42L1258.18 407.31C1257.96 407.23 1257.75 407.19 1257.56 407.19C1256.65 407.19 1256.19 407.8 1256.19 409.01L1256.19 413.39L1254.24 413.39ZM1259.16 410.76L1260.92 410.31C1261.06 411.42 1261.66 411.98 1262.71 411.98C1263.19 411.98 1263.57 411.9 1263.85 411.75C1264.14 411.59 1264.29 411.37 1264.29 411.09C1264.29 410.86 1264.18 410.69 1263.96 410.58C1263.74 410.46 1263.28 410.3 1262.57 410.1C1262.38 410.05 1262.24 410.01 1262.14 409.98C1261.21 409.72 1260.54 409.41 1260.11 409.06C1259.68 408.7 1259.46 408.22 1259.46 407.63C1259.46 406.97 1259.73 406.4 1260.26 405.92C1260.8 405.43 1261.54 405.19 1262.47 405.19C1264.25 405.19 1265.37 405.97 1265.82 407.54L1264.2 408.04C1264.06 407.65 1263.86 407.35 1263.6 407.13C1263.35 406.91 1262.98 406.8 1262.48 406.8C1262.1 406.8 1261.8 406.88 1261.57 407.03C1261.35 407.17 1261.24 407.34 1261.24 407.54C1261.24 407.76 1261.37 407.93 1261.63 408.07C1261.9 408.19 1262.56 408.4 1263.63 408.7C1264.56 408.95 1265.19 409.27 1265.52 409.66C1265.86 410.04 1266.03 410.53 1266.03 411.13C1266.03 411.78 1265.75 412.35 1265.19 412.86C1264.64 413.37 1263.84 413.62 1262.78 413.62C1261.68 413.62 1260.83 413.34 1260.23 412.79C1259.64 412.23 1259.28 411.55 1259.16 410.76Z" />
			<path id="Layer" fill-rule="evenodd" class="shp1" d="M1118.02 294.41L1117.42 292.68L1113.41 292.68L1112.81 294.41L1110.79 294.41L1114.6 283.88L1116.33 283.88L1120.12 294.41L1118.02 294.41ZM1115.41 286.89L1113.98 290.99L1116.85 290.99L1115.44 286.89L1115.41 286.89ZM1125.15 294.41L1125.15 283.88L1127.18 283.88L1127.18 288.12L1130.79 288.12L1130.79 283.88L1132.82 283.88L1132.82 294.41L1130.79 294.41L1130.79 289.85L1127.18 289.85L1127.18 294.41L1125.15 294.41ZM1140.25 291.65L1141.62 292.86C1140.81 294.04 1139.71 294.63 1138.33 294.63C1137.21 294.63 1136.31 294.25 1135.6 293.49C1134.9 292.72 1134.55 291.69 1134.55 290.42C1134.55 289.15 1134.9 288.13 1135.59 287.37C1136.29 286.6 1137.17 286.21 1138.24 286.21C1139.3 286.21 1140.17 286.6 1140.85 287.37C1141.55 288.13 1141.89 289.15 1141.89 290.42L1141.89 291.01L1136.54 291.01C1136.57 291.62 1136.73 292.09 1137.03 292.42C1137.34 292.74 1137.77 292.9 1138.3 292.9C1138.75 292.9 1139.12 292.79 1139.41 292.57C1139.71 292.34 1139.99 292.03 1140.25 291.65ZM1136.54 289.55L1140 289.55C1139.95 289.04 1139.77 288.64 1139.47 288.36C1139.17 288.07 1138.76 287.92 1138.24 287.92C1137.75 287.92 1137.36 288.08 1137.05 288.39C1136.75 288.7 1136.58 289.09 1136.54 289.55ZM1148.01 294.41L1148.01 293.64L1147.98 293.64C1147.96 293.67 1147.93 293.71 1147.9 293.76C1147.87 293.8 1147.8 293.88 1147.68 293.99C1147.56 294.1 1147.42 294.2 1147.27 294.29C1147.12 294.38 1146.91 294.46 1146.65 294.53C1146.39 294.6 1146.11 294.63 1145.81 294.63C1144.85 294.63 1144.13 294.41 1143.65 293.96C1143.17 293.49 1142.94 292.93 1142.94 292.27C1142.94 291.58 1143.14 291.05 1143.56 290.69C1143.97 290.33 1144.66 290.03 1145.65 289.79C1146.56 289.57 1147.13 289.39 1147.36 289.26C1147.59 289.13 1147.71 288.95 1147.71 288.71C1147.71 288.47 1147.59 288.27 1147.36 288.11C1147.14 287.95 1146.8 287.86 1146.35 287.86C1145.82 287.86 1145.44 287.98 1145.21 288.23C1144.98 288.46 1144.8 288.77 1144.67 289.17L1143.04 288.5C1143.23 287.82 1143.6 287.28 1144.16 286.86C1144.71 286.43 1145.43 286.21 1146.32 286.21C1147.29 286.21 1148.09 286.47 1148.71 286.98C1149.34 287.49 1149.65 288.28 1149.65 289.35L1149.65 294.41L1148.01 294.41ZM1146.04 291.14C1145.54 291.26 1145.2 291.41 1145.04 291.58C1144.89 291.74 1144.82 291.92 1144.82 292.14C1144.82 292.68 1145.21 292.95 1145.99 292.95C1146.58 292.95 1147.02 292.84 1147.31 292.62C1147.62 292.39 1147.77 292.1 1147.77 291.78L1147.77 290.39L1147.74 290.39C1147.7 290.47 1147.65 290.54 1147.6 290.59C1147.56 290.63 1147.41 290.7 1147.15 290.81C1146.89 290.91 1146.52 291.02 1146.04 291.14ZM1153.43 294.41L1150.24 286.43L1152.28 286.43L1154.26 291.56L1154.29 291.56L1156.27 286.43L1158.28 286.43L1155.09 294.41L1153.43 294.41ZM1164.35 291.65L1165.72 292.86C1164.91 294.04 1163.81 294.63 1162.43 294.63C1161.32 294.63 1160.41 294.25 1159.71 293.49C1159.01 292.72 1158.65 291.69 1158.65 290.42C1158.65 289.15 1159 288.13 1159.69 287.37C1160.39 286.6 1161.28 286.21 1162.34 286.21C1163.4 286.21 1164.27 286.6 1164.96 287.37C1165.65 288.13 1165.99 289.15 1165.99 290.42L1165.99 291.01L1160.64 291.01C1160.67 291.62 1160.84 292.09 1161.14 292.42C1161.45 292.74 1161.87 292.9 1162.4 292.9C1162.85 292.9 1163.22 292.79 1163.51 292.57C1163.81 292.34 1164.09 292.03 1164.35 291.65ZM1160.64 289.55L1164.1 289.55C1164.05 289.04 1163.87 288.64 1163.57 288.36C1163.27 288.07 1162.86 287.92 1162.34 287.92C1161.86 287.92 1161.46 288.08 1161.15 288.39C1160.85 288.7 1160.68 289.09 1160.64 289.55ZM1167.57 294.41L1167.57 286.43L1169.45 286.43L1169.45 287.2L1169.48 287.2C1169.7 286.92 1170 286.69 1170.38 286.5C1170.76 286.31 1171.16 286.21 1171.58 286.21C1172.47 286.21 1173.16 286.48 1173.66 287.01C1174.16 287.53 1174.41 288.25 1174.41 289.19L1174.41 294.41L1172.46 294.41L1172.46 289.67C1172.46 289.12 1172.35 288.71 1172.14 288.44C1171.93 288.16 1171.57 288.02 1171.06 288.02C1170.58 288.02 1170.2 288.16 1169.93 288.44C1169.66 288.71 1169.52 289.07 1169.52 289.53L1169.52 294.41L1167.57 294.41Z" />
			<path id="Layer" fill-rule="evenodd" class="shp1" d="M1345.68 239.49L1345.68 228.96L1352.35 228.96L1352.35 230.84L1347.71 230.84L1347.71 233.21L1351.92 233.21L1351.92 235.01L1347.71 235.01L1347.71 237.61L1352.35 237.61L1352.35 239.49L1345.68 239.49ZM1354.23 239.49L1354.23 228.51L1356.26 228.51L1356.26 239.49L1354.23 239.49ZM1358.37 239.49L1358.37 228.51L1360.32 228.51L1360.32 232.29L1360.36 232.29C1360.37 232.26 1360.4 232.22 1360.43 232.18C1360.46 232.13 1360.54 232.05 1360.66 231.94C1360.79 231.83 1360.92 231.73 1361.06 231.64C1361.21 231.55 1361.4 231.47 1361.63 231.4C1361.87 231.33 1362.12 231.29 1362.39 231.29C1363.37 231.29 1364.18 231.69 1364.82 232.47C1365.47 233.24 1365.8 234.25 1365.8 235.51C1365.8 236.79 1365.48 237.81 1364.85 238.57C1364.23 239.34 1363.39 239.72 1362.34 239.72C1361.91 239.72 1361.52 239.64 1361.17 239.48C1360.82 239.31 1360.58 239.14 1360.45 238.98L1360.23 238.72L1360.21 238.72L1360.21 239.49L1358.37 239.49ZM1360.32 234.77L1360.32 236.23C1360.32 236.71 1360.48 237.12 1360.78 237.46C1361.09 237.79 1361.51 237.96 1362.04 237.96C1362.61 237.96 1363.05 237.75 1363.36 237.34C1363.68 236.92 1363.85 236.31 1363.85 235.51C1363.85 234.69 1363.68 234.08 1363.36 233.67C1363.05 233.26 1362.61 233.05 1362.04 233.05C1361.51 233.05 1361.09 233.22 1360.78 233.55C1360.48 233.88 1360.32 234.29 1360.32 234.77ZM1373.25 238.6C1372.55 239.35 1371.66 239.72 1370.58 239.72C1369.49 239.72 1368.6 239.35 1367.9 238.6C1367.2 237.86 1366.85 236.83 1366.85 235.51C1366.85 234.2 1367.21 233.17 1367.93 232.42C1368.65 231.67 1369.54 231.29 1370.58 231.29C1371.62 231.29 1372.5 231.67 1373.23 232.42C1373.95 233.17 1374.31 234.2 1374.31 235.51C1374.31 236.83 1373.96 237.86 1373.25 238.6ZM1369.25 237.33C1369.57 237.75 1370.02 237.96 1370.58 237.96C1371.14 237.96 1371.58 237.75 1371.9 237.33C1372.22 236.9 1372.38 236.29 1372.38 235.51C1372.38 234.72 1372.22 234.12 1371.89 233.7C1371.57 233.27 1371.13 233.05 1370.58 233.05C1370.03 233.05 1369.59 233.26 1369.25 233.69C1368.93 234.11 1368.77 234.71 1368.77 235.51C1368.77 236.3 1368.93 236.9 1369.25 237.33ZM1377.05 239.49L1375.29 231.52L1377.2 231.52L1378.25 236.84L1378.3 236.84L1380.07 231.52L1381.85 231.52L1383.49 236.83L1383.52 236.83L1384.72 231.52L1386.6 231.52L1384.69 239.49L1382.77 239.49L1380.95 233.76L1380.92 233.76L1378.95 239.49L1377.05 239.49Z" />
			<path id="Layer" fill-rule="evenodd" class="shp1" d="M1268.09 165.8L1270.22 165.34C1270.35 166.16 1270.56 166.75 1270.86 167.13C1271.16 167.49 1271.64 167.67 1272.31 167.67C1272.89 167.67 1273.34 167.57 1273.68 167.37C1274.02 167.16 1274.19 166.85 1274.19 166.45C1274.19 166.03 1274.03 165.71 1273.7 165.49C1273.38 165.26 1272.63 164.96 1271.47 164.6C1270.38 164.26 1269.6 163.85 1269.14 163.37C1268.69 162.87 1268.46 162.27 1268.46 161.56C1268.46 160.74 1268.78 160.04 1269.41 159.46C1270.05 158.86 1270.92 158.57 1272.01 158.57C1273.01 158.57 1273.86 158.81 1274.57 159.29C1275.29 159.77 1275.74 160.49 1275.92 161.44L1273.95 161.94C1273.64 160.94 1273 160.45 1272.01 160.45C1271.49 160.45 1271.1 160.55 1270.84 160.75C1270.59 160.95 1270.46 161.22 1270.46 161.55C1270.46 161.86 1270.61 162.1 1270.9 162.27C1271.19 162.43 1271.94 162.71 1273.14 163.13C1274.3 163.53 1275.1 163.96 1275.53 164.43C1275.96 164.9 1276.18 165.52 1276.18 166.31C1276.18 167.25 1275.83 168.02 1275.13 168.63C1274.42 169.24 1273.49 169.55 1272.31 169.55C1271.12 169.55 1270.15 169.24 1269.41 168.62C1268.68 167.98 1268.24 167.05 1268.09 165.8ZM1282.39 166.1L1284.24 166.58C1284.05 167.54 1283.66 168.27 1283.06 168.78C1282.46 169.29 1281.7 169.55 1280.79 169.55C1279.71 169.55 1278.82 169.18 1278.11 168.43C1277.42 167.69 1277.08 166.66 1277.08 165.34C1277.08 164.02 1277.43 162.99 1278.14 162.25C1278.87 161.5 1279.75 161.12 1280.81 161.12C1281.7 161.12 1282.45 161.39 1283.05 161.91C1283.65 162.43 1284.02 163.13 1284.16 164L1282.34 164.34C1282.15 163.37 1281.64 162.88 1280.81 162.88C1280.26 162.88 1279.81 163.1 1279.48 163.52C1279.16 163.93 1279 164.53 1279 165.34C1279 166.14 1279.16 166.75 1279.48 167.17C1279.8 167.58 1280.24 167.79 1280.81 167.79C1281.69 167.79 1282.22 167.23 1282.39 166.1ZM1285.74 169.32L1285.74 161.35L1287.59 161.35L1287.59 162.19L1287.62 162.19C1287.77 161.89 1287.99 161.65 1288.28 161.47C1288.58 161.29 1288.91 161.2 1289.26 161.2C1289.51 161.2 1289.75 161.25 1289.98 161.35L1289.68 163.25C1289.46 163.17 1289.26 163.13 1289.06 163.13C1288.15 163.13 1287.7 163.73 1287.7 164.95L1287.7 169.32L1285.74 169.32ZM1296.44 166.57L1297.81 167.77C1296.99 168.96 1295.9 169.55 1294.51 169.55C1293.4 169.55 1292.49 169.17 1291.79 168.41C1291.09 167.63 1290.74 166.61 1290.74 165.34C1290.74 164.06 1291.08 163.04 1291.77 162.28C1292.48 161.51 1293.36 161.12 1294.42 161.12C1295.48 161.12 1296.36 161.51 1297.04 162.28C1297.73 163.04 1298.08 164.06 1298.08 165.34L1298.08 165.92L1292.72 165.92C1292.75 166.54 1292.92 167.01 1293.22 167.34C1293.53 167.66 1293.95 167.82 1294.48 167.82C1294.93 167.82 1295.3 167.71 1295.59 167.49C1295.9 167.26 1296.18 166.95 1296.44 166.57ZM1292.72 164.46L1296.18 164.46C1296.13 163.95 1295.96 163.56 1295.65 163.28C1295.35 162.99 1294.94 162.84 1294.42 162.84C1293.94 162.84 1293.54 162.99 1293.23 163.31C1292.93 163.62 1292.76 164 1292.72 164.46ZM1304.82 166.57L1306.19 167.77C1305.38 168.96 1304.28 169.55 1302.9 169.55C1301.78 169.55 1300.88 169.17 1300.18 168.41C1299.47 167.63 1299.12 166.61 1299.12 165.34C1299.12 164.06 1299.47 163.04 1300.16 162.28C1300.86 161.51 1301.75 161.12 1302.81 161.12C1303.87 161.12 1304.74 161.51 1305.42 162.28C1306.12 163.04 1306.46 164.06 1306.46 165.34L1306.46 165.92L1301.11 165.92C1301.14 166.54 1301.3 167.01 1301.6 167.34C1301.92 167.66 1302.34 167.82 1302.87 167.82C1303.32 167.82 1303.69 167.71 1303.98 167.49C1304.28 167.26 1304.56 166.95 1304.82 166.57ZM1301.11 164.46L1304.57 164.46C1304.52 163.95 1304.34 163.56 1304.04 163.28C1303.74 162.99 1303.33 162.84 1302.81 162.84C1302.33 162.84 1301.93 162.99 1301.62 163.31C1301.32 163.62 1301.15 164 1301.11 164.46ZM1308.04 169.32L1308.04 161.35L1309.92 161.35L1309.92 162.12L1309.95 162.12C1310.17 161.84 1310.47 161.6 1310.85 161.41C1311.23 161.22 1311.63 161.12 1312.05 161.12C1312.93 161.12 1313.63 161.39 1314.13 161.92C1314.63 162.44 1314.88 163.17 1314.88 164.1L1314.88 169.32L1312.93 169.32L1312.93 164.58C1312.93 164.03 1312.82 163.62 1312.61 163.35C1312.4 163.07 1312.04 162.93 1311.53 162.93C1311.04 162.93 1310.67 163.07 1310.4 163.35C1310.13 163.62 1309.99 163.99 1309.99 164.45L1309.99 169.32L1308.04 169.32ZM1316.31 166.69L1318.07 166.24C1318.21 167.35 1318.8 167.91 1319.86 167.91C1320.34 167.91 1320.72 167.83 1321 167.68C1321.29 167.52 1321.44 167.3 1321.44 167.02C1321.44 166.79 1321.33 166.62 1321.1 166.51C1320.88 166.39 1320.42 166.23 1319.72 166.03C1319.53 165.98 1319.39 165.94 1319.28 165.91C1318.36 165.65 1317.69 165.34 1317.25 164.99C1316.82 164.63 1316.61 164.15 1316.61 163.56C1316.61 162.9 1316.87 162.33 1317.41 161.85C1317.95 161.37 1318.68 161.12 1319.62 161.12C1321.4 161.12 1322.52 161.91 1322.97 163.47L1321.35 163.97C1321.21 163.59 1321 163.29 1320.74 163.06C1320.49 162.85 1320.12 162.73 1319.63 162.73C1319.25 162.73 1318.94 162.81 1318.71 162.96C1318.49 163.1 1318.38 163.27 1318.38 163.47C1318.38 163.69 1318.51 163.87 1318.77 164C1319.04 164.12 1319.71 164.33 1320.77 164.63C1321.71 164.88 1322.34 165.2 1322.67 165.59C1323.01 165.97 1323.18 166.46 1323.18 167.07C1323.18 167.71 1322.9 168.28 1322.34 168.8C1321.79 169.3 1320.98 169.55 1319.93 169.55C1318.83 169.55 1317.98 169.27 1317.37 168.72C1316.78 168.16 1316.43 167.48 1316.31 166.69Z" />
			<path id="Layer" fill-rule="evenodd" class="shp1" d="M988.41 468.31L988.41 457.78L990.5 457.78L993.56 464.6L993.59 464.6L996.64 457.78L998.75 457.78L998.75 468.31L996.76 468.31L996.76 461.84L996.73 461.84L993.74 468.31L993.41 468.31L990.41 461.84L990.38 461.84L990.38 468.31L988.41 468.31ZM1001 468.31L1001 460.33L1002.95 460.33L1002.95 468.31L1001 468.31ZM1001 459.18L1001 457.33L1002.95 457.33L1002.95 459.18L1001 459.18ZM1010.12 468.31L1010.12 467.54L1010.09 467.54C1010.04 467.61 1009.96 467.7 1009.86 467.81C1009.77 467.92 1009.54 468.07 1009.17 468.26C1008.81 468.44 1008.42 468.53 1007.98 468.53C1006.93 468.53 1006.09 468.15 1005.46 467.39C1004.84 466.63 1004.52 465.6 1004.52 464.32C1004.52 463.03 1004.87 462 1005.55 461.25C1006.23 460.49 1007.03 460.11 1007.95 460.11C1008.37 460.11 1008.75 460.19 1009.08 460.36C1009.42 460.52 1009.65 460.68 1009.77 460.84L1009.97 461.1L1010 461.1L1010 457.33L1011.95 457.33L1011.95 468.31L1010.12 468.31ZM1010 465.04L1010 463.58C1010 463.1 1009.84 462.69 1009.53 462.36C1009.23 462.03 1008.82 461.87 1008.28 461.87C1007.71 461.87 1007.27 462.07 1006.95 462.48C1006.64 462.9 1006.48 463.51 1006.48 464.32C1006.48 465.12 1006.64 465.73 1006.95 466.15C1007.27 466.57 1007.71 466.77 1008.28 466.77C1008.82 466.77 1009.23 466.61 1009.53 466.27C1009.84 465.93 1010 465.52 1010 465.04ZM1020.64 468.31L1016.84 457.78L1018.97 457.78L1021.58 465.25L1021.62 465.25L1024.15 457.78L1026.25 457.78L1022.49 468.31L1020.64 468.31ZM1031.87 465.55L1033.24 466.76C1032.43 467.94 1031.33 468.53 1029.95 468.53C1028.84 468.53 1027.93 468.15 1027.23 467.39C1026.53 466.61 1026.17 465.59 1026.17 464.32C1026.17 463.05 1026.52 462.03 1027.21 461.27C1027.91 460.49 1028.8 460.11 1029.86 460.11C1030.92 460.11 1031.79 460.49 1032.48 461.27C1033.17 462.03 1033.51 463.05 1033.51 464.32L1033.51 464.91L1028.16 464.91C1028.19 465.52 1028.36 465.99 1028.66 466.32C1028.97 466.64 1029.39 466.8 1029.92 466.8C1030.37 466.8 1030.74 466.69 1031.03 466.47C1031.33 466.24 1031.61 465.93 1031.87 465.55ZM1028.16 463.45L1031.62 463.45C1031.57 462.94 1031.39 462.54 1031.09 462.26C1030.79 461.97 1030.38 461.82 1029.86 461.82C1029.38 461.82 1028.98 461.98 1028.67 462.29C1028.37 462.6 1028.2 462.99 1028.16 463.45ZM1035.09 468.31L1035.09 460.33L1036.97 460.33L1036.97 461.1L1037 461.1C1037.22 460.82 1037.52 460.58 1037.9 460.39C1038.28 460.2 1038.68 460.11 1039.1 460.11C1039.99 460.11 1040.68 460.37 1041.18 460.91C1041.68 461.43 1041.93 462.15 1041.93 463.09L1041.93 468.31L1039.98 468.31L1039.98 463.57C1039.98 463.02 1039.87 462.6 1039.66 462.33C1039.45 462.05 1039.09 461.91 1038.58 461.91C1038.1 461.91 1037.72 462.05 1037.45 462.33C1037.18 462.6 1037.04 462.97 1037.04 463.43L1037.04 468.31L1035.09 468.31ZM1044.37 465.46L1044.37 461.99L1043.13 461.99L1043.13 460.33L1044.41 460.33L1044.41 458.38L1046.26 458.38L1046.26 460.33L1048.28 460.33L1048.28 461.99L1046.29 461.99L1046.29 465.28C1046.29 465.7 1046.36 466 1046.5 466.17C1046.64 466.34 1046.93 466.43 1047.36 466.43L1048 466.43L1048 468.31L1047.18 468.31C1046.11 468.31 1045.37 468.08 1044.97 467.63C1044.57 467.18 1044.37 466.45 1044.37 465.46Z" />
			<path id="Layer" fill-rule="evenodd" class="shp1" d="M906.98 533.9L906.98 525.25L903.9 525.25L903.9 523.37L912.1 523.37L912.1 525.25L909.01 525.25L909.01 533.9L906.98 533.9ZM917.98 533.01C917.28 533.75 916.39 534.12 915.31 534.12C914.22 534.12 913.33 533.75 912.63 533.01C911.93 532.27 911.58 531.24 911.58 529.91C911.58 528.61 911.94 527.58 912.66 526.83C913.38 526.08 914.26 525.7 915.31 525.7C916.35 525.7 917.23 526.08 917.95 526.83C918.67 527.58 919.03 528.61 919.03 529.91C919.03 531.24 918.68 532.27 917.98 533.01ZM913.98 531.73C914.3 532.15 914.74 532.36 915.31 532.36C915.87 532.36 916.31 532.15 916.63 531.73C916.95 531.3 917.11 530.69 917.11 529.91C917.11 529.13 916.94 528.53 916.61 528.11C916.29 527.68 915.86 527.46 915.31 527.46C914.75 527.46 914.31 527.67 913.98 528.09C913.66 528.51 913.5 529.12 913.5 529.91C913.5 530.7 913.66 531.31 913.98 531.73ZM920.62 537.28L920.62 525.93L922.49 525.93L922.49 526.69L922.52 526.69C922.54 526.66 922.56 526.63 922.59 526.59C922.62 526.54 922.7 526.46 922.82 526.35C922.95 526.24 923.09 526.14 923.24 526.05C923.39 525.96 923.59 525.88 923.84 525.81C924.1 525.74 924.38 525.7 924.67 525.7C925.61 525.7 926.43 526.08 927.13 526.84C927.85 527.6 928.2 528.62 928.2 529.91C928.2 531.22 927.86 532.24 927.18 533C926.5 533.75 925.67 534.12 924.7 534.12C924.41 534.12 924.13 534.09 923.88 534.02C923.64 533.95 923.45 533.87 923.3 533.78C923.15 533.68 923.02 533.58 922.91 533.49C922.8 533.39 922.72 533.31 922.67 533.24L922.61 533.13L922.58 533.13L922.58 537.28L920.62 537.28ZM922.58 529.09L922.58 530.73C922.58 531.19 922.73 531.58 923.04 531.9C923.35 532.21 923.77 532.36 924.29 532.36C924.86 532.36 925.33 532.15 925.69 531.73C926.06 531.31 926.25 530.7 926.25 529.91C926.25 529.12 926.07 528.51 925.7 528.09C925.34 527.67 924.87 527.46 924.29 527.46C923.77 527.46 923.35 527.62 923.04 527.94C922.73 528.25 922.58 528.63 922.58 529.09ZM933.7 533.9L933.7 523.37L935.79 523.37L938.84 530.2L938.87 530.2L941.92 523.37L944.03 523.37L944.03 533.9L942.04 533.9L942.04 527.43L942.01 527.43L939.02 533.9L938.69 533.9L935.7 527.43L935.67 527.43L935.67 533.9L933.7 533.9ZM946.28 533.9L946.28 525.93L948.24 525.93L948.24 533.9L946.28 533.9ZM946.28 524.77L946.28 522.92L948.24 522.92L948.24 524.77L946.28 524.77ZM955.4 533.9L955.4 533.13L955.37 533.13C955.32 533.2 955.25 533.29 955.15 533.4C955.06 533.51 954.83 533.66 954.46 533.85C954.1 534.03 953.7 534.12 953.27 534.12C952.21 534.12 951.37 533.74 950.74 532.98C950.12 532.22 949.81 531.2 949.81 529.91C949.81 528.62 950.15 527.6 950.83 526.84C951.51 526.08 952.31 525.7 953.24 525.7C953.66 525.7 954.03 525.79 954.37 525.96C954.71 526.12 954.94 526.28 955.06 526.44L955.25 526.69L955.28 526.69L955.28 522.92L957.24 522.92L957.24 533.9L955.4 533.9ZM955.28 530.63L955.28 529.18C955.28 528.69 955.13 528.29 954.82 527.96C954.52 527.63 954.1 527.46 953.57 527.46C953 527.46 952.55 527.67 952.23 528.08C951.92 528.49 951.76 529.1 951.76 529.91C951.76 530.71 951.92 531.33 952.23 531.75C952.55 532.16 953 532.36 953.57 532.36C954.1 532.36 954.52 532.2 954.82 531.87C955.13 531.53 955.28 531.12 955.28 530.63Z" />
			<path id="Layer" fill-rule="evenodd" class="shp1" d="M790.03 533.9L790.03 523.37L792.12 523.37L795.17 530.2L795.2 530.2L798.26 523.37L800.36 523.37L800.36 533.9L798.38 533.9L798.38 527.43L798.35 527.43L795.35 533.9L795.02 533.9L792.03 527.43L792 527.43L792 533.9L790.03 533.9ZM802.61 533.9L802.61 525.93L804.57 525.93L804.57 533.9L802.61 533.9ZM802.61 524.77L802.61 522.92L804.57 522.92L804.57 524.77L802.61 524.77ZM811.73 533.9L811.73 533.13L811.71 533.13C811.66 533.2 811.58 533.29 811.48 533.4C811.39 533.51 811.16 533.66 810.79 533.85C810.43 534.03 810.03 534.12 809.6 534.12C808.55 534.12 807.7 533.74 807.07 532.98C806.45 532.22 806.14 531.2 806.14 529.91C806.14 528.62 806.48 527.6 807.16 526.84C807.85 526.08 808.65 525.7 809.57 525.7C809.99 525.7 810.37 525.79 810.7 525.96C811.04 526.12 811.27 526.28 811.39 526.44L811.59 526.69L811.62 526.69L811.62 522.92L813.57 522.92L813.57 533.9L811.73 533.9ZM811.62 530.63L811.62 529.18C811.62 528.69 811.46 528.29 811.15 527.96C810.85 527.63 810.43 527.46 809.9 527.46C809.33 527.46 808.88 527.67 808.56 528.08C808.25 528.49 808.1 529.1 808.1 529.91C808.1 530.71 808.25 531.33 808.56 531.75C808.88 532.16 809.33 532.36 809.9 532.36C810.43 532.36 810.85 532.2 811.15 531.87C811.46 531.53 811.62 531.12 811.62 530.63ZM819.58 533.9L819.58 523.37L821.67 523.37L824.73 530.2L824.75 530.2L827.81 523.37L829.91 523.37L829.91 533.9L827.93 533.9L827.93 527.43L827.9 527.43L824.91 533.9L824.57 533.9L821.58 527.43L821.55 527.43L821.55 533.9L819.58 533.9ZM836.71 533.9L836.71 533.13L836.68 533.13C836.66 533.16 836.63 533.2 836.6 533.25C836.57 533.29 836.5 533.37 836.38 533.48C836.26 533.59 836.12 533.69 835.97 533.78C835.82 533.87 835.61 533.95 835.35 534.02C835.09 534.09 834.81 534.12 834.51 534.12C833.55 534.12 832.83 533.9 832.35 533.45C831.88 532.99 831.64 532.42 831.64 531.76C831.64 531.07 831.84 530.54 832.25 530.18C832.67 529.82 833.36 529.52 834.35 529.28C835.26 529.06 835.83 528.88 836.06 528.75C836.29 528.62 836.41 528.44 836.41 528.2C836.41 527.96 836.29 527.76 836.06 527.6C835.84 527.44 835.5 527.36 835.05 527.36C834.52 527.36 834.14 527.48 833.91 527.72C833.68 527.95 833.5 528.26 833.37 528.66L831.74 527.99C831.93 527.32 832.31 526.77 832.86 526.35C833.41 525.92 834.13 525.7 835.02 525.7C836 525.7 836.79 525.96 837.41 526.47C838.04 526.98 838.35 527.77 838.35 528.84L838.35 533.9L836.71 533.9ZM834.74 530.63C834.24 530.75 833.91 530.9 833.75 531.07C833.59 531.23 833.52 531.42 833.52 531.63C833.52 532.17 833.91 532.44 834.69 532.44C835.28 532.44 835.73 532.33 836.02 532.11C836.32 531.88 836.47 531.6 836.47 531.27L836.47 529.88L836.44 529.88C836.4 529.96 836.35 530.03 836.3 530.08C836.26 530.12 836.11 530.19 835.85 530.3C835.59 530.4 835.22 530.51 834.74 530.63ZM840.3 533.9L840.3 525.93L842.26 525.93L842.26 533.9L840.3 533.9ZM840.3 524.77L840.3 522.92L842.26 522.92L842.26 524.77L840.3 524.77ZM844.36 533.9L844.36 522.92L846.39 522.92L846.39 533.9L844.36 533.9Z" />
			<path id="Layer" fill-rule="evenodd" class="shp1" d="M731.94 451.53L731.94 441L736.41 441C737.34 441 738.09 441.27 738.65 441.82C739.22 442.37 739.51 443.03 739.51 443.83C739.51 444.71 739.12 445.37 738.36 445.82L738.36 445.84C738.82 446.03 739.18 446.34 739.46 446.76C739.75 447.17 739.9 447.66 739.9 448.25C739.9 449.25 739.59 450.05 738.98 450.65C738.37 451.23 737.36 451.53 735.96 451.53L731.94 451.53ZM733.97 449.65L736.42 449.65C737.39 449.65 737.87 449.18 737.87 448.25C737.87 447.82 737.74 447.48 737.48 447.25C737.23 447.01 736.88 446.89 736.44 446.89L733.97 446.89L733.97 449.65ZM733.97 445.24L736.15 445.24C736.56 445.24 736.88 445.14 737.11 444.95C737.36 444.75 737.48 444.46 737.48 444.08C737.48 443.68 737.36 443.38 737.13 443.18C736.9 442.98 736.57 442.88 736.15 442.88L733.97 442.88L733.97 445.24ZM745.47 451.53L745.47 441L747.5 441L747.5 445.24L751.11 445.24L751.11 441L753.14 441L753.14 451.53L751.11 451.53L751.11 446.97L747.5 446.97L747.5 451.53L745.47 451.53ZM760.57 448.77L761.94 449.98C761.12 451.16 760.03 451.75 758.64 451.75C757.53 451.75 756.62 451.37 755.92 450.61C755.22 449.84 754.87 448.81 754.87 447.54C754.87 446.27 755.21 445.25 755.91 444.49C756.61 443.71 757.49 443.33 758.55 443.33C759.62 443.33 760.49 443.71 761.17 444.49C761.86 445.25 762.21 446.27 762.21 447.54L762.21 448.13L756.85 448.13C756.88 448.74 757.05 449.21 757.35 449.54C757.66 449.86 758.08 450.02 758.61 450.02C759.06 450.02 759.44 449.91 759.73 449.69C760.03 449.46 760.31 449.15 760.57 448.77ZM756.85 446.67L760.31 446.67C760.26 446.16 760.09 445.76 759.79 445.48C759.48 445.19 759.07 445.04 758.55 445.04C758.07 445.04 757.68 445.2 757.36 445.51C757.06 445.82 756.89 446.21 756.85 446.67ZM768.32 451.53L768.32 450.76L768.29 450.76C768.27 450.79 768.25 450.83 768.22 450.88C768.19 450.92 768.11 450.99 767.99 451.1C767.87 451.21 767.74 451.31 767.59 451.4C767.44 451.49 767.23 451.58 766.97 451.65C766.71 451.72 766.43 451.75 766.13 451.75C765.17 451.75 764.44 451.53 763.96 451.07C763.49 450.61 763.26 450.05 763.26 449.39C763.26 448.7 763.46 448.17 763.87 447.81C764.28 447.45 764.98 447.15 765.96 446.91C766.87 446.69 767.45 446.51 767.68 446.38C767.91 446.25 768.02 446.07 768.02 445.82C768.02 445.58 767.91 445.38 767.68 445.22C767.46 445.06 767.12 444.98 766.67 444.98C766.14 444.98 765.76 445.1 765.53 445.34C765.29 445.57 765.11 445.89 764.98 446.29L763.36 445.61C763.55 444.94 763.92 444.4 764.47 443.97C765.02 443.54 765.75 443.33 766.64 443.33C767.61 443.33 768.41 443.58 769.03 444.1C769.65 444.61 769.96 445.4 769.96 446.47L769.96 451.53L768.32 451.53ZM766.35 448.26C765.85 448.38 765.52 448.53 765.36 448.7C765.21 448.86 765.13 449.04 765.13 449.25C765.13 449.8 765.53 450.07 766.31 450.07C766.9 450.07 767.34 449.96 767.63 449.74C767.93 449.5 768.08 449.22 768.08 448.89L768.08 447.51L768.05 447.51C768.01 447.59 767.97 447.66 767.92 447.71C767.88 447.75 767.73 447.82 767.47 447.93C767.2 448.03 766.83 448.14 766.35 448.26ZM773.75 451.53L770.56 443.55L772.59 443.55L774.58 448.68L774.61 448.68L776.59 443.55L778.59 443.55L775.4 451.53L773.75 451.53ZM784.67 448.77L786.04 449.98C785.23 451.16 784.13 451.75 782.75 451.75C781.63 451.75 780.73 451.37 780.02 450.61C779.32 449.84 778.97 448.81 778.97 447.54C778.97 446.27 779.32 445.25 780.01 444.49C780.71 443.71 781.59 443.33 782.66 443.33C783.72 443.33 784.59 443.71 785.27 444.49C785.96 445.25 786.31 446.27 786.31 447.54L786.31 448.13L780.96 448.13C780.99 448.74 781.15 449.21 781.45 449.54C781.76 449.86 782.18 450.02 782.72 450.02C783.17 450.02 783.54 449.91 783.83 449.69C784.13 449.46 784.41 449.15 784.67 448.77ZM780.96 446.67L784.42 446.67C784.37 446.16 784.19 445.76 783.89 445.48C783.59 445.19 783.18 445.04 782.66 445.04C782.18 445.04 781.78 445.2 781.47 445.51C781.17 445.82 781 446.21 780.96 446.67ZM787.88 451.53L787.88 443.55L789.76 443.55L789.76 444.32L789.79 444.32C790.01 444.04 790.32 443.81 790.7 443.61C791.08 443.42 791.48 443.33 791.9 443.33C792.78 443.33 793.47 443.59 793.98 444.13C794.48 444.65 794.73 445.37 794.73 446.31L794.73 451.53L792.77 451.53L792.77 446.79C792.77 446.24 792.67 445.82 792.46 445.55C792.25 445.27 791.88 445.13 791.37 445.13C790.89 445.13 790.52 445.27 790.25 445.55C789.97 445.82 789.84 446.19 789.84 446.65L789.84 451.53L787.88 451.53Z" />
			<path id="Layer" fill-rule="evenodd" class="shp1" d="M815.39 341.69L815.39 331.17L819.85 331.17C820.79 331.17 821.53 331.44 822.09 331.99C822.66 332.53 822.95 333.2 822.95 333.99C822.95 334.88 822.57 335.54 821.81 335.99L821.81 336.01C822.26 336.2 822.62 336.51 822.91 336.93C823.2 337.34 823.34 337.83 823.34 338.42C823.34 339.42 823.04 340.22 822.42 340.82C821.81 341.4 820.81 341.69 819.4 341.69L815.39 341.69ZM817.42 339.82L819.87 339.82C820.83 339.82 821.31 339.35 821.31 338.42C821.31 337.99 821.18 337.65 820.92 337.42C820.67 337.18 820.32 337.06 819.88 337.06L817.42 337.06L817.42 339.82ZM817.42 335.41L819.6 335.41C820.01 335.41 820.33 335.31 820.56 335.12C820.8 334.92 820.92 334.63 820.92 334.25C820.92 333.85 820.81 333.55 820.57 333.35C820.34 333.15 820.02 333.05 819.6 333.05L817.42 333.05L817.42 335.41ZM828.24 338.18L830.37 337.71C830.5 338.53 830.71 339.13 831 339.5C831.3 339.86 831.79 340.04 832.46 340.04C833.03 340.04 833.49 339.94 833.83 339.74C834.17 339.53 834.34 339.22 834.34 338.82C834.34 338.4 834.18 338.08 833.85 337.86C833.53 337.63 832.78 337.33 831.62 336.97C830.53 336.63 829.75 336.22 829.29 335.74C828.84 335.25 828.61 334.65 828.61 333.93C828.61 333.11 828.93 332.41 829.56 331.83C830.2 331.24 831.07 330.94 832.16 330.94C833.15 330.94 834.01 331.18 834.72 331.66C835.44 332.14 835.89 332.86 836.07 333.81L834.1 334.31C833.79 333.32 833.14 332.82 832.16 332.82C831.64 332.82 831.25 332.92 830.99 333.12C830.74 333.32 830.61 333.59 830.61 333.92C830.61 334.23 830.76 334.47 831.05 334.64C831.34 334.8 832.09 335.09 833.29 335.5C834.45 335.9 835.25 336.34 835.68 336.81C836.11 337.27 836.33 337.9 836.33 338.69C836.33 339.62 835.98 340.39 835.28 341C834.57 341.61 833.64 341.92 832.46 341.92C831.27 341.92 830.3 341.61 829.56 340.99C828.83 340.36 828.39 339.42 828.24 338.18ZM838.16 338.85L838.16 335.38L836.92 335.38L836.92 333.72L838.2 333.72L838.2 331.77L840.05 331.77L840.05 333.72L842.07 333.72L842.07 335.38L840.08 335.38L840.08 338.67C840.08 339.09 840.15 339.39 840.29 339.56C840.43 339.73 840.72 339.82 841.15 339.82L841.8 339.82L841.8 341.69L840.97 341.69C839.9 341.69 839.16 341.47 838.76 341.02C838.36 340.57 838.16 339.84 838.16 338.85ZM847.96 341.69L847.96 340.93L847.93 340.93C847.91 340.96 847.89 341 847.86 341.05C847.83 341.09 847.75 341.16 847.63 341.27C847.51 341.38 847.38 341.48 847.23 341.57C847.08 341.66 846.87 341.75 846.61 341.82C846.35 341.89 846.07 341.92 845.77 341.92C844.8 341.92 844.08 341.69 843.6 341.24C843.13 340.78 842.89 340.22 842.89 339.56C842.89 338.87 843.1 338.34 843.51 337.98C843.92 337.62 844.62 337.32 845.6 337.08C846.51 336.86 847.09 336.68 847.32 336.55C847.55 336.42 847.66 336.24 847.66 335.99C847.66 335.75 847.55 335.55 847.32 335.39C847.1 335.23 846.76 335.15 846.31 335.15C845.78 335.15 845.4 335.27 845.17 335.51C844.94 335.74 844.75 336.06 844.62 336.46L843 335.78C843.19 335.11 843.56 334.57 844.11 334.14C844.66 333.71 845.39 333.5 846.28 333.5C847.25 333.5 848.05 333.75 848.67 334.26C849.29 334.78 849.6 335.57 849.6 336.64L849.6 341.69L847.96 341.69ZM845.99 338.43C845.49 338.55 845.16 338.7 845 338.87C844.85 339.03 844.77 339.21 844.77 339.42C844.77 339.97 845.17 340.24 845.95 340.24C846.54 340.24 846.98 340.13 847.27 339.91C847.57 339.67 847.72 339.39 847.72 339.06L847.72 337.68L847.69 337.68C847.65 337.76 847.61 337.82 847.56 337.88C847.52 337.91 847.37 337.99 847.11 338.1C846.85 338.2 846.47 338.31 845.99 338.43ZM851.56 341.69L851.56 333.72L853.51 333.72L853.51 341.69L851.56 341.69ZM851.56 332.57L851.56 330.71L853.51 330.71L853.51 332.57L851.56 332.57ZM855.61 341.69L855.61 333.72L857.46 333.72L857.46 334.57L857.49 334.57C857.64 334.26 857.86 334.02 858.15 333.84C858.45 333.66 858.78 333.57 859.13 333.57C859.38 333.57 859.62 333.62 859.85 333.72L859.55 335.62C859.33 335.54 859.13 335.5 858.94 335.5C858.02 335.5 857.57 336.1 857.57 337.32L857.57 341.69L855.61 341.69ZM860.53 339.06L862.29 338.61C862.43 339.72 863.03 340.28 864.08 340.28C864.56 340.28 864.94 340.21 865.23 340.06C865.52 339.89 865.66 339.67 865.66 339.39C865.66 339.16 865.55 338.99 865.33 338.88C865.11 338.76 864.65 338.6 863.95 338.4C863.76 338.35 863.61 338.31 863.51 338.28C862.59 338.02 861.91 337.71 861.48 337.36C861.05 337 860.83 336.53 860.83 335.93C860.83 335.27 861.1 334.7 861.63 334.22C862.17 333.74 862.91 333.5 863.84 333.5C865.63 333.5 866.74 334.28 867.2 335.84L865.57 336.34C865.43 335.96 865.23 335.66 864.97 335.44C864.72 335.22 864.35 335.11 863.86 335.11C863.48 335.11 863.17 335.18 862.94 335.33C862.72 335.47 862.61 335.64 862.61 335.84C862.61 336.06 862.74 336.24 863 336.37C863.27 336.49 863.94 336.7 865 337C865.93 337.25 866.56 337.57 866.9 337.97C867.24 338.35 867.41 338.84 867.41 339.44C867.41 340.08 867.13 340.66 866.56 341.17C866.01 341.67 865.21 341.92 864.16 341.92C863.05 341.92 862.2 341.64 861.6 341.09C861.01 340.53 860.65 339.86 860.53 339.06Z" />
			<path id="Layer" fill-rule="evenodd" class="shp1" d="M603.31 230.34L603.31 219.81L607.78 219.81C608.71 219.81 609.46 220.09 610.02 220.64C610.59 221.18 610.88 221.85 610.88 222.64C610.88 223.52 610.5 224.19 609.73 224.64L609.73 224.65C610.19 224.84 610.55 225.15 610.83 225.57C611.12 225.98 611.27 226.48 611.27 227.06C611.27 228.06 610.96 228.87 610.35 229.47C609.74 230.05 608.73 230.34 607.33 230.34L603.31 230.34ZM605.34 228.46L607.79 228.46C608.76 228.46 609.24 227.99 609.24 227.06C609.24 226.63 609.11 226.3 608.85 226.07C608.6 225.83 608.25 225.71 607.81 225.71L605.34 225.71L605.34 228.46ZM605.34 224.05L607.52 224.05C607.93 224.05 608.25 223.96 608.49 223.77C608.73 223.57 608.85 223.27 608.85 222.89C608.85 222.49 608.73 222.19 608.5 221.99C608.27 221.79 607.94 221.69 607.52 221.69L605.34 221.69L605.34 224.05ZM622.95 230.34L622.34 228.61L618.33 228.61L617.73 230.34L615.71 230.34L619.52 219.81L621.25 219.81L625.04 230.34L622.95 230.34ZM620.33 222.82L618.9 226.93L621.77 226.93L620.36 222.82L620.33 222.82ZM626.16 230.34L626.16 219.36L628.19 219.36L628.19 230.34L626.16 230.34ZM630.3 230.34L630.3 219.36L632.33 219.36L632.33 230.34L630.3 230.34ZM639.62 227.59L640.99 228.79C640.18 229.97 639.08 230.56 637.69 230.56C636.58 230.56 635.68 230.18 634.97 229.42C634.27 228.65 633.92 227.63 633.92 226.35C633.92 225.08 634.27 224.06 634.96 223.3C635.66 222.53 636.54 222.14 637.6 222.14C638.67 222.14 639.54 222.53 640.22 223.3C640.91 224.06 641.26 225.08 641.26 226.35L641.26 226.94L635.91 226.94C635.94 227.55 636.1 228.02 636.4 228.35C636.71 228.67 637.13 228.83 637.67 228.83C638.12 228.83 638.49 228.73 638.78 228.5C639.08 228.27 639.36 227.97 639.62 227.59ZM635.91 225.48L639.37 225.48C639.31 224.97 639.14 224.57 638.84 224.29C638.54 224 638.13 223.86 637.6 223.86C637.12 223.86 636.73 224.01 636.42 224.32C636.12 224.63 635.95 225.02 635.91 225.48ZM643.16 233.72L644.75 229.95L641.56 222.37L643.55 222.37L645.61 227.77L645.64 227.77L647.7 222.37L649.68 222.37L645.1 233.72L643.16 233.72Z" />
			<path id="Layer" fill-rule="evenodd" class="shp1" d="M447.43 285.25L447.43 274.73L451.9 274.73C452.83 274.73 453.58 275 454.14 275.55C454.71 276.09 455 276.76 455 277.55C455 278.44 454.62 279.1 453.85 279.55L453.85 279.57C454.31 279.76 454.67 280.06 454.95 280.49C455.24 280.9 455.39 281.39 455.39 281.98C455.39 282.98 455.08 283.78 454.47 284.38C453.86 284.96 452.85 285.25 451.45 285.25L447.43 285.25ZM449.46 283.37L451.91 283.37C452.88 283.37 453.36 282.91 453.36 281.98C453.36 281.54 453.23 281.21 452.97 280.98C452.72 280.74 452.37 280.62 451.93 280.62L449.46 280.62L449.46 283.37ZM449.46 278.97L451.64 278.97C452.05 278.97 452.38 278.87 452.61 278.68C452.85 278.48 452.97 278.19 452.97 277.81C452.97 277.41 452.85 277.11 452.62 276.91C452.39 276.71 452.06 276.61 451.64 276.61L449.46 276.61L449.46 278.97ZM461.59 285.25L461.59 284.49L461.56 284.49C461.54 284.52 461.52 284.56 461.49 284.61C461.46 284.65 461.38 284.72 461.26 284.83C461.14 284.94 461 285.04 460.85 285.13C460.7 285.22 460.5 285.3 460.24 285.37C459.98 285.44 459.7 285.48 459.4 285.48C458.43 285.48 457.71 285.25 457.23 284.8C456.76 284.34 456.52 283.78 456.52 283.12C456.52 282.43 456.73 281.9 457.14 281.54C457.55 281.18 458.25 280.88 459.23 280.64C460.14 280.42 460.71 280.24 460.94 280.11C461.18 279.98 461.29 279.79 461.29 279.55C461.29 279.31 461.18 279.11 460.94 278.95C460.72 278.79 460.39 278.71 459.94 278.71C459.41 278.71 459.02 278.83 458.79 279.07C458.56 279.3 458.38 279.62 458.25 280.02L456.63 279.34C456.82 278.67 457.19 278.12 457.74 277.7C458.29 277.27 459.01 277.06 459.91 277.06C460.88 277.06 461.68 277.31 462.3 277.82C462.92 278.33 463.23 279.13 463.23 280.2L463.23 285.25L461.59 285.25ZM459.62 281.99C459.12 282.11 458.79 282.26 458.63 282.43C458.48 282.59 458.4 282.77 458.4 282.98C458.4 283.52 458.79 283.8 459.58 283.8C460.17 283.8 460.61 283.68 460.9 283.46C461.2 283.23 461.35 282.95 461.35 282.62L461.35 281.24L461.32 281.24C461.28 281.32 461.24 281.38 461.19 281.43C461.14 281.47 460.99 281.55 460.73 281.66C460.47 281.76 460.1 281.87 459.62 281.99ZM469.97 282.04L471.82 282.52C471.64 283.47 471.25 284.2 470.65 284.71C470.04 285.22 469.29 285.48 468.37 285.48C467.29 285.48 466.4 285.11 465.7 284.37C465.01 283.63 464.66 282.59 464.66 281.27C464.66 279.95 465.02 278.93 465.73 278.19C466.45 277.43 467.34 277.06 468.39 277.06C469.28 277.06 470.03 277.32 470.63 277.84C471.23 278.36 471.6 279.06 471.74 279.93L469.92 280.28C469.73 279.3 469.22 278.82 468.39 278.82C467.84 278.82 467.4 279.03 467.07 279.45C466.75 279.86 466.58 280.47 466.58 281.27C466.58 282.07 466.75 282.68 467.07 283.1C467.39 283.52 467.83 283.72 468.39 283.72C469.27 283.72 469.8 283.16 469.97 282.04ZM473.32 285.25L473.32 274.27L475.28 274.27L475.28 280.58L475.31 280.58L478.21 277.28L480.66 277.28L477.79 280.52L480.92 285.25L478.75 285.25L476.32 281.61L476.29 281.61L475.28 282.76L475.28 285.25L473.32 285.25ZM485.89 285.25L485.89 274.73L490.35 274.73C491.28 274.73 492.03 275 492.59 275.55C493.16 276.09 493.45 276.76 493.45 277.55C493.45 278.44 493.07 279.1 492.31 279.55L492.31 279.57C492.76 279.76 493.12 280.06 493.41 280.49C493.7 280.9 493.84 281.39 493.84 281.98C493.84 282.98 493.54 283.78 492.92 284.38C492.31 284.96 491.3 285.25 489.9 285.25L485.89 285.25ZM487.92 283.37L490.37 283.37C491.33 283.37 491.81 282.91 491.81 281.98C491.81 281.54 491.68 281.21 491.42 280.98C491.17 280.74 490.82 280.62 490.38 280.62L487.92 280.62L487.92 283.37ZM487.92 278.97L490.1 278.97C490.51 278.97 490.83 278.87 491.06 278.68C491.3 278.48 491.42 278.19 491.42 277.81C491.42 277.41 491.3 277.11 491.07 276.91C490.84 276.71 490.52 276.61 490.1 276.61L487.92 276.61L487.92 278.97Z" />
			<path id="Layer" fill-rule="evenodd" class="shp1" d="M653.05 384.41L653.05 373.88L657.52 373.88C658.45 373.88 659.2 374.15 659.76 374.71C660.33 375.25 660.62 375.91 660.62 376.71C660.62 377.59 660.24 378.25 659.47 378.71L659.47 378.72C659.93 378.91 660.29 379.22 660.57 379.64C660.86 380.05 661.01 380.55 661.01 381.13C661.01 382.13 660.7 382.93 660.09 383.53C659.48 384.12 658.47 384.41 657.07 384.41L653.05 384.41ZM655.08 382.53L657.53 382.53C658.5 382.53 658.98 382.06 658.98 381.13C658.98 380.7 658.85 380.37 658.59 380.14C658.34 379.89 657.99 379.77 657.55 379.77L655.08 379.77L655.08 382.53ZM655.08 378.12L657.26 378.12C657.67 378.12 658 378.02 658.23 377.83C658.47 377.63 658.59 377.34 658.59 376.96C658.59 376.56 658.47 376.26 658.24 376.06C658.01 375.86 657.69 375.76 657.26 375.76L655.08 375.76L655.08 378.12ZM666.58 384.41L666.58 373.88L670.85 373.88C671.93 373.88 672.81 374.18 673.47 374.8C674.14 375.4 674.48 376.21 674.48 377.23C674.48 377.99 674.28 378.64 673.87 379.17C673.48 379.7 672.94 380.08 672.25 380.3L674.49 384.41L672.3 384.41L670.17 380.5L668.61 380.5L668.61 384.41L666.58 384.41ZM668.61 378.74L670.69 378.74C671.84 378.74 672.41 378.23 672.41 377.23C672.41 376.22 671.84 375.71 670.69 375.71L668.61 375.71L668.61 378.74ZM680.53 384.41L680.53 383.64L680.5 383.64C680.48 383.67 680.46 383.71 680.43 383.76C680.4 383.8 680.32 383.88 680.2 383.99C680.08 384.1 679.95 384.2 679.8 384.29C679.65 384.38 679.44 384.46 679.18 384.53C678.92 384.6 678.64 384.63 678.34 384.63C677.38 384.63 676.65 384.41 676.17 383.96C675.7 383.49 675.47 382.93 675.47 382.27C675.47 381.58 675.67 381.05 676.08 380.69C676.49 380.33 677.19 380.03 678.17 379.79C679.08 379.57 679.66 379.39 679.89 379.26C680.12 379.13 680.23 378.95 680.23 378.71C680.23 378.47 680.12 378.27 679.89 378.11C679.67 377.95 679.33 377.86 678.88 377.86C678.35 377.86 677.97 377.98 677.74 378.23C677.51 378.46 677.33 378.77 677.19 379.17L675.57 378.5C675.76 377.82 676.13 377.28 676.68 376.86C677.24 376.43 677.96 376.21 678.85 376.21C679.82 376.21 680.62 376.47 681.24 376.98C681.86 377.49 682.17 378.28 682.17 379.35L682.17 384.41L680.53 384.41ZM678.56 381.14C678.06 381.26 677.73 381.41 677.57 381.58C677.42 381.74 677.35 381.92 677.35 382.14C677.35 382.68 677.74 382.95 678.52 382.95C679.11 382.95 679.55 382.84 679.84 382.62C680.14 382.39 680.29 382.1 680.29 381.78L680.29 380.39L680.26 380.39C680.22 380.47 680.18 380.54 680.13 380.59C680.09 380.63 679.94 380.7 679.68 380.81C679.42 380.91 679.04 381.02 678.56 381.14ZM684.53 384.41L684.53 378.09L683.3 378.09L683.3 376.43L684.58 376.43L684.58 375.31C684.58 374.63 684.76 374.14 685.11 373.86C685.47 373.57 685.99 373.43 686.67 373.43L688.24 373.43L688.24 375.16L687.08 375.16C686.84 375.16 686.67 375.21 686.56 375.31C686.47 375.4 686.43 375.56 686.43 375.79L686.43 376.43L688.45 376.43L688.45 378.09L686.49 378.09L686.49 384.41L684.53 384.41ZM689.91 381.56L689.91 378.09L688.68 378.09L688.68 376.43L689.96 376.43L689.96 374.48L691.81 374.48L691.81 376.43L693.82 376.43L693.82 378.09L691.84 378.09L691.84 381.38C691.84 381.8 691.91 382.1 692.05 382.27C692.19 382.44 692.47 382.53 692.9 382.53L693.55 382.53L693.55 384.41L692.72 384.41C691.65 384.41 690.91 384.18 690.51 383.73C690.11 383.28 689.91 382.56 689.91 381.56ZM700.49 381.65L701.86 382.86C701.05 384.04 699.95 384.63 698.57 384.63C697.46 384.63 696.55 384.25 695.85 383.49C695.15 382.72 694.79 381.69 694.79 380.42C694.79 379.15 695.14 378.13 695.83 377.37C696.53 376.6 697.42 376.21 698.48 376.21C699.54 376.21 700.41 376.6 701.1 377.37C701.79 378.13 702.13 379.15 702.13 380.42L702.13 381.01L696.78 381.01C696.81 381.62 696.98 382.09 697.28 382.42C697.59 382.74 698.01 382.9 698.54 382.9C698.99 382.9 699.36 382.79 699.65 382.57C699.95 382.34 700.23 382.03 700.49 381.65ZM696.78 379.55L700.24 379.55C700.19 379.04 700.01 378.64 699.71 378.36C699.41 378.07 699 377.92 698.48 377.92C698 377.92 697.6 378.08 697.29 378.39C696.99 378.7 696.82 379.09 696.78 379.55ZM703.71 384.41L703.71 376.43L705.56 376.43L705.56 377.28L705.59 377.28C705.74 376.98 705.96 376.74 706.25 376.56C706.55 376.38 706.88 376.29 707.23 376.29C707.48 376.29 707.72 376.34 707.95 376.43L707.65 378.33C707.43 378.25 707.22 378.21 707.03 378.21C706.12 378.21 705.66 378.82 705.66 380.03L705.66 384.41L703.71 384.41ZM708.63 381.78L710.39 381.32C710.53 382.44 711.13 382.99 712.18 382.99C712.66 382.99 713.04 382.92 713.32 382.77C713.61 382.61 713.76 382.39 713.76 382.1C713.76 381.87 713.65 381.71 713.43 381.59C713.21 381.47 712.75 381.31 712.04 381.11C711.85 381.06 711.71 381.02 711.61 380.99C710.68 380.73 710.01 380.43 709.58 380.07C709.15 379.71 708.93 379.24 708.93 378.65C708.93 377.98 709.2 377.41 709.73 376.93C710.27 376.45 711.01 376.21 711.94 376.21C713.72 376.21 714.84 376.99 715.29 378.56L713.67 379.05C713.53 378.67 713.33 378.37 713.07 378.15C712.82 377.93 712.44 377.82 711.95 377.82C711.57 377.82 711.27 377.89 711.04 378.04C710.81 378.18 710.7 378.36 710.7 378.56C710.7 378.78 710.83 378.95 711.1 379.08C711.37 379.2 712.03 379.41 713.1 379.71C714.03 379.96 714.66 380.29 714.99 380.68C715.33 381.06 715.5 381.55 715.5 382.15C715.5 382.79 715.22 383.37 714.66 383.88C714.11 384.38 713.31 384.63 712.25 384.63C711.15 384.63 710.3 384.36 709.7 383.81C709.1 383.24 708.75 382.57 708.63 381.78Z" />
			<path id="Layer" fill-rule="evenodd" class="shp1" d="M513.47 611.69L513.47 601.17L517.94 601.17C518.87 601.17 519.62 601.44 520.18 601.99C520.75 602.53 521.04 603.2 521.04 603.99C521.04 604.88 520.66 605.54 519.9 605.99L519.9 606.01C520.35 606.2 520.71 606.51 520.99 606.93C521.28 607.34 521.43 607.83 521.43 608.42C521.43 609.42 521.12 610.22 520.51 610.82C519.9 611.4 518.89 611.69 517.49 611.69L513.47 611.69ZM515.5 609.82L517.96 609.82C518.92 609.82 519.4 609.35 519.4 608.42C519.4 607.99 519.27 607.65 519.01 607.42C518.76 607.18 518.41 607.06 517.97 607.06L515.5 607.06L515.5 609.82ZM515.5 605.41L517.68 605.41C518.1 605.41 518.42 605.31 518.65 605.12C518.89 604.92 519.01 604.63 519.01 604.25C519.01 603.85 518.89 603.55 518.66 603.35C518.43 603.15 518.11 603.05 517.68 603.05L515.5 603.05L515.5 605.41ZM527 611.69L527 601.17L529.09 601.17L532.14 607.99L532.17 607.99L535.23 601.17L537.33 601.17L537.33 611.69L535.35 611.69L535.35 605.23L535.32 605.23L532.33 611.69L531.99 611.69L529 605.23L528.97 605.23L528.97 611.69L527 611.69ZM544.13 611.69L544.13 610.93L544.1 610.93C544.08 610.96 544.05 611 544.02 611.05C543.99 611.09 543.92 611.16 543.8 611.27C543.68 611.38 543.54 611.48 543.39 611.57C543.24 611.66 543.03 611.75 542.77 611.82C542.51 611.89 542.23 611.92 541.93 611.92C540.97 611.92 540.25 611.69 539.77 611.24C539.29 610.78 539.06 610.22 539.06 609.56C539.06 608.87 539.26 608.34 539.68 607.98C540.09 607.62 540.78 607.32 541.77 607.08C542.68 606.86 543.25 606.68 543.48 606.55C543.71 606.42 543.83 606.24 543.83 605.99C543.83 605.75 543.71 605.55 543.48 605.39C543.26 605.23 542.92 605.15 542.47 605.15C541.94 605.15 541.56 605.27 541.33 605.51C541.1 605.74 540.92 606.06 540.79 606.46L539.16 605.78C539.35 605.11 539.73 604.57 540.28 604.14C540.83 603.71 541.55 603.5 542.44 603.5C543.42 603.5 544.21 603.75 544.83 604.26C545.46 604.78 545.77 605.57 545.77 606.64L545.77 611.69L544.13 611.69ZM542.16 608.43C541.66 608.55 541.32 608.7 541.16 608.87C541.01 609.03 540.94 609.21 540.94 609.42C540.94 609.97 541.33 610.24 542.11 610.24C542.7 610.24 543.14 610.13 543.44 609.91C543.74 609.67 543.89 609.39 543.89 609.06L543.89 607.68L543.86 607.68C543.82 607.76 543.77 607.82 543.72 607.88C543.68 607.91 543.53 607.99 543.27 608.1C543.01 608.2 542.64 608.31 542.16 608.43ZM547.72 611.69L547.72 603.72L549.68 603.72L549.68 611.69L547.72 611.69ZM547.72 602.57L547.72 600.71L549.68 600.71L549.68 602.57L547.72 602.57ZM551.78 611.69L551.78 603.72L553.66 603.72L553.66 604.49L553.69 604.49C553.91 604.21 554.21 603.97 554.59 603.78C554.97 603.59 555.37 603.5 555.79 603.5C556.67 603.5 557.37 603.76 557.87 604.3C558.37 604.82 558.62 605.54 558.62 606.48L558.62 611.69L556.66 611.69L556.66 606.96C556.66 606.41 556.56 605.99 556.35 605.72C556.14 605.44 555.78 605.3 555.27 605.3C554.78 605.3 554.41 605.44 554.14 605.72C553.87 605.99 553.73 606.36 553.73 606.82L553.73 611.69L551.78 611.69Z" />
			<path id="Layer" fill-rule="evenodd" class="shp2" d="M893.08 131.19L893.08 117.31L897.72 117.31C898.52 117.31 899.27 117.44 899.97 117.72C900.67 118 901.3 118.41 901.87 118.95C902.44 119.49 902.89 120.22 903.22 121.13C903.56 122.03 903.73 123.06 903.73 124.23C903.73 125.5 903.56 126.6 903.22 127.54C902.87 128.48 902.4 129.2 901.81 129.72C901.21 130.22 900.57 130.59 899.87 130.83C899.18 131.07 898.43 131.19 897.61 131.19L893.08 131.19ZM895.76 128.71L897.61 128.71C898.08 128.71 898.5 128.65 898.85 128.55C899.21 128.43 899.55 128.22 899.87 127.91C900.18 127.61 900.43 127.15 900.6 126.55C900.77 125.92 900.86 125.15 900.86 124.23C900.86 122.68 900.57 121.56 899.99 120.85C899.42 120.14 898.66 119.78 897.72 119.78L895.76 119.78L895.76 128.71ZM912.64 127.56L914.45 129.14C913.38 130.7 911.93 131.48 910.11 131.48C908.64 131.48 907.44 130.98 906.52 129.98C905.59 128.96 905.13 127.61 905.13 125.93C905.13 124.25 905.59 122.91 906.5 121.91C907.42 120.89 908.59 120.38 909.99 120.38C911.39 120.38 912.54 120.89 913.44 121.91C914.35 122.91 914.81 124.25 914.81 125.93L914.81 126.7L907.75 126.7C907.79 127.51 908 128.13 908.4 128.57C908.81 128.99 909.37 129.2 910.07 129.2C910.66 129.2 911.15 129.06 911.53 128.77C911.93 128.46 912.3 128.06 912.64 127.56ZM907.75 124.78L912.31 124.78C912.24 124.11 912.01 123.58 911.61 123.21C911.22 122.83 910.67 122.64 909.99 122.64C909.35 122.64 908.83 122.84 908.42 123.25C908.02 123.66 907.8 124.17 907.75 124.78ZM917.42 131.19L917.42 122.86L915.79 122.86L915.79 120.68L917.48 120.68L917.48 119.19C917.48 118.29 917.71 117.66 918.17 117.29C918.65 116.9 919.33 116.71 920.23 116.71L922.29 116.71L922.29 118.99L920.77 118.99C920.45 118.99 920.22 119.06 920.09 119.19C919.97 119.31 919.91 119.52 919.91 119.82L919.91 120.68L922.57 120.68L922.57 122.86L919.99 122.86L919.99 131.19L917.42 131.19ZM930.79 127.56L932.59 129.14C931.52 130.7 930.08 131.48 928.25 131.48C926.78 131.48 925.59 130.98 924.66 129.98C923.74 128.96 923.27 127.61 923.27 125.93C923.27 124.25 923.73 122.91 924.64 121.91C925.57 120.89 926.73 120.38 928.13 120.38C929.53 120.38 930.68 120.89 931.58 121.91C932.5 122.91 932.95 124.25 932.95 125.93L932.95 126.7L925.89 126.7C925.93 127.51 926.15 128.13 926.55 128.57C926.96 128.99 927.51 129.2 928.21 129.2C928.81 129.2 929.3 129.06 929.68 128.77C930.08 128.46 930.45 128.06 930.79 127.56ZM925.89 124.78L930.45 124.78C930.39 124.11 930.16 123.58 929.76 123.21C929.36 122.83 928.82 122.64 928.13 122.64C927.5 122.64 926.98 122.84 926.57 123.25C926.17 123.66 925.94 124.17 925.89 124.78ZM935.03 131.19L935.03 120.68L937.5 120.68L937.5 121.69L937.54 121.69C937.84 121.32 938.23 121.01 938.73 120.76C939.24 120.5 939.77 120.38 940.32 120.38C941.48 120.38 942.4 120.73 943.06 121.43C943.72 122.12 944.05 123.08 944.05 124.31L944.05 131.19L941.47 131.19L941.47 124.94C941.47 124.21 941.33 123.67 941.05 123.31C940.78 122.94 940.3 122.76 939.63 122.76C938.99 122.76 938.5 122.94 938.14 123.31C937.78 123.67 937.6 124.15 937.6 124.76L937.6 131.19L935.03 131.19ZM953.41 131.19L953.41 130.18L953.37 130.18C953.3 130.27 953.2 130.39 953.07 130.53C952.95 130.68 952.65 130.88 952.16 131.13C951.68 131.36 951.16 131.48 950.59 131.48C949.2 131.48 948.09 130.98 947.26 129.98C946.44 128.97 946.03 127.62 946.03 125.93C946.03 124.23 946.48 122.88 947.38 121.89C948.28 120.88 949.33 120.38 950.55 120.38C951.11 120.38 951.6 120.49 952.04 120.72C952.49 120.93 952.79 121.14 952.95 121.35L953.21 121.69L953.25 121.69L953.25 116.71L955.82 116.71L955.82 131.19L953.41 131.19ZM953.25 126.88L953.25 124.96C953.25 124.33 953.04 123.79 952.63 123.35C952.24 122.92 951.69 122.7 950.99 122.7C950.23 122.7 949.65 122.97 949.22 123.51C948.81 124.05 948.61 124.86 948.61 125.93C948.61 126.99 948.81 127.8 949.22 128.35C949.65 128.89 950.23 129.16 950.99 129.16C951.69 129.16 952.24 128.95 952.63 128.51C953.04 128.06 953.25 127.52 953.25 126.88ZM965.42 127.56L967.22 129.14C966.15 130.7 964.7 131.48 962.88 131.48C961.41 131.48 960.21 130.98 959.29 129.98C958.36 128.96 957.9 127.61 957.9 125.93C957.9 124.25 958.36 122.91 959.27 121.91C960.19 120.89 961.36 120.38 962.76 120.38C964.16 120.38 965.31 120.89 966.21 121.91C967.12 122.91 967.58 124.25 967.58 125.93L967.58 126.7L960.52 126.7C960.56 127.51 960.77 128.13 961.17 128.57C961.58 128.99 962.14 129.2 962.84 129.2C963.43 129.2 963.92 129.06 964.3 128.77C964.7 128.46 965.07 128.06 965.42 127.56ZM960.52 124.78L965.08 124.78C965.01 124.11 964.78 123.58 964.38 123.21C963.99 122.83 963.45 122.64 962.76 122.64C962.12 122.64 961.6 122.84 961.19 123.25C960.79 123.66 960.57 124.17 960.52 124.78ZM969.65 131.19L969.65 120.68L972.09 120.68L972.09 121.79L972.13 121.79C972.33 121.39 972.62 121.07 973 120.83C973.4 120.6 973.83 120.48 974.29 120.48C974.62 120.48 974.94 120.54 975.24 120.68L974.85 123.17C974.56 123.07 974.29 123.02 974.03 123.02C972.83 123.02 972.23 123.82 972.23 125.42L972.23 131.19L969.65 131.19ZM976.14 127.72L978.46 127.12C978.65 128.59 979.43 129.32 980.82 129.32C981.46 129.32 981.96 129.22 982.33 129.02C982.71 128.81 982.9 128.52 982.9 128.15C982.9 127.85 982.76 127.62 982.47 127.48C982.18 127.32 981.57 127.11 980.64 126.84C980.39 126.78 980.2 126.72 980.07 126.68C978.85 126.34 977.96 125.94 977.39 125.48C976.82 125 976.54 124.37 976.54 123.59C976.54 122.72 976.89 121.97 977.59 121.33C978.3 120.7 979.27 120.38 980.5 120.38C982.86 120.38 984.33 121.41 984.93 123.47L982.78 124.13C982.6 123.62 982.33 123.23 981.99 122.94C981.66 122.65 981.17 122.5 980.52 122.5C980.02 122.5 979.62 122.6 979.31 122.8C979.02 122.98 978.88 123.21 978.88 123.47C978.88 123.76 979.05 123.99 979.39 124.17C979.75 124.33 980.63 124.6 982.03 125C983.26 125.33 984.09 125.75 984.53 126.27C984.98 126.77 985.2 127.42 985.2 128.21C985.2 129.06 984.83 129.82 984.09 130.49C983.36 131.15 982.31 131.48 980.92 131.48C979.47 131.48 978.34 131.12 977.55 130.39C976.77 129.65 976.3 128.76 976.14 127.72Z" />
			<path id="Layer" class="shp3" d="M1352.03 315.93C1352.03 312.47 1354.84 309.66 1358.3 309.66L1390 309.66C1393.47 309.66 1396.27 306.86 1396.27 303.39L1396.27 265.59C1396.27 262.13 1399.08 259.32 1402.54 259.32L1480 259.32C1483.47 259.32 1486.27 262.13 1486.27 265.59L1486.27 295.17C1486.27 296.43 1485.25 297.46 1483.98 297.46C1482.72 297.46 1481.69 298.48 1481.69 299.75L1481.69 429.41C1481.69 430.67 1482.72 431.69 1483.98 431.69C1485.25 431.69 1486.27 432.72 1486.27 433.98L1486.27 460.51C1486.27 463.97 1483.47 466.78 1480 466.78L1449.1 466.78C1447.5 466.78 1445.96 466.17 1444.8 465.08L1396.55 419.67C1395.39 418.57 1393.86 417.97 1392.26 417.97L1358.3 417.97C1354.84 417.97 1352.03 415.16 1352.03 411.7L1352.03 315.93Z" />
			<g id="Layer" style="opacity: 0.149">
				<g id="Clip-Path" clip-path="url(#cp2)">
					<g id="Layer">
						<path id="Layer" class="shp4" d="M1404.36 539.72L1599.98 344.25L1603.95 348.22L1408.33 543.69L1404.36 539.72Z" />
						<path id="Layer" class="shp4" d="M1396.41 531.78L1592.03 336.31L1596 340.28L1400.39 535.75L1396.41 531.78Z" />
						<path id="Layer" class="shp4" d="M1388.47 523.84L1584.09 328.37L1588.06 332.34L1392.44 527.81L1388.47 523.84Z" />
						<path id="Layer" class="shp4" d="M1380.53 515.9L1576.14 320.44L1580.12 324.4L1384.5 519.87L1380.53 515.9Z" />
						<path id="Layer" class="shp4" d="M1372.58 507.96L1568.2 312.5L1572.17 316.47L1376.55 511.93L1372.58 507.96Z" />
						<path id="Layer" class="shp4" d="M1364.64 500.03L1560.26 304.56L1564.23 308.53L1368.61 504L1364.64 500.03Z" />
						<path id="Layer" class="shp4" d="M1356.69 492.09L1552.31 296.62L1556.28 300.59L1360.67 496.06L1356.69 492.09Z" />
						<path id="Layer" class="shp4" d="M1348.75 484.15L1544.37 288.69L1548.34 292.65L1352.72 488.12L1348.75 484.15Z" />
						<path id="Layer" class="shp4" d="M1340.81 476.22L1536.42 280.75L1540.4 284.72L1344.78 480.18L1340.81 476.22Z" />
						<path id="Layer" class="shp4" d="M1332.86 468.28L1528.48 272.81L1532.45 276.78L1336.84 472.25L1332.86 468.28Z" />
						<path id="Layer" class="shp4" d="M1324.92 460.34L1520.54 264.87L1524.51 268.84L1328.89 464.31L1324.92 460.34Z" />
						<path id="Layer" class="shp4" d="M1316.98 452.4L1512.59 256.94L1516.56 260.9L1320.95 456.37L1316.98 452.4Z" />
						<path id="Layer" class="shp4" d="M1309.03 444.46L1504.65 249L1508.62 252.97L1313 448.43L1309.03 444.46Z" />
						<path id="Layer" class="shp4" d="M1301.09 436.53L1496.71 241.06L1500.68 245.03L1305.06 440.49L1301.09 436.53Z" />
						<path id="Layer" class="shp4" d="M1293.14 428.59L1488.76 233.12L1492.73 237.09L1297.12 432.56L1293.14 428.59Z" />
						<path id="Layer" class="shp4" d="M1285.2 420.65L1480.82 225.18L1484.79 229.15L1289.17 424.62L1285.2 420.65Z" />
						<path id="Layer" class="shp4" d="M1277.26 412.71L1472.87 217.25L1476.85 221.21L1281.23 416.68L1277.26 412.71Z" />
						<path id="Layer" class="shp4" d="M1269.31 404.78L1464.93 209.31L1468.9 213.28L1273.28 408.74L1269.31 404.78Z" />
						<path id="Layer" class="shp4" d="M1261.37 396.84L1456.99 201.37L1460.96 205.34L1265.34 400.81L1261.37 396.84Z" />
						<path id="Layer" class="shp4" d="M1253.42 388.9L1449.04 193.43L1453.01 197.4L1257.4 392.87L1253.42 388.9Z" />
						<path id="Layer" class="shp4" d="M1245.48 380.96L1441.1 185.5L1445.07 189.46L1249.45 384.93L1245.48 380.96Z" />
					</g>
				</g>
			</g>
			<path id="Layer" class="shp3" d="M548.3 309.66L666.95 309.66C670.42 309.66 673.22 312.46 673.22 315.93L673.22 379.67C673.22 383.13 670.42 385.93 666.95 385.93L548.3 385.93C544.84 385.93 542.03 383.13 542.03 379.67L542.03 315.93C542.03 312.46 544.84 309.66 548.3 309.66Z" />
			<g id="Layer" style="opacity: 0.149">
				<g id="Clip-Path" clip-path="url(#cp3)">
					<g id="Layer">
						<path id="Layer" class="shp4" d="M591.27 553.68L786.89 358.21L790.86 362.18L595.25 557.65L591.27 553.68Z" />
						<path id="Layer" class="shp4" d="M583.33 545.74L778.95 350.27L782.92 354.24L587.3 549.71L583.33 545.74Z" />
						<path id="Layer" class="shp4" d="M575.39 537.8L771.01 342.33L774.98 346.3L579.36 541.77L575.39 537.8Z" />
						<path id="Layer" class="shp4" d="M567.44 529.87L763.06 334.4L767.03 338.37L571.42 533.83L567.44 529.87Z" />
						<path id="Layer" class="shp4" d="M559.5 521.93L755.12 326.46L759.09 330.43L563.47 525.9L559.5 521.93Z" />
						<path id="Layer" class="shp4" d="M551.56 513.99L747.17 318.52L751.15 322.49L555.53 517.96L551.56 513.99Z" />
						<path id="Layer" class="shp4" d="M543.61 506.05L739.23 310.58L743.2 314.55L547.58 510.02L543.61 506.05Z" />
						<path id="Layer" class="shp4" d="M535.67 498.11L731.29 302.65L735.26 306.62L539.64 502.08L535.67 498.11Z" />
						<path id="Layer" class="shp4" d="M527.72 490.18L723.34 294.71L727.31 298.68L531.7 494.15L527.72 490.18Z" />
						<path id="Layer" class="shp4" d="M519.78 482.24L715.4 286.77L719.37 290.74L523.75 486.21L519.78 482.24Z" />
						<path id="Layer" class="shp4" d="M511.84 474.3L707.45 278.83L711.43 282.8L515.81 478.27L511.84 474.3Z" />
						<path id="Layer" class="shp4" d="M503.89 466.36L699.51 270.9L703.48 274.87L507.86 470.33L503.89 466.36Z" />
						<path id="Layer" class="shp4" d="M495.95 458.42L691.57 262.96L695.54 266.93L499.92 462.39L495.95 458.42Z" />
						<path id="Layer" class="shp4" d="M488 450.49L683.62 255.02L687.59 258.99L491.98 454.46L488 450.49Z" />
						<path id="Layer" class="shp4" d="M480.06 442.55L675.68 247.08L679.65 251.05L484.03 446.52L480.06 442.55Z" />
						<path id="Layer" class="shp4" d="M472.12 434.61L667.73 239.14L671.71 243.11L476.09 438.58L472.12 434.61Z" />
						<path id="Layer" class="shp4" d="M464.17 426.67L659.79 231.21L663.76 235.18L468.15 430.64L464.17 426.67Z" />
						<path id="Layer" class="shp4" d="M456.23 418.74L651.85 223.27L655.82 227.24L460.2 422.71L456.23 418.74Z" />
						<path id="Layer" class="shp4" d="M448.29 410.8L643.9 215.33L647.88 219.3L452.26 414.77L448.29 410.8Z" />
						<path id="Layer" class="shp4" d="M440.34 402.86L635.96 207.39L639.93 211.36L444.31 406.83L440.34 402.86Z" />
						<path id="Layer" class="shp4" d="M432.4 394.92L628.01 199.46L631.99 203.42L436.37 398.89L432.4 394.92Z" />
					</g>
				</g>
			</g>
			<path id="Layer" fill-rule="evenodd" class="shp5" d="M605.31 355.42L605.31 337.88L612.75 337.88C614.31 337.88 615.55 338.34 616.49 339.26C617.44 340.16 617.92 341.27 617.92 342.59C617.92 344.06 617.28 345.17 616.01 345.92L616.01 345.95C616.76 346.27 617.37 346.78 617.84 347.48C618.32 348.16 618.57 348.99 618.57 349.96C618.57 351.63 618.06 352.97 617.04 353.97C616.02 354.94 614.34 355.42 612 355.42L605.31 355.42ZM608.69 352.29L612.78 352.29C614.38 352.29 615.18 351.51 615.18 349.96C615.18 349.24 614.97 348.69 614.53 348.3C614.11 347.9 613.54 347.7 612.8 347.7L608.69 347.7L608.69 352.29ZM608.69 344.95L612.33 344.95C613.01 344.95 613.55 344.79 613.93 344.47C614.33 344.14 614.53 343.65 614.53 343.02C614.53 342.35 614.34 341.85 613.95 341.51C613.57 341.18 613.03 341.01 612.33 341.01L608.69 341.01L608.69 344.95Z" />
			<path id="Layer" fill-rule="evenodd" class="shp5" d="M1427.25 370.68L1426.25 367.79L1419.56 367.79L1418.56 370.68L1415.2 370.68L1421.54 353.13L1424.42 353.13L1430.74 370.68L1427.25 370.68ZM1422.89 358.14L1420.51 364.99L1425.3 364.99L1422.94 358.14L1422.89 358.14Z" />
		</g>
	</g>
</svg>