<svg xmlns="http://www.w3.org/2000/svg" viewBox="0 0 1920 1080" width="1920" height="1080">
	<defs>
		<clipPath clipPathUnits="userSpaceOnUse" id="cp1">
			<path d="M1135.87 261.7L1251.9 261.7C1255.36 261.7 1258.16 264.5 1258.16 267.97L1258.16 368.87C1258.16 372.34 1255.36 375.14 1251.9 375.14L1135.87 375.14C1132.4 375.14 1129.6 372.34 1129.6 368.87L1129.6 267.97C1129.6 264.5 1132.4 261.7 1135.87 261.7Z" />
		</clipPath>
		<clipPath clipPathUnits="userSpaceOnUse" id="cp2">
			<path d="M606.49 220.87L702.86 220.87C706.32 220.87 709.12 223.67 709.12 227.13L709.12 305.35C709.12 308.82 706.32 311.62 702.86 311.62L606.49 311.62C603.02 311.62 600.22 308.82 600.22 305.35L600.22 227.13C600.22 223.67 603.02 220.87 606.49 220.87Z" />
		</clipPath>
	</defs>
	<style>
		tspan { white-space:pre }
		.shp0 { fill: #7986a3 } 
		.shp1 { opacity: 0.075;fill: #4d5f83;stroke: #4d5f83;stroke-width: 2.507 } 
		.shp2 { fill: #4d5f83 } 
		.shp3 { fill: #e5ebef } 
		.shp4 { fill: #24e8cc } 
		.shp5 { fill: #f44348 } 
	</style>
	<path id="Layer" fill-rule="evenodd" class="shp0" d="M1275.49 437.33L1277.62 436.86C1277.75 437.68 1277.96 438.28 1278.25 438.65C1278.55 439.01 1279.04 439.19 1279.71 439.19C1280.28 439.19 1280.74 439.09 1281.08 438.89C1281.42 438.68 1281.59 438.38 1281.59 437.98C1281.59 437.55 1281.43 437.23 1281.1 437.01C1280.78 436.78 1280.03 436.49 1278.87 436.12C1277.78 435.78 1277 435.37 1276.54 434.89C1276.09 434.4 1275.86 433.8 1275.86 433.09C1275.86 432.26 1276.18 431.56 1276.81 430.98C1277.45 430.39 1278.32 430.09 1279.41 430.09C1280.4 430.09 1281.26 430.33 1281.97 430.81C1282.69 431.3 1283.14 432.01 1283.32 432.97L1281.35 433.46C1281.04 432.47 1280.4 431.97 1279.41 431.97C1278.89 431.97 1278.5 432.07 1278.24 432.27C1277.99 432.47 1277.86 432.74 1277.86 433.07C1277.86 433.38 1278.01 433.62 1278.3 433.79C1278.59 433.95 1279.34 434.24 1280.54 434.65C1281.7 435.05 1282.5 435.49 1282.93 435.96C1283.36 436.42 1283.58 437.05 1283.58 437.84C1283.58 438.77 1283.23 439.54 1282.52 440.15C1281.82 440.77 1280.89 441.07 1279.71 441.07C1278.52 441.07 1277.55 440.76 1276.81 440.14C1276.08 439.51 1275.64 438.57 1275.49 437.33ZM1285 440.85L1285 429.87L1286.96 429.87L1286.96 433.64L1286.99 433.64C1287.15 433.38 1287.41 433.15 1287.78 432.95C1288.16 432.75 1288.54 432.65 1288.93 432.65C1289.78 432.65 1290.46 432.91 1290.96 433.43C1291.46 433.95 1291.71 434.66 1291.71 435.54L1291.71 440.85L1289.76 440.85L1289.76 435.97C1289.76 435.53 1289.63 435.17 1289.39 434.89C1289.16 434.6 1288.81 434.46 1288.34 434.46C1287.89 434.46 1287.54 434.59 1287.3 434.85C1287.07 435.1 1286.96 435.43 1286.96 435.84L1286.96 440.85L1285 440.85ZM1299.62 439.96C1298.92 440.7 1298.03 441.07 1296.94 441.07C1295.86 441.07 1294.97 440.7 1294.27 439.96C1293.57 439.22 1293.22 438.19 1293.22 436.86C1293.22 435.56 1293.58 434.53 1294.3 433.78C1295.02 433.03 1295.9 432.65 1296.94 432.65C1297.99 432.65 1298.87 433.03 1299.59 433.78C1300.31 434.53 1300.67 435.56 1300.67 436.86C1300.67 438.19 1300.32 439.22 1299.62 439.96ZM1295.62 438.68C1295.94 439.1 1296.38 439.31 1296.94 439.31C1297.51 439.31 1297.95 439.1 1298.27 438.68C1298.59 438.25 1298.75 437.64 1298.75 436.86C1298.75 436.08 1298.58 435.48 1298.25 435.06C1297.93 434.63 1297.5 434.41 1296.94 434.41C1296.39 434.41 1295.95 434.62 1295.62 435.04C1295.3 435.46 1295.14 436.07 1295.14 436.86C1295.14 437.65 1295.3 438.26 1295.62 438.68ZM1303.42 440.85L1301.66 432.88L1303.57 432.88L1304.62 438.2L1304.67 438.2L1306.44 432.88L1308.22 432.88L1309.86 438.19L1309.89 438.19L1311.09 432.88L1312.97 432.88L1311.06 440.85L1309.13 440.85L1307.31 435.12L1307.28 435.12L1305.31 440.85L1303.42 440.85ZM1319.49 438.1L1320.86 439.3C1320.05 440.48 1318.95 441.07 1317.57 441.07C1316.45 441.07 1315.55 440.69 1314.85 439.93C1314.14 439.16 1313.79 438.14 1313.79 436.86C1313.79 435.59 1314.14 434.57 1314.83 433.81C1315.53 433.04 1316.42 432.65 1317.48 432.65C1318.54 432.65 1319.41 433.04 1320.09 433.81C1320.79 434.57 1321.13 435.59 1321.13 436.86L1321.13 437.45L1315.78 437.45C1315.81 438.06 1315.97 438.53 1316.27 438.86C1316.59 439.18 1317.01 439.34 1317.54 439.34C1317.99 439.34 1318.36 439.23 1318.65 439.01C1318.95 438.78 1319.23 438.48 1319.49 438.1ZM1315.78 435.99L1319.24 435.99C1319.19 435.48 1319.01 435.08 1318.71 434.8C1318.41 434.51 1318 434.36 1317.48 434.36C1317 434.36 1316.6 434.52 1316.29 434.83C1315.99 435.14 1315.82 435.53 1315.78 435.99ZM1322.71 440.85L1322.71 432.88L1324.56 432.88L1324.56 433.72L1324.59 433.72C1324.74 433.42 1324.96 433.18 1325.25 433C1325.55 432.82 1325.87 432.73 1326.23 432.73C1326.48 432.73 1326.72 432.78 1326.95 432.88L1326.65 434.77C1326.43 434.69 1326.22 434.65 1326.03 434.65C1325.12 434.65 1324.66 435.26 1324.66 436.47L1324.66 440.85L1322.71 440.85ZM1327.63 438.22L1329.39 437.76C1329.53 438.88 1330.12 439.43 1331.18 439.43C1331.66 439.43 1332.04 439.36 1332.32 439.21C1332.61 439.05 1332.76 438.83 1332.76 438.55C1332.76 438.32 1332.65 438.15 1332.42 438.03C1332.2 437.91 1331.74 437.75 1331.04 437.55C1330.85 437.5 1330.71 437.46 1330.6 437.43C1329.68 437.17 1329.01 436.87 1328.57 436.52C1328.14 436.16 1327.93 435.68 1327.93 435.09C1327.93 434.43 1328.19 433.85 1328.73 433.37C1329.27 432.89 1330 432.65 1330.94 432.65C1332.72 432.65 1333.84 433.43 1334.29 435L1332.67 435.49C1332.53 435.11 1332.33 434.81 1332.06 434.59C1331.81 434.37 1331.44 434.26 1330.95 434.26C1330.57 434.26 1330.26 434.34 1330.03 434.48C1329.81 434.63 1329.7 434.8 1329.7 435C1329.7 435.22 1329.83 435.39 1330.09 435.52C1330.37 435.64 1331.03 435.85 1332.09 436.16C1333.03 436.41 1333.66 436.73 1333.99 437.12C1334.33 437.5 1334.5 437.99 1334.5 438.59C1334.5 439.23 1334.22 439.81 1333.66 440.32C1333.11 440.82 1332.31 441.07 1331.25 441.07C1330.15 441.07 1329.3 440.8 1328.69 440.25C1328.1 439.68 1327.75 439.01 1327.63 438.22ZM1335.02 441.03L1340.44 429.6L1341.65 430.15L1336.24 441.55L1335.02 441.03ZM1342.93 440.85L1342.93 430.32L1347.4 430.32C1348.33 430.32 1349.08 430.6 1349.64 431.15C1350.21 431.69 1350.5 432.35 1350.5 433.15C1350.5 434.03 1350.12 434.7 1349.36 435.15L1349.36 435.16C1349.81 435.35 1350.17 435.66 1350.46 436.08C1350.75 436.49 1350.89 436.99 1350.89 437.57C1350.89 438.57 1350.59 439.37 1349.97 439.97C1349.36 440.56 1348.35 440.85 1346.95 440.85L1342.93 440.85ZM1344.97 438.97L1347.42 438.97C1348.38 438.97 1348.86 438.5 1348.86 437.57C1348.86 437.14 1348.73 436.81 1348.47 436.58C1348.22 436.34 1347.87 436.21 1347.43 436.21L1344.97 436.21L1344.97 438.97ZM1344.97 434.56L1347.15 434.56C1347.56 434.56 1347.88 434.47 1348.11 434.27C1348.35 434.07 1348.47 433.78 1348.47 433.4C1348.47 433 1348.35 432.7 1348.12 432.5C1347.89 432.3 1347.57 432.2 1347.15 432.2L1344.97 432.2L1344.97 434.56ZM1357.1 440.85L1357.1 440.08L1357.06 440.08C1357.04 440.11 1357.02 440.15 1356.99 440.2C1356.96 440.24 1356.88 440.32 1356.76 440.43C1356.64 440.54 1356.51 440.64 1356.36 440.73C1356.21 440.82 1356 440.9 1355.74 440.97C1355.48 441.04 1355.2 441.07 1354.9 441.07C1353.94 441.07 1353.21 440.85 1352.73 440.4C1352.26 439.94 1352.03 439.37 1352.03 438.71C1352.03 438.02 1352.23 437.49 1352.64 437.13C1353.05 436.77 1353.75 436.47 1354.73 436.23C1355.65 436.01 1356.22 435.83 1356.45 435.7C1356.68 435.57 1356.79 435.39 1356.79 435.15C1356.79 434.91 1356.68 434.71 1356.45 434.55C1356.23 434.39 1355.89 434.3 1355.44 434.3C1354.91 434.3 1354.53 434.43 1354.3 434.67C1354.07 434.9 1353.89 435.21 1353.76 435.61L1352.13 434.94C1352.32 434.27 1352.69 433.72 1353.24 433.3C1353.8 432.87 1354.52 432.65 1355.41 432.65C1356.38 432.65 1357.18 432.91 1357.8 433.42C1358.42 433.93 1358.73 434.72 1358.73 435.79L1358.73 440.85L1357.1 440.85ZM1355.12 437.58C1354.62 437.7 1354.29 437.85 1354.13 438.02C1353.98 438.18 1353.91 438.37 1353.91 438.58C1353.91 439.12 1354.3 439.39 1355.08 439.39C1355.67 439.39 1356.11 439.28 1356.4 439.06C1356.7 438.83 1356.85 438.55 1356.85 438.22L1356.85 436.83L1356.82 436.83C1356.78 436.91 1356.74 436.98 1356.69 437.03C1356.65 437.07 1356.5 437.14 1356.24 437.25C1355.98 437.35 1355.6 437.46 1355.12 437.58ZM1361.09 438L1361.09 434.53L1359.86 434.53L1359.86 432.88L1361.14 432.88L1361.14 430.92L1362.99 430.92L1362.99 432.88L1365.01 432.88L1365.01 434.53L1363.02 434.53L1363.02 437.82C1363.02 438.25 1363.09 438.54 1363.23 438.71C1363.37 438.88 1363.66 438.97 1364.09 438.97L1364.74 438.97L1364.74 440.85L1363.91 440.85C1362.84 440.85 1362.1 440.62 1361.7 440.17C1361.3 439.72 1361.09 439 1361.09 438ZM1366.51 440.85L1366.51 429.87L1368.46 429.87L1368.46 433.64L1368.49 433.64C1368.65 433.38 1368.92 433.15 1369.29 432.95C1369.66 432.75 1370.04 432.65 1370.43 432.65C1371.28 432.65 1371.96 432.91 1372.46 433.43C1372.96 433.95 1373.21 434.66 1373.21 435.54L1373.21 440.85L1371.26 440.85L1371.26 435.97C1371.26 435.53 1371.14 435.17 1370.9 434.89C1370.67 434.6 1370.32 434.46 1369.84 434.46C1369.39 434.46 1369.05 434.59 1368.81 434.85C1368.58 435.1 1368.46 435.43 1368.46 435.84L1368.46 440.85L1366.51 440.85Z" />
	<path id="Layer" fill-rule="evenodd" class="shp0" d="M1283.13 643.73L1282.53 642L1278.51 642L1277.91 643.73L1275.9 643.73L1279.7 633.2L1281.43 633.2L1285.22 643.73L1283.13 643.73ZM1280.51 636.21L1279.09 640.31L1281.96 640.31L1280.54 636.21L1280.51 636.21ZM1290.26 643.73L1290.26 633.2L1292.29 633.2L1292.29 641.85L1296.64 641.85L1296.64 643.73L1290.26 643.73ZM1303.79 642.84C1303.09 643.58 1302.19 643.95 1301.11 643.95C1300.03 643.95 1299.14 643.58 1298.43 642.84C1297.73 642.1 1297.38 641.07 1297.38 639.74C1297.38 638.44 1297.74 637.41 1298.46 636.66C1299.19 635.91 1300.07 635.53 1301.11 635.53C1302.15 635.53 1303.04 635.91 1303.76 636.66C1304.48 637.41 1304.84 638.44 1304.84 639.74C1304.84 641.07 1304.49 642.1 1303.79 642.84ZM1299.79 641.56C1300.11 641.98 1300.55 642.19 1301.11 642.19C1301.67 642.19 1302.11 641.98 1302.43 641.56C1302.76 641.13 1302.92 640.53 1302.92 639.74C1302.92 638.96 1302.75 638.36 1302.42 637.94C1302.1 637.51 1301.66 637.29 1301.11 637.29C1300.56 637.29 1300.12 637.5 1299.79 637.92C1299.47 638.34 1299.31 638.95 1299.31 639.74C1299.31 640.53 1299.47 641.14 1299.79 641.56ZM1306.43 643.73L1306.43 632.75L1308.38 632.75L1308.38 636.52L1308.41 636.52C1308.43 636.49 1308.46 636.46 1308.49 636.42C1308.52 636.37 1308.59 636.29 1308.71 636.18C1308.84 636.07 1308.98 635.97 1309.12 635.88C1309.27 635.79 1309.46 635.71 1309.69 635.64C1309.93 635.57 1310.18 635.53 1310.44 635.53C1311.43 635.53 1312.24 635.92 1312.88 636.7C1313.53 637.48 1313.86 638.49 1313.86 639.74C1313.86 641.03 1313.54 642.05 1312.91 642.81C1312.29 643.57 1311.45 643.95 1310.4 643.95C1309.97 643.95 1309.58 643.87 1309.22 643.71C1308.87 643.54 1308.63 643.38 1308.5 643.22L1308.29 642.96L1308.26 642.96L1308.26 643.73L1306.43 643.73ZM1308.38 639.01L1308.38 640.46C1308.38 640.95 1308.53 641.36 1308.83 641.7C1309.14 642.03 1309.56 642.19 1310.1 642.19C1310.67 642.19 1311.11 641.99 1311.42 641.58C1311.74 641.16 1311.9 640.55 1311.9 639.74C1311.9 638.93 1311.74 638.32 1311.42 637.91C1311.11 637.5 1310.67 637.29 1310.1 637.29C1309.56 637.29 1309.14 637.46 1308.83 637.79C1308.53 638.12 1308.38 638.52 1308.38 639.01ZM1315.43 643.73L1315.43 632.75L1317.39 632.75L1317.39 636.52L1317.42 636.52C1317.44 636.49 1317.46 636.46 1317.49 636.42C1317.52 636.37 1317.6 636.29 1317.72 636.18C1317.85 636.07 1317.98 635.97 1318.12 635.88C1318.27 635.79 1318.46 635.71 1318.69 635.64C1318.94 635.57 1319.19 635.53 1319.45 635.53C1320.43 635.53 1321.24 635.92 1321.88 636.7C1322.54 637.48 1322.86 638.49 1322.86 639.74C1322.86 641.03 1322.54 642.05 1321.91 642.81C1321.29 643.57 1320.45 643.95 1319.4 643.95C1318.97 643.95 1318.58 643.87 1318.23 643.71C1317.88 643.54 1317.64 643.38 1317.51 643.22L1317.3 642.96L1317.26 642.96L1317.26 643.73L1315.43 643.73ZM1317.39 639.01L1317.39 640.46C1317.39 640.95 1317.54 641.36 1317.84 641.7C1318.15 642.03 1318.57 642.19 1319.1 642.19C1319.67 642.19 1320.11 641.99 1320.42 641.58C1320.74 641.16 1320.9 640.55 1320.9 639.74C1320.9 638.93 1320.74 638.32 1320.42 637.91C1320.11 637.5 1319.67 637.29 1319.1 637.29C1318.57 637.29 1318.15 637.46 1317.84 637.79C1317.54 638.12 1317.39 638.52 1317.39 639.01ZM1324.76 647.11L1326.35 643.34L1323.16 635.76L1325.15 635.76L1327.21 641.16L1327.24 641.16L1329.3 635.76L1331.29 635.76L1326.7 647.11L1324.76 647.11Z" />
	<path id="Layer" fill-rule="evenodd" class="shp0" d="M1020.78 815.77L1022.89 816.24C1022.71 817.46 1022.27 818.42 1021.55 819.12C1020.82 819.83 1019.88 820.18 1018.72 820.18C1017.37 820.18 1016.26 819.71 1015.41 818.78C1014.57 817.83 1014.15 816.42 1014.15 814.52C1014.15 812.86 1014.59 811.55 1015.49 810.61C1016.39 809.67 1017.46 809.2 1018.7 809.2C1019.79 809.2 1020.7 809.54 1021.46 810.22C1022.22 810.89 1022.66 811.8 1022.78 812.94L1020.77 813.26C1020.67 812.62 1020.46 812.09 1020.13 811.69C1019.8 811.28 1019.33 811.08 1018.72 811.08C1018.03 811.08 1017.44 811.38 1016.96 811.98C1016.48 812.58 1016.24 813.43 1016.24 814.52C1016.24 815.8 1016.47 816.76 1016.93 817.38C1017.4 817.99 1018 818.3 1018.72 818.3C1019.9 818.3 1020.59 817.45 1020.78 815.77ZM1029.01 819.95L1029.01 819.18L1028.98 819.18C1028.96 819.21 1028.94 819.25 1028.9 819.3C1028.88 819.34 1028.8 819.42 1028.68 819.53C1028.56 819.64 1028.42 819.74 1028.27 819.83C1028.12 819.92 1027.92 820 1027.66 820.07C1027.4 820.14 1027.12 820.18 1026.82 820.18C1025.85 820.18 1025.13 819.95 1024.65 819.5C1024.18 819.04 1023.94 818.48 1023.94 817.81C1023.94 817.12 1024.15 816.6 1024.56 816.24C1024.97 815.87 1025.67 815.57 1026.65 815.33C1027.56 815.11 1028.13 814.94 1028.36 814.81C1028.6 814.68 1028.71 814.49 1028.71 814.25C1028.71 814.01 1028.6 813.81 1028.36 813.65C1028.14 813.49 1027.81 813.41 1027.36 813.41C1026.82 813.41 1026.44 813.53 1026.21 813.77C1025.98 814 1025.8 814.32 1025.67 814.72L1024.05 814.04C1024.24 813.37 1024.61 812.82 1025.16 812.4C1025.71 811.97 1026.43 811.75 1027.33 811.75C1028.3 811.75 1029.1 812.01 1029.72 812.52C1030.34 813.03 1030.65 813.82 1030.65 814.9L1030.65 819.95L1029.01 819.95ZM1027.04 816.69C1026.54 816.81 1026.21 816.95 1026.05 817.12C1025.9 817.28 1025.82 817.47 1025.82 817.68C1025.82 818.22 1026.21 818.49 1027 818.49C1027.59 818.49 1028.03 818.38 1028.32 818.16C1028.62 817.93 1028.77 817.65 1028.77 817.32L1028.77 815.94L1028.74 815.94C1028.7 816.01 1028.65 816.08 1028.6 816.13C1028.56 816.17 1028.41 816.25 1028.15 816.36C1027.89 816.46 1027.52 816.57 1027.04 816.69ZM1034.44 819.95L1031.25 811.98L1033.28 811.98L1035.26 817.11L1035.29 817.11L1037.28 811.98L1039.28 811.98L1036.09 819.95L1034.44 819.95ZM1045.36 817.2L1046.73 818.4C1045.91 819.58 1044.82 820.18 1043.43 820.18C1042.32 820.18 1041.41 819.79 1040.71 819.03C1040.01 818.26 1039.66 817.24 1039.66 815.96C1039.66 814.69 1040 813.67 1040.7 812.91C1041.4 812.14 1042.28 811.75 1043.34 811.75C1044.41 811.75 1045.28 812.14 1045.96 812.91C1046.65 813.67 1047 814.69 1047 815.96L1047 816.55L1041.64 816.55C1041.67 817.16 1041.84 817.63 1042.14 817.97C1042.45 818.29 1042.87 818.45 1043.4 818.45C1043.85 818.45 1044.23 818.34 1044.52 818.12C1044.82 817.88 1045.1 817.58 1045.36 817.2ZM1041.64 815.09L1045.1 815.09C1045.05 814.58 1044.88 814.19 1044.58 813.91C1044.28 813.61 1043.86 813.47 1043.34 813.47C1042.86 813.47 1042.47 813.62 1042.15 813.93C1041.85 814.25 1041.68 814.63 1041.64 815.09Z" />
	<path id="Layer" fill-rule="evenodd" class="shp0" d="M1044.4 523.22L1043.8 521.49L1039.78 521.49L1039.18 523.22L1037.16 523.22L1040.97 512.69L1042.7 512.69L1046.49 523.22L1044.4 523.22ZM1041.78 515.7L1040.35 519.81L1043.23 519.81L1041.81 515.7L1041.78 515.7ZM1050.85 519.7L1052.99 519.23C1053.11 520.06 1053.33 520.65 1053.62 521.02C1053.92 521.39 1054.4 521.57 1055.08 521.57C1055.65 521.57 1056.1 521.47 1056.44 521.26C1056.79 521.05 1056.96 520.75 1056.96 520.35C1056.96 519.93 1056.79 519.61 1056.46 519.39C1056.14 519.16 1055.4 518.86 1054.23 518.5C1053.14 518.16 1052.36 517.75 1051.9 517.26C1051.45 516.77 1051.22 516.17 1051.22 515.46C1051.22 514.64 1051.54 513.94 1052.17 513.35C1052.81 512.76 1053.68 512.47 1054.77 512.47C1055.77 512.47 1056.62 512.71 1057.33 513.19C1058.05 513.67 1058.5 514.39 1058.69 515.34L1056.71 515.84C1056.4 514.84 1055.76 514.35 1054.77 514.35C1054.25 514.35 1053.86 514.45 1053.6 514.65C1053.35 514.85 1053.22 515.11 1053.22 515.44C1053.22 515.75 1053.37 516 1053.66 516.17C1053.95 516.33 1054.7 516.61 1055.9 517.02C1057.07 517.43 1057.86 517.86 1058.29 518.33C1058.73 518.79 1058.94 519.42 1058.94 520.21C1058.94 521.14 1058.59 521.92 1057.89 522.53C1057.19 523.14 1056.25 523.45 1055.08 523.45C1053.88 523.45 1052.92 523.13 1052.17 522.51C1051.44 521.88 1051 520.94 1050.85 519.7ZM1060.36 523.22L1060.36 512.24L1062.32 512.24L1062.32 516.02L1062.35 516.02C1062.51 515.75 1062.78 515.52 1063.15 515.32C1063.52 515.12 1063.9 515.02 1064.29 515.02C1065.14 515.02 1065.82 515.28 1066.32 515.81C1066.82 516.33 1067.07 517.03 1067.07 517.91L1067.07 523.22L1065.12 523.22L1065.12 518.35C1065.12 517.91 1065 517.55 1064.76 517.26C1064.53 516.97 1064.17 516.83 1063.7 516.83C1063.25 516.83 1062.91 516.96 1062.67 517.22C1062.44 517.47 1062.32 517.8 1062.32 518.21L1062.32 523.22L1060.36 523.22ZM1074.98 522.33C1074.28 523.08 1073.39 523.45 1072.31 523.45C1071.22 523.45 1070.33 523.08 1069.63 522.33C1068.93 521.59 1068.58 520.56 1068.58 519.23C1068.58 517.93 1068.94 516.9 1069.66 516.15C1070.38 515.4 1071.26 515.02 1072.31 515.02C1073.35 515.02 1074.23 515.4 1074.95 516.15C1075.68 516.9 1076.04 517.93 1076.04 519.23C1076.04 520.56 1075.69 521.59 1074.98 522.33ZM1070.98 521.05C1071.3 521.48 1071.75 521.69 1072.31 521.69C1072.87 521.69 1073.31 521.48 1073.63 521.05C1073.95 520.62 1074.11 520.02 1074.11 519.23C1074.11 518.45 1073.95 517.85 1073.62 517.43C1073.29 517 1072.86 516.78 1072.31 516.78C1071.76 516.78 1071.31 516.99 1070.98 517.41C1070.66 517.84 1070.5 518.44 1070.5 519.23C1070.5 520.03 1070.66 520.63 1070.98 521.05ZM1077.62 523.22L1077.62 515.25L1079.47 515.25L1079.47 516.09L1079.5 516.09C1079.65 515.79 1079.87 515.55 1080.17 515.37C1080.47 515.19 1080.79 515.1 1081.14 515.1C1081.39 515.1 1081.63 515.15 1081.86 515.25L1081.56 517.14C1081.34 517.06 1081.14 517.02 1080.95 517.02C1080.03 517.02 1079.58 517.63 1079.58 518.84L1079.58 523.22L1077.62 523.22ZM1083.7 520.38L1083.7 516.9L1082.47 516.9L1082.47 515.25L1083.74 515.25L1083.74 513.29L1085.59 513.29L1085.59 515.25L1087.61 515.25L1087.61 516.9L1085.62 516.9L1085.62 520.2C1085.62 520.62 1085.69 520.91 1085.83 521.08C1085.97 521.26 1086.26 521.34 1086.69 521.34L1087.34 521.34L1087.34 523.22L1086.51 523.22C1085.44 523.22 1084.7 522.99 1084.3 522.54C1083.9 522.09 1083.7 521.37 1083.7 520.38Z" />
	<path id="Layer" fill-rule="evenodd" class="shp0" d="M1007.92 481.5L1010.02 481.97C1009.85 483.19 1009.4 484.16 1008.68 484.86C1007.96 485.56 1007.02 485.91 1005.85 485.91C1004.5 485.91 1003.4 485.44 1002.55 484.51C1001.7 483.57 1001.28 482.15 1001.28 480.26C1001.28 478.59 1001.73 477.29 1002.62 476.34C1003.52 475.4 1004.6 474.93 1005.84 474.93C1006.92 474.93 1007.84 475.27 1008.59 475.95C1009.35 476.63 1009.79 477.53 1009.91 478.68L1007.9 478.99C1007.81 478.35 1007.6 477.83 1007.27 477.43C1006.94 477.02 1006.47 476.81 1005.85 476.81C1005.16 476.81 1004.58 477.11 1004.09 477.71C1003.61 478.31 1003.37 479.16 1003.37 480.26C1003.37 481.54 1003.6 482.49 1004.06 483.11C1004.54 483.72 1005.13 484.03 1005.85 484.03C1007.04 484.03 1007.72 483.19 1007.92 481.5ZM1011.53 482.86L1011.53 477.71L1013.48 477.71L1013.48 482.65C1013.48 483.15 1013.58 483.5 1013.77 483.71C1013.96 483.93 1014.27 484.03 1014.69 484.03C1015.16 484.03 1015.54 483.91 1015.83 483.67C1016.12 483.42 1016.27 483.03 1016.27 482.5L1016.27 477.71L1018.22 477.71L1018.22 485.68L1016.36 485.68L1016.36 484.92L1016.33 484.92C1015.84 485.58 1015.14 485.91 1014.25 485.91C1013.33 485.91 1012.64 485.64 1012.19 485.08C1011.75 484.53 1011.53 483.79 1011.53 482.86ZM1020.33 485.68L1020.33 474.71L1022.28 474.71L1022.28 478.48L1022.31 478.48C1022.33 478.45 1022.36 478.42 1022.39 478.38C1022.42 478.33 1022.49 478.24 1022.61 478.13C1022.75 478.03 1022.88 477.92 1023.02 477.83C1023.17 477.74 1023.36 477.66 1023.59 477.59C1023.83 477.52 1024.08 477.49 1024.34 477.49C1025.33 477.49 1026.14 477.88 1026.78 478.66C1027.43 479.43 1027.76 480.45 1027.76 481.7C1027.76 482.98 1027.44 484 1026.81 484.77C1026.19 485.53 1025.35 485.91 1024.3 485.91C1023.87 485.91 1023.48 485.83 1023.13 485.67C1022.77 485.5 1022.53 485.33 1022.4 485.17L1022.19 484.92L1022.16 484.92L1022.16 485.68L1020.33 485.68ZM1022.28 480.96L1022.28 482.42C1022.28 482.9 1022.43 483.31 1022.73 483.65C1023.05 483.98 1023.47 484.15 1024 484.15C1024.57 484.15 1025.01 483.95 1025.32 483.53C1025.64 483.11 1025.8 482.5 1025.8 481.7C1025.8 480.89 1025.64 480.28 1025.32 479.86C1025.01 479.45 1024.57 479.25 1024 479.25C1023.47 479.25 1023.05 479.41 1022.73 479.74C1022.43 480.08 1022.28 480.48 1022.28 480.96ZM1029.33 485.68L1029.33 474.71L1031.29 474.71L1031.29 478.48L1031.32 478.48C1031.34 478.45 1031.36 478.42 1031.39 478.38C1031.42 478.33 1031.5 478.24 1031.62 478.13C1031.75 478.03 1031.88 477.92 1032.02 477.83C1032.18 477.74 1032.36 477.66 1032.6 477.59C1032.84 477.52 1033.09 477.49 1033.35 477.49C1034.33 477.49 1035.14 477.88 1035.78 478.66C1036.44 479.43 1036.76 480.45 1036.76 481.7C1036.76 482.98 1036.45 484 1035.82 484.77C1035.19 485.53 1034.36 485.91 1033.3 485.91C1032.87 485.91 1032.48 485.83 1032.13 485.67C1031.78 485.5 1031.54 485.33 1031.41 485.17L1031.2 484.92L1031.17 484.92L1031.17 485.68L1029.33 485.68ZM1031.29 480.96L1031.29 482.42C1031.29 482.9 1031.44 483.31 1031.74 483.65C1032.05 483.98 1032.47 484.15 1033 484.15C1033.57 484.15 1034.02 483.95 1034.32 483.53C1034.65 483.11 1034.81 482.5 1034.81 481.7C1034.81 480.89 1034.65 480.28 1034.32 479.86C1034.02 479.45 1033.57 479.25 1033 479.25C1032.47 479.25 1032.05 479.41 1031.74 479.74C1031.44 480.08 1031.29 480.48 1031.29 480.96ZM1038.66 489.07L1040.25 485.29L1037.06 477.71L1039.05 477.71L1041.11 483.11L1041.14 483.11L1043.2 477.71L1045.19 477.71L1040.6 489.07L1038.66 489.07Z" />
	<path id="Layer" class="shp0" d="M838.57 652.06L838.57 641.53L840.6 641.53L840.6 650.18L844.95 650.18L844.95 652.06L838.57 652.06ZM846.22 652.06L846.22 644.09L848.17 644.09L848.17 652.06L846.22 652.06ZM846.22 642.93L846.22 641.08L848.17 641.08L848.17 642.93L846.22 642.93ZM850.27 652.06L850.27 644.09L852.15 644.09L852.15 644.86L852.18 644.86C852.4 644.58 852.7 644.34 853.09 644.15C853.47 643.96 853.87 643.86 854.29 643.86C855.17 643.86 855.86 644.13 856.36 644.66C856.87 645.18 857.12 645.91 857.12 646.84L857.12 652.06L855.16 652.06L855.16 647.32C855.16 646.77 855.06 646.36 854.85 646.09C854.63 645.81 854.27 645.67 853.76 645.67C853.28 645.67 852.91 645.81 852.63 646.09C852.36 646.36 852.23 646.73 852.23 647.19L852.23 652.06L850.27 652.06ZM859.15 652.06L859.15 641.08L861.1 641.08L861.1 647.38L861.13 647.38L864.03 644.09L866.49 644.09L863.61 647.32L866.74 652.06L864.57 652.06L862.14 648.42L862.11 648.42L861.1 649.57L861.1 652.06L859.15 652.06Z" />
	<path id="Layer" fill-rule="evenodd" class="shp0" d="M576.74 442.05C575.39 442.05 574.28 441.58 573.43 440.65C572.59 439.71 572.17 438.29 572.17 436.39C572.17 434.73 572.61 433.42 573.51 432.48C574.41 431.54 575.48 431.07 576.73 431.07C577.79 431.07 578.69 431.39 579.43 432.03C580.18 432.67 580.64 433.55 580.79 434.65L578.76 434.98C578.51 433.62 577.83 432.95 576.74 432.95C576.05 432.95 575.46 433.25 574.98 433.85C574.5 434.45 574.26 435.3 574.26 436.39C574.26 437.68 574.49 438.63 574.95 439.25C575.42 439.86 576.02 440.17 576.74 440.17C577.39 440.17 577.9 439.98 578.27 439.61C578.65 439.24 578.85 438.72 578.85 438.05L576.89 438.05L576.89 436.32L580.79 436.32L580.79 437.72C580.79 439.05 580.41 440.11 579.66 440.89C578.91 441.66 577.93 442.05 576.74 442.05ZM586.99 441.82L586.99 441.05L586.96 441.05C586.94 441.09 586.91 441.13 586.88 441.18C586.85 441.22 586.78 441.29 586.66 441.4C586.54 441.51 586.4 441.61 586.25 441.7C586.1 441.79 585.89 441.87 585.63 441.94C585.37 442.01 585.09 442.05 584.79 442.05C583.83 442.05 583.11 441.82 582.63 441.37C582.15 440.91 581.92 440.35 581.92 439.69C581.92 438.99 582.13 438.47 582.54 438.11C582.95 437.75 583.64 437.45 584.63 437.2C585.54 436.98 586.11 436.81 586.34 436.68C586.57 436.55 586.69 436.36 586.69 436.12C586.69 435.88 586.57 435.68 586.34 435.52C586.12 435.36 585.78 435.28 585.33 435.28C584.8 435.28 584.42 435.4 584.19 435.64C583.96 435.87 583.78 436.19 583.65 436.59L582.02 435.91C582.22 435.24 582.59 434.69 583.14 434.27C583.69 433.84 584.41 433.62 585.3 433.62C586.28 433.62 587.07 433.88 587.69 434.39C588.32 434.9 588.63 435.7 588.63 436.77L588.63 441.82L586.99 441.82ZM585.02 438.56C584.52 438.68 584.18 438.82 584.02 438.99C583.87 439.15 583.8 439.34 583.8 439.55C583.8 440.09 584.19 440.36 584.97 440.36C585.56 440.36 586 440.25 586.3 440.03C586.6 439.8 586.75 439.52 586.75 439.19L586.75 437.81L586.72 437.81C586.68 437.89 586.63 437.95 586.58 438C586.54 438.04 586.39 438.12 586.13 438.23C585.87 438.33 585.5 438.44 585.02 438.56ZM590.58 441.82L590.58 433.85L592.43 433.85L592.43 434.69L592.46 434.69C592.61 434.39 592.83 434.15 593.12 433.97C593.43 433.79 593.75 433.7 594.1 433.7C594.35 433.7 594.59 433.75 594.82 433.85L594.52 435.75C594.3 435.67 594.1 435.63 593.91 435.63C592.99 435.63 592.54 436.23 592.54 437.45L592.54 441.82L590.58 441.82ZM601.17 441.82L601.17 441.05L601.14 441.05C601.09 441.13 601.02 441.22 600.92 441.33C600.83 441.44 600.6 441.59 600.23 441.78C599.87 441.96 599.47 442.05 599.04 442.05C597.98 442.05 597.14 441.67 596.51 440.9C595.89 440.14 595.58 439.12 595.58 437.84C595.58 436.54 595.92 435.52 596.6 434.77C597.28 434.01 598.09 433.62 599.01 433.62C599.43 433.62 599.8 433.71 600.14 433.88C600.48 434.04 600.71 434.2 600.83 434.36L601.02 434.62L601.05 434.62L601.05 430.84L603.01 430.84L603.01 441.82L601.17 441.82ZM601.05 438.56L601.05 437.1C601.05 436.62 600.9 436.21 600.59 435.88C600.29 435.55 599.87 435.38 599.34 435.38C598.77 435.38 598.32 435.59 598 436C597.69 436.41 597.53 437.02 597.53 437.84C597.53 438.64 597.69 439.25 598 439.67C598.32 440.08 598.77 440.29 599.34 440.29C599.87 440.29 600.29 440.12 600.59 439.79C600.9 439.45 601.05 439.04 601.05 438.56ZM610.28 439.07L611.65 440.27C610.84 441.46 609.74 442.05 608.36 442.05C607.24 442.05 606.34 441.67 605.63 440.9C604.93 440.13 604.58 439.11 604.58 437.84C604.58 436.56 604.93 435.55 605.62 434.78C606.32 434.01 607.2 433.62 608.27 433.62C609.33 433.62 610.2 434.01 610.88 434.78C611.58 435.55 611.92 436.56 611.92 437.84L611.92 438.42L606.57 438.42C606.6 439.04 606.76 439.51 607.06 439.84C607.38 440.16 607.8 440.32 608.33 440.32C608.78 440.32 609.15 440.21 609.44 439.99C609.74 439.76 610.02 439.45 610.28 439.07ZM606.57 436.96L610.03 436.96C609.98 436.45 609.8 436.06 609.5 435.78C609.2 435.49 608.79 435.34 608.27 435.34C607.79 435.34 607.39 435.49 607.08 435.81C606.78 436.12 606.61 436.5 606.57 436.96ZM613.5 441.82L613.5 433.85L615.38 433.85L615.38 434.62L615.41 434.62C615.63 434.34 615.93 434.1 616.31 433.91C616.69 433.72 617.09 433.62 617.51 433.62C618.39 433.62 619.09 433.89 619.59 434.42C620.09 434.94 620.34 435.67 620.34 436.6L620.34 441.82L618.38 441.82L618.38 437.08C618.38 436.53 618.28 436.12 618.07 435.85C617.86 435.57 617.5 435.43 616.99 435.43C616.5 435.43 616.13 435.57 615.86 435.85C615.59 436.12 615.45 436.49 615.45 436.95L615.45 441.82L613.5 441.82Z" />
	<path id="Layer" fill-rule="evenodd" class="shp0" d="M758.05 531.06L758.05 520.53L762.52 520.53C763.45 520.53 764.2 520.81 764.76 521.36C765.33 521.9 765.62 522.57 765.62 523.36C765.62 524.24 765.24 524.91 764.47 525.36L764.47 525.38C764.93 525.56 765.29 525.87 765.57 526.29C765.86 526.7 766.01 527.2 766.01 527.78C766.01 528.78 765.7 529.59 765.09 530.19C764.48 530.77 763.47 531.06 762.07 531.06L758.05 531.06ZM760.08 529.18L762.53 529.18C763.5 529.18 763.98 528.71 763.98 527.78C763.98 527.35 763.85 527.02 763.59 526.79C763.34 526.55 762.99 526.43 762.55 526.43L760.08 526.43L760.08 529.18ZM760.08 524.77L762.26 524.77C762.67 524.77 763 524.68 763.23 524.49C763.47 524.29 763.59 524 763.59 523.62C763.59 523.21 763.47 522.91 763.24 522.71C763.01 522.51 762.68 522.41 762.26 522.41L760.08 522.41L760.08 524.77ZM770.9 527.54L773.04 527.08C773.17 527.9 773.38 528.49 773.67 528.86C773.97 529.23 774.46 529.41 775.13 529.41C775.7 529.41 776.16 529.31 776.5 529.11C776.84 528.89 777.01 528.59 777.01 528.19C777.01 527.77 776.84 527.45 776.51 527.22C776.19 526.99 775.45 526.7 774.29 526.34C773.19 526 772.42 525.59 771.96 525.1C771.5 524.61 771.28 524.01 771.28 523.3C771.28 522.48 771.59 521.78 772.23 521.19C772.87 520.6 773.74 520.31 774.83 520.31C775.82 520.31 776.67 520.55 777.39 521.03C778.11 521.51 778.56 522.23 778.74 523.18L776.77 523.67C776.46 522.68 775.81 522.19 774.83 522.19C774.31 522.19 773.92 522.29 773.66 522.49C773.41 522.69 773.28 522.95 773.28 523.28C773.28 523.6 773.43 523.84 773.72 524.01C774.01 524.17 774.75 524.45 775.96 524.86C777.12 525.26 777.92 525.7 778.35 526.17C778.78 526.63 778.99 527.26 778.99 528.05C778.99 528.98 778.64 529.76 777.94 530.37C777.24 530.98 776.3 531.29 775.13 531.29C773.94 531.29 772.97 530.98 772.23 530.35C771.49 529.72 771.05 528.78 770.9 527.54ZM780.42 531.06L780.42 520.08L782.37 520.08L782.37 523.86L782.4 523.86C782.56 523.6 782.83 523.37 783.2 523.16C783.57 522.96 783.95 522.86 784.34 522.86C785.2 522.86 785.87 523.12 786.37 523.65C786.88 524.17 787.13 524.87 787.13 525.75L787.13 531.06L785.17 531.06L785.17 526.19C785.17 525.75 785.05 525.38 784.81 525.1C784.58 524.81 784.23 524.67 783.76 524.67C783.31 524.67 782.96 524.8 782.72 525.06C782.49 525.31 782.37 525.64 782.37 526.05L782.37 531.06L780.42 531.06ZM795.04 530.17C794.34 530.91 793.45 531.29 792.36 531.29C791.28 531.29 790.39 530.91 789.68 530.17C788.98 529.43 788.63 528.4 788.63 527.08C788.63 525.77 788.99 524.74 789.71 523.99C790.44 523.24 791.32 522.86 792.36 522.86C793.4 522.86 794.29 523.24 795.01 523.99C795.73 524.74 796.09 525.77 796.09 527.08C796.09 528.4 795.74 529.43 795.04 530.17ZM791.04 528.89C791.36 529.32 791.8 529.53 792.36 529.53C792.92 529.53 793.36 529.32 793.68 528.89C794.01 528.46 794.17 527.86 794.17 527.08C794.17 526.29 794 525.69 793.67 525.27C793.35 524.84 792.91 524.62 792.36 524.62C791.81 524.62 791.37 524.83 791.04 525.26C790.72 525.68 790.56 526.28 790.56 527.08C790.56 527.87 790.72 528.47 791.04 528.89ZM797.68 531.06L797.68 523.09L799.53 523.09L799.53 523.93L799.56 523.93C799.71 523.63 799.93 523.39 800.22 523.21C800.52 523.03 800.84 522.94 801.2 522.94C801.45 522.94 801.69 522.99 801.92 523.09L801.62 524.98C801.4 524.9 801.19 524.86 801 524.86C800.09 524.86 799.63 525.47 799.63 526.68L799.63 531.06L797.68 531.06ZM803.75 528.22L803.75 524.74L802.52 524.74L802.52 523.09L803.8 523.09L803.8 521.13L805.65 521.13L805.65 523.09L807.66 523.09L807.66 524.74L805.68 524.74L805.68 528.04C805.68 528.46 805.75 528.75 805.89 528.92C806.03 529.09 806.32 529.18 806.75 529.18L807.39 529.18L807.39 531.06L806.57 531.06C805.49 531.06 804.76 530.84 804.35 530.38C803.95 529.93 803.75 529.21 803.75 528.22Z" />
	<path id="Layer" fill-rule="evenodd" class="shp0" d="M1155.06 172.37L1155.06 163.73L1151.98 163.73L1151.98 161.84L1160.18 161.84L1160.18 163.73L1157.09 163.73L1157.09 172.37L1155.06 172.37ZM1166.06 171.49C1165.36 172.23 1164.47 172.6 1163.38 172.6C1162.3 172.6 1161.41 172.23 1160.71 171.49C1160 170.74 1159.65 169.71 1159.65 168.39C1159.65 167.08 1160.02 166.06 1160.74 165.3C1161.46 164.55 1162.34 164.18 1163.38 164.18C1164.43 164.18 1165.31 164.55 1166.03 165.3C1166.75 166.06 1167.11 167.08 1167.11 168.39C1167.11 169.71 1166.76 170.74 1166.06 171.49ZM1162.06 170.21C1162.38 170.63 1162.82 170.84 1163.38 170.84C1163.95 170.84 1164.39 170.63 1164.71 170.21C1165.03 169.78 1165.19 169.17 1165.19 168.39C1165.19 167.6 1165.02 167 1164.69 166.58C1164.37 166.15 1163.94 165.94 1163.38 165.94C1162.83 165.94 1162.39 166.15 1162.06 166.57C1161.74 166.99 1161.58 167.6 1161.58 168.39C1161.58 169.18 1161.74 169.79 1162.06 170.21ZM1169.86 172.37L1168.1 164.4L1170.01 164.4L1171.06 169.73L1171.11 169.73L1172.88 164.4L1174.66 164.4L1176.29 169.71L1176.32 169.71L1177.53 164.4L1179.41 164.4L1177.5 172.37L1175.57 172.37L1173.75 166.64L1173.72 166.64L1171.75 172.37L1169.86 172.37ZM1185.93 169.62L1187.3 170.82C1186.49 172.01 1185.39 172.6 1184.01 172.6C1182.89 172.6 1181.99 172.22 1181.28 171.46C1180.58 170.68 1180.23 169.66 1180.23 168.39C1180.23 167.11 1180.58 166.1 1181.27 165.33C1181.97 164.56 1182.85 164.18 1183.92 164.18C1184.98 164.18 1185.85 164.56 1186.53 165.33C1187.23 166.1 1187.57 167.11 1187.57 168.39L1187.57 168.97L1182.22 168.97C1182.25 169.59 1182.41 170.06 1182.71 170.39C1183.02 170.71 1183.45 170.87 1183.98 170.87C1184.43 170.87 1184.8 170.76 1185.09 170.54C1185.39 170.31 1185.67 170 1185.93 169.62ZM1182.22 167.51L1185.68 167.51C1185.63 167 1185.45 166.61 1185.15 166.33C1184.85 166.04 1184.44 165.89 1183.92 165.89C1183.43 165.89 1183.04 166.05 1182.73 166.36C1182.43 166.67 1182.26 167.05 1182.22 167.51ZM1189.14 172.37L1189.14 164.4L1190.99 164.4L1190.99 165.24L1191.03 165.24C1191.18 164.94 1191.4 164.7 1191.69 164.52C1191.99 164.34 1192.31 164.25 1192.67 164.25C1192.92 164.25 1193.16 164.3 1193.39 164.4L1193.09 166.3C1192.87 166.22 1192.66 166.18 1192.47 166.18C1191.56 166.18 1191.1 166.78 1191.1 168L1191.1 172.37L1189.14 172.37ZM1197.45 172.55L1202.87 161.12L1204.08 161.68L1198.67 173.08L1197.45 172.55ZM1209.12 172.37L1209.12 161.84L1211.15 161.84L1211.15 166.09L1214.76 166.09L1214.76 161.84L1216.8 161.84L1216.8 172.37L1214.76 172.37L1214.76 167.81L1211.15 167.81L1211.15 172.37L1209.12 172.37ZM1224.22 169.62L1225.59 170.82C1224.78 172.01 1223.68 172.6 1222.3 172.6C1221.19 172.6 1220.28 172.22 1219.58 171.46C1218.88 170.68 1218.52 169.66 1218.52 168.39C1218.52 167.11 1218.87 166.1 1219.56 165.33C1220.26 164.56 1221.15 164.18 1222.21 164.18C1223.27 164.18 1224.14 164.56 1224.83 165.33C1225.52 166.1 1225.86 167.11 1225.86 168.39L1225.86 168.97L1220.51 168.97C1220.54 169.59 1220.7 170.06 1221.01 170.39C1221.32 170.71 1221.74 170.87 1222.27 170.87C1222.72 170.87 1223.09 170.76 1223.38 170.54C1223.68 170.31 1223.96 170 1224.22 169.62ZM1220.51 167.51L1223.97 167.51C1223.92 167 1223.74 166.61 1223.44 166.33C1223.14 166.04 1222.73 165.89 1222.21 165.89C1221.73 165.89 1221.33 166.05 1221.02 166.36C1220.72 166.67 1220.55 167.05 1220.51 167.51ZM1231.98 172.37L1231.98 171.61L1231.95 171.61C1231.93 171.64 1231.9 171.68 1231.87 171.73C1231.84 171.77 1231.77 171.84 1231.65 171.95C1231.53 172.06 1231.39 172.16 1231.24 172.25C1231.09 172.34 1230.89 172.42 1230.63 172.49C1230.36 172.56 1230.08 172.6 1229.78 172.6C1228.82 172.6 1228.1 172.37 1227.62 171.92C1227.15 171.46 1226.91 170.9 1226.91 170.24C1226.91 169.54 1227.12 169.02 1227.53 168.66C1227.94 168.3 1228.63 168 1229.62 167.76C1230.53 167.53 1231.1 167.36 1231.33 167.23C1231.56 167.1 1231.68 166.91 1231.68 166.67C1231.68 166.43 1231.56 166.23 1231.33 166.07C1231.11 165.91 1230.78 165.83 1230.32 165.83C1229.79 165.83 1229.41 165.95 1229.18 166.19C1228.95 166.42 1228.77 166.74 1228.64 167.14L1227.02 166.46C1227.21 165.79 1227.58 165.24 1228.13 164.82C1228.68 164.39 1229.4 164.18 1230.29 164.18C1231.27 164.18 1232.06 164.43 1232.69 164.94C1233.31 165.45 1233.62 166.25 1233.62 167.32L1233.62 172.37L1231.98 172.37ZM1230.01 169.11C1229.51 169.23 1229.18 169.38 1229.02 169.54C1228.87 169.71 1228.79 169.89 1228.79 170.1C1228.79 170.64 1229.18 170.91 1229.96 170.91C1230.56 170.91 1231 170.8 1231.29 170.58C1231.59 170.35 1231.74 170.07 1231.74 169.74L1231.74 168.36L1231.71 168.36C1231.67 168.44 1231.62 168.5 1231.57 168.55C1231.53 168.59 1231.38 168.67 1231.12 168.78C1230.86 168.88 1230.49 168.99 1230.01 169.11ZM1237.4 172.37L1234.22 164.4L1236.25 164.4L1238.23 169.53L1238.26 169.53L1240.25 164.4L1242.25 164.4L1239.06 172.37L1237.4 172.37ZM1248.33 169.62L1249.7 170.82C1248.88 172.01 1247.78 172.6 1246.4 172.6C1245.29 172.6 1244.38 172.22 1243.68 171.46C1242.98 170.68 1242.63 169.66 1242.63 168.39C1242.63 167.11 1242.97 166.1 1243.66 165.33C1244.37 164.56 1245.25 164.18 1246.31 164.18C1247.37 164.18 1248.25 164.56 1248.93 165.33C1249.62 166.1 1249.97 167.11 1249.97 168.39L1249.97 168.97L1244.61 168.97C1244.64 169.59 1244.81 170.06 1245.11 170.39C1245.42 170.71 1245.84 170.87 1246.37 170.87C1246.82 170.87 1247.19 170.76 1247.48 170.54C1247.78 170.31 1248.07 170 1248.33 169.62ZM1244.61 167.51L1248.07 167.51C1248.02 167 1247.85 166.61 1247.55 166.33C1247.24 166.04 1246.83 165.89 1246.31 165.89C1245.83 165.89 1245.43 166.05 1245.12 166.36C1244.82 166.67 1244.65 167.05 1244.61 167.51ZM1251.54 172.37L1251.54 164.4L1253.42 164.4L1253.42 165.17L1253.45 165.17C1253.67 164.89 1253.97 164.65 1254.35 164.46C1254.73 164.27 1255.13 164.18 1255.56 164.18C1256.44 164.18 1257.13 164.44 1257.63 164.97C1258.13 165.49 1258.38 166.22 1258.38 167.15L1258.38 172.37L1256.43 172.37L1256.43 167.63C1256.43 167.08 1256.32 166.67 1256.11 166.4C1255.9 166.12 1255.54 165.98 1255.03 165.98C1254.55 165.98 1254.17 166.12 1253.9 166.4C1253.63 166.67 1253.49 167.04 1253.49 167.5L1253.49 172.37L1251.54 172.37Z" />
	<path id="Layer" fill-rule="evenodd" class="shp0" d="M471.17 450.9L471.17 440.37L475.63 440.37C476.57 440.37 477.31 440.64 477.88 441.2C478.45 441.74 478.73 442.4 478.73 443.2C478.73 444.08 478.35 444.74 477.59 445.2L477.59 445.21C478.04 445.4 478.41 445.71 478.69 446.13C478.98 446.54 479.12 447.04 479.12 447.62C479.12 448.62 478.82 449.42 478.21 450.02C477.59 450.61 476.59 450.9 475.18 450.9L471.17 450.9ZM473.2 449.02L475.65 449.02C476.61 449.02 477.09 448.55 477.09 447.62C477.09 447.19 476.96 446.86 476.7 446.63C476.45 446.38 476.11 446.26 475.66 446.26L473.2 446.26L473.2 449.02ZM473.2 444.61L475.38 444.61C475.79 444.61 476.11 444.51 476.34 444.32C476.58 444.12 476.7 443.83 476.7 443.45C476.7 443.05 476.59 442.75 476.36 442.55C476.13 442.35 475.8 442.25 475.38 442.25L473.2 442.25L473.2 444.61ZM484.7 450.9L484.7 440.37L488.97 440.37C490.04 440.37 490.91 440.68 491.58 441.29C492.26 441.89 492.59 442.7 492.59 443.72C492.59 444.74 492.27 445.56 491.61 446.16C490.97 446.76 490.09 447.06 488.97 447.06L486.73 447.06L486.73 450.9L484.7 450.9ZM486.73 445.18L488.94 445.18C489.39 445.18 489.76 445.05 490.05 444.79C490.34 444.52 490.49 444.16 490.49 443.72C490.49 443.21 490.34 442.84 490.03 442.61C489.74 442.37 489.38 442.25 488.94 442.25L486.73 442.25L486.73 445.18ZM499.61 450.01C498.9 450.75 498.01 451.12 496.93 451.12C495.85 451.12 494.95 450.75 494.25 450.01C493.55 449.27 493.2 448.24 493.2 446.91C493.2 445.61 493.56 444.58 494.28 443.83C495 443.08 495.89 442.7 496.93 442.7C497.97 442.7 498.85 443.08 499.58 443.83C500.3 444.58 500.66 445.61 500.66 446.91C500.66 448.24 500.31 449.27 499.61 450.01ZM495.6 448.73C495.93 449.15 496.37 449.36 496.93 449.36C497.49 449.36 497.93 449.15 498.25 448.73C498.57 448.3 498.73 447.69 498.73 446.91C498.73 446.13 498.57 445.53 498.24 445.11C497.92 444.67 497.48 444.46 496.93 444.46C496.38 444.46 495.94 444.67 495.6 445.09C495.28 445.51 495.12 446.12 495.12 446.91C495.12 447.7 495.28 448.31 495.6 448.73ZM502.24 450.9L502.24 442.93L504.09 442.93L504.09 443.77L504.12 443.77C504.27 443.47 504.49 443.23 504.79 443.05C505.09 442.87 505.41 442.78 505.76 442.78C506.01 442.78 506.25 442.83 506.49 442.93L506.18 444.82C505.96 444.74 505.76 444.7 505.57 444.7C504.66 444.7 504.2 445.31 504.2 446.52L504.2 450.9L502.24 450.9ZM508.32 448.06L508.32 444.58L507.09 444.58L507.09 442.93L508.36 442.93L508.36 440.97L510.21 440.97L510.21 442.93L512.23 442.93L512.23 444.58L510.24 444.58L510.24 447.87C510.24 448.29 510.31 448.59 510.46 448.76C510.6 448.93 510.88 449.02 511.31 449.02L511.96 449.02L511.96 450.9L511.13 450.9C510.06 450.9 509.32 450.67 508.92 450.22C508.52 449.77 508.32 449.05 508.32 448.06Z" />
	<path id="Layer" fill-rule="evenodd" class="shp0" d="M1410.96 626.95L1410.96 616.42L1415.42 616.42C1416.36 616.42 1417.1 616.7 1417.67 617.25C1418.24 617.79 1418.52 618.46 1418.52 619.25C1418.52 620.13 1418.14 620.8 1417.38 621.25L1417.38 621.26C1417.83 621.45 1418.2 621.76 1418.48 622.18C1418.77 622.59 1418.91 623.09 1418.91 623.67C1418.91 624.67 1418.61 625.48 1418 626.08C1417.38 626.66 1416.38 626.95 1414.97 626.95L1410.96 626.95ZM1412.99 625.07L1415.44 625.07C1416.4 625.07 1416.88 624.6 1416.88 623.67C1416.88 623.24 1416.75 622.91 1416.49 622.68C1416.24 622.44 1415.9 622.32 1415.45 622.32L1412.99 622.32L1412.99 625.07ZM1412.99 620.66L1415.17 620.66C1415.58 620.66 1415.9 620.57 1416.13 620.38C1416.37 620.18 1416.49 619.88 1416.49 619.5C1416.49 619.1 1416.38 618.8 1416.15 618.6C1415.92 618.4 1415.59 618.3 1415.17 618.3L1412.99 618.3L1412.99 620.66ZM1424.49 626.95L1424.49 616.42L1428.76 616.42C1429.83 616.42 1430.7 616.73 1431.37 617.34C1432.05 617.94 1432.38 618.75 1432.38 619.78C1432.38 620.8 1432.06 621.61 1431.4 622.21C1430.76 622.81 1429.88 623.11 1428.76 623.11L1426.52 623.11L1426.52 626.95L1424.49 626.95ZM1426.52 621.23L1428.73 621.23C1429.18 621.23 1429.55 621.1 1429.84 620.84C1430.13 620.57 1430.28 620.22 1430.28 619.78C1430.28 619.26 1430.12 618.89 1429.82 618.66C1429.53 618.42 1429.17 618.3 1428.73 618.3L1426.52 618.3L1426.52 621.23ZM1439.39 626.06C1438.69 626.8 1437.8 627.17 1436.72 627.17C1435.64 627.17 1434.74 626.8 1434.04 626.06C1433.34 625.32 1432.99 624.29 1432.99 622.96C1432.99 621.66 1433.35 620.63 1434.07 619.88C1434.79 619.13 1435.68 618.75 1436.72 618.75C1437.76 618.75 1438.64 619.13 1439.37 619.88C1440.09 620.63 1440.45 621.66 1440.45 622.96C1440.45 624.29 1440.1 625.32 1439.39 626.06ZM1435.4 624.78C1435.72 625.2 1436.16 625.41 1436.72 625.41C1437.28 625.41 1437.72 625.2 1438.04 624.78C1438.36 624.35 1438.52 623.75 1438.52 622.96C1438.52 622.18 1438.36 621.58 1438.03 621.16C1437.71 620.73 1437.27 620.51 1436.72 620.51C1436.17 620.51 1435.73 620.72 1435.4 621.14C1435.07 621.56 1434.91 622.17 1434.91 622.96C1434.91 623.75 1435.07 624.36 1435.4 624.78ZM1442.03 626.95L1442.03 618.98L1443.88 618.98L1443.88 619.82L1443.91 619.82C1444.06 619.52 1444.29 619.28 1444.58 619.1C1444.88 618.92 1445.2 618.83 1445.55 618.83C1445.8 618.83 1446.04 618.88 1446.27 618.98L1445.97 620.87C1445.75 620.79 1445.55 620.75 1445.36 620.75C1444.45 620.75 1443.99 621.36 1443.99 622.57L1443.99 626.95L1442.03 626.95ZM1448.11 624.11L1448.11 620.63L1446.88 620.63L1446.88 618.98L1448.15 618.98L1448.15 617.02L1450 617.02L1450 618.98L1452.02 618.98L1452.02 620.63L1450.03 620.63L1450.03 623.93C1450.03 624.35 1450.1 624.64 1450.25 624.81C1450.39 624.98 1450.67 625.07 1451.1 625.07L1451.75 625.07L1451.75 626.95L1450.92 626.95C1449.85 626.95 1449.11 626.72 1448.71 626.27C1448.31 625.82 1448.11 625.1 1448.11 624.11ZM1418.88 649.83L1418.88 639.3L1425.54 639.3L1425.54 641.18L1420.91 641.18L1420.91 643.54L1425.12 643.54L1425.12 645.35L1420.91 645.35L1420.91 647.95L1425.54 647.95L1425.54 649.83L1418.88 649.83ZM1426.52 649.83L1429.29 645.71L1426.69 641.86L1428.72 641.86L1430.51 644.54L1430.54 644.54L1432.33 641.86L1434.36 641.86L1431.76 645.71L1434.53 649.83L1432.43 649.83L1430.54 646.97L1430.51 646.97L1428.61 649.83L1426.52 649.83ZM1435.72 649.83L1435.72 641.86L1437.68 641.86L1437.68 649.83L1435.72 649.83ZM1435.72 640.7L1435.72 638.85L1437.68 638.85L1437.68 640.7L1435.72 640.7ZM1440.19 646.99L1440.19 643.51L1438.95 643.51L1438.95 641.86L1440.23 641.86L1440.23 639.9L1442.08 639.9L1442.08 641.86L1444.1 641.86L1444.1 643.51L1442.11 643.51L1442.11 646.81C1442.11 647.23 1442.18 647.52 1442.32 647.69C1442.46 647.87 1442.75 647.95 1443.18 647.95L1443.82 647.95L1443.82 649.83L1443 649.83C1441.93 649.83 1441.19 649.6 1440.79 649.15C1440.39 648.7 1440.19 647.98 1440.19 646.99Z" />
	<path id="Layer" fill-rule="evenodd" class="shp0" d="M1051.11 417.97L1050.51 416.24L1046.49 416.24L1045.89 417.97L1043.87 417.97L1047.68 407.44L1049.41 407.44L1053.2 417.97L1051.11 417.97ZM1048.49 410.45L1047.06 414.55L1049.94 414.55L1048.52 410.45L1048.49 410.45ZM1058.24 417.97L1058.24 407.44L1062.51 407.44C1063.58 407.44 1064.45 407.74 1065.12 408.36C1065.8 408.96 1066.13 409.77 1066.13 410.79C1066.13 411.81 1065.81 412.63 1065.16 413.23C1064.51 413.83 1063.63 414.13 1062.51 414.13L1060.27 414.13L1060.27 417.97L1058.24 417.97ZM1060.27 412.25L1062.48 412.25C1062.93 412.25 1063.3 412.12 1063.59 411.86C1063.88 411.59 1064.03 411.23 1064.03 410.79C1064.03 410.28 1063.88 409.91 1063.58 409.68C1063.28 409.44 1062.92 409.32 1062.48 409.32L1060.27 409.32L1060.27 412.25ZM1073.15 417.08C1072.45 417.82 1071.55 418.19 1070.47 418.19C1069.39 418.19 1068.49 417.82 1067.79 417.08C1067.09 416.34 1066.74 415.3 1066.74 413.98C1066.74 412.68 1067.1 411.65 1067.82 410.9C1068.54 410.15 1069.43 409.77 1070.47 409.77C1071.51 409.77 1072.39 410.15 1073.12 410.9C1073.84 411.65 1074.2 412.68 1074.2 413.98C1074.2 415.3 1073.85 416.34 1073.15 417.08ZM1069.15 415.8C1069.47 416.22 1069.91 416.43 1070.47 416.43C1071.03 416.43 1071.47 416.22 1071.79 415.8C1072.11 415.37 1072.27 414.76 1072.27 413.98C1072.27 413.2 1072.11 412.6 1071.78 412.18C1071.46 411.74 1071.02 411.53 1070.47 411.53C1069.92 411.53 1069.48 411.74 1069.15 412.16C1068.83 412.58 1068.67 413.19 1068.67 413.98C1068.67 414.77 1068.83 415.38 1069.15 415.8ZM1075.79 417.97L1075.79 409.99L1077.63 409.99L1077.63 410.84L1077.67 410.84C1077.82 410.54 1078.04 410.29 1078.33 410.11C1078.63 409.93 1078.95 409.84 1079.3 409.84C1079.56 409.84 1079.8 409.9 1080.03 409.99L1079.73 411.89C1079.5 411.81 1079.3 411.77 1079.11 411.77C1078.2 411.77 1077.74 412.38 1077.74 413.59L1077.74 417.97L1075.79 417.97ZM1081.86 415.12L1081.86 411.65L1080.63 411.65L1080.63 409.99L1081.91 409.99L1081.91 408.04L1083.76 408.04L1083.76 409.99L1085.77 409.99L1085.77 411.65L1083.79 411.65L1083.79 414.94C1083.79 415.36 1083.86 415.66 1084 415.83C1084.14 416 1084.42 416.09 1084.85 416.09L1085.5 416.09L1085.5 417.97L1084.67 417.97C1083.6 417.97 1082.86 417.74 1082.46 417.29C1082.06 416.84 1081.86 416.12 1081.86 415.12Z" />
	<path id="Layer" fill-rule="evenodd" class="shp0" d="M890.94 399.66L890.34 397.93L886.32 397.93L885.72 399.66L883.7 399.66L887.51 389.13L889.24 389.13L893.03 399.66L890.94 399.66ZM888.32 392.14L886.89 396.25L889.77 396.25L888.35 392.14L888.32 392.14ZM898.07 399.66L898.07 389.13L902.34 389.13C903.41 389.13 904.28 389.44 904.96 390.05C905.63 390.65 905.96 391.46 905.96 392.49C905.96 393.51 905.64 394.32 904.99 394.92C904.34 395.53 903.46 395.83 902.34 395.83L900.1 395.83L900.1 399.66L898.07 399.66ZM900.1 393.95L902.31 393.95C902.76 393.95 903.13 393.82 903.42 393.55C903.71 393.28 903.86 392.93 903.86 392.49C903.86 391.98 903.71 391.6 903.41 391.37C903.12 391.13 902.75 391.01 902.31 391.01L900.1 391.01L900.1 393.95ZM912.98 398.77C912.28 399.52 911.38 399.89 910.3 399.89C909.22 399.89 908.32 399.52 907.62 398.77C906.92 398.03 906.57 397 906.57 395.68C906.57 394.37 906.93 393.34 907.65 392.59C908.38 391.84 909.26 391.46 910.3 391.46C911.34 391.46 912.23 391.84 912.95 392.59C913.67 393.34 914.03 394.37 914.03 395.68C914.03 397 913.68 398.03 912.98 398.77ZM908.98 397.49C909.3 397.92 909.74 398.13 910.3 398.13C910.86 398.13 911.3 397.92 911.62 397.49C911.94 397.06 912.1 396.46 912.1 395.68C912.1 394.89 911.94 394.29 911.61 393.87C911.29 393.44 910.85 393.22 910.3 393.22C909.75 393.22 909.31 393.43 908.98 393.86C908.66 394.28 908.5 394.88 908.5 395.68C908.5 396.47 908.66 397.07 908.98 397.49ZM915.62 399.66L915.62 391.69L917.47 391.69L917.47 392.53L917.5 392.53C917.65 392.23 917.87 391.99 918.16 391.81C918.46 391.63 918.78 391.54 919.14 391.54C919.39 391.54 919.63 391.59 919.86 391.69L919.56 393.59C919.34 393.5 919.13 393.46 918.94 393.46C918.03 393.46 917.57 394.07 917.57 395.28L917.57 399.66L915.62 399.66ZM921.69 396.82L921.69 393.34L920.46 393.34L920.46 391.69L921.74 391.69L921.74 389.73L923.59 389.73L923.59 391.69L925.6 391.69L925.6 393.34L923.62 393.34L923.62 396.64C923.62 397.06 923.69 397.35 923.83 397.53C923.97 397.7 924.25 397.78 924.68 397.78L925.33 397.78L925.33 399.66L924.5 399.66C923.43 399.66 922.69 399.44 922.29 398.98C921.89 398.53 921.69 397.81 921.69 396.82ZM892.61 422.54L892.61 412.01L899.27 412.01L899.27 413.89L894.64 413.89L894.64 416.26L898.85 416.26L898.85 418.06L894.64 418.06L894.64 420.66L899.27 420.66L899.27 422.54L892.61 422.54ZM900.25 422.54L903.02 418.42L900.42 414.57L902.45 414.57L904.24 417.25L904.27 417.25L906.06 414.57L908.09 414.57L905.49 418.42L908.25 422.54L906.16 422.54L904.27 419.69L904.24 419.69L902.34 422.54L900.25 422.54ZM909.45 422.54L909.45 414.57L911.41 414.57L911.41 422.54L909.45 422.54ZM909.45 413.41L909.45 411.56L911.41 411.56L911.41 413.41L909.45 413.41ZM913.91 419.7L913.91 416.23L912.68 416.23L912.68 414.57L913.96 414.57L913.96 412.61L915.81 412.61L915.81 414.57L917.83 414.57L917.83 416.23L915.84 416.23L915.84 419.52C915.84 419.94 915.91 420.24 916.05 420.41C916.19 420.58 916.48 420.66 916.91 420.66L917.55 420.66L917.55 422.54L916.73 422.54C915.65 422.54 914.92 422.32 914.52 421.87C914.12 421.42 913.91 420.69 913.91 419.7Z" />
	<path id="Layer" fill-rule="evenodd" class="shp0" d="M588.64 721.64L588.64 711.11L593.1 711.11C594.04 711.11 594.78 711.38 595.34 711.94C595.91 712.48 596.2 713.14 596.2 713.94C596.2 714.82 595.82 715.49 595.06 715.94L595.06 715.95C595.51 716.14 595.88 716.45 596.16 716.87C596.45 717.28 596.59 717.78 596.59 718.36C596.59 719.36 596.29 720.16 595.67 720.76C595.06 721.35 594.06 721.64 592.65 721.64L588.64 721.64ZM590.67 719.76L593.12 719.76C594.08 719.76 594.56 719.29 594.56 718.36C594.56 717.93 594.43 717.6 594.17 717.37C593.92 717.12 593.57 717.01 593.13 717.01L590.67 717.01L590.67 719.76ZM590.67 715.35L592.85 715.35C593.26 715.35 593.58 715.25 593.81 715.07C594.05 714.86 594.17 714.57 594.17 714.19C594.17 713.79 594.06 713.49 593.83 713.29C593.59 713.09 593.27 712.99 592.85 712.99L590.67 712.99L590.67 715.35ZM602.16 721.64L602.16 711.11L604.19 711.11L604.19 719.76L608.54 719.76L608.54 721.64L602.16 721.64ZM615.69 720.75C614.99 721.49 614.1 721.86 613.02 721.86C611.93 721.86 611.04 721.49 610.34 720.75C609.64 720.01 609.29 718.97 609.29 717.65C609.29 716.35 609.65 715.32 610.37 714.57C611.09 713.82 611.97 713.44 613.02 713.44C614.06 713.44 614.94 713.82 615.66 714.57C616.38 715.32 616.75 716.35 616.75 717.65C616.75 718.97 616.4 720.01 615.69 720.75ZM611.69 719.47C612.01 719.89 612.46 720.1 613.02 720.1C613.58 720.1 614.02 719.89 614.34 719.47C614.66 719.04 614.82 718.43 614.82 717.65C614.82 716.87 614.65 716.27 614.32 715.85C614 715.42 613.57 715.2 613.02 715.2C612.46 715.2 612.02 715.41 611.69 715.83C611.37 716.25 611.21 716.86 611.21 717.65C611.21 718.44 611.37 719.05 611.69 719.47ZM618.33 721.64L618.33 710.66L620.29 710.66L620.29 714.43L620.32 714.43C620.34 714.4 620.36 714.37 620.39 714.33C620.42 714.28 620.5 714.2 620.62 714.09C620.75 713.98 620.88 713.88 621.02 713.79C621.17 713.7 621.37 713.62 621.6 713.55C621.84 713.48 622.09 713.44 622.35 713.44C623.33 713.44 624.14 713.83 624.78 714.61C625.43 715.39 625.76 716.4 625.76 717.65C625.76 718.94 625.45 719.96 624.81 720.72C624.19 721.48 623.35 721.86 622.3 721.86C621.87 721.86 621.48 721.78 621.13 721.62C620.78 721.45 620.54 721.29 620.41 721.13L620.2 720.87L620.17 720.87L620.17 721.64L618.33 721.64ZM620.29 716.91L620.29 718.37C620.29 718.85 620.44 719.27 620.74 719.61C621.05 719.94 621.47 720.1 622 720.1C622.57 720.1 623.01 719.9 623.33 719.49C623.65 719.06 623.81 718.45 623.81 717.65C623.81 716.84 623.65 716.23 623.33 715.82C623.01 715.41 622.57 715.2 622 715.2C621.47 715.2 621.05 715.37 620.74 715.7C620.44 716.03 620.29 716.43 620.29 716.91ZM627.34 721.64L627.34 710.66L629.29 710.66L629.29 714.43L629.32 714.43C629.34 714.4 629.37 714.37 629.39 714.33C629.43 714.28 629.5 714.2 629.62 714.09C629.75 713.98 629.89 713.88 630.03 713.79C630.18 713.7 630.37 713.62 630.6 713.55C630.84 713.48 631.09 713.44 631.35 713.44C632.33 713.44 633.15 713.83 633.79 714.61C634.44 715.39 634.76 716.4 634.76 717.65C634.76 718.94 634.45 719.96 633.82 720.72C633.2 721.48 632.36 721.86 631.31 721.86C630.87 721.86 630.48 721.78 630.13 721.62C629.78 721.45 629.54 721.29 629.41 721.13L629.2 720.87L629.17 720.87L629.17 721.64L627.34 721.64ZM629.29 716.91L629.29 718.37C629.29 718.85 629.44 719.27 629.74 719.61C630.05 719.94 630.47 720.1 631 720.1C631.58 720.1 632.02 719.9 632.33 719.49C632.65 719.06 632.81 718.45 632.81 717.65C632.81 716.84 632.65 716.23 632.33 715.82C632.02 715.41 631.58 715.2 631 715.2C630.47 715.2 630.05 715.37 629.74 715.7C629.44 716.03 629.29 716.43 629.29 716.91ZM636.66 725.02L638.26 721.25L635.07 713.67L637.05 713.67L639.11 719.06L639.14 719.06L641.2 713.67L643.19 713.67L638.6 725.02L636.66 725.02Z" />
	<path id="Layer" fill-rule="evenodd" class="shp0" d="M509.46 531.06L509.46 520.53L513.93 520.53C514.86 520.53 515.61 520.81 516.17 521.36C516.74 521.9 517.03 522.57 517.03 523.36C517.03 524.24 516.65 524.91 515.89 525.36L515.89 525.38C516.34 525.56 516.7 525.87 516.98 526.29C517.28 526.7 517.42 527.2 517.42 527.78C517.42 528.78 517.11 529.59 516.5 530.19C515.89 530.77 514.88 531.06 513.48 531.06L509.46 531.06ZM511.49 529.18L513.95 529.18C514.91 529.18 515.39 528.71 515.39 527.78C515.39 527.35 515.26 527.02 515 526.79C514.75 526.55 514.4 526.43 513.96 526.43L511.49 526.43L511.49 529.18ZM511.49 524.77L513.68 524.77C514.09 524.77 514.41 524.68 514.64 524.49C514.88 524.29 515 524 515 523.62C515 523.21 514.88 522.91 514.65 522.71C514.42 522.51 514.1 522.41 513.68 522.41L511.49 522.41L511.49 524.77ZM522.99 531.06L522.99 520.53L525.02 520.53L525.02 529.18L529.37 529.18L529.37 531.06L522.99 531.06ZM536.52 530.17C535.82 530.91 534.93 531.29 533.84 531.29C532.76 531.29 531.87 530.91 531.17 530.17C530.47 529.43 530.11 528.4 530.11 527.08C530.11 525.77 530.48 524.74 531.2 523.99C531.92 523.24 532.8 522.86 533.84 522.86C534.89 522.86 535.77 523.24 536.49 523.99C537.21 524.74 537.57 525.77 537.57 527.08C537.57 528.4 537.22 529.43 536.52 530.17ZM532.52 528.89C532.84 529.32 533.28 529.53 533.84 529.53C534.41 529.53 534.85 529.32 535.17 528.89C535.49 528.46 535.65 527.86 535.65 527.08C535.65 526.29 535.48 525.69 535.15 525.27C534.83 524.84 534.4 524.62 533.84 524.62C533.29 524.62 532.85 524.83 532.52 525.26C532.2 525.68 532.04 526.28 532.04 527.08C532.04 527.87 532.2 528.47 532.52 528.89ZM539.16 531.06L539.16 523.09L541.04 523.09L541.04 523.86L541.07 523.86C541.29 523.58 541.59 523.34 541.97 523.15C542.35 522.96 542.75 522.86 543.18 522.86C544.06 522.86 544.75 523.13 545.25 523.66C545.75 524.18 546 524.91 546 525.84L546 531.06L544.05 531.06L544.05 526.32C544.05 525.77 543.94 525.36 543.73 525.09C543.52 524.81 543.16 524.67 542.65 524.67C542.17 524.67 541.79 524.81 541.52 525.09C541.25 525.36 541.12 525.73 541.12 526.19L541.12 531.06L539.16 531.06ZM548.08 532.68L549.54 531.68C549.77 532.13 550.03 532.45 550.32 532.66C550.61 532.87 550.98 532.97 551.45 532.97C551.96 532.97 552.36 532.84 552.66 532.57C552.98 532.3 553.13 531.88 553.13 531.3L553.13 530.29L553.1 530.29C552.95 530.56 552.69 530.8 552.32 531C551.95 531.19 551.55 531.29 551.11 531.29C550.09 531.29 549.23 530.91 548.54 530.17C547.85 529.42 547.51 528.39 547.51 527.08C547.51 525.78 547.86 524.76 548.57 524.01C549.28 523.24 550.12 522.86 551.08 522.86C552 522.86 552.7 523.19 553.19 523.86L553.22 523.86L553.22 523.09L555.09 523.09L555.09 531.06C555.09 532.22 554.74 533.12 554.06 533.74C553.39 534.36 552.52 534.67 551.45 534.67C550.61 534.67 549.91 534.49 549.33 534.13C548.75 533.77 548.34 533.29 548.08 532.68ZM553.13 527.89L553.13 526.25C553.13 525.8 552.98 525.42 552.66 525.1C552.35 524.78 551.94 524.62 551.42 524.62C550.83 524.62 550.36 524.83 550 525.26C549.64 525.68 549.46 526.28 549.46 527.08C549.46 527.87 549.64 528.47 550 528.89C550.37 529.32 550.84 529.53 551.42 529.53C551.94 529.53 552.35 529.37 552.66 529.06C552.98 528.74 553.13 528.35 553.13 527.89Z" />
	<path id="Layer" fill-rule="evenodd" class="shp0" d="M659.8 489.66L659.8 479.13L661.83 479.13L661.83 483.37L665.45 483.37L665.45 479.13L667.48 479.13L667.48 489.66L665.45 489.66L665.45 485.1L661.83 485.1L661.83 489.66L659.8 489.66ZM675.61 488.77C674.91 489.52 674.02 489.89 672.93 489.89C671.85 489.89 670.96 489.52 670.26 488.77C669.55 488.03 669.2 487 669.2 485.68C669.2 484.37 669.57 483.34 670.29 482.59C671.01 481.84 671.89 481.46 672.93 481.46C673.98 481.46 674.86 481.84 675.58 482.59C676.3 483.34 676.66 484.37 676.66 485.68C676.66 487 676.31 488.03 675.61 488.77ZM671.61 487.49C671.93 487.92 672.37 488.13 672.93 488.13C673.49 488.13 673.94 487.92 674.26 487.49C674.58 487.06 674.74 486.46 674.74 485.68C674.74 484.89 674.57 484.29 674.24 483.87C673.92 483.44 673.49 483.22 672.93 483.22C672.38 483.22 671.94 483.43 671.61 483.86C671.29 484.28 671.13 484.88 671.13 485.68C671.13 486.47 671.29 487.07 671.61 487.49ZM684.13 488.77C683.43 489.52 682.54 489.89 681.45 489.89C680.37 489.89 679.48 489.52 678.78 488.77C678.07 488.03 677.72 487 677.72 485.68C677.72 484.37 678.08 483.34 678.81 482.59C679.53 481.84 680.41 481.46 681.45 481.46C682.5 481.46 683.38 481.84 684.1 482.59C684.82 483.34 685.18 484.37 685.18 485.68C685.18 487 684.83 488.03 684.13 488.77ZM680.13 487.49C680.45 487.92 680.89 488.13 681.45 488.13C682.01 488.13 682.46 487.92 682.78 487.49C683.1 487.06 683.26 486.46 683.26 485.68C683.26 484.89 683.09 484.29 682.76 483.87C682.44 483.44 682 483.22 681.45 483.22C680.9 483.22 680.46 483.43 680.13 483.86C679.81 484.28 679.65 484.88 679.65 485.68C679.65 486.47 679.81 487.07 680.13 487.49ZM686.77 489.66L686.77 478.68L688.72 478.68L688.72 484.98L688.75 484.98L691.66 481.69L694.11 481.69L691.24 484.92L694.36 489.66L692.2 489.66L689.76 486.02L689.73 486.02L688.72 487.16L688.72 489.66L686.77 489.66ZM699.96 489.66L699.96 488.89L699.93 488.89C699.91 488.92 699.89 488.96 699.86 489.01C699.83 489.05 699.75 489.13 699.63 489.24C699.51 489.35 699.38 489.45 699.22 489.54C699.07 489.63 698.87 489.71 698.61 489.78C698.35 489.85 698.07 489.89 697.77 489.89C696.8 489.89 696.08 489.66 695.6 489.21C695.13 488.75 694.89 488.19 694.89 487.53C694.89 486.83 695.1 486.31 695.51 485.95C695.92 485.59 696.62 485.28 697.6 485.04C698.51 484.82 699.08 484.65 699.32 484.52C699.55 484.39 699.66 484.2 699.66 483.96C699.66 483.72 699.55 483.52 699.32 483.36C699.09 483.2 698.76 483.12 698.31 483.12C697.78 483.12 697.4 483.24 697.16 483.48C696.93 483.71 696.75 484.03 696.62 484.43L695 483.75C695.19 483.08 695.56 482.53 696.11 482.11C696.66 481.68 697.38 481.46 698.28 481.46C699.25 481.46 700.05 481.72 700.67 482.23C701.29 482.74 701.6 483.53 701.6 484.61L701.6 489.66L699.96 489.66ZM697.99 486.4C697.49 486.52 697.16 486.66 697 486.83C696.85 486.99 696.77 487.18 696.77 487.39C696.77 487.93 697.16 488.2 697.95 488.2C698.54 488.2 698.98 488.09 699.27 487.87C699.57 487.64 699.72 487.36 699.72 487.03L699.72 485.64L699.69 485.64C699.65 485.73 699.61 485.79 699.56 485.84C699.52 485.88 699.36 485.96 699.11 486.07C698.84 486.17 698.47 486.28 697.99 486.4ZM703.56 489.66L703.56 478.68L705.51 478.68L705.51 482.46L705.54 482.46C705.7 482.2 705.97 481.97 706.34 481.77C706.71 481.56 707.09 481.46 707.48 481.46C708.33 481.46 709.01 481.72 709.51 482.25C710.01 482.77 710.27 483.47 710.27 484.35L710.27 489.66L708.31 489.66L708.31 484.79C708.31 484.35 708.19 483.99 707.95 483.7C707.72 483.41 707.37 483.27 706.9 483.27C706.44 483.27 706.1 483.4 705.86 483.66C705.63 483.91 705.51 484.24 705.51 484.65L705.51 489.66L703.56 489.66Z" />
	<path id="Layer" fill-rule="evenodd" class="shp0" d="M659.27 388.98L657.22 378.45L659.28 378.45L660.64 385.61L660.68 385.61L663.11 378.45L664.13 378.45L666.55 385.61L666.59 385.61L667.95 378.45L669.96 378.45L667.92 388.98L665.81 388.98L663.65 382.44L663.56 382.44L661.38 388.98L659.27 388.98ZM671.47 388.98L671.47 381.01L673.43 381.01L673.43 388.98L671.47 388.98ZM671.47 379.85L671.47 378L673.43 378L673.43 379.85L671.47 379.85ZM675.53 388.98L675.53 381.01L677.4 381.01L677.4 381.78L677.44 381.78C677.65 381.5 677.96 381.26 678.34 381.07C678.72 380.88 679.12 380.79 679.54 380.79C680.42 380.79 681.11 381.05 681.62 381.58C682.12 382.1 682.37 382.83 682.37 383.76L682.37 388.98L680.41 388.98L680.41 384.25C680.41 383.69 680.31 383.28 680.1 383.01C679.89 382.73 679.52 382.59 679.01 382.59C678.53 382.59 678.16 382.73 677.89 383.01C677.62 383.28 677.48 383.65 677.48 384.11L677.48 388.98L675.53 388.98ZM689.46 388.98L689.46 388.22L689.44 388.22C689.39 388.29 689.31 388.38 689.21 388.49C689.12 388.6 688.89 388.75 688.52 388.94C688.16 389.12 687.76 389.21 687.33 389.21C686.28 389.21 685.43 388.83 684.8 388.07C684.18 387.3 683.87 386.28 683.87 385C683.87 383.7 684.21 382.68 684.89 381.93C685.57 381.17 686.38 380.79 687.3 380.79C687.72 380.79 688.1 380.87 688.43 381.04C688.77 381.2 689 381.36 689.12 381.52L689.32 381.78L689.34 381.78L689.34 378L691.3 378L691.3 388.98L689.46 388.98ZM689.34 385.72L689.34 384.26C689.34 383.78 689.19 383.37 688.88 383.04C688.58 382.71 688.16 382.55 687.63 382.55C687.06 382.55 686.61 382.75 686.29 383.16C685.98 383.57 685.82 384.19 685.82 385C685.82 385.8 685.98 386.41 686.29 386.83C686.61 387.24 687.06 387.45 687.63 387.45C688.16 387.45 688.58 387.28 688.88 386.95C689.19 386.61 689.34 386.2 689.34 385.72ZM699.28 388.1C698.58 388.84 697.69 389.21 696.6 389.21C695.52 389.21 694.63 388.84 693.93 388.1C693.22 387.35 692.87 386.32 692.87 385C692.87 383.69 693.23 382.67 693.96 381.91C694.68 381.16 695.56 380.79 696.6 380.79C697.65 380.79 698.53 381.16 699.25 381.91C699.97 382.67 700.33 383.69 700.33 385C700.33 386.32 699.98 387.35 699.28 388.1ZM695.28 386.82C695.6 387.24 696.04 387.45 696.6 387.45C697.16 387.45 697.61 387.24 697.93 386.82C698.25 386.39 698.41 385.78 698.41 385C698.41 384.21 698.24 383.61 697.91 383.19C697.59 382.76 697.16 382.55 696.6 382.55C696.05 382.55 695.61 382.76 695.28 383.18C694.96 383.6 694.8 384.21 694.8 385C694.8 385.79 694.96 386.4 695.28 386.82ZM703.08 388.98L701.32 381.01L703.23 381.01L704.28 386.34L704.33 386.34L706.1 381.01L707.87 381.01L709.51 386.32L709.55 386.32L710.75 381.01L712.63 381.01L710.72 388.98L708.79 388.98L706.97 383.25L706.94 383.25L704.97 388.98L703.08 388.98Z" />
	<path id="Layer" fill-rule="evenodd" class="shp0" d="M480.32 313.26L480.32 302.73L486.98 302.73L486.98 304.61L482.35 304.61L482.35 306.97L486.56 306.97L486.56 308.78L482.35 308.78L482.35 311.38L486.98 311.38L486.98 313.26L480.32 313.26ZM488.86 313.26L488.86 302.28L490.89 302.28L490.89 313.26L488.86 313.26ZM493 313.26L493 302.28L494.96 302.28L494.96 306.05L494.99 306.05C495.01 306.02 495.03 305.99 495.06 305.95C495.09 305.9 495.17 305.82 495.29 305.71C495.42 305.6 495.55 305.5 495.7 305.41C495.85 305.32 496.04 305.24 496.27 305.17C496.51 305.1 496.76 305.06 497.02 305.06C498 305.06 498.81 305.45 499.46 306.23C500.11 307.01 500.43 308.02 500.43 309.27C500.43 310.56 500.12 311.58 499.49 312.34C498.86 313.1 498.03 313.48 496.97 313.48C496.54 313.48 496.15 313.4 495.8 313.24C495.45 313.07 495.21 312.91 495.08 312.75L494.87 312.49L494.84 312.49L494.84 313.26L493 313.26ZM494.96 308.54L494.96 310C494.96 310.48 495.11 310.89 495.41 311.23C495.72 311.56 496.14 311.72 496.67 311.72C497.24 311.72 497.69 311.52 498 311.11C498.32 310.69 498.48 310.07 498.48 309.27C498.48 308.46 498.32 307.85 498 307.44C497.69 307.03 497.24 306.82 496.67 306.82C496.14 306.82 495.72 306.99 495.41 307.32C495.11 307.65 494.96 308.05 494.96 308.54ZM507.89 312.37C507.19 313.11 506.29 313.48 505.21 313.48C504.13 313.48 503.23 313.11 502.53 312.37C501.83 311.63 501.48 310.6 501.48 309.27C501.48 307.97 501.84 306.94 502.56 306.19C503.29 305.44 504.17 305.06 505.21 305.06C506.25 305.06 507.14 305.44 507.86 306.19C508.58 306.94 508.94 307.97 508.94 309.27C508.94 310.6 508.59 311.63 507.89 312.37ZM503.89 311.09C504.21 311.51 504.65 311.72 505.21 311.72C505.77 311.72 506.21 311.51 506.53 311.09C506.85 310.66 507.02 310.05 507.02 309.27C507.02 308.49 506.85 307.89 506.52 307.47C506.2 307.04 505.76 306.82 505.21 306.82C504.66 306.82 504.22 307.03 503.89 307.45C503.57 307.87 503.41 308.48 503.41 309.27C503.41 310.07 503.57 310.67 503.89 311.09ZM511.68 313.26L509.92 305.29L511.83 305.29L512.89 310.61L512.93 310.61L514.71 305.29L516.48 305.29L518.12 310.6L518.15 310.6L519.35 305.29L521.23 305.29L519.32 313.26L517.4 313.26L515.58 307.53L515.55 307.53L513.58 313.26L511.68 313.26Z" />
	<path id="Layer" fill-rule="evenodd" class="shp0" d="M627.1 168.06L627.1 157.53L631.57 157.53C632.5 157.53 633.25 157.8 633.81 158.36C634.38 158.9 634.67 159.56 634.67 160.36C634.67 161.24 634.29 161.91 633.53 162.36L633.53 162.37C633.98 162.56 634.34 162.87 634.62 163.29C634.91 163.7 635.06 164.2 635.06 164.78C635.06 165.78 634.75 166.58 634.14 167.18C633.53 167.77 632.52 168.06 631.12 168.06L627.1 168.06ZM629.13 166.18L631.59 166.18C632.55 166.18 633.03 165.71 633.03 164.78C633.03 164.35 632.9 164.02 632.64 163.78C632.39 163.55 632.04 163.42 631.6 163.42L629.13 163.42L629.13 166.18ZM629.13 161.77L631.32 161.77C631.73 161.77 632.05 161.68 632.28 161.48C632.52 161.28 632.64 160.99 632.64 160.61C632.64 160.21 632.52 159.91 632.29 159.71C632.06 159.51 631.74 159.41 631.32 159.41L629.13 159.41L629.13 161.77ZM636.27 163.88L636.27 162.37L641.22 162.37L641.22 163.88L636.27 163.88ZM643.02 168.06L643.02 157.53L645.06 157.53L645.06 161.77L648.67 161.77L648.67 157.53L650.7 157.53L650.7 168.06L648.67 168.06L648.67 163.5L645.06 163.5L645.06 168.06L643.02 168.06ZM657.49 168.06L657.49 167.29L657.46 167.29C657.44 167.32 657.42 167.36 657.39 167.41C657.36 167.45 657.28 167.53 657.16 167.64C657.04 167.75 656.91 167.85 656.76 167.94C656.61 168.03 656.4 168.11 656.14 168.18C655.88 168.25 655.6 168.28 655.3 168.28C654.33 168.28 653.61 168.06 653.13 167.61C652.66 167.15 652.42 166.58 652.42 165.92C652.42 165.23 652.63 164.7 653.04 164.34C653.45 163.98 654.15 163.68 655.13 163.44C656.04 163.22 656.62 163.04 656.85 162.91C657.08 162.78 657.19 162.6 657.19 162.36C657.19 162.12 657.08 161.92 656.85 161.75C656.63 161.59 656.29 161.51 655.84 161.51C655.31 161.51 654.93 161.63 654.7 161.87C654.47 162.11 654.28 162.42 654.15 162.82L652.53 162.15C652.72 161.47 653.09 160.93 653.64 160.51C654.19 160.07 654.92 159.86 655.81 159.86C656.78 159.86 657.58 160.12 658.2 160.63C658.82 161.14 659.13 161.93 659.13 163L659.13 168.06L657.49 168.06ZM655.52 164.79C655.02 164.91 654.69 165.06 654.53 165.23C654.38 165.39 654.31 165.58 654.31 165.79C654.31 166.33 654.7 166.6 655.48 166.6C656.07 166.6 656.51 166.49 656.8 166.27C657.1 166.04 657.25 165.76 657.25 165.42L657.25 164.04L657.22 164.04C657.18 164.12 657.14 164.19 657.09 164.24C657.05 164.28 656.9 164.35 656.64 164.46C656.38 164.56 656 164.67 655.52 164.79ZM661.09 168.06L661.09 157.08L663.12 157.08L663.12 168.06L661.09 168.06ZM665.23 168.06L665.23 157.08L667.26 157.08L667.26 168.06L665.23 168.06Z" />
	<path id="Layer" fill-rule="evenodd" class="shp0" d="M722.87 272.42L722.87 261.89L727.33 261.89C728.27 261.89 729.01 262.17 729.58 262.72C730.15 263.26 730.43 263.93 730.43 264.72C730.43 265.6 730.05 266.27 729.29 266.72L729.29 266.74C729.74 266.93 730.11 267.23 730.39 267.65C730.68 268.06 730.82 268.56 730.82 269.14C730.82 270.14 730.52 270.95 729.91 271.55C729.29 272.13 728.29 272.42 726.88 272.42L722.87 272.42ZM724.9 270.54L727.35 270.54C728.31 270.54 728.79 270.07 728.79 269.14C728.79 268.71 728.66 268.38 728.4 268.15C728.15 267.91 727.8 267.79 727.36 267.79L724.9 267.79L724.9 270.54ZM724.9 266.13L727.08 266.13C727.49 266.13 727.81 266.04 728.04 265.85C728.28 265.65 728.4 265.36 728.4 264.98C728.4 264.57 728.29 264.27 728.06 264.07C727.83 263.87 727.5 263.77 727.08 263.77L724.9 263.77L724.9 266.13ZM742.43 268.24L744.53 268.7C744.36 269.93 743.91 270.89 743.19 271.59C742.47 272.3 741.53 272.65 740.36 272.65C739.01 272.65 737.91 272.18 737.06 271.25C736.21 270.31 735.79 268.89 735.79 266.99C735.79 265.33 736.24 264.02 737.13 263.08C738.03 262.14 739.11 261.67 740.35 261.67C741.43 261.67 742.35 262.01 743.1 262.69C743.86 263.36 744.31 264.27 744.43 265.41L742.41 265.73C742.32 265.09 742.11 264.56 741.78 264.16C741.45 263.75 740.98 263.55 740.36 263.55C739.67 263.55 739.09 263.85 738.61 264.45C738.12 265.05 737.88 265.9 737.88 266.99C737.88 268.27 738.11 269.23 738.58 269.85C739.05 270.46 739.64 270.77 740.36 270.77C741.55 270.77 742.24 269.92 742.43 268.24ZM746.04 269.59L746.04 264.45L748 264.45L748 269.38C748 269.88 748.09 270.24 748.28 270.45C748.47 270.66 748.78 270.77 749.2 270.77C749.67 270.77 750.05 270.65 750.34 270.41C750.63 270.15 750.78 269.76 750.78 269.23L750.78 264.45L752.73 264.45L752.73 272.42L750.87 272.42L750.87 271.65L750.84 271.65C750.35 272.32 749.65 272.65 748.76 272.65C747.84 272.65 747.15 272.37 746.7 271.82C746.26 271.27 746.04 270.52 746.04 269.59ZM754.84 272.42L754.84 261.44L756.8 261.44L756.8 265.22L756.82 265.22C756.84 265.19 756.87 265.15 756.9 265.11C756.93 265.06 757.01 264.98 757.12 264.87C757.26 264.76 757.39 264.66 757.53 264.57C757.68 264.48 757.87 264.4 758.1 264.33C758.34 264.26 758.59 264.22 758.85 264.22C759.84 264.22 760.65 264.61 761.29 265.4C761.94 266.17 762.27 267.18 762.27 268.43C762.27 269.72 761.95 270.74 761.32 271.5C760.7 272.27 759.86 272.65 758.81 272.65C758.38 272.65 757.99 272.57 757.64 272.41C757.29 272.23 757.05 272.07 756.91 271.91L756.7 271.65L756.67 271.65L756.67 272.42L754.84 272.42ZM756.8 267.7L756.8 269.16C756.8 269.64 756.94 270.05 757.25 270.39C757.56 270.72 757.98 270.89 758.51 270.89C759.08 270.89 759.52 270.68 759.83 270.27C760.15 269.85 760.31 269.24 760.31 268.43C760.31 267.62 760.15 267.01 759.83 266.6C759.52 266.19 759.08 265.98 758.51 265.98C757.98 265.98 757.56 266.15 757.25 266.48C756.94 266.81 756.8 267.22 756.8 267.7ZM763.84 272.42L763.84 261.44L765.8 261.44L765.8 265.22L765.83 265.22C765.85 265.19 765.87 265.15 765.9 265.11C765.93 265.06 766.01 264.98 766.13 264.87C766.26 264.76 766.39 264.66 766.54 264.57C766.69 264.48 766.88 264.4 767.11 264.33C767.35 264.26 767.6 264.22 767.86 264.22C768.84 264.22 769.65 264.61 770.3 265.4C770.95 266.17 771.27 267.18 771.27 268.43C771.27 269.72 770.96 270.74 770.33 271.5C769.7 272.27 768.87 272.65 767.81 272.65C767.38 272.65 766.99 272.57 766.64 272.41C766.29 272.23 766.05 272.07 765.92 271.91L765.71 271.65L765.68 271.65L765.68 272.42L763.84 272.42ZM765.8 267.7L765.8 269.16C765.8 269.64 765.95 270.05 766.25 270.39C766.56 270.72 766.98 270.89 767.51 270.89C768.08 270.89 768.53 270.68 768.84 270.27C769.16 269.85 769.32 269.24 769.32 268.43C769.32 267.62 769.16 267.01 768.84 266.6C768.53 266.19 768.08 265.98 767.51 265.98C766.98 265.98 766.56 266.15 766.25 266.48C765.95 266.81 765.8 267.22 765.8 267.7ZM773.17 275.8L774.76 272.03L771.58 264.45L773.56 264.45L775.62 269.85L775.65 269.85L777.71 264.45L779.7 264.45L775.11 275.8L773.17 275.8Z" />
	<path id="Layer" fill-rule="evenodd" class="shp0" d="M1012.95 317.39L1012.95 310.29L1014.98 310.29L1014.98 317.3C1014.98 317.87 1015.14 318.33 1015.46 318.67C1015.79 319 1016.27 319.17 1016.91 319.17C1017.54 319.17 1018.02 319 1018.35 318.67C1018.68 318.34 1018.85 317.89 1018.85 317.33L1018.85 310.29L1020.88 310.29L1020.88 317.39C1020.88 318.58 1020.52 319.48 1019.8 320.11C1019.07 320.74 1018.11 321.05 1016.91 321.05C1015.7 321.05 1014.74 320.74 1014.02 320.11C1013.31 319.48 1012.95 318.58 1012.95 317.39ZM1026.82 320.82L1026.82 310.29L1028.85 310.29L1028.85 314.53L1032.46 314.53L1032.46 310.29L1034.49 310.29L1034.49 320.82L1032.46 320.82L1032.46 316.26L1028.85 316.26L1028.85 320.82L1026.82 320.82ZM1041.29 320.82L1041.29 320.05L1041.26 320.05C1041.24 320.08 1041.22 320.12 1041.18 320.17C1041.15 320.21 1041.08 320.29 1040.96 320.4C1040.84 320.51 1040.7 320.61 1040.55 320.7C1040.4 320.79 1040.2 320.87 1039.94 320.94C1039.68 321.01 1039.4 321.05 1039.09 321.05C1038.13 321.05 1037.41 320.82 1036.93 320.37C1036.46 319.91 1036.22 319.35 1036.22 318.69C1036.22 317.99 1036.43 317.47 1036.84 317.11C1037.25 316.75 1037.95 316.44 1038.93 316.2C1039.84 315.98 1040.41 315.81 1040.64 315.68C1040.87 315.55 1040.99 315.36 1040.99 315.12C1040.99 314.88 1040.87 314.68 1040.64 314.52C1040.42 314.36 1040.09 314.28 1039.63 314.28C1039.1 314.28 1038.72 314.4 1038.49 314.64C1038.26 314.87 1038.08 315.19 1037.95 315.59L1036.33 314.91C1036.52 314.24 1036.89 313.69 1037.44 313.27C1037.99 312.84 1038.71 312.62 1039.61 312.62C1040.58 312.62 1041.38 312.88 1042 313.39C1042.62 313.9 1042.93 314.69 1042.93 315.77L1042.93 320.82L1041.29 320.82ZM1039.32 317.56C1038.82 317.68 1038.49 317.82 1038.33 317.99C1038.18 318.15 1038.1 318.34 1038.1 318.55C1038.1 319.09 1038.49 319.36 1039.27 319.36C1039.87 319.36 1040.31 319.25 1040.6 319.03C1040.9 318.8 1041.05 318.52 1041.05 318.19L1041.05 316.8L1041.02 316.8C1040.98 316.89 1040.93 316.95 1040.88 317C1040.84 317.04 1040.69 317.12 1040.43 317.23C1040.17 317.33 1039.8 317.44 1039.32 317.56ZM1044.89 320.82L1044.89 309.84L1046.92 309.84L1046.92 320.82L1044.89 320.82ZM1049.03 320.82L1049.03 309.84L1051.06 309.84L1051.06 320.82L1049.03 320.82Z" />
	<path id="Layer" class="shp0" d="M1111.17 328.38L1111.17 319.73L1108.09 319.73L1108.09 317.86L1116.29 317.86L1116.29 319.73L1113.2 319.73L1113.2 328.38L1111.17 328.38ZM1116.75 328.38L1116.75 320.41L1118.6 320.41L1118.6 321.25L1118.63 321.25C1118.78 320.95 1119 320.71 1119.29 320.53C1119.59 320.35 1119.91 320.26 1120.27 320.26C1120.52 320.26 1120.76 320.31 1120.99 320.41L1120.69 322.31C1120.47 322.23 1120.26 322.19 1120.07 322.19C1119.16 322.19 1118.7 322.79 1118.7 324.01L1118.7 328.38L1116.75 328.38ZM1122.19 325.56L1122.19 320.41L1124.15 320.41L1124.15 325.35C1124.15 325.85 1124.24 326.2 1124.43 326.41C1124.63 326.62 1124.93 326.73 1125.35 326.73C1125.82 326.73 1126.2 326.61 1126.5 326.37C1126.79 326.12 1126.93 325.73 1126.93 325.19L1126.93 320.41L1128.89 320.41L1128.89 328.38L1127.02 328.38L1127.02 327.62L1126.99 327.62C1126.5 328.28 1125.81 328.61 1124.92 328.61C1123.99 328.61 1123.31 328.33 1122.86 327.78C1122.41 327.23 1122.19 326.49 1122.19 325.56ZM1135.78 325.17L1137.63 325.65C1137.44 326.6 1137.05 327.33 1136.45 327.84C1135.85 328.35 1135.09 328.61 1134.18 328.61C1133.1 328.61 1132.21 328.24 1131.5 327.5C1130.81 326.75 1130.47 325.72 1130.47 324.4C1130.47 323.08 1130.82 322.06 1131.53 321.31C1132.26 320.56 1133.14 320.19 1134.2 320.19C1135.09 320.19 1135.84 320.45 1136.44 320.97C1137.04 321.49 1137.41 322.19 1137.55 323.06L1135.73 323.41C1135.54 322.43 1135.03 321.95 1134.2 321.95C1133.65 321.95 1133.2 322.16 1132.87 322.58C1132.55 322.99 1132.39 323.6 1132.39 324.4C1132.39 325.2 1132.55 325.81 1132.87 326.23C1133.19 326.64 1133.64 326.85 1134.2 326.85C1135.08 326.85 1135.61 326.29 1135.78 325.17ZM1139.13 328.38L1139.13 317.4L1141.09 317.4L1141.09 323.71L1141.12 323.71L1144.02 320.41L1146.47 320.41L1143.6 323.65L1146.73 328.38L1144.56 328.38L1142.12 324.74L1142.09 324.74L1141.09 325.89L1141.09 328.38L1139.13 328.38Z" />
	<path id="Layer" fill-rule="evenodd" class="shp0" d="M1065.57 357.12L1065.57 346.59L1069.84 346.59C1070.92 346.59 1071.79 346.9 1072.46 347.51C1073.13 348.11 1073.47 348.92 1073.47 349.95C1073.47 350.97 1073.14 351.78 1072.49 352.38C1071.85 352.98 1070.97 353.29 1069.84 353.29L1067.6 353.29L1067.6 357.12L1065.57 357.12ZM1067.6 351.41L1069.81 351.41C1070.26 351.41 1070.64 351.28 1070.93 351.02C1071.22 350.74 1071.36 350.39 1071.36 349.95C1071.36 349.43 1071.21 349.06 1070.91 348.83C1070.62 348.59 1070.25 348.47 1069.81 348.47L1067.6 348.47L1067.6 351.41ZM1074.6 357.12L1074.6 349.15L1076.56 349.15L1076.56 357.12L1074.6 357.12ZM1074.6 347.99L1074.6 346.14L1076.56 346.14L1076.56 347.99L1074.6 347.99ZM1078.66 357.12L1078.66 346.14L1080.69 346.14L1080.69 357.12L1078.66 357.12ZM1082.8 357.12L1082.8 346.14L1084.83 346.14L1084.83 357.12L1082.8 357.12ZM1091.48 357.12L1091.48 356.35L1091.45 356.35C1091.43 356.38 1091.41 356.42 1091.38 356.47C1091.35 356.51 1091.27 356.59 1091.15 356.7C1091.03 356.81 1090.9 356.91 1090.74 357C1090.59 357.09 1090.39 357.17 1090.13 357.24C1089.87 357.31 1089.59 357.35 1089.29 357.35C1088.32 357.35 1087.6 357.12 1087.12 356.67C1086.65 356.21 1086.41 355.65 1086.41 354.99C1086.41 354.29 1086.62 353.77 1087.03 353.41C1087.44 353.05 1088.14 352.75 1089.12 352.5C1090.03 352.28 1090.6 352.11 1090.83 351.98C1091.07 351.85 1091.18 351.66 1091.18 351.42C1091.18 351.18 1091.07 350.98 1090.83 350.82C1090.61 350.66 1090.28 350.58 1089.83 350.58C1089.29 350.58 1088.92 350.7 1088.68 350.94C1088.45 351.17 1088.27 351.49 1088.14 351.89L1086.52 351.21C1086.71 350.54 1087.08 349.99 1087.63 349.57C1088.18 349.14 1088.9 348.92 1089.8 348.92C1090.77 348.92 1091.57 349.18 1092.19 349.69C1092.81 350.2 1093.12 351 1093.12 352.07L1093.12 357.12L1091.48 357.12ZM1089.51 353.86C1089.01 353.98 1088.68 354.12 1088.52 354.29C1088.37 354.45 1088.29 354.64 1088.29 354.85C1088.29 355.39 1088.68 355.66 1089.47 355.66C1090.06 355.66 1090.5 355.55 1090.79 355.33C1091.09 355.1 1091.24 354.82 1091.24 354.49L1091.24 353.11L1091.21 353.11C1091.17 353.19 1091.13 353.25 1091.08 353.3C1091.04 353.34 1090.88 353.42 1090.62 353.53C1090.36 353.63 1089.99 353.74 1089.51 353.86ZM1095.08 357.12L1095.08 349.15L1096.93 349.15L1096.93 349.99L1096.96 349.99C1097.11 349.69 1097.33 349.45 1097.62 349.27C1097.92 349.09 1098.24 349 1098.6 349C1098.85 349 1099.09 349.05 1099.32 349.15L1099.02 351.04C1098.8 350.96 1098.59 350.93 1098.4 350.93C1097.49 350.93 1097.03 351.53 1097.03 352.75L1097.03 357.12L1095.08 357.12Z" />
	<path id="Layer" fill-rule="evenodd" class="shp0" d="M1276.05 402.5L1276.05 393.85L1272.97 393.85L1272.97 391.97L1281.16 391.97L1281.16 393.85L1278.08 393.85L1278.08 402.5L1276.05 402.5ZM1287.05 401.61C1286.35 402.35 1285.46 402.72 1284.37 402.72C1283.29 402.72 1282.4 402.35 1281.7 401.61C1280.99 400.87 1280.64 399.83 1280.64 398.51C1280.64 397.21 1281 396.18 1281.73 395.43C1282.45 394.68 1283.33 394.3 1284.37 394.3C1285.42 394.3 1286.3 394.68 1287.02 395.43C1287.74 396.18 1288.1 397.21 1288.1 398.51C1288.1 399.83 1287.75 400.87 1287.05 401.61ZM1283.05 400.33C1283.37 400.75 1283.81 400.96 1284.37 400.96C1284.93 400.96 1285.37 400.75 1285.7 400.33C1286.02 399.9 1286.18 399.29 1286.18 398.51C1286.18 397.73 1286.01 397.13 1285.68 396.71C1285.36 396.27 1284.92 396.06 1284.37 396.06C1283.82 396.06 1283.38 396.27 1283.05 396.69C1282.73 397.11 1282.57 397.72 1282.57 398.51C1282.57 399.3 1282.73 399.91 1283.05 400.33ZM1290.85 402.5L1289.09 394.52L1291 394.52L1292.05 399.85L1292.09 399.85L1293.87 394.52L1295.64 394.52L1297.28 399.83L1297.31 399.83L1298.52 394.52L1300.4 394.52L1298.49 402.5L1296.56 402.5L1294.74 396.77L1294.71 396.77L1292.74 402.5L1290.85 402.5ZM1306.92 399.74L1308.29 400.95C1307.48 402.13 1306.38 402.72 1305 402.72C1303.88 402.72 1302.97 402.34 1302.27 401.58C1301.57 400.81 1301.22 399.78 1301.22 398.51C1301.22 397.24 1301.57 396.22 1302.26 395.46C1302.96 394.69 1303.84 394.3 1304.9 394.3C1305.97 394.3 1306.84 394.69 1307.52 395.46C1308.21 396.22 1308.56 397.24 1308.56 398.51L1308.56 399.1L1303.21 399.1C1303.24 399.71 1303.4 400.18 1303.7 400.51C1304.01 400.83 1304.43 400.99 1304.97 400.99C1305.42 400.99 1305.79 400.88 1306.08 400.66C1306.38 400.43 1306.66 400.12 1306.92 399.74ZM1303.21 397.64L1306.66 397.64C1306.61 397.13 1306.44 396.73 1306.14 396.45C1305.84 396.16 1305.43 396.01 1304.9 396.01C1304.42 396.01 1304.03 396.17 1303.72 396.48C1303.42 396.79 1303.25 397.18 1303.21 397.64ZM1310.13 402.5L1310.13 394.52L1311.98 394.52L1311.98 395.37L1312.01 395.37C1312.16 395.07 1312.39 394.83 1312.67 394.65C1312.98 394.47 1313.3 394.38 1313.65 394.38C1313.9 394.38 1314.14 394.42 1314.37 394.52L1314.07 396.42C1313.85 396.34 1313.65 396.3 1313.46 396.3C1312.55 396.3 1312.09 396.91 1312.09 398.12L1312.09 402.5L1310.13 402.5Z" />
	<path id="Layer" fill-rule="evenodd" class="shp0" d="M1036.58 233.1L1032.78 222.57L1034.91 222.57L1037.51 230.04L1037.56 230.04L1040.09 222.57L1042.19 222.57L1038.43 233.1L1036.58 233.1ZM1047.82 230.34L1049.18 231.55C1048.37 232.73 1047.27 233.32 1045.89 233.32C1044.78 233.32 1043.87 232.94 1043.17 232.18C1042.47 231.41 1042.12 230.38 1042.12 229.11C1042.12 227.84 1042.46 226.82 1043.15 226.06C1043.85 225.28 1044.74 224.9 1045.8 224.9C1046.86 224.9 1047.73 225.28 1048.42 226.06C1049.11 226.82 1049.45 227.84 1049.45 229.11L1049.45 229.7L1044.1 229.7C1044.13 230.31 1044.29 230.78 1044.6 231.11C1044.91 231.43 1045.33 231.59 1045.86 231.59C1046.31 231.59 1046.68 231.48 1046.97 231.26C1047.27 231.03 1047.55 230.72 1047.82 230.34ZM1044.1 228.24L1047.56 228.24C1047.51 227.73 1047.33 227.33 1047.03 227.05C1046.73 226.76 1046.32 226.61 1045.8 226.61C1045.32 226.61 1044.92 226.77 1044.61 227.08C1044.31 227.39 1044.14 227.78 1044.1 228.24ZM1051.03 233.1L1051.03 225.12L1052.91 225.12L1052.91 225.89L1052.94 225.89C1053.16 225.61 1053.46 225.37 1053.84 225.18C1054.22 224.99 1054.62 224.9 1055.04 224.9C1055.93 224.9 1056.62 225.16 1057.12 225.7C1057.62 226.22 1057.87 226.94 1057.87 227.88L1057.87 233.1L1055.92 233.1L1055.92 228.36C1055.92 227.81 1055.81 227.39 1055.6 227.12C1055.39 226.84 1055.03 226.7 1054.52 226.7C1054.04 226.7 1053.66 226.84 1053.39 227.12C1053.12 227.39 1052.98 227.76 1052.98 228.22L1052.98 233.1L1051.03 233.1ZM1060.31 230.25L1060.31 226.78L1059.07 226.78L1059.07 225.12L1060.35 225.12L1060.35 223.17L1062.2 223.17L1062.2 225.12L1064.22 225.12L1064.22 226.78L1062.23 226.78L1062.23 230.07C1062.23 230.49 1062.3 230.79 1062.44 230.96C1062.58 231.13 1062.87 231.21 1063.3 231.21L1063.95 231.21L1063.95 233.1L1063.12 233.1C1062.04 233.1 1061.31 232.87 1060.91 232.42C1060.51 231.97 1060.31 231.25 1060.31 230.25Z" />
	<path id="Layer" class="shp1" d="M1135.87 261.7L1251.9 261.7C1255.36 261.7 1258.16 264.5 1258.16 267.97L1258.16 368.87C1258.16 372.34 1255.36 375.14 1251.9 375.14L1135.87 375.14C1132.4 375.14 1129.6 372.34 1129.6 368.87L1129.6 267.97C1129.6 264.5 1132.4 261.7 1135.87 261.7Z" />
	<g id="Layer" style="opacity: 0.149">
		<g id="Clip-Path" clip-path="url(#cp1)">
			<g id="Layer">
				<path id="Layer" class="shp2" d="M1181.65 492.43L1377.26 296.96L1381.24 300.93L1185.62 496.4L1181.65 492.43Z" />
				<path id="Layer" class="shp2" d="M1173.7 484.49L1369.32 289.02L1373.29 292.99L1177.67 488.46L1173.7 484.49Z" />
				<path id="Layer" class="shp2" d="M1165.76 476.55L1361.38 281.08L1365.35 285.05L1169.73 480.52L1165.76 476.55Z" />
				<path id="Layer" class="shp2" d="M1157.81 468.61L1353.43 273.15L1357.4 277.12L1161.79 472.58L1157.81 468.61Z" />
				<path id="Layer" class="shp2" d="M1149.87 460.68L1345.49 265.21L1349.46 269.18L1153.84 464.65L1149.87 460.68Z" />
				<path id="Layer" class="shp2" d="M1141.93 452.74L1337.55 257.27L1341.52 261.24L1145.9 456.71L1141.93 452.74Z" />
				<path id="Layer" class="shp2" d="M1133.98 444.8L1329.6 249.33L1333.57 253.3L1137.95 448.77L1133.98 444.8Z" />
				<path id="Layer" class="shp2" d="M1126.04 436.86L1321.66 241.4L1325.63 245.37L1130.01 440.83L1126.04 436.86Z" />
				<path id="Layer" class="shp2" d="M1118.09 428.93L1313.71 233.46L1317.69 237.43L1122.07 432.9L1118.09 428.93Z" />
				<path id="Layer" class="shp2" d="M1110.15 420.99L1305.77 225.52L1309.74 229.49L1114.12 424.96L1110.15 420.99Z" />
				<path id="Layer" class="shp2" d="M1102.21 413.05L1297.83 217.58L1301.8 221.55L1106.18 417.02L1102.21 413.05Z" />
				<path id="Layer" class="shp2" d="M1094.26 405.11L1289.88 209.65L1293.85 213.62L1098.24 409.08L1094.26 405.11Z" />
				<path id="Layer" class="shp2" d="M1086.32 397.18L1281.94 201.71L1285.91 205.68L1090.29 401.14L1086.32 397.18Z" />
				<path id="Layer" class="shp2" d="M1078.38 389.24L1273.99 193.77L1277.97 197.74L1082.35 393.21L1078.38 389.24Z" />
				<path id="Layer" class="shp2" d="M1070.43 381.3L1266.05 185.83L1270.02 189.8L1074.4 385.27L1070.43 381.3Z" />
				<path id="Layer" class="shp2" d="M1062.49 373.36L1258.11 177.89L1262.08 181.86L1066.46 377.33L1062.49 373.36Z" />
				<path id="Layer" class="shp2" d="M1054.54 365.42L1250.16 169.96L1254.13 173.93L1058.52 369.39L1054.54 365.42Z" />
				<path id="Layer" class="shp2" d="M1046.6 357.49L1242.22 162.02L1246.19 165.99L1050.57 361.46L1046.6 357.49Z" />
				<path id="Layer" class="shp2" d="M1038.66 349.55L1234.28 154.08L1238.25 158.05L1042.63 353.52L1038.66 349.55Z" />
				<path id="Layer" class="shp2" d="M1030.71 341.61L1226.33 146.14L1230.3 150.11L1034.68 345.58L1030.71 341.61Z" />
				<path id="Layer" class="shp2" d="M1022.77 333.67L1218.39 138.21L1222.36 142.18L1026.74 337.64L1022.77 333.67Z" />
			</g>
		</g>
	</g>
	<path id="Layer" class="shp1" d="M606.49 220.87L702.86 220.87C706.32 220.87 709.12 223.67 709.12 227.13L709.12 305.35C709.12 308.82 706.32 311.62 702.86 311.62L606.49 311.62C603.02 311.62 600.22 308.82 600.22 305.35L600.22 227.13C600.22 223.67 603.02 220.87 606.49 220.87Z" />
	<g id="Layer" style="opacity: 0.149">
		<g id="Clip-Path" clip-path="url(#cp2)">
			<g id="Layer">
				<path id="Layer" class="shp2" d="M649.24 465.2L844.86 269.74L848.83 273.71L653.21 469.17L649.24 465.2Z" />
				<path id="Layer" class="shp2" d="M641.3 457.27L836.92 261.8L840.89 265.77L645.27 461.23L641.3 457.27Z" />
				<path id="Layer" class="shp2" d="M633.35 449.33L828.97 253.86L832.94 257.83L637.33 453.3L633.35 449.33Z" />
				<path id="Layer" class="shp2" d="M625.41 441.39L821.03 245.92L825 249.89L629.38 445.36L625.41 441.39Z" />
				<path id="Layer" class="shp2" d="M617.47 433.45L813.08 237.98L817.06 241.95L621.44 437.42L617.47 433.45Z" />
				<path id="Layer" class="shp2" d="M609.52 425.51L805.14 230.05L809.11 234.02L613.49 429.48L609.52 425.51Z" />
				<path id="Layer" class="shp2" d="M601.58 417.58L797.2 222.11L801.17 226.08L605.55 421.55L601.58 417.58Z" />
				<path id="Layer" class="shp2" d="M593.63 409.64L789.25 214.17L793.22 218.14L597.61 413.61L593.63 409.64Z" />
				<path id="Layer" class="shp2" d="M585.69 401.7L781.31 206.23L785.28 210.2L589.66 405.67L585.69 401.7Z" />
				<path id="Layer" class="shp2" d="M577.75 393.76L773.37 198.3L777.34 202.27L581.72 397.73L577.75 393.76Z" />
				<path id="Layer" class="shp2" d="M569.8 385.83L765.42 190.36L769.39 194.33L573.77 389.79L569.8 385.83Z" />
				<path id="Layer" class="shp2" d="M561.86 377.89L757.48 182.42L761.45 186.39L565.83 381.86L561.86 377.89Z" />
				<path id="Layer" class="shp2" d="M553.91 369.95L749.53 174.48L753.5 178.45L557.89 373.92L553.91 369.95Z" />
				<path id="Layer" class="shp2" d="M545.97 362.01L741.59 166.54L745.56 170.51L549.94 365.98L545.97 362.01Z" />
				<path id="Layer" class="shp2" d="M538.03 354.07L733.65 158.61L737.62 162.58L542 358.04L538.03 354.07Z" />
				<path id="Layer" class="shp2" d="M530.08 346.14L725.7 150.67L729.67 154.64L534.05 350.11L530.08 346.14Z" />
				<path id="Layer" class="shp2" d="M522.14 338.2L717.76 142.73L721.73 146.7L526.11 342.17L522.14 338.2Z" />
				<path id="Layer" class="shp2" d="M514.19 330.26L709.81 134.79L713.78 138.76L518.17 334.23L514.19 330.26Z" />
				<path id="Layer" class="shp2" d="M506.25 322.32L701.87 126.86L705.84 130.82L510.22 326.29L506.25 322.32Z" />
				<path id="Layer" class="shp2" d="M498.31 314.39L693.93 118.92L697.9 122.89L502.28 318.35L498.31 314.39Z" />
				<path id="Layer" class="shp2" d="M490.36 306.45L685.98 110.98L689.95 114.95L494.33 310.42L490.36 306.45Z" />
			</g>
		</g>
	</g>
	<path id="Layer" fill-rule="evenodd" class="shp3" d="M1198.06 325.46L1197.08 322.65L1190.57 322.65L1189.59 325.46L1186.32 325.46L1192.49 308.38L1195.3 308.38L1201.45 325.46L1198.06 325.46ZM1193.81 313.26L1191.49 319.92L1196.16 319.92L1193.86 313.26L1193.81 313.26Z" />
	<path id="Layer" fill-rule="evenodd" class="shp3" d="M649.46 272.52L649.46 255.44L656.7 255.44C658.22 255.44 659.43 255.89 660.34 256.78C661.27 257.66 661.73 258.74 661.73 260.03C661.73 261.46 661.11 262.54 659.88 263.27L659.88 263.3C660.61 263.61 661.2 264.1 661.66 264.79C662.13 265.45 662.37 266.26 662.37 267.2C662.37 268.83 661.87 270.13 660.88 271.11C659.89 272.05 658.25 272.52 655.97 272.52L649.46 272.52ZM652.75 269.47L656.73 269.47C658.29 269.47 659.07 268.72 659.07 267.2C659.07 266.5 658.86 265.97 658.44 265.59C658.03 265.2 657.47 265.01 656.75 265.01L652.75 265.01L652.75 269.47ZM652.75 262.32L656.29 262.32C656.96 262.32 657.48 262.17 657.85 261.86C658.24 261.53 658.44 261.06 658.44 260.44C658.44 259.79 658.25 259.3 657.88 258.98C657.5 258.65 656.97 258.49 656.29 258.49L652.75 258.49L652.75 262.32Z" />
	<path id="Layer" fill-rule="evenodd" class="shp4" d="M993.96 1030.44L993.16 1028.13L987.8 1028.13L987 1030.44L984.31 1030.44L989.39 1016.4L991.69 1016.4L996.75 1030.44L993.96 1030.44ZM990.47 1020.41L988.56 1025.89L992.39 1025.89L990.51 1020.41L990.47 1020.41ZM998.4 1026.65L998.4 1022.02L996.75 1022.02L996.75 1019.81L998.46 1019.81L998.46 1017.2L1000.92 1017.2L1000.92 1019.81L1003.61 1019.81L1003.61 1022.02L1000.96 1022.02L1000.96 1026.41C1000.96 1026.97 1001.06 1027.37 1001.25 1027.59C1001.43 1027.82 1001.81 1027.93 1002.39 1027.93L1003.25 1027.93L1003.25 1030.44L1002.15 1030.44C1000.72 1030.44 999.73 1030.14 999.2 1029.54C998.66 1028.94 998.4 1027.97 998.4 1026.65ZM1005.96 1026.65L1005.96 1022.02L1004.31 1022.02L1004.31 1019.81L1006.02 1019.81L1006.02 1017.2L1008.48 1017.2L1008.48 1019.81L1011.17 1019.81L1011.17 1022.02L1008.52 1022.02L1008.52 1026.41C1008.52 1026.97 1008.62 1027.37 1008.8 1027.59C1008.99 1027.82 1009.37 1027.93 1009.95 1027.93L1010.81 1027.93L1010.81 1030.44L1009.71 1030.44C1008.28 1030.44 1007.29 1030.14 1006.76 1029.54C1006.22 1028.94 1005.96 1027.97 1005.96 1026.65ZM1019.03 1030.44L1019.03 1029.42L1018.99 1029.42C1018.96 1029.46 1018.93 1029.51 1018.89 1029.58C1018.85 1029.63 1018.75 1029.73 1018.59 1029.88C1018.43 1030.03 1018.25 1030.16 1018.05 1030.28C1017.85 1030.4 1017.57 1030.51 1017.23 1030.6C1016.88 1030.69 1016.5 1030.74 1016.1 1030.74C1014.82 1030.74 1013.86 1030.44 1013.22 1029.84C1012.59 1029.22 1012.27 1028.48 1012.27 1027.59C1012.27 1026.67 1012.55 1025.97 1013.1 1025.49C1013.64 1025.01 1014.57 1024.6 1015.88 1024.28C1017.1 1023.99 1017.86 1023.76 1018.17 1023.58C1018.48 1023.41 1018.63 1023.16 1018.63 1022.84C1018.63 1022.52 1018.48 1022.25 1018.17 1022.04C1017.87 1021.82 1017.43 1021.72 1016.83 1021.72C1016.12 1021.72 1015.61 1021.88 1015.3 1022.2C1014.99 1022.51 1014.75 1022.93 1014.58 1023.46L1012.41 1022.56C1012.67 1021.66 1013.16 1020.93 1013.9 1020.37C1014.63 1019.8 1015.6 1019.51 1016.79 1019.51C1018.08 1019.51 1019.15 1019.85 1019.97 1020.53C1020.8 1021.21 1021.22 1022.27 1021.22 1023.7L1021.22 1030.44L1019.03 1030.44ZM1016.4 1026.09C1015.74 1026.25 1015.3 1026.44 1015.08 1026.67C1014.88 1026.88 1014.78 1027.13 1014.78 1027.41C1014.78 1028.13 1015.3 1028.5 1016.34 1028.5C1017.13 1028.5 1017.72 1028.35 1018.11 1028.05C1018.51 1027.75 1018.71 1027.37 1018.71 1026.93L1018.71 1025.09L1018.67 1025.09C1018.62 1025.19 1018.56 1025.28 1018.49 1025.35C1018.44 1025.4 1018.24 1025.5 1017.89 1025.65C1017.54 1025.78 1017.05 1025.93 1016.4 1026.09ZM1030.2 1026.15L1032.67 1026.79C1032.43 1028.06 1031.91 1029.04 1031.1 1029.72C1030.3 1030.4 1029.29 1030.74 1028.08 1030.74C1026.63 1030.74 1025.44 1030.25 1024.51 1029.26C1023.58 1028.27 1023.12 1026.89 1023.12 1025.13C1023.12 1023.37 1023.6 1022 1024.55 1021.01C1025.51 1020.01 1026.69 1019.51 1028.1 1019.51C1029.29 1019.51 1030.28 1019.86 1031.08 1020.55C1031.89 1021.25 1032.38 1022.18 1032.57 1023.34L1030.14 1023.8C1029.89 1022.51 1029.21 1021.86 1028.1 1021.86C1027.36 1021.86 1026.77 1022.14 1026.33 1022.7C1025.9 1023.25 1025.69 1024.06 1025.69 1025.13C1025.69 1026.2 1025.9 1027.01 1026.33 1027.57C1026.76 1028.12 1027.35 1028.39 1028.1 1028.39C1029.27 1028.39 1029.97 1027.65 1030.2 1026.15ZM1034.67 1030.44L1034.67 1015.8L1037.28 1015.8L1037.28 1024.2L1037.32 1024.2L1041.19 1019.81L1044.46 1019.81L1040.63 1024.12L1044.8 1030.44L1041.91 1030.44L1038.66 1025.59L1038.62 1025.59L1037.28 1027.11L1037.28 1030.44L1034.67 1030.44ZM1052.72 1026.77L1054.54 1028.38C1053.46 1029.95 1051.99 1030.74 1050.15 1030.74C1048.67 1030.74 1047.46 1030.23 1046.52 1029.22C1045.58 1028.19 1045.12 1026.82 1045.12 1025.13C1045.12 1023.43 1045.58 1022.07 1046.5 1021.05C1047.44 1020.02 1048.61 1019.51 1050.03 1019.51C1051.45 1019.51 1052.61 1020.02 1053.52 1021.05C1054.44 1022.07 1054.9 1023.43 1054.9 1025.13L1054.9 1025.91L1047.76 1025.91C1047.8 1026.72 1048.02 1027.35 1048.42 1027.79C1048.84 1028.22 1049.4 1028.43 1050.11 1028.43C1050.71 1028.43 1051.21 1028.29 1051.59 1027.99C1051.99 1027.69 1052.37 1027.28 1052.72 1026.77ZM1047.76 1023.96L1052.38 1023.96C1052.31 1023.28 1052.07 1022.75 1051.67 1022.38C1051.27 1021.99 1050.72 1021.8 1050.03 1021.8C1049.39 1021.8 1048.86 1022 1048.44 1022.42C1048.04 1022.83 1047.82 1023.35 1047.76 1023.96ZM1057 1030.44L1057 1019.81L1059.47 1019.81L1059.47 1020.93L1059.51 1020.93C1059.71 1020.53 1060 1020.21 1060.39 1019.97C1060.79 1019.73 1061.22 1019.61 1061.69 1019.61C1062.03 1019.61 1062.35 1019.68 1062.65 1019.81L1062.25 1022.34C1061.96 1022.23 1061.69 1022.18 1061.43 1022.18C1060.22 1022.18 1059.61 1022.99 1059.61 1024.6L1059.61 1030.44L1057 1030.44ZM1063.56 1026.93L1065.91 1026.33C1066.09 1027.81 1066.89 1028.56 1068.29 1028.56C1068.94 1028.56 1069.44 1028.45 1069.82 1028.25C1070.21 1028.04 1070.4 1027.75 1070.4 1027.37C1070.4 1027.06 1070.25 1026.84 1069.96 1026.69C1069.66 1026.53 1069.05 1026.32 1068.11 1026.05C1067.86 1025.98 1067.67 1025.93 1067.53 1025.89C1066.3 1025.54 1065.4 1025.13 1064.82 1024.67C1064.25 1024.18 1063.96 1023.55 1063.96 1022.76C1063.96 1021.88 1064.32 1021.12 1065.03 1020.47C1065.75 1019.83 1066.73 1019.51 1067.97 1019.51C1070.35 1019.51 1071.84 1020.55 1072.45 1022.64L1070.28 1023.3C1070.09 1022.79 1069.82 1022.39 1069.48 1022.1C1069.14 1021.8 1068.65 1021.66 1067.99 1021.66C1067.49 1021.66 1067.08 1021.76 1066.77 1021.96C1066.48 1022.15 1066.33 1022.37 1066.33 1022.64C1066.33 1022.93 1066.5 1023.17 1066.85 1023.34C1067.21 1023.5 1068.1 1023.78 1069.52 1024.18C1070.76 1024.52 1071.6 1024.95 1072.04 1025.47C1072.5 1025.98 1072.73 1026.63 1072.73 1027.43C1072.73 1028.29 1072.35 1029.06 1071.6 1029.74C1070.87 1030.41 1069.8 1030.74 1068.4 1030.74C1066.92 1030.74 1065.79 1030.37 1064.99 1029.64C1064.2 1028.89 1063.72 1027.99 1063.56 1026.93Z" />
	<path id="Layer" fill-rule="evenodd" class="shp5" d="M892.36 72.77L892.36 58.73L897.05 58.73C897.85 58.73 898.61 58.87 899.31 59.15C900.02 59.43 900.67 59.85 901.24 60.4C901.81 60.94 902.27 61.68 902.6 62.6C902.95 63.51 903.12 64.55 903.12 65.73C903.12 67.01 902.95 68.13 902.6 69.08C902.26 70.03 901.78 70.76 901.18 71.28C900.58 71.79 899.92 72.17 899.21 72.41C898.52 72.65 897.76 72.77 896.93 72.77L892.36 72.77ZM895.06 70.26L896.93 70.26C897.41 70.26 897.83 70.21 898.19 70.1C898.55 69.98 898.89 69.77 899.21 69.46C899.54 69.15 899.78 68.69 899.96 68.08C900.13 67.45 900.22 66.67 900.22 65.73C900.22 64.17 899.92 63.03 899.34 62.32C898.76 61.6 898 61.24 897.05 61.24L895.06 61.24L895.06 70.26ZM912.14 69.1L913.96 70.7C912.88 72.28 911.41 73.07 909.57 73.07C908.09 73.07 906.88 72.56 905.94 71.55C905 70.52 904.54 69.15 904.54 67.45C904.54 65.76 905 64.4 905.92 63.38C906.86 62.35 908.03 61.84 909.45 61.84C910.87 61.84 912.03 62.35 912.94 63.38C913.86 64.4 914.32 65.76 914.32 67.45L914.32 68.24L907.18 68.24C907.22 69.05 907.44 69.68 907.84 70.12C908.26 70.55 908.82 70.76 909.53 70.76C910.13 70.76 910.63 70.62 911.01 70.32C911.41 70.01 911.79 69.61 912.14 69.1ZM907.18 66.29L911.8 66.29C911.73 65.61 911.49 65.08 911.09 64.71C910.69 64.32 910.14 64.13 909.45 64.13C908.81 64.13 908.28 64.33 907.86 64.75C907.46 65.16 907.24 65.68 907.18 66.29ZM916.96 72.77L916.96 64.35L915.32 64.35L915.32 62.14L917.02 62.14L917.02 60.64C917.02 59.73 917.26 59.08 917.72 58.71C918.2 58.32 918.9 58.13 919.81 58.13L921.89 58.13L921.89 60.44L920.35 60.44C920.03 60.44 919.8 60.5 919.67 60.64C919.55 60.76 919.49 60.97 919.49 61.28L919.49 62.14L922.18 62.14L922.18 64.35L919.57 64.35L919.57 72.77L916.96 72.77ZM930.49 69.1L932.31 70.7C931.23 72.28 929.76 73.07 927.92 73.07C926.44 73.07 925.22 72.56 924.29 71.55C923.35 70.52 922.89 69.15 922.89 67.45C922.89 65.76 923.35 64.4 924.27 63.38C925.21 62.35 926.38 61.84 927.8 61.84C929.22 61.84 930.38 62.35 931.29 63.38C932.21 64.4 932.67 65.76 932.67 67.45L932.67 68.24L925.53 68.24C925.57 69.05 925.79 69.68 926.2 70.12C926.61 70.55 927.17 70.76 927.88 70.76C928.48 70.76 928.98 70.62 929.36 70.32C929.76 70.01 930.14 69.61 930.49 69.1ZM925.53 66.29L930.15 66.29C930.08 65.61 929.84 65.08 929.44 64.71C929.04 64.32 928.49 64.13 927.8 64.13C927.16 64.13 926.63 64.33 926.21 64.75C925.81 65.16 925.59 65.68 925.53 66.29ZM934.77 72.77L934.77 62.14L937.28 62.14L937.28 63.16L937.32 63.16C937.61 62.79 938.01 62.47 938.52 62.22C939.03 61.97 939.56 61.84 940.13 61.84C941.3 61.84 942.22 62.19 942.89 62.9C943.56 63.6 943.89 64.57 943.89 65.81L943.89 72.77L941.29 72.77L941.29 66.45C941.29 65.72 941.15 65.17 940.87 64.81C940.59 64.43 940.1 64.25 939.42 64.25C938.78 64.25 938.28 64.43 937.92 64.81C937.56 65.17 937.38 65.66 937.38 66.27L937.38 72.77L934.77 72.77ZM953.36 72.77L953.36 71.75L953.32 71.75C953.25 71.84 953.15 71.96 953.02 72.11C952.9 72.25 952.59 72.45 952.09 72.71C951.61 72.95 951.08 73.07 950.51 73.07C949.11 73.07 947.98 72.56 947.14 71.55C946.31 70.53 945.9 69.17 945.9 67.45C945.9 65.73 946.35 64.37 947.26 63.36C948.17 62.35 949.24 61.84 950.47 61.84C951.03 61.84 951.53 61.95 951.97 62.18C952.43 62.39 952.74 62.61 952.9 62.82L953.16 63.16L953.2 63.16L953.2 58.13L955.8 58.13L955.8 72.77L953.36 72.77ZM953.2 68.42L953.2 66.47C953.2 65.83 952.99 65.29 952.58 64.85C952.17 64.41 951.62 64.19 950.91 64.19C950.15 64.19 949.55 64.46 949.13 65.01C948.71 65.56 948.5 66.37 948.5 67.45C948.5 68.52 948.71 69.34 949.13 69.9C949.55 70.45 950.15 70.72 950.91 70.72C951.62 70.72 952.17 70.5 952.58 70.06C952.99 69.61 953.2 69.06 953.2 68.42ZM965.5 69.1L967.33 70.7C966.25 72.28 964.78 73.07 962.94 73.07C961.45 73.07 960.24 72.56 959.31 71.55C958.37 70.52 957.9 69.15 957.9 67.45C957.9 65.76 958.36 64.4 959.29 63.38C960.22 62.35 961.4 61.84 962.82 61.84C964.23 61.84 965.4 62.35 966.3 63.38C967.23 64.4 967.69 65.76 967.69 67.45L967.69 68.24L960.55 68.24C960.59 69.05 960.81 69.68 961.21 70.12C961.63 70.55 962.19 70.76 962.9 70.76C963.5 70.76 963.99 70.62 964.38 70.32C964.78 70.01 965.15 69.61 965.5 69.1ZM960.55 66.29L965.16 66.29C965.09 65.61 964.86 65.08 964.46 64.71C964.06 64.32 963.51 64.13 962.82 64.13C962.17 64.13 961.65 64.33 961.23 64.75C960.83 65.16 960.6 65.68 960.55 66.29ZM969.79 72.77L969.79 62.14L972.25 62.14L972.25 63.26L972.29 63.26C972.49 62.86 972.79 62.54 973.18 62.3C973.58 62.06 974.01 61.94 974.48 61.94C974.81 61.94 975.13 62.01 975.44 62.14L975.04 64.67C974.75 64.56 974.47 64.51 974.22 64.51C973 64.51 972.39 65.32 972.39 66.93L972.39 72.77L969.79 72.77ZM976.35 69.26L978.69 68.66C978.88 70.14 979.68 70.88 981.08 70.88C981.72 70.88 982.23 70.78 982.61 70.58C982.99 70.37 983.19 70.07 983.19 69.7C983.19 69.39 983.04 69.17 982.75 69.02C982.45 68.86 981.84 68.64 980.9 68.38C980.65 68.31 980.45 68.26 980.32 68.22C979.09 67.87 978.19 67.46 977.61 66.99C977.04 66.51 976.75 65.88 976.75 65.09C976.75 64.21 977.1 63.44 977.81 62.8C978.53 62.16 979.52 61.84 980.76 61.84C983.14 61.84 984.63 62.88 985.23 64.97L983.07 65.63C982.88 65.12 982.61 64.72 982.26 64.43C981.93 64.13 981.44 63.98 980.78 63.98C980.27 63.98 979.86 64.09 979.56 64.29C979.26 64.47 979.12 64.7 979.12 64.97C979.12 65.26 979.29 65.5 979.64 65.67C980 65.83 980.89 66.11 982.3 66.51C983.55 66.85 984.39 67.27 984.83 67.8C985.29 68.3 985.51 68.96 985.51 69.76C985.51 70.62 985.14 71.38 984.39 72.07C983.65 72.74 982.59 73.07 981.18 73.07C979.71 73.07 978.57 72.7 977.77 71.97C976.98 71.22 976.51 70.32 976.35 69.26Z" />
</svg>