<svg width="708" height="708" viewBox="0 0 708 708" fill="none" xmlns="http://www.w3.org/2000/svg">
<path d="M84.4329 89.2552H212.341H214.324V93.2214H216.307V121.976H84.4329V89.2552Z" fill="#202B43"/>
<path d="M287.698 82.3145V95.2045V121.976L324.385 82.3145H287.698Z" fill="#202B43"/>
<rect x="216.307" y="89.2552" width="71.3907" height="32.7207" fill="#202B43"/>
<path d="M296.622 14.3942L289.186 53.5599L287.698 82.3145H389.827V48.6023L385.86 36.7038L378.424 15.8815L349.669 10.9238L340.25 2H307.529L296.622 14.3942Z" fill="#202B43"/>
<path d="M387.844 123.463L358.097 82.3145H389.827V93.2214H487.989H498.4H510.794H567.312V126.934H516.743H501.87V117.514H494.93V123.463H387.844Z" fill="#202B43"/>
<rect x="191.519" y="289.546" width="26.7715" height="16.8561" fill="#202B43"/>
<path d="M263.901 289.546H218.291V305.906L210.358 319.292V356.97H184.578V400.598H263.901V289.546Z" fill="#202B43"/>
<rect x="263.901" y="287.563" width="3.96615" height="23.7969" fill="#202B43"/>
<path d="M228.206 276.656V289.546H263.901V276.656H228.206Z" fill="#202B43"/>
<rect x="153.841" y="298.47" width="37.6784" height="40.653" fill="#202B43"/>
<rect x="163.756" y="279.63" width="27.763" height="18.8392" fill="#202B43"/>
<rect x="213.333" y="398.615" width="37.6784" height="35.6953" fill="#202B43"/>
<rect x="251.011" y="412.496" width="99.1537" height="21.8138" fill="#202B43"/>
<path d="M324.385 412.496V348.047H374.953V382.75H361.072L350.165 395.64V412.496H324.385Z" fill="#202B43"/>
<rect x="403.708" y="131.891" width="21.8138" height="44.6192" fill="#202B43"/>
<rect x="425.522" y="158.663" width="8.92383" height="17.8477" fill="#202B43"/>
<rect x="403.708" y="121.976" width="21.8138" height="9.91537" fill="#202B43"/>
<path d="M534.207 137.632V126.934H553.815V137.632L572.269 153.705H515.752L534.207 137.632Z" fill="#202B43"/>
<rect x="453.285" y="359.945" width="45.6107" height="48.5853" fill="#202B43"/>
<rect x="384.869" y="292.52" width="51.5599" height="38.67" fill="#202B43"/>
<rect x="406.683" y="322.267" width="29.7461" height="49.5769" fill="#202B43"/>
<rect x="469.149" y="350.03" width="29.7461" height="9.91537" fill="#202B43"/>
<rect x="436.429" y="359.945" width="29.7461" height="22.8054" fill="#202B43"/>
<rect x="480.056" y="418.446" width="52.5515" height="107.086" fill="#202B43"/>
<rect x="274.808" y="434.31" width="19.8307" height="28.7546" fill="#202B43"/>
<rect x="55.6783" y="306.402" width="34.7038" height="92.213" fill="#202B43"/>
<path d="M55.6783 442.243V406.547H155.824V438.276H166.731V491.819H105.255L55.6783 442.243Z" fill="#202B43"/>
<path d="M66.5853 406.547V376.801H185.074V400.598H155.824V406.547H66.5853Z" fill="#202B43"/>
<rect x="532.608" y="418.446" width="74.3653" height="40.653" fill="#202B43"/>
<path d="M609.948 462.073V417.454H645.719L658.533 428.837V448.746L645.719 462.073H609.948Z" fill="#182338"/>
<path fill-rule="evenodd" clip-rule="evenodd" d="M636.918 440.259L643.462 433.715L640.276 430.542L633.745 437.087L627.002 430.344L623.829 433.517L630.572 440.259L623.829 447.002L627.002 450.175L633.745 443.432L640.487 450.175L643.66 447.002L636.918 440.259Z" fill="#343F57"/>
<rect x="581.193" y="345.072" width="47.5938" height="69.4076" fill="#202B43"/>
<rect x="553.43" y="386.716" width="53.543" height="31.7292" fill="#202B43"/>
<rect x="522.693" y="273.681" width="90.2299" height="21.8138" fill="#202B43"/>
<rect x="612.922" y="273.681" width="23.7969" height="37.6784" fill="#202B43"/>
<rect x="581.193" y="293.512" width="31.7292" height="45.6107" fill="#202B43"/>
<rect x="589.125" y="339.123" width="12.89" height="5.94922" fill="#202B43"/>
<path d="M84.433 144.781V121.976H101.289L101.785 173.536H58.6531V178.494H64.6023V194.358H106.247V126.934H202.426V153.705H215.316V191.384H194.494V235.011H147.891L131.806 255.834H80.4669V214.189H33.8646V178.494H41.7969V173.536H33.8646V144.781H84.433Z" fill="#202B43"/>
<rect x="103.272" y="255.834" width="23.7969" height="6.94076" fill="#202B43"/>
<path d="M140.951 262.774V300.453L131.035 311.36H101.289L92.3654 291.529V313.343H28.907V269.715H89.3908V274.673H92.3654V262.774H140.951Z" fill="#202B43"/>
<rect x="181.604" y="121.976" width="17.8477" height="4.95769" fill="#202B43"/>
<rect x="161.773" y="235.011" width="18.8392" height="2.97461" fill="#202B43"/>
<rect x="153.841" y="237.986" width="37.6784" height="41.6446" fill="#202B43"/>
<rect x="530.625" y="265.749" width="15.8646" height="7.9323" fill="#202B43"/>
<rect x="274.808" y="279.63" width="4.95769" height="19.8307" fill="#202B43"/>
<path d="M267.867 321.275V276.656H305.546L319.427 286.571V312.351L306.537 321.275H267.867Z" fill="#182338"/>
<rect x="606.973" y="432.327" width="2.97461" height="17.8477" fill="#202B43"/>
<rect x="374.953" y="355.483" width="5.94922" height="12.89" fill="#202B43"/>
<rect x="380.903" y="347.055" width="55.5261" height="35.6953" fill="#202B43"/>
<rect x="469.149" y="358.953" width="29.7461" height="0.991537" fill="#182338"/>
<rect x="453.285" y="408.53" width="28.7546" height="9.91537" fill="#202B43"/>
<rect x="453.285" y="418.446" width="43.6276" height="40.653" fill="#202B43"/>
<rect x="553.43" y="386.716" width="8.92383" height="8.92383" fill="#273552"/>
<rect x="553.43" y="395.64" width="3.96615" height="3.96615" fill="#273552"/>
<path fill-rule="evenodd" clip-rule="evenodd" d="M434.446 157.671L456.26 135.858H496.913V153.705H578.219V201.299H559.38V223.113H578.219V265.749H525.667V251.867H492.947V285.58H454.277L435.933 292.025L401.229 291.529L401.725 273.681V252.859H378.92V187.417H416.598V201.299H426.513V187.417H448.327V180.477H434.446L434.446 157.671ZM442.378 199.316H451.302V223.113H396.767V217.659H442.378V199.316Z" fill="#202B43"/>
<rect x="474.107" y="206.257" width="13.8815" height="10.9069" fill="#273552"/>
<rect x="509.802" y="197.333" width="11.8984" height="19.8307" fill="#273552"/>
<rect x="521.701" y="197.333" width="9.91537" height="10.9069" fill="#273552"/>
<rect x="570.286" y="229.062" width="7.9323" height="7.9323" fill="#273552"/>
<rect x="570.286" y="236.994" width="7.9323" height="7.9323" fill="#273552"/>
<rect x="515.752" y="153.705" width="56.5176" height="0.991537" fill="#131C2E"/>
<rect x="569.295" y="256.825" width="8.92383" height="8.92383" fill="#273552"/>
<rect x="560.371" y="256.825" width="8.92383" height="8.92383" fill="#273552"/>
<rect x="484.023" y="251.867" width="8.92383" height="8.92383" fill="#273552"/>
<rect x="106.247" y="180.477" width="12.89" height="11.8984" fill="#273552"/>
<rect x="80.4669" y="221.13" width="9.91537" height="25.78" fill="#273552"/>
<rect x="184.578" y="223.113" width="9.91537" height="11.8984" fill="#273552"/>
<path fill-rule="evenodd" clip-rule="evenodd" d="M123.103 445.217C126.389 445.217 129.052 442.554 129.052 439.268C129.052 435.982 126.389 433.319 123.103 433.319C119.817 433.319 117.154 435.982 117.154 439.268C117.154 442.554 119.817 445.217 123.103 445.217ZM123.103 455.133C131.865 455.133 138.968 448.03 138.968 439.268C138.968 430.506 131.865 423.403 123.103 423.403C114.341 423.403 107.238 430.506 107.238 439.268C107.238 448.03 114.341 455.133 123.103 455.133Z" fill="#273552"/>
<rect x="128.061" y="163.621" width="45.6107" height="16.8561" fill="#273552"/>
<rect x="139.959" y="180.477" width="24.7884" height="10.9069" fill="#273552"/>
<rect x="128.061" y="162.629" width="14.8731" height="18.8392" fill="#273552"/>
<rect x="164.747" y="153.705" width="8.92383" height="8.92383" fill="#273552"/>
<path fill-rule="evenodd" clip-rule="evenodd" d="M296.82 298.47L303.364 291.926L300.179 288.753L293.647 295.297L286.905 288.554L283.732 291.727L290.474 298.47L283.732 305.212L286.905 308.385L293.647 301.643L300.39 308.385L303.563 305.212L296.82 298.47Z" fill="#343F57"/>
<path d="M394.784 271.215C395.613 271.215 396.284 270.544 396.284 269.715C396.284 268.887 395.613 268.215 394.784 268.215V271.215ZM359.089 269.715V268.215C358.26 268.215 357.589 268.887 357.589 269.715H359.089ZM359.089 300.949V302.449C359.917 302.449 360.589 301.777 360.589 300.949H359.089ZM322.829 299.888C322.243 300.474 322.243 301.423 322.829 302.009L332.375 311.555C332.96 312.141 333.91 312.141 334.496 311.555C335.082 310.969 335.082 310.02 334.496 309.434L326.011 300.949L334.496 292.463C335.082 291.877 335.082 290.928 334.496 290.342C333.91 289.756 332.96 289.756 332.375 290.342L322.829 299.888ZM394.784 268.215H359.089V271.215H394.784V268.215ZM357.589 269.715V300.949H360.589V269.715H357.589ZM359.089 299.449H323.889V302.449H359.089V299.449Z" fill="#343F57"/>
<path d="M18 291.529V290.029C17.1716 290.029 16.5 290.701 16.5 291.529H18ZM18 549.329H16.5C16.5 550.157 17.1716 550.829 18 550.829V549.329ZM689.271 549.329V550.829C690.099 550.829 690.771 550.157 690.771 549.329H689.271ZM668.875 442.669C668.289 443.255 668.289 444.205 668.875 444.791L678.421 454.337C679.007 454.922 679.957 454.922 680.542 454.337C681.128 453.751 681.128 452.801 680.542 452.215L672.057 443.73L680.542 435.245C681.128 434.659 681.128 433.709 680.542 433.123C679.957 432.538 679.007 432.538 678.421 433.123L668.875 442.669ZM268.363 550.829C269.192 550.829 269.863 550.157 269.863 549.329C269.863 548.5 269.192 547.829 268.363 547.829V550.829ZM540.54 547.829C539.712 547.829 539.04 548.5 539.04 549.329C539.04 550.157 539.712 550.829 540.54 550.829V547.829ZM689.271 443.73H690.771C690.771 442.901 690.099 442.23 689.271 442.23V443.73ZM16.5 291.529V549.329H19.5V291.529H16.5ZM18 293.029H23.9492V290.029H18V293.029ZM18 550.829H268.363V547.829H18V550.829ZM540.54 550.829H689.271V547.829H540.54V550.829ZM690.771 549.329V443.73H687.771V549.329H690.771ZM689.271 442.23H669.936V445.23H689.271V442.23Z" fill="url(#paint0_linear)"/>
<path fill-rule="evenodd" clip-rule="evenodd" d="M166.731 463.065H309.512V451.166H335.292V504.214L349.173 510.659L360.08 512.642L367.021 518.095L379.415 518.591L388.339 526.027L397.759 527.019L415.606 519.582L419.077 522.557L436.429 512.146L437.916 507.684L452.293 504.214H483.031H532.608V552.303L489.476 593.452L468.158 619.728L453.781 630.635L434.446 668.313L432.958 694.093L426.513 695.58L422.051 705H388.835L363.055 682.69L349.173 652.944L354.131 638.567L325.872 610.308L303.067 566.681L281.253 524.54L278.774 491.819H166.731V463.065ZM314.965 519.582L329.838 520.574L377.928 544.867L384.373 539.909L411.145 542.884L420.564 538.917L429.488 537.926L446.84 525.532L463.696 522.557L474.603 527.019L483.031 541.892L481.048 546.354L473.611 560.236L457.747 580.562L437.916 600.889L437.42 608.325L418.085 628.156L412.136 637.575L403.212 641.542L371.979 623.694L360.576 600.889L320.915 556.765L314.965 519.582Z" fill="#202B43"/>
<rect x="232.172" y="459.099" width="33.7123" height="3.96615" fill="#202B43"/>
<rect x="451.302" y="205.265" width="22.8054" height="13.8815" fill="#343F57"/>
<rect x="426.513" y="223.113" width="9.91537" height="17.8477" fill="#343F57"/>
<defs>
<linearGradient id="paint0_linear" x1="18" y1="578.576" x2="674.398" y2="578.576" gradientUnits="userSpaceOnUse">
<stop stop-color="#343F57"/>
<stop offset="0.628501" stop-color="#343F57" stop-opacity="0.5"/>
<stop offset="1" stop-color="#343F57"/>
</linearGradient>
</defs>
</svg>
