<svg xmlns="http://www.w3.org/2000/svg" viewBox="0 0 1920 1080" width="1920" height="1080">
	<defs>
		<clipPath clipPathUnits="userSpaceOnUse" id="cp1">
			<path d="M1278.98 279.15L1423.56 279.15C1427.03 279.15 1429.83 281.95 1429.83 285.42L1429.83 367.46C1429.83 370.93 1427.03 373.73 1423.56 373.73L1278.98 373.73C1275.51 373.73 1272.71 370.93 1272.71 367.46L1272.71 285.42C1272.71 281.95 1275.51 279.15 1278.98 279.15Z" />
		</clipPath>
		<clipPath clipPathUnits="userSpaceOnUse" id="cp2">
			<path d="M560.5 208.98L680.68 208.98C684.15 208.98 686.95 211.78 686.95 215.25L686.95 347.63C686.95 351.1 684.15 353.9 680.68 353.9L560.5 353.9C557.04 353.9 554.24 351.1 554.24 347.63L554.24 215.25C554.24 211.78 557.04 208.98 560.5 208.98Z" />
		</clipPath>
	</defs>
	<style>
		tspan { white-space:pre }
		.shp0 { fill: #7986a3 } 
		.shp1 { opacity: 0.075;fill: #4d5f83;stroke: #4d5f83;stroke-width: 2.507 } 
		.shp2 { fill: #4d5f83 } 
		.shp3 { fill: #e5ebef } 
		.shp4 { fill: #24e8cc } 
		.shp5 { fill: #f44348 } 
	</style>
	<path id="Layer" fill-rule="evenodd" class="shp0" d="M1013.26 730.68L1013.26 720.15L1015.35 720.15L1018.4 726.98L1018.43 726.98L1021.48 720.15L1023.59 720.15L1023.59 730.68L1021.6 730.68L1021.6 724.21L1021.57 724.21L1018.58 730.68L1018.25 730.68L1015.26 724.21L1015.23 724.21L1015.23 730.68L1013.26 730.68ZM1025.84 730.68L1025.84 722.71L1027.8 722.71L1027.8 730.68L1025.84 730.68ZM1025.84 721.55L1025.84 719.7L1027.8 719.7L1027.8 721.55L1025.84 721.55ZM1034.96 730.68L1034.96 729.91L1034.93 729.91C1034.88 729.98 1034.81 730.07 1034.71 730.18C1034.62 730.29 1034.39 730.44 1034.02 730.63C1033.66 730.81 1033.26 730.9 1032.83 730.9C1031.78 730.9 1030.93 730.52 1030.3 729.76C1029.68 729 1029.37 727.98 1029.37 726.69C1029.37 725.4 1029.71 724.38 1030.39 723.62C1031.07 722.86 1031.87 722.48 1032.8 722.48C1033.22 722.48 1033.6 722.57 1033.93 722.74C1034.27 722.9 1034.5 723.06 1034.62 723.22L1034.81 723.47L1034.84 723.47L1034.84 719.7L1036.8 719.7L1036.8 730.68L1034.96 730.68ZM1034.84 727.41L1034.84 725.96C1034.84 725.47 1034.69 725.07 1034.38 724.74C1034.08 724.41 1033.66 724.24 1033.13 724.24C1032.56 724.24 1032.11 724.45 1031.79 724.86C1031.48 725.27 1031.32 725.88 1031.32 726.69C1031.32 727.49 1031.48 728.11 1031.79 728.53C1032.11 728.94 1032.56 729.14 1033.13 729.14C1033.66 729.14 1034.08 728.98 1034.38 728.65C1034.69 728.31 1034.84 727.9 1034.84 727.41ZM1044.84 730.68L1044.84 722.03L1041.76 722.03L1041.76 720.15L1049.95 720.15L1049.95 722.03L1046.87 722.03L1046.87 730.68L1044.84 730.68ZM1055.84 729.79C1055.14 730.53 1054.25 730.9 1053.16 730.9C1052.08 730.9 1051.19 730.53 1050.49 729.79C1049.78 729.05 1049.43 728.02 1049.43 726.69C1049.43 725.39 1049.79 724.36 1050.52 723.61C1051.24 722.86 1052.12 722.48 1053.16 722.48C1054.21 722.48 1055.09 722.86 1055.81 723.61C1056.53 724.36 1056.89 725.39 1056.89 726.69C1056.89 728.02 1056.54 729.05 1055.84 729.79ZM1051.84 728.51C1052.16 728.93 1052.6 729.14 1053.16 729.14C1053.72 729.14 1054.16 728.93 1054.49 728.51C1054.81 728.08 1054.97 727.47 1054.97 726.69C1054.97 725.91 1054.8 725.31 1054.47 724.89C1054.15 724.46 1053.71 724.24 1053.16 724.24C1052.61 724.24 1052.17 724.45 1051.84 724.87C1051.52 725.29 1051.36 725.9 1051.36 726.69C1051.36 727.48 1051.52 728.09 1051.84 728.51ZM1058.48 734.06L1058.48 722.71L1060.34 722.71L1060.34 723.47L1060.37 723.47C1060.39 723.44 1060.42 723.41 1060.45 723.37C1060.48 723.32 1060.55 723.24 1060.67 723.13C1060.8 723.02 1060.94 722.92 1061.09 722.83C1061.25 722.74 1061.45 722.66 1061.7 722.59C1061.96 722.52 1062.23 722.48 1062.52 722.48C1063.47 722.48 1064.29 722.86 1064.99 723.62C1065.7 724.38 1066.06 725.4 1066.06 726.69C1066.06 728 1065.72 729.02 1065.04 729.77C1064.35 730.53 1063.53 730.9 1062.55 730.9C1062.26 730.9 1061.99 730.87 1061.74 730.8C1061.5 730.73 1061.3 730.65 1061.16 730.56C1061 730.46 1060.87 730.36 1060.76 730.27C1060.65 730.17 1060.57 730.09 1060.52 730.02L1060.46 729.91L1060.43 729.91L1060.43 734.06L1058.48 734.06ZM1060.43 725.87L1060.43 727.51C1060.43 727.97 1060.59 728.36 1060.9 728.68C1061.21 728.99 1061.63 729.14 1062.15 729.14C1062.72 729.14 1063.19 728.93 1063.55 728.51C1063.92 728.09 1064.1 727.48 1064.1 726.69C1064.1 725.9 1063.92 725.29 1063.56 724.87C1063.2 724.45 1062.73 724.24 1062.15 724.24C1061.63 724.24 1061.21 724.4 1060.9 724.72C1060.59 725.03 1060.43 725.41 1060.43 725.87Z" />
	<path id="Layer" fill-rule="evenodd" class="shp0" d="M1200.39 658.98L1199.79 657.25L1195.77 657.25L1195.17 658.98L1193.15 658.98L1196.96 648.45L1198.69 648.45L1202.48 658.98L1200.39 658.98ZM1197.77 651.46L1196.34 655.57L1199.22 655.57L1197.8 651.46L1197.77 651.46ZM1207.52 658.98L1207.52 648.45L1209.55 648.45L1209.55 657.1L1213.89 657.1L1213.89 658.98L1207.52 658.98ZM1221.05 658.1C1220.34 658.84 1219.45 659.21 1218.37 659.21C1217.29 659.21 1216.39 658.84 1215.69 658.1C1214.99 657.35 1214.64 656.32 1214.64 655C1214.64 653.69 1215 652.67 1215.72 651.91C1216.44 651.16 1217.33 650.79 1218.37 650.79C1219.41 650.79 1220.3 651.16 1221.02 651.91C1221.74 652.67 1222.1 653.69 1222.1 655C1222.1 656.32 1221.75 657.35 1221.05 658.1ZM1217.05 656.82C1217.37 657.24 1217.81 657.45 1218.37 657.45C1218.93 657.45 1219.37 657.24 1219.69 656.82C1220.01 656.39 1220.17 655.78 1220.17 655C1220.17 654.21 1220.01 653.61 1219.68 653.19C1219.36 652.76 1218.92 652.55 1218.37 652.55C1217.82 652.55 1217.38 652.76 1217.05 653.18C1216.73 653.6 1216.56 654.21 1216.56 655C1216.56 655.79 1216.73 656.4 1217.05 656.82ZM1223.68 658.98L1223.68 648L1225.64 648L1225.64 651.78L1225.67 651.78C1225.69 651.75 1225.72 651.71 1225.75 651.67C1225.78 651.62 1225.85 651.54 1225.97 651.43C1226.1 651.32 1226.24 651.22 1226.38 651.13C1226.53 651.04 1226.72 650.96 1226.95 650.89C1227.19 650.82 1227.44 650.79 1227.7 650.79C1228.68 650.79 1229.5 651.18 1230.14 651.96C1230.79 652.73 1231.12 653.74 1231.12 655C1231.12 656.28 1230.8 657.3 1230.17 658.07C1229.55 658.83 1228.71 659.21 1227.66 659.21C1227.22 659.21 1226.83 659.13 1226.48 658.97C1226.13 658.8 1225.89 658.63 1225.76 658.47L1225.55 658.22L1225.52 658.22L1225.52 658.98L1223.68 658.98ZM1225.64 654.26L1225.64 655.72C1225.64 656.2 1225.79 656.61 1226.09 656.95C1226.4 657.28 1226.82 657.45 1227.35 657.45C1227.93 657.45 1228.37 657.24 1228.68 656.83C1229 656.41 1229.16 655.8 1229.16 655C1229.16 654.19 1229 653.57 1228.68 653.16C1228.37 652.75 1227.93 652.55 1227.35 652.55C1226.82 652.55 1226.4 652.71 1226.09 653.04C1225.79 653.37 1225.64 653.78 1225.64 654.26ZM1232.69 658.98L1232.69 648L1234.64 648L1234.64 651.78L1234.67 651.78C1234.69 651.75 1234.72 651.71 1234.75 651.67C1234.78 651.62 1234.85 651.54 1234.97 651.43C1235.11 651.32 1235.24 651.22 1235.38 651.13C1235.53 651.04 1235.72 650.96 1235.95 650.89C1236.19 650.82 1236.44 650.79 1236.7 650.79C1237.69 650.79 1238.5 651.18 1239.14 651.96C1239.79 652.73 1240.12 653.74 1240.12 655C1240.12 656.28 1239.8 657.3 1239.17 658.07C1238.55 658.83 1237.71 659.21 1236.66 659.21C1236.23 659.21 1235.84 659.13 1235.49 658.97C1235.13 658.8 1234.9 658.63 1234.76 658.47L1234.55 658.22L1234.52 658.22L1234.52 658.98L1232.69 658.98ZM1234.64 654.26L1234.64 655.72C1234.64 656.2 1234.79 656.61 1235.09 656.95C1235.41 657.28 1235.83 657.45 1236.36 657.45C1236.93 657.45 1237.37 657.24 1237.68 656.83C1238 656.41 1238.16 655.8 1238.16 655C1238.16 654.19 1238 653.57 1237.68 653.16C1237.37 652.75 1236.93 652.55 1236.36 652.55C1235.83 652.55 1235.41 652.71 1235.09 653.04C1234.79 653.37 1234.64 653.78 1234.64 654.26ZM1242.02 662.37L1243.61 658.59L1240.42 651.01L1242.41 651.01L1244.47 656.41L1244.5 656.41L1246.56 651.01L1248.54 651.01L1243.96 662.37L1242.02 662.37Z" />
	<path id="Layer" fill-rule="evenodd" class="shp0" d="M1264.13 527.8L1263.53 526.07L1259.52 526.07L1258.91 527.8L1256.9 527.8L1260.7 517.27L1262.43 517.27L1266.22 527.8L1264.13 527.8ZM1261.52 520.28L1260.09 524.38L1262.96 524.38L1261.55 520.28L1261.52 520.28ZM1271.26 527.8L1271.26 517.27L1273.35 517.27L1276.4 524.1L1276.43 524.1L1279.49 517.27L1281.59 517.27L1281.59 527.8L1279.61 527.8L1279.61 521.33L1279.58 521.33L1276.58 527.8L1276.25 527.8L1273.26 521.33L1273.23 521.33L1273.23 527.8L1271.26 527.8ZM1288.39 527.8L1288.39 527.03L1288.36 527.03C1288.34 527.06 1288.31 527.1 1288.28 527.15C1288.25 527.19 1288.18 527.27 1288.06 527.38C1287.94 527.49 1287.8 527.59 1287.65 527.68C1287.5 527.77 1287.29 527.85 1287.03 527.92C1286.77 527.99 1286.49 528.02 1286.19 528.02C1285.23 528.02 1284.51 527.8 1284.03 527.35C1283.55 526.88 1283.32 526.32 1283.32 525.66C1283.32 524.97 1283.52 524.44 1283.93 524.08C1284.35 523.72 1285.04 523.42 1286.03 523.18C1286.94 522.96 1287.51 522.78 1287.74 522.65C1287.97 522.52 1288.09 522.34 1288.09 522.1C1288.09 521.86 1287.97 521.66 1287.74 521.5C1287.52 521.33 1287.18 521.25 1286.73 521.25C1286.2 521.25 1285.82 521.37 1285.59 521.62C1285.36 521.85 1285.18 522.16 1285.05 522.56L1283.42 521.89C1283.61 521.21 1283.98 520.67 1284.54 520.25C1285.09 519.82 1285.81 519.6 1286.7 519.6C1287.67 519.6 1288.47 519.86 1289.09 520.37C1289.72 520.88 1290.03 521.67 1290.03 522.74L1290.03 527.8L1288.39 527.8ZM1286.42 524.53C1285.92 524.65 1285.58 524.8 1285.42 524.97C1285.27 525.13 1285.2 525.31 1285.2 525.53C1285.2 526.07 1285.59 526.34 1286.37 526.34C1286.96 526.34 1287.4 526.23 1287.69 526.01C1288 525.78 1288.15 525.49 1288.15 525.17L1288.15 523.78L1288.12 523.78C1288.08 523.86 1288.03 523.93 1287.98 523.98C1287.94 524.02 1287.79 524.09 1287.53 524.2C1287.27 524.3 1286.9 524.41 1286.42 524.53ZM1291.98 527.8L1291.98 519.82L1293.94 519.82L1293.94 527.8L1291.98 527.8ZM1291.98 518.67L1291.98 516.82L1293.94 516.82L1293.94 518.67L1291.98 518.67ZM1296.04 527.8L1296.04 519.82L1297.92 519.82L1297.92 520.59L1297.95 520.59C1298.17 520.31 1298.47 520.08 1298.85 519.89C1299.23 519.7 1299.63 519.6 1300.05 519.6C1300.93 519.6 1301.63 519.87 1302.13 520.4C1302.63 520.92 1302.88 521.64 1302.88 522.58L1302.88 527.8L1300.92 527.8L1300.92 523.06C1300.92 522.51 1300.82 522.1 1300.61 521.83C1300.4 521.55 1300.04 521.41 1299.53 521.41C1299.04 521.41 1298.67 521.55 1298.4 521.83C1298.13 522.1 1297.99 522.46 1297.99 522.92L1297.99 527.8L1296.04 527.8Z" />
	<path id="Layer" fill-rule="evenodd" class="shp0" d="M1341.17 257.8L1340.57 256.07L1336.55 256.07L1335.95 257.8L1333.93 257.8L1337.74 247.27L1339.47 247.27L1343.26 257.8L1341.17 257.8ZM1338.55 250.28L1337.12 254.38L1340 254.38L1338.58 250.28L1338.55 250.28ZM1348.3 257.8L1348.3 247.27L1352.57 247.27C1353.65 247.27 1354.52 247.57 1355.19 248.19C1355.86 248.79 1356.19 249.6 1356.19 250.62C1356.19 251.38 1355.99 252.03 1355.59 252.56C1355.2 253.09 1354.66 253.47 1353.97 253.69L1356.21 257.8L1354.01 257.8L1351.89 253.89L1350.33 253.89L1350.33 257.8L1348.3 257.8ZM1350.33 252.13L1352.4 252.13C1353.56 252.13 1354.13 251.62 1354.13 250.62C1354.13 249.61 1353.56 249.1 1352.4 249.1L1350.33 249.1L1350.33 252.13ZM1362.25 257.8L1362.25 257.03L1362.22 257.03C1362.2 257.06 1362.18 257.1 1362.15 257.15C1362.12 257.19 1362.04 257.27 1361.92 257.38C1361.8 257.49 1361.66 257.59 1361.51 257.68C1361.36 257.77 1361.16 257.85 1360.9 257.92C1360.64 257.99 1360.36 258.02 1360.05 258.02C1359.09 258.02 1358.37 257.8 1357.89 257.35C1357.42 256.88 1357.18 256.32 1357.18 255.66C1357.18 254.97 1357.39 254.44 1357.8 254.08C1358.21 253.72 1358.91 253.42 1359.89 253.18C1360.8 252.96 1361.37 252.78 1361.6 252.65C1361.83 252.52 1361.95 252.34 1361.95 252.1C1361.95 251.86 1361.83 251.66 1361.6 251.5C1361.38 251.33 1361.05 251.25 1360.6 251.25C1360.07 251.25 1359.68 251.37 1359.45 251.62C1359.22 251.85 1359.04 252.16 1358.91 252.56L1357.29 251.89C1357.48 251.21 1357.85 250.67 1358.4 250.25C1358.95 249.82 1359.67 249.6 1360.57 249.6C1361.54 249.6 1362.34 249.86 1362.96 250.37C1363.58 250.88 1363.89 251.67 1363.89 252.74L1363.89 257.8L1362.25 257.8ZM1360.28 254.53C1359.78 254.65 1359.45 254.8 1359.29 254.97C1359.14 255.13 1359.06 255.31 1359.06 255.53C1359.06 256.07 1359.45 256.34 1360.24 256.34C1360.83 256.34 1361.27 256.23 1361.56 256.01C1361.86 255.78 1362.01 255.49 1362.01 255.17L1362.01 253.78L1361.98 253.78C1361.94 253.86 1361.9 253.93 1361.85 253.98C1361.81 254.02 1361.65 254.09 1361.39 254.2C1361.13 254.3 1360.76 254.41 1360.28 254.53ZM1366.25 257.8L1366.25 251.48L1365.02 251.48L1365.02 249.82L1366.3 249.82L1366.3 248.7C1366.3 248.02 1366.47 247.53 1366.82 247.25C1367.18 246.96 1367.71 246.82 1368.39 246.82L1369.95 246.82L1369.95 248.55L1368.79 248.55C1368.55 248.55 1368.38 248.6 1368.28 248.7C1368.19 248.79 1368.15 248.95 1368.15 249.18L1368.15 249.82L1370.16 249.82L1370.16 251.48L1368.21 251.48L1368.21 257.8L1366.25 257.8ZM1371.63 254.95L1371.63 251.48L1370.4 251.48L1370.4 249.82L1371.67 249.82L1371.67 247.87L1373.52 247.87L1373.52 249.82L1375.54 249.82L1375.54 251.48L1373.55 251.48L1373.55 254.77C1373.55 255.19 1373.62 255.49 1373.76 255.66C1373.9 255.83 1374.19 255.92 1374.62 255.92L1375.27 255.92L1375.27 257.8L1374.44 257.8C1373.37 257.8 1372.63 257.57 1372.23 257.12C1371.83 256.67 1371.63 255.95 1371.63 254.95ZM1382.21 255.04L1383.58 256.25C1382.77 257.43 1381.67 258.02 1380.29 258.02C1379.17 258.02 1378.27 257.64 1377.56 256.88C1376.86 256.11 1376.51 255.08 1376.51 253.81C1376.51 252.54 1376.86 251.52 1377.55 250.76C1378.25 249.98 1379.13 249.6 1380.2 249.6C1381.26 249.6 1382.13 249.98 1382.81 250.76C1383.51 251.52 1383.85 252.54 1383.85 253.81L1383.85 254.4L1378.5 254.4C1378.53 255.01 1378.69 255.48 1378.99 255.81C1379.3 256.13 1379.72 256.29 1380.26 256.29C1380.71 256.29 1381.08 256.18 1381.37 255.96C1381.67 255.73 1381.95 255.42 1382.21 255.04ZM1378.5 252.94L1381.96 252.94C1381.91 252.43 1381.73 252.03 1381.43 251.75C1381.13 251.46 1380.72 251.31 1380.2 251.31C1379.72 251.31 1379.32 251.47 1379.01 251.78C1378.71 252.09 1378.54 252.48 1378.5 252.94ZM1385.43 257.8L1385.43 249.82L1387.28 249.82L1387.28 250.67L1387.3 250.67C1387.46 250.37 1387.68 250.13 1387.97 249.95C1388.27 249.77 1388.59 249.68 1388.94 249.68C1389.19 249.68 1389.44 249.73 1389.67 249.82L1389.37 251.72C1389.15 251.64 1388.94 251.6 1388.75 251.6C1387.84 251.6 1387.38 252.21 1387.38 253.42L1387.38 257.8L1385.43 257.8ZM1390.35 255.17L1392.11 254.71C1392.25 255.83 1392.84 256.38 1393.9 256.38C1394.38 256.38 1394.76 256.31 1395.04 256.16C1395.33 256 1395.47 255.78 1395.47 255.49C1395.47 255.26 1395.37 255.1 1395.14 254.98C1394.92 254.86 1394.46 254.7 1393.76 254.5C1393.57 254.45 1393.42 254.41 1393.32 254.38C1392.4 254.12 1391.73 253.82 1391.29 253.46C1390.86 253.1 1390.65 252.63 1390.65 252.04C1390.65 251.37 1390.91 250.8 1391.44 250.32C1391.99 249.84 1392.72 249.6 1393.66 249.6C1395.44 249.6 1396.56 250.38 1397.01 251.95L1395.38 252.44C1395.24 252.06 1395.04 251.76 1394.78 251.54C1394.53 251.32 1394.16 251.21 1393.67 251.21C1393.29 251.21 1392.98 251.28 1392.75 251.43C1392.53 251.57 1392.42 251.75 1392.42 251.95C1392.42 252.17 1392.55 252.34 1392.81 252.47C1393.08 252.59 1393.75 252.8 1394.81 253.1C1395.75 253.35 1396.38 253.67 1396.71 254.07C1397.05 254.45 1397.22 254.94 1397.22 255.54C1397.22 256.18 1396.94 256.76 1396.38 257.27C1395.83 257.77 1395.02 258.02 1393.97 258.02C1392.87 258.02 1392.02 257.75 1391.41 257.2C1390.82 256.63 1390.47 255.96 1390.35 255.17Z" />
	<path id="Layer" fill-rule="evenodd" class="shp0" d="M1172.03 257.8L1171.43 256.07L1167.42 256.07L1166.82 257.8L1164.8 257.8L1168.6 247.27L1170.33 247.27L1174.13 257.8L1172.03 257.8ZM1169.42 250.28L1167.99 254.38L1170.86 254.38L1169.45 250.28L1169.42 250.28ZM1180.46 257.8L1178.41 247.27L1180.47 247.27L1181.82 254.43L1181.87 254.43L1184.29 247.27L1185.31 247.27L1187.74 254.43L1187.78 254.43L1189.13 247.27L1191.15 247.27L1189.1 257.8L1187 257.8L1184.83 251.25L1184.74 251.25L1182.56 257.8L1180.46 257.8ZM1192.66 257.8L1192.66 249.82L1194.61 249.82L1194.61 257.8L1192.66 257.8ZM1192.66 248.67L1192.66 246.82L1194.61 246.82L1194.61 248.67L1192.66 248.67ZM1196.71 257.8L1196.71 249.82L1198.59 249.82L1198.59 250.59L1198.62 250.59C1198.84 250.31 1199.14 250.08 1199.52 249.89C1199.9 249.7 1200.31 249.6 1200.73 249.6C1201.61 249.6 1202.3 249.87 1202.8 250.4C1203.3 250.92 1203.55 251.64 1203.55 252.58L1203.55 257.8L1201.6 257.8L1201.6 253.06C1201.6 252.51 1201.49 252.1 1201.28 251.83C1201.07 251.55 1200.71 251.41 1200.2 251.41C1199.72 251.41 1199.34 251.55 1199.07 251.83C1198.8 252.1 1198.67 252.46 1198.67 252.92L1198.67 257.8L1196.71 257.8ZM1210.65 257.8L1210.65 257.03L1210.62 257.03C1210.57 257.1 1210.5 257.19 1210.4 257.3C1210.31 257.41 1210.07 257.56 1209.7 257.75C1209.34 257.93 1208.95 258.02 1208.52 258.02C1207.46 258.02 1206.62 257.64 1205.99 256.88C1205.37 256.12 1205.06 255.1 1205.06 253.81C1205.06 252.52 1205.4 251.5 1206.08 250.74C1206.76 249.98 1207.56 249.6 1208.49 249.6C1208.91 249.6 1209.28 249.68 1209.61 249.86C1209.95 250.02 1210.18 250.18 1210.31 250.34L1210.5 250.59L1210.53 250.59L1210.53 246.82L1212.49 246.82L1212.49 257.8L1210.65 257.8ZM1210.53 254.53L1210.53 253.07C1210.53 252.59 1210.38 252.19 1210.06 251.86C1209.76 251.52 1209.35 251.36 1208.82 251.36C1208.24 251.36 1207.8 251.57 1207.48 251.98C1207.17 252.39 1207.01 253 1207.01 253.81C1207.01 254.61 1207.17 255.22 1207.48 255.65C1207.8 256.06 1208.24 256.26 1208.82 256.26C1209.35 256.26 1209.76 256.1 1210.06 255.77C1210.38 255.42 1210.53 255.01 1210.53 254.53ZM1220.47 256.91C1219.76 257.65 1218.87 258.02 1217.79 258.02C1216.71 258.02 1215.82 257.65 1215.11 256.91C1214.41 256.17 1214.06 255.13 1214.06 253.81C1214.06 252.51 1214.42 251.48 1215.14 250.73C1215.86 249.98 1216.75 249.6 1217.79 249.6C1218.83 249.6 1219.72 249.98 1220.44 250.73C1221.16 251.48 1221.52 252.51 1221.52 253.81C1221.52 255.13 1221.17 256.17 1220.47 256.91ZM1216.47 255.63C1216.79 256.05 1217.23 256.26 1217.79 256.26C1218.35 256.26 1218.79 256.05 1219.11 255.63C1219.43 255.2 1219.6 254.59 1219.6 253.81C1219.6 253.03 1219.43 252.43 1219.1 252.01C1218.78 251.57 1218.34 251.36 1217.79 251.36C1217.24 251.36 1216.8 251.57 1216.47 251.99C1216.14 252.41 1215.98 253.02 1215.98 253.81C1215.98 254.6 1216.14 255.21 1216.47 255.63ZM1224.26 257.8L1222.5 249.82L1224.41 249.82L1225.47 255.15L1225.51 255.15L1227.29 249.82L1229.06 249.82L1230.7 255.13L1230.73 255.13L1231.93 249.82L1233.81 249.82L1231.9 257.8L1229.98 257.8L1228.16 252.07L1228.13 252.07L1226.16 257.8L1224.26 257.8Z" />
	<path id="Layer" fill-rule="evenodd" class="shp0" d="M1112.77 305.08L1112.17 303.35L1108.15 303.35L1107.55 305.08L1105.53 305.08L1109.34 294.56L1111.07 294.56L1114.86 305.08L1112.77 305.08ZM1110.15 297.56L1108.72 301.67L1111.6 301.67L1110.18 297.56L1110.15 297.56ZM1123.87 305.31C1122.51 305.31 1121.41 304.84 1120.56 303.91C1119.71 302.97 1119.29 301.55 1119.29 299.66C1119.29 297.99 1119.74 296.69 1120.63 295.74C1121.53 294.8 1122.61 294.33 1123.85 294.33C1124.91 294.33 1125.82 294.65 1126.56 295.29C1127.31 295.94 1127.76 296.81 1127.91 297.91L1125.88 298.24C1125.63 296.89 1124.96 296.21 1123.87 296.21C1123.17 296.21 1122.59 296.51 1122.11 297.11C1121.62 297.72 1121.38 298.56 1121.38 299.66C1121.38 300.94 1121.61 301.89 1122.08 302.51C1122.55 303.12 1123.14 303.43 1123.87 303.43C1124.52 303.43 1125.03 303.25 1125.4 302.87C1125.78 302.5 1125.97 301.98 1125.97 301.31L1124.02 301.31L1124.02 299.58L1127.91 299.58L1127.91 300.98C1127.91 302.31 1127.54 303.37 1126.78 304.15C1126.03 304.92 1125.06 305.31 1123.87 305.31ZM1134.11 305.08L1134.11 304.32L1134.08 304.32C1134.06 304.35 1134.04 304.39 1134.01 304.44C1133.98 304.48 1133.9 304.55 1133.78 304.66C1133.66 304.77 1133.53 304.87 1133.38 304.96C1133.23 305.05 1133.02 305.14 1132.76 305.21C1132.5 305.28 1132.22 305.31 1131.92 305.31C1130.95 305.31 1130.23 305.08 1129.75 304.63C1129.28 304.17 1129.04 303.61 1129.04 302.95C1129.04 302.26 1129.25 301.73 1129.66 301.37C1130.07 301.01 1130.77 300.71 1131.75 300.47C1132.66 300.25 1133.24 300.07 1133.47 299.94C1133.7 299.81 1133.81 299.63 1133.81 299.38C1133.81 299.14 1133.7 298.94 1133.47 298.78C1133.25 298.62 1132.91 298.54 1132.46 298.54C1131.93 298.54 1131.55 298.66 1131.32 298.9C1131.09 299.13 1130.9 299.45 1130.77 299.85L1129.15 299.17C1129.34 298.5 1129.71 297.95 1130.26 297.53C1130.81 297.1 1131.54 296.89 1132.43 296.89C1133.4 296.89 1134.2 297.14 1134.82 297.65C1135.44 298.17 1135.75 298.96 1135.75 300.03L1135.75 305.08L1134.11 305.08ZM1132.14 301.82C1131.64 301.94 1131.31 302.09 1131.15 302.26C1131 302.42 1130.93 302.6 1130.93 302.81C1130.93 303.35 1131.32 303.63 1132.1 303.63C1132.69 303.63 1133.13 303.52 1133.42 303.3C1133.72 303.06 1133.87 302.78 1133.87 302.45L1133.87 301.07L1133.84 301.07C1133.8 301.15 1133.76 301.21 1133.71 301.27C1133.67 301.3 1133.52 301.38 1133.26 301.49C1133 301.59 1132.62 301.7 1132.14 301.82ZM1137.71 305.08L1137.71 297.11L1139.56 297.11L1139.56 297.95L1139.59 297.95C1139.74 297.65 1139.96 297.41 1140.25 297.23C1140.55 297.05 1140.88 296.96 1141.23 296.96C1141.48 296.96 1141.72 297.01 1141.95 297.11L1141.65 299.01C1141.43 298.93 1141.22 298.89 1141.03 298.89C1140.12 298.89 1139.66 299.49 1139.66 300.71L1139.66 305.08L1137.71 305.08ZM1148.3 305.08L1148.3 304.32L1148.27 304.32C1148.22 304.39 1148.14 304.48 1148.04 304.59C1147.95 304.7 1147.72 304.85 1147.35 305.04C1146.99 305.22 1146.59 305.31 1146.16 305.31C1145.11 305.31 1144.27 304.93 1143.64 304.17C1143.02 303.41 1142.7 302.38 1142.7 301.1C1142.7 299.81 1143.04 298.78 1143.73 298.03C1144.41 297.27 1145.21 296.89 1146.13 296.89C1146.55 296.89 1146.93 296.97 1147.26 297.14C1147.6 297.3 1147.83 297.46 1147.95 297.62L1148.15 297.88L1148.18 297.88L1148.18 294.1L1150.13 294.1L1150.13 305.08L1148.3 305.08ZM1148.18 301.82L1148.18 300.36C1148.18 299.88 1148.02 299.47 1147.71 299.14C1147.41 298.81 1147 298.65 1146.46 298.65C1145.89 298.65 1145.45 298.85 1145.13 299.26C1144.82 299.68 1144.66 300.29 1144.66 301.1C1144.66 301.9 1144.82 302.51 1145.13 302.93C1145.45 303.35 1145.89 303.55 1146.46 303.55C1147 303.55 1147.41 303.39 1147.71 303.05C1148.02 302.71 1148.18 302.3 1148.18 301.82ZM1157.41 302.33L1158.78 303.53C1157.96 304.72 1156.87 305.31 1155.48 305.31C1154.37 305.31 1153.46 304.93 1152.76 304.17C1152.06 303.39 1151.71 302.37 1151.71 301.1C1151.71 299.83 1152.05 298.81 1152.75 298.05C1153.45 297.27 1154.33 296.89 1155.39 296.89C1156.46 296.89 1157.33 297.27 1158.01 298.05C1158.7 298.81 1159.05 299.83 1159.05 301.1L1159.05 301.69L1153.69 301.69C1153.72 302.3 1153.89 302.77 1154.19 303.1C1154.5 303.42 1154.92 303.58 1155.45 303.58C1155.9 303.58 1156.28 303.47 1156.57 303.25C1156.87 303.02 1157.15 302.71 1157.41 302.33ZM1153.69 300.23L1157.15 300.23C1157.1 299.72 1156.93 299.32 1156.63 299.04C1156.33 298.75 1155.91 298.6 1155.39 298.6C1154.91 298.6 1154.52 298.76 1154.2 299.07C1153.9 299.38 1153.73 299.77 1153.69 300.23ZM1160.62 305.08L1160.62 297.11L1162.5 297.11L1162.5 297.88L1162.53 297.88C1162.75 297.6 1163.05 297.36 1163.43 297.17C1163.81 296.98 1164.22 296.89 1164.64 296.89C1165.52 296.89 1166.21 297.15 1166.71 297.68C1167.22 298.21 1167.47 298.93 1167.47 299.87L1167.47 305.08L1165.51 305.08L1165.51 300.35C1165.51 299.8 1165.4 299.38 1165.19 299.11C1164.98 298.83 1164.62 298.69 1164.11 298.69C1163.63 298.69 1163.25 298.83 1162.98 299.11C1162.71 299.38 1162.58 299.75 1162.58 300.21L1162.58 305.08L1160.62 305.08Z" />
	<path id="Layer" fill-rule="evenodd" class="shp0" d="M1090.41 495.76L1090.41 485.23L1092.5 485.23L1095.55 492.06L1095.58 492.06L1098.64 485.23L1100.74 485.23L1100.74 495.76L1098.76 495.76L1098.76 489.29L1098.73 489.29L1095.73 495.76L1095.4 495.76L1092.41 489.29L1092.38 489.29L1092.38 495.76L1090.41 495.76ZM1102.99 495.76L1102.99 487.79L1104.95 487.79L1104.95 495.76L1102.99 495.76ZM1102.99 486.63L1102.99 484.78L1104.95 484.78L1104.95 486.63L1102.99 486.63ZM1112.12 495.76L1112.12 495L1112.09 495C1112.04 495.07 1111.96 495.16 1111.86 495.27C1111.77 495.38 1111.54 495.53 1111.17 495.72C1110.81 495.9 1110.41 495.99 1109.98 495.99C1108.93 495.99 1108.09 495.61 1107.45 494.85C1106.83 494.08 1106.52 493.06 1106.52 491.78C1106.52 490.48 1106.86 489.46 1107.54 488.71C1108.23 487.95 1109.03 487.57 1109.95 487.57C1110.37 487.57 1110.75 487.65 1111.08 487.82C1111.42 487.98 1111.65 488.14 1111.77 488.3L1111.97 488.56L1112 488.56L1112 484.78L1113.95 484.78L1113.95 495.76L1112.12 495.76ZM1112 492.5L1112 491.04C1112 490.56 1111.84 490.15 1111.53 489.82C1111.23 489.49 1110.81 489.33 1110.28 489.33C1109.71 489.33 1109.26 489.53 1108.94 489.94C1108.63 490.35 1108.48 490.97 1108.48 491.78C1108.48 492.58 1108.63 493.19 1108.94 493.61C1109.26 494.02 1109.71 494.23 1110.28 494.23C1110.81 494.23 1111.23 494.06 1111.53 493.73C1111.84 493.39 1112 492.98 1112 492.5ZM1125.99 491.58L1128.1 492.05C1127.93 493.27 1127.48 494.23 1126.76 494.94C1126.04 495.64 1125.1 495.99 1123.93 495.99C1122.58 495.99 1121.48 495.52 1120.62 494.59C1119.78 493.65 1119.36 492.23 1119.36 490.33C1119.36 488.67 1119.81 487.37 1120.7 486.42C1121.6 485.48 1122.67 485.01 1123.92 485.01C1125 485.01 1125.92 485.35 1126.67 486.03C1127.43 486.7 1127.87 487.61 1127.99 488.75L1125.98 489.07C1125.89 488.43 1125.68 487.91 1125.35 487.51C1125.02 487.09 1124.54 486.89 1123.93 486.89C1123.24 486.89 1122.65 487.19 1122.17 487.79C1121.69 488.39 1121.45 489.24 1121.45 490.33C1121.45 491.62 1121.68 492.57 1122.14 493.19C1122.61 493.8 1123.21 494.11 1123.93 494.11C1125.11 494.11 1125.8 493.27 1125.99 491.58ZM1129.61 492.93L1129.61 487.79L1131.56 487.79L1131.56 492.72C1131.56 493.23 1131.66 493.58 1131.85 493.79C1132.04 494 1132.34 494.11 1132.76 494.11C1133.24 494.11 1133.62 493.99 1133.91 493.75C1134.2 493.5 1134.34 493.11 1134.34 492.57L1134.34 487.79L1136.3 487.79L1136.3 495.76L1134.43 495.76L1134.43 495L1134.4 495C1133.91 495.66 1133.22 495.99 1132.33 495.99C1131.41 495.99 1130.72 495.71 1130.27 495.16C1129.83 494.61 1129.61 493.87 1129.61 492.93ZM1138.41 495.76L1138.41 484.78L1140.36 484.78L1140.36 488.56L1140.39 488.56C1140.41 488.53 1140.44 488.49 1140.47 488.45C1140.5 488.4 1140.57 488.32 1140.69 488.21C1140.82 488.1 1140.96 488 1141.1 487.91C1141.25 487.82 1141.44 487.74 1141.67 487.67C1141.91 487.6 1142.16 487.57 1142.42 487.57C1143.4 487.57 1144.22 487.96 1144.86 488.74C1145.51 489.51 1145.84 490.52 1145.84 491.78C1145.84 493.06 1145.52 494.08 1144.89 494.85C1144.27 495.61 1143.43 495.99 1142.38 495.99C1141.95 495.99 1141.55 495.91 1141.2 495.75C1140.85 495.58 1140.61 495.41 1140.48 495.25L1140.27 495L1140.24 495L1140.24 495.76L1138.41 495.76ZM1140.36 491.04L1140.36 492.5C1140.36 492.98 1140.51 493.39 1140.81 493.73C1141.12 494.06 1141.55 494.23 1142.08 494.23C1142.65 494.23 1143.09 494.02 1143.4 493.61C1143.72 493.19 1143.88 492.58 1143.88 491.78C1143.88 490.97 1143.72 490.35 1143.4 489.94C1143.09 489.53 1142.65 489.33 1142.08 489.33C1141.55 489.33 1141.12 489.49 1140.81 489.82C1140.51 490.15 1140.36 490.56 1140.36 491.04ZM1147.41 495.76L1147.41 484.78L1149.36 484.78L1149.36 488.56L1149.4 488.56C1149.41 488.53 1149.44 488.49 1149.47 488.45C1149.5 488.4 1149.58 488.32 1149.7 488.21C1149.83 488.1 1149.96 488 1150.1 487.91C1150.25 487.82 1150.44 487.74 1150.67 487.67C1150.91 487.6 1151.16 487.57 1151.43 487.57C1152.41 487.57 1153.22 487.96 1153.86 488.74C1154.51 489.51 1154.84 490.52 1154.84 491.78C1154.84 493.06 1154.52 494.08 1153.89 494.85C1153.27 495.61 1152.43 495.99 1151.38 495.99C1150.95 495.99 1150.56 495.91 1150.21 495.75C1149.86 495.58 1149.62 495.41 1149.49 495.25L1149.27 495L1149.25 495L1149.25 495.76L1147.41 495.76ZM1149.36 491.04L1149.36 492.5C1149.36 492.98 1149.52 493.39 1149.82 493.73C1150.13 494.06 1150.55 494.23 1151.08 494.23C1151.65 494.23 1152.09 494.02 1152.4 493.61C1152.72 493.19 1152.89 492.58 1152.89 491.78C1152.89 490.97 1152.72 490.35 1152.4 489.94C1152.09 489.53 1151.65 489.33 1151.08 489.33C1150.55 489.33 1150.13 489.49 1149.82 489.82C1149.52 490.15 1149.36 490.56 1149.36 491.04ZM1156.74 499.15L1158.33 495.37L1155.14 487.79L1157.13 487.79L1159.19 493.19L1159.22 493.19L1161.28 487.79L1163.26 487.79L1158.68 499.15L1156.74 499.15Z" />
	<path id="Layer" fill-rule="evenodd" class="shp0" d="M1000.39 579.66L1000.39 569.13L1002.48 569.13L1005.54 575.96L1005.57 575.96L1008.62 569.13L1010.73 569.13L1010.73 579.66L1008.74 579.66L1008.74 573.19L1008.71 573.19L1005.72 579.66L1005.39 579.66L1002.39 573.19L1002.36 573.19L1002.36 579.66L1000.39 579.66ZM1012.98 579.66L1012.98 571.69L1014.93 571.69L1014.93 579.66L1012.98 579.66ZM1012.98 570.53L1012.98 568.68L1014.93 568.68L1014.93 570.53L1012.98 570.53ZM1022.1 579.66L1022.1 578.89L1022.07 578.89C1022.02 578.96 1021.94 579.05 1021.84 579.17C1021.75 579.28 1021.52 579.43 1021.15 579.62C1020.79 579.8 1020.4 579.89 1019.96 579.89C1018.91 579.89 1018.07 579.51 1017.44 578.74C1016.82 577.98 1016.5 576.96 1016.5 575.68C1016.5 574.38 1016.85 573.36 1017.53 572.61C1018.21 571.84 1019.01 571.46 1019.93 571.46C1020.35 571.46 1020.73 571.55 1021.06 571.72C1021.4 571.88 1021.63 572.04 1021.75 572.2L1021.95 572.46L1021.98 572.46L1021.98 568.68L1023.94 568.68L1023.94 579.66L1022.1 579.66ZM1021.98 576.4L1021.98 574.94C1021.98 574.46 1021.82 574.05 1021.51 573.72C1021.21 573.39 1020.8 573.22 1020.26 573.22C1019.69 573.22 1019.25 573.43 1018.93 573.84C1018.62 574.25 1018.46 574.86 1018.46 575.68C1018.46 576.48 1018.62 577.09 1018.93 577.51C1019.25 577.92 1019.69 578.13 1020.26 578.13C1020.8 578.13 1021.21 577.96 1021.51 577.63C1021.82 577.29 1021.98 576.88 1021.98 576.4ZM1035.98 575.48L1038.08 575.95C1037.91 577.17 1037.47 578.13 1036.74 578.83C1036.02 579.54 1035.08 579.89 1033.92 579.89C1032.56 579.89 1031.46 579.42 1030.61 578.49C1029.77 577.55 1029.34 576.13 1029.34 574.23C1029.34 572.57 1029.79 571.26 1030.68 570.32C1031.59 569.38 1032.66 568.91 1033.9 568.91C1034.98 568.91 1035.9 569.25 1036.65 569.93C1037.42 570.6 1037.86 571.51 1037.98 572.65L1035.96 572.97C1035.87 572.33 1035.66 571.81 1035.33 571.4C1035 570.99 1034.53 570.79 1033.92 570.79C1033.22 570.79 1032.64 571.09 1032.16 571.69C1031.68 572.29 1031.43 573.14 1031.43 574.23C1031.43 575.51 1031.67 576.47 1032.13 577.09C1032.6 577.7 1033.19 578.01 1033.92 578.01C1035.1 578.01 1035.79 577.16 1035.98 575.48ZM1044.21 579.66L1044.21 578.89L1044.18 578.89C1044.16 578.92 1044.13 578.96 1044.1 579.01C1044.07 579.05 1044 579.13 1043.88 579.24C1043.76 579.35 1043.62 579.45 1043.47 579.54C1043.32 579.63 1043.11 579.71 1042.85 579.78C1042.59 579.85 1042.31 579.89 1042.01 579.89C1041.05 579.89 1040.33 579.66 1039.85 579.21C1039.38 578.75 1039.14 578.19 1039.14 577.53C1039.14 576.83 1039.34 576.31 1039.76 575.95C1040.17 575.59 1040.86 575.28 1041.85 575.04C1042.76 574.82 1043.33 574.65 1043.56 574.52C1043.79 574.39 1043.91 574.2 1043.91 573.96C1043.91 573.72 1043.79 573.52 1043.56 573.36C1043.34 573.2 1043 573.12 1042.55 573.12C1042.02 573.12 1041.64 573.24 1041.41 573.48C1041.18 573.71 1041 574.03 1040.87 574.43L1039.24 573.75C1039.43 573.08 1039.81 572.53 1040.36 572.11C1040.91 571.68 1041.63 571.46 1042.52 571.46C1043.5 571.46 1044.29 571.72 1044.91 572.23C1045.54 572.74 1045.85 573.53 1045.85 574.61L1045.85 579.66L1044.21 579.66ZM1042.24 576.4C1041.74 576.52 1041.41 576.66 1041.25 576.83C1041.09 576.99 1041.02 577.18 1041.02 577.39C1041.02 577.93 1041.41 578.2 1042.19 578.2C1042.78 578.2 1043.23 578.09 1043.52 577.87C1043.82 577.64 1043.97 577.36 1043.97 577.03L1043.97 575.64L1043.94 575.64C1043.9 575.73 1043.85 575.79 1043.8 575.84C1043.76 575.88 1043.61 575.96 1043.35 576.07C1043.09 576.17 1042.72 576.28 1042.24 576.4ZM1048.21 576.82L1048.21 573.34L1046.98 573.34L1046.98 571.69L1048.25 571.69L1048.25 569.73L1050.1 569.73L1050.1 571.69L1052.12 571.69L1052.12 573.34L1050.13 573.34L1050.13 576.64C1050.13 577.06 1050.2 577.35 1050.34 577.53C1050.49 577.7 1050.77 577.78 1051.2 577.78L1051.85 577.78L1051.85 579.66L1051.02 579.66C1049.95 579.66 1049.21 579.44 1048.81 578.98C1048.41 578.53 1048.21 577.81 1048.21 576.82ZM1054.78 579.66L1053.02 571.69L1054.93 571.69L1055.98 577.01L1056.03 577.01L1057.8 571.69L1059.58 571.69L1061.21 577L1061.25 577L1062.45 571.69L1064.33 571.69L1062.42 579.66L1060.49 579.66L1058.67 573.93L1058.64 573.93L1056.67 579.66L1054.78 579.66ZM1070.22 579.66L1070.22 578.89L1070.19 578.89C1070.17 578.92 1070.14 578.96 1070.12 579.01C1070.09 579.05 1070.01 579.13 1069.89 579.24C1069.77 579.35 1069.63 579.45 1069.48 579.54C1069.33 579.63 1069.13 579.71 1068.87 579.78C1068.61 579.85 1068.32 579.89 1068.02 579.89C1067.06 579.89 1066.34 579.66 1065.86 579.21C1065.39 578.75 1065.15 578.19 1065.15 577.53C1065.15 576.83 1065.36 576.31 1065.77 575.95C1066.18 575.59 1066.88 575.28 1067.86 575.04C1068.77 574.82 1069.34 574.65 1069.57 574.52C1069.8 574.39 1069.92 574.2 1069.92 573.96C1069.92 573.72 1069.8 573.52 1069.57 573.36C1069.35 573.2 1069.02 573.12 1068.57 573.12C1068.04 573.12 1067.65 573.24 1067.42 573.48C1067.19 573.71 1067.01 574.03 1066.88 574.43L1065.26 573.75C1065.45 573.08 1065.82 572.53 1066.37 572.11C1066.92 571.68 1067.64 571.46 1068.54 571.46C1069.51 571.46 1070.3 571.72 1070.93 572.23C1071.55 572.74 1071.86 573.53 1071.86 574.61L1071.86 579.66L1070.22 579.66ZM1068.25 576.4C1067.75 576.52 1067.42 576.66 1067.26 576.83C1067.11 576.99 1067.03 577.18 1067.03 577.39C1067.03 577.93 1067.42 578.2 1068.2 578.2C1068.8 578.2 1069.24 578.09 1069.53 577.87C1069.83 577.64 1069.98 577.36 1069.98 577.03L1069.98 575.64L1069.95 575.64C1069.91 575.73 1069.86 575.79 1069.81 575.84C1069.77 575.88 1069.62 575.96 1069.36 576.07C1069.1 576.17 1068.73 576.28 1068.25 576.4ZM1073.81 579.66L1073.81 568.68L1075.85 568.68L1075.85 579.66L1073.81 579.66ZM1077.96 579.66L1077.96 568.68L1079.91 568.68L1079.91 574.98L1079.94 574.98L1082.85 571.69L1085.3 571.69L1082.42 574.92L1085.55 579.66L1083.39 579.66L1080.95 576.02L1080.92 576.02L1079.91 577.16L1079.91 579.66L1077.96 579.66Z" />
	<path id="Layer" fill-rule="evenodd" class="shp0" d="M914.78 535.42L914.78 524.9L916.87 524.9L919.93 531.72L919.96 531.72L923.01 524.9L925.12 524.9L925.12 535.42L923.13 535.42L923.13 528.96L923.1 528.96L920.11 535.42L919.78 535.42L916.78 528.96L916.76 528.96L916.76 535.42L914.78 535.42ZM927.37 535.42L927.37 527.45L929.32 527.45L929.32 535.42L927.37 535.42ZM927.37 526.29L927.37 524.44L929.32 524.44L929.32 526.29L927.37 526.29ZM936.49 535.42L936.49 534.66L936.46 534.66C936.41 534.73 936.34 534.82 936.24 534.93C936.15 535.04 935.92 535.19 935.54 535.38C935.18 535.56 934.79 535.65 934.36 535.65C933.3 535.65 932.46 535.27 931.83 534.51C931.21 533.74 930.9 532.72 930.9 531.44C930.9 530.14 931.24 529.12 931.92 528.37C932.6 527.61 933.4 527.23 934.33 527.23C934.75 527.23 935.12 527.31 935.45 527.48C935.79 527.64 936.02 527.8 936.15 527.96L936.34 528.22L936.37 528.22L936.37 524.44L938.33 524.44L938.33 535.42L936.49 535.42ZM936.37 532.16L936.37 530.7C936.37 530.22 936.22 529.81 935.9 529.48C935.6 529.15 935.19 528.99 934.66 528.99C934.08 528.99 933.64 529.19 933.32 529.6C933.01 530.01 932.85 530.63 932.85 531.44C932.85 532.24 933.01 532.85 933.32 533.27C933.64 533.68 934.08 533.89 934.66 533.89C935.19 533.89 935.6 533.72 935.9 533.39C936.22 533.05 936.37 532.64 936.37 532.16ZM950.37 531.24L952.47 531.71C952.3 532.93 951.86 533.9 951.14 534.6C950.41 535.3 949.47 535.65 948.31 535.65C946.95 535.65 945.85 535.18 945 534.25C944.16 533.31 943.74 531.89 943.74 529.99C943.74 528.33 944.18 527.03 945.07 526.08C945.98 525.14 947.05 524.67 948.29 524.67C949.38 524.67 950.29 525.01 951.05 525.69C951.81 526.36 952.25 527.27 952.37 528.41L950.35 528.73C950.26 528.09 950.05 527.57 949.72 527.17C949.39 526.75 948.92 526.55 948.31 526.55C947.62 526.55 947.03 526.85 946.55 527.45C946.07 528.05 945.83 528.9 945.83 529.99C945.83 531.28 946.06 532.23 946.52 532.85C946.99 533.46 947.59 533.77 948.31 533.77C949.49 533.77 950.18 532.93 950.37 531.24ZM959.94 534.54C959.24 535.28 958.34 535.65 957.26 535.65C956.18 535.65 955.28 535.28 954.58 534.54C953.88 533.79 953.53 532.76 953.53 531.44C953.53 530.14 953.89 529.11 954.61 528.35C955.34 527.6 956.22 527.23 957.26 527.23C958.3 527.23 959.19 527.6 959.91 528.35C960.63 529.11 960.99 530.14 960.99 531.44C960.99 532.76 960.64 533.79 959.94 534.54ZM955.94 533.26C956.26 533.68 956.7 533.89 957.26 533.89C957.82 533.89 958.26 533.68 958.58 533.26C958.9 532.83 959.06 532.22 959.06 531.44C959.06 530.66 958.9 530.05 958.57 529.63C958.25 529.2 957.81 528.99 957.26 528.99C956.71 528.99 956.27 529.2 955.94 529.62C955.62 530.04 955.46 530.65 955.46 531.44C955.46 532.23 955.62 532.84 955.94 533.26ZM962.5 532.6L962.5 527.45L964.46 527.45L964.46 532.39C964.46 532.89 964.55 533.24 964.74 533.45C964.93 533.66 965.24 533.77 965.66 533.77C966.13 533.77 966.51 533.65 966.8 533.41C967.09 533.16 967.24 532.77 967.24 532.24L967.24 527.45L969.19 527.45L969.19 535.42L967.33 535.42L967.33 534.66L967.3 534.66C966.81 535.32 966.12 535.65 965.22 535.65C964.3 535.65 963.61 535.37 963.16 534.82C962.72 534.27 962.5 533.53 962.5 532.6ZM971.3 535.42L971.3 527.45L973.15 527.45L973.15 528.29L973.18 528.29C973.33 527.99 973.55 527.75 973.84 527.57C974.14 527.39 974.47 527.3 974.82 527.3C975.07 527.3 975.31 527.35 975.54 527.45L975.24 529.35C975.02 529.27 974.81 529.23 974.62 529.23C973.71 529.23 973.26 529.83 973.26 531.05L973.26 535.42L971.3 535.42ZM977.38 532.58L977.38 529.11L976.14 529.11L976.14 527.45L977.42 527.45L977.42 525.5L979.27 525.5L979.27 527.45L981.29 527.45L981.29 529.11L979.3 529.11L979.3 532.4C979.3 532.82 979.37 533.12 979.51 533.29C979.65 533.46 979.94 533.54 980.37 533.54L981.02 533.54L981.02 535.42L980.19 535.42C979.12 535.42 978.38 535.2 977.98 534.75C977.58 534.3 977.38 533.57 977.38 532.58ZM983.4 538.81L985 535.03L981.81 527.45L983.8 527.45L985.85 532.85L985.88 532.85L987.95 527.45L989.93 527.45L985.34 538.81L983.4 538.81ZM995.45 535.42L995.45 534.66L995.42 534.66C995.4 534.69 995.38 534.73 995.35 534.78C995.32 534.82 995.24 534.89 995.12 535C995 535.11 994.87 535.21 994.71 535.3C994.56 535.39 994.36 535.47 994.1 535.54C993.84 535.61 993.56 535.65 993.26 535.65C992.29 535.65 991.57 535.42 991.09 534.97C990.62 534.51 990.38 533.95 990.38 533.29C990.38 532.6 990.59 532.07 991 531.71C991.41 531.35 992.11 531.05 993.09 530.81C994 530.59 994.57 530.41 994.81 530.28C995.04 530.15 995.15 529.96 995.15 529.72C995.15 529.48 995.04 529.28 994.81 529.12C994.58 528.96 994.25 528.88 993.8 528.88C993.27 528.88 992.89 529 992.65 529.24C992.42 529.47 992.24 529.79 992.11 530.19L990.49 529.51C990.68 528.84 991.05 528.29 991.6 527.87C992.15 527.44 992.87 527.23 993.77 527.23C994.74 527.23 995.54 527.48 996.16 527.99C996.78 528.5 997.09 529.3 997.09 530.37L997.09 535.42L995.45 535.42ZM993.48 532.16C992.98 532.28 992.65 532.43 992.49 532.6C992.34 532.76 992.26 532.94 992.26 533.15C992.26 533.69 992.65 533.97 993.44 533.97C994.03 533.97 994.47 533.85 994.76 533.63C995.06 533.4 995.21 533.12 995.21 532.79L995.21 531.41L995.18 531.41C995.14 531.49 995.1 531.55 995.05 531.6C995.01 531.64 994.85 531.72 994.59 531.83C994.33 531.93 993.96 532.04 993.48 532.16ZM999.05 535.42L999.05 527.45L1000.9 527.45L1000.9 528.29L1000.93 528.29C1001.08 527.99 1001.3 527.75 1001.59 527.57C1001.89 527.39 1002.21 527.3 1002.57 527.3C1002.82 527.3 1003.06 527.35 1003.29 527.45L1002.99 529.35C1002.77 529.27 1002.56 529.23 1002.37 529.23C1001.46 529.23 1001 529.83 1001 531.05L1001 535.42L999.05 535.42ZM1009.64 535.42L1009.64 534.66L1009.61 534.66C1009.56 534.73 1009.48 534.82 1009.38 534.93C1009.29 535.04 1009.06 535.19 1008.69 535.38C1008.33 535.56 1007.93 535.65 1007.5 535.65C1006.45 535.65 1005.61 535.27 1004.98 534.51C1004.35 533.74 1004.04 532.72 1004.04 531.44C1004.04 530.14 1004.38 529.12 1005.07 528.37C1005.75 527.61 1006.55 527.23 1007.47 527.23C1007.89 527.23 1008.27 527.31 1008.6 527.48C1008.94 527.64 1009.17 527.8 1009.29 527.96L1009.49 528.22L1009.52 528.22L1009.52 524.44L1011.47 524.44L1011.47 535.42L1009.64 535.42ZM1009.52 532.16L1009.52 530.7C1009.52 530.22 1009.36 529.81 1009.05 529.48C1008.75 529.15 1008.33 528.99 1007.8 528.99C1007.23 528.99 1006.78 529.19 1006.46 529.6C1006.15 530.01 1006 530.63 1006 531.44C1006 532.24 1006.15 532.85 1006.46 533.27C1006.78 533.68 1007.23 533.89 1007.8 533.89C1008.33 533.89 1008.75 533.72 1009.05 533.39C1009.36 533.05 1009.52 532.64 1009.52 532.16Z" />
	<path id="Layer" fill-rule="evenodd" class="shp0" d="M817.33 568.98L817.33 558.45L819.42 558.45L822.48 565.28L822.51 565.28L825.56 558.45L827.66 558.45L827.66 568.98L825.68 568.98L825.68 562.52L825.65 562.52L822.66 568.98L822.33 568.98L819.33 562.52L819.3 562.52L819.3 568.98L817.33 568.98ZM829.92 568.98L829.92 561.01L831.87 561.01L831.87 568.98L829.92 568.98ZM829.92 559.85L829.92 558L831.87 558L831.87 559.85L829.92 559.85ZM839.04 568.98L839.04 568.22L839.01 568.22C838.96 568.29 838.88 568.38 838.78 568.49C838.69 568.6 838.46 568.75 838.09 568.94C837.73 569.12 837.33 569.21 836.9 569.21C835.85 569.21 835.01 568.83 834.38 568.07C833.75 567.3 833.44 566.28 833.44 565C833.44 563.7 833.78 562.68 834.47 561.93C835.15 561.17 835.95 560.79 836.87 560.79C837.29 560.79 837.67 560.87 838 561.04C838.34 561.2 838.57 561.36 838.69 561.52L838.89 561.78L838.92 561.78L838.92 558L840.87 558L840.87 568.98L839.04 568.98ZM838.92 565.72L838.92 564.26C838.92 563.78 838.76 563.37 838.45 563.04C838.15 562.71 837.74 562.55 837.2 562.55C836.63 562.55 836.19 562.75 835.87 563.16C835.55 563.57 835.4 564.19 835.4 565C835.4 565.8 835.55 566.41 835.87 566.83C836.19 567.24 836.63 567.45 837.2 567.45C837.74 567.45 838.15 567.28 838.45 566.95C838.76 566.61 838.92 566.2 838.92 565.72ZM846.89 568.98L846.89 558.45L848.92 558.45L848.92 567.1L853.26 567.1L853.26 568.98L846.89 568.98ZM854.53 568.98L854.53 561.01L856.49 561.01L856.49 568.98L854.53 568.98ZM854.53 559.85L854.53 558L856.49 558L856.49 559.85L854.53 559.85ZM858.59 568.98L858.59 561.01L860.47 561.01L860.47 561.78L860.5 561.78C860.72 561.5 861.02 561.26 861.4 561.07C861.78 560.88 862.18 560.79 862.6 560.79C863.48 560.79 864.18 561.05 864.68 561.58C865.18 562.1 865.43 562.83 865.43 563.76L865.43 568.98L863.48 568.98L863.48 564.25C863.48 563.69 863.37 563.28 863.16 563.01C862.95 562.73 862.59 562.59 862.08 562.59C861.59 562.59 861.22 562.73 860.95 563.01C860.68 563.28 860.54 563.65 860.54 564.11L860.54 568.98L858.59 568.98ZM867.46 568.98L867.46 558L869.41 558L869.41 564.31L869.44 564.31L872.35 561.01L874.8 561.01L871.93 564.25L875.05 568.98L872.89 568.98L870.45 565.34L870.42 565.34L869.41 566.49L869.41 568.98L867.46 568.98Z" />
	<path id="Layer" fill-rule="evenodd" class="shp0" d="M690.75 617.8L690.75 607.27L695.21 607.27C696.15 607.27 696.89 607.54 697.45 608.09C698.03 608.64 698.31 609.3 698.31 610.1C698.31 610.98 697.93 611.64 697.17 612.1L697.17 612.11C697.62 612.3 697.99 612.61 698.27 613.03C698.56 613.44 698.7 613.94 698.7 614.52C698.7 615.52 698.4 616.32 697.79 616.92C697.17 617.51 696.17 617.8 694.76 617.8L690.75 617.8ZM692.78 615.92L695.23 615.92C696.19 615.92 696.67 615.45 696.67 614.52C696.67 614.09 696.54 613.76 696.28 613.53C696.03 613.28 695.69 613.16 695.24 613.16L692.78 613.16L692.78 615.92ZM692.78 611.51L694.96 611.51C695.37 611.51 695.69 611.41 695.92 611.22C696.16 611.02 696.28 610.73 696.28 610.35C696.28 609.95 696.17 609.65 695.94 609.45C695.71 609.25 695.38 609.15 694.96 609.15L692.78 609.15L692.78 611.51ZM704.27 617.8L704.27 607.27L706.3 607.27L706.3 615.92L710.65 615.92L710.65 617.8L704.27 617.8ZM717.8 616.91C717.1 617.65 716.21 618.02 715.13 618.02C714.04 618.02 713.15 617.65 712.45 616.91C711.75 616.17 711.4 615.13 711.4 613.81C711.4 612.51 711.76 611.48 712.48 610.73C713.2 609.98 714.08 609.6 715.13 609.6C716.17 609.6 717.05 609.98 717.77 610.73C718.49 611.48 718.86 612.51 718.86 613.81C718.86 615.13 718.51 616.17 717.8 616.91ZM713.8 615.63C714.12 616.05 714.57 616.26 715.13 616.26C715.69 616.26 716.13 616.05 716.45 615.63C716.77 615.2 716.93 614.59 716.93 613.81C716.93 613.03 716.77 612.43 716.44 612.01C716.11 611.57 715.68 611.36 715.13 611.36C714.57 611.36 714.13 611.57 713.8 611.99C713.48 612.41 713.32 613.02 713.32 613.81C713.32 614.6 713.48 615.21 713.8 615.63ZM720.44 617.8L720.44 606.82L722.4 606.82L722.4 610.59L722.43 610.59C722.45 610.56 722.47 610.53 722.5 610.49C722.53 610.44 722.61 610.36 722.73 610.25C722.86 610.14 722.99 610.04 723.13 609.95C723.28 609.86 723.48 609.77 723.71 609.7C723.95 609.63 724.2 609.6 724.46 609.6C725.44 609.6 726.25 609.99 726.89 610.77C727.55 611.55 727.87 612.56 727.87 613.81C727.87 615.1 727.56 616.12 726.92 616.88C726.3 617.64 725.47 618.02 724.41 618.02C723.98 618.02 723.59 617.94 723.24 617.78C722.89 617.61 722.65 617.45 722.52 617.29L722.31 617.03L722.28 617.03L722.28 617.8L720.44 617.8ZM722.4 613.07L722.4 614.53C722.4 615.01 722.55 615.42 722.85 615.77C723.16 616.1 723.58 616.26 724.11 616.26C724.68 616.26 725.12 616.06 725.44 615.65C725.76 615.22 725.92 614.61 725.92 613.81C725.92 613 725.76 612.39 725.44 611.98C725.12 611.57 724.68 611.36 724.11 611.36C723.58 611.36 723.16 611.52 722.85 611.86C722.55 612.19 722.4 612.59 722.4 613.07ZM729.45 617.8L729.45 606.82L731.4 606.82L731.4 610.59L731.43 610.59C731.45 610.56 731.48 610.53 731.51 610.49C731.54 610.44 731.61 610.36 731.73 610.25C731.86 610.14 732 610.04 732.14 609.95C732.29 609.86 732.48 609.77 732.71 609.7C732.95 609.63 733.2 609.6 733.46 609.6C734.44 609.6 735.26 609.99 735.9 610.77C736.55 611.55 736.88 612.56 736.88 613.81C736.88 615.1 736.56 616.12 735.93 616.88C735.31 617.64 734.47 618.02 733.42 618.02C732.98 618.02 732.59 617.94 732.24 617.78C731.89 617.61 731.65 617.45 731.52 617.29L731.31 617.03L731.28 617.03L731.28 617.8L729.45 617.8ZM731.4 613.07L731.4 614.53C731.4 615.01 731.55 615.42 731.85 615.77C732.16 616.1 732.58 616.26 733.12 616.26C733.69 616.26 734.13 616.06 734.44 615.65C734.76 615.22 734.92 614.61 734.92 613.81C734.92 613 734.76 612.39 734.44 611.98C734.13 611.57 733.69 611.36 733.12 611.36C732.58 611.36 732.16 611.52 731.85 611.86C731.55 612.19 731.4 612.59 731.4 613.07ZM738.77 621.18L740.37 617.41L737.18 609.82L739.16 609.82L741.22 615.22L741.25 615.22L743.32 609.82L745.3 609.82L740.71 621.18L738.77 621.18Z" />
	<path id="Layer" fill-rule="evenodd" class="shp0" d="M702.63 428.64L702.63 418.12L707.09 418.12C708.02 418.12 708.77 418.39 709.33 418.94C709.91 419.48 710.19 420.15 710.19 420.94C710.19 421.83 709.81 422.49 709.05 422.94L709.05 422.96C709.5 423.15 709.87 423.45 710.15 423.88C710.44 424.29 710.58 424.78 710.58 425.37C710.58 426.37 710.28 427.17 709.66 427.77C709.05 428.35 708.05 428.64 706.64 428.64L702.63 428.64ZM704.66 426.76L707.11 426.76C708.07 426.76 708.55 426.3 708.55 425.37C708.55 424.93 708.42 424.6 708.16 424.37C707.91 424.13 707.56 424.01 707.12 424.01L704.66 424.01L704.66 426.76ZM704.66 422.36L706.84 422.36C707.25 422.36 707.57 422.26 707.8 422.07C708.04 421.87 708.16 421.58 708.16 421.2C708.16 420.8 708.05 420.5 707.81 420.3C707.58 420.1 707.26 420 706.84 420L704.66 420L704.66 422.36ZM716.15 428.64L716.15 418.12L718.24 418.12L721.3 424.94L721.33 424.94L724.38 418.12L726.49 418.12L726.49 428.64L724.5 428.64L724.5 422.18L724.47 422.18L721.48 428.64L721.15 428.64L718.15 422.18L718.12 422.18L718.12 428.64L716.15 428.64ZM733.28 428.64L733.28 427.88L733.25 427.88C733.23 427.91 733.2 427.95 733.17 428C733.14 428.04 733.07 428.11 732.95 428.22C732.83 428.33 732.69 428.43 732.54 428.52C732.39 428.61 732.19 428.69 731.93 428.76C731.67 428.83 731.38 428.87 731.08 428.87C730.12 428.87 729.4 428.64 728.92 428.19C728.45 427.73 728.21 427.17 728.21 426.51C728.21 425.82 728.42 425.29 728.83 424.93C729.24 424.57 729.94 424.27 730.92 424.03C731.83 423.81 732.4 423.63 732.63 423.5C732.86 423.37 732.98 423.18 732.98 422.94C732.98 422.7 732.86 422.5 732.63 422.34C732.41 422.18 732.08 422.1 731.63 422.1C731.09 422.1 730.71 422.22 730.48 422.46C730.25 422.69 730.07 423.01 729.94 423.41L728.32 422.73C728.51 422.06 728.88 421.51 729.43 421.09C729.98 420.66 730.7 420.45 731.6 420.45C732.57 420.45 733.36 420.7 733.99 421.21C734.61 421.72 734.92 422.52 734.92 423.59L734.92 428.64L733.28 428.64ZM731.31 425.38C730.81 425.5 730.48 425.65 730.32 425.82C730.17 425.98 730.09 426.16 730.09 426.37C730.09 426.91 730.48 427.19 731.26 427.19C731.86 427.19 732.3 427.07 732.59 426.85C732.89 426.62 733.04 426.34 733.04 426.01L733.04 424.63L733.01 424.63C732.97 424.71 732.92 424.77 732.87 424.82C732.83 424.86 732.68 424.94 732.42 425.05C732.16 425.15 731.79 425.26 731.31 425.38ZM736.87 428.64L736.87 420.67L738.83 420.67L738.83 428.64L736.87 428.64ZM736.87 419.51L736.87 417.66L738.83 417.66L738.83 419.51L736.87 419.51ZM740.93 428.64L740.93 420.67L742.81 420.67L742.81 421.44L742.84 421.44C743.06 421.16 743.36 420.92 743.74 420.73C744.12 420.54 744.52 420.45 744.94 420.45C745.83 420.45 746.52 420.71 747.02 421.24C747.52 421.77 747.77 422.49 747.77 423.43L747.77 428.64L745.82 428.64L745.82 423.91C745.82 423.36 745.71 422.94 745.5 422.67C745.29 422.39 744.93 422.25 744.42 422.25C743.94 422.25 743.56 422.39 743.29 422.67C743.02 422.94 742.88 423.31 742.88 423.77L742.88 428.64L740.93 428.64Z" />
	<path id="Layer" fill-rule="evenodd" class="shp0" d="M490.14 286.78L490.14 276.25L494.61 276.25C495.54 276.25 496.29 276.53 496.85 277.08C497.42 277.62 497.71 278.29 497.71 279.08C497.71 279.96 497.33 280.63 496.57 281.08L496.57 281.09C497.02 281.29 497.38 281.59 497.66 282.01C497.95 282.42 498.1 282.92 498.1 283.5C498.1 284.5 497.79 285.31 497.18 285.91C496.57 286.49 495.56 286.78 494.16 286.78L490.14 286.78ZM492.17 284.9L494.63 284.9C495.59 284.9 496.07 284.43 496.07 283.5C496.07 283.07 495.94 282.74 495.68 282.51C495.43 282.27 495.08 282.15 494.64 282.15L492.17 282.15L492.17 284.9ZM492.17 280.49L494.36 280.49C494.77 280.49 495.09 280.4 495.32 280.21C495.56 280.01 495.68 279.72 495.68 279.33C495.68 278.93 495.56 278.63 495.33 278.43C495.1 278.23 494.78 278.13 494.36 278.13L492.17 278.13L492.17 280.49ZM503.67 286.78L503.67 276.25L508.14 276.25C509.07 276.25 509.82 276.53 510.38 277.08C510.95 277.62 511.24 278.29 511.24 279.08C511.24 279.96 510.86 280.63 510.09 281.08L510.09 281.09C510.54 281.29 510.91 281.59 511.19 282.01C511.48 282.42 511.63 282.92 511.63 283.5C511.63 284.5 511.32 285.31 510.71 285.91C510.1 286.49 509.09 286.78 507.69 286.78L503.67 286.78ZM505.7 284.9L508.15 284.9C509.12 284.9 509.6 284.43 509.6 283.5C509.6 283.07 509.47 282.74 509.21 282.51C508.96 282.27 508.61 282.15 508.17 282.15L505.7 282.15L505.7 284.9ZM505.7 280.49L507.88 280.49C508.29 280.49 508.61 280.4 508.85 280.21C509.09 280.01 509.21 279.72 509.21 279.33C509.21 278.93 509.09 278.63 508.86 278.43C508.63 278.23 508.3 278.13 507.88 278.13L505.7 278.13L505.7 280.49ZM517.83 286.78L517.83 286.01L517.8 286.01C517.78 286.04 517.76 286.08 517.73 286.13C517.7 286.17 517.62 286.25 517.5 286.36C517.38 286.47 517.24 286.57 517.09 286.66C516.94 286.75 516.74 286.83 516.48 286.9C516.22 286.97 515.94 287.01 515.63 287.01C514.67 287.01 513.95 286.78 513.47 286.33C513 285.87 512.76 285.31 512.76 284.64C512.76 283.95 512.97 283.43 513.38 283.07C513.79 282.7 514.49 282.4 515.47 282.16C516.38 281.94 516.95 281.77 517.18 281.64C517.41 281.5 517.53 281.32 517.53 281.08C517.53 280.84 517.41 280.64 517.18 280.48C516.96 280.32 516.63 280.24 516.18 280.24C515.64 280.24 515.26 280.36 515.03 280.6C514.8 280.83 514.62 281.14 514.49 281.55L512.87 280.87C513.06 280.2 513.43 279.65 513.98 279.23C514.53 278.8 515.25 278.58 516.15 278.58C517.12 278.58 517.92 278.84 518.54 279.35C519.16 279.86 519.47 280.65 519.47 281.73L519.47 286.78L517.83 286.78ZM515.86 283.52C515.36 283.64 515.03 283.78 514.87 283.95C514.72 284.11 514.64 284.3 514.64 284.51C514.64 285.05 515.03 285.32 515.82 285.32C516.41 285.32 516.85 285.21 517.14 284.99C517.44 284.76 517.59 284.48 517.59 284.15L517.59 282.76L517.56 282.76C517.52 282.84 517.47 282.91 517.42 282.96C517.38 283 517.23 283.07 516.97 283.18C516.71 283.28 516.34 283.4 515.86 283.52ZM526.21 283.56L528.06 284.04C527.88 284.99 527.49 285.73 526.89 286.24C526.28 286.75 525.53 287.01 524.61 287.01C523.53 287.01 522.64 286.63 521.94 285.89C521.25 285.15 520.9 284.12 520.9 282.79C520.9 281.48 521.26 280.45 521.97 279.71C522.69 278.96 523.58 278.58 524.63 278.58C525.52 278.58 526.27 278.84 526.87 279.36C527.47 279.89 527.84 280.58 527.98 281.46L526.16 281.8C525.97 280.83 525.46 280.34 524.63 280.34C524.08 280.34 523.64 280.55 523.31 280.97C522.98 281.39 522.82 281.99 522.82 282.79C522.82 283.6 522.98 284.21 523.31 284.63C523.63 285.04 524.07 285.25 524.63 285.25C525.51 285.25 526.04 284.68 526.21 283.56ZM529.56 286.78L529.56 275.8L531.52 275.8L531.52 282.1L531.55 282.1L534.45 278.81L536.9 278.81L534.03 282.04L537.16 286.78L534.99 286.78L532.56 283.14L532.53 283.14L531.52 284.28L531.52 286.78L529.56 286.78Z" />
	<path id="Layer" fill-rule="evenodd" class="shp0" d="M916.2 434.75L916.2 424.22L918.29 424.22L921.34 431.05L921.37 431.05L924.43 424.22L926.53 424.22L926.53 434.75L924.55 434.75L924.55 428.28L924.52 428.28L921.52 434.75L921.19 434.75L918.2 428.28L918.17 428.28L918.17 434.75L916.2 434.75ZM928.78 434.75L928.78 426.77L930.74 426.77L930.74 434.75L928.78 434.75ZM928.78 425.62L928.78 423.77L930.74 423.77L930.74 425.62L928.78 425.62ZM937.9 434.75L937.9 433.98L937.88 433.98C937.82 434.05 937.75 434.14 937.65 434.25C937.56 434.36 937.33 434.51 936.96 434.7C936.6 434.88 936.2 434.97 935.77 434.97C934.72 434.97 933.87 434.59 933.24 433.83C932.62 433.07 932.31 432.04 932.31 430.76C932.31 429.47 932.65 428.44 933.33 427.69C934.01 426.93 934.82 426.55 935.74 426.55C936.16 426.55 936.54 426.63 936.87 426.8C937.21 426.96 937.44 427.12 937.56 427.28L937.75 427.54L937.79 427.54L937.79 423.77L939.74 423.77L939.74 434.75L937.9 434.75ZM937.79 431.48L937.79 430.02C937.79 429.54 937.63 429.14 937.32 428.8C937.02 428.47 936.6 428.31 936.07 428.31C935.5 428.31 935.05 428.51 934.73 428.92C934.42 429.34 934.26 429.95 934.26 430.76C934.26 431.56 934.42 432.17 934.73 432.59C935.05 433.01 935.5 433.21 936.07 433.21C936.6 433.21 937.02 433.05 937.32 432.72C937.63 432.37 937.79 431.96 937.79 431.48ZM945.75 434.75L945.75 424.22L950.22 424.22C951.15 424.22 951.9 424.49 952.46 425.04C953.03 425.59 953.32 426.25 953.32 427.05C953.32 427.93 952.93 428.59 952.17 429.05L952.17 429.06C952.62 429.25 952.99 429.56 953.27 429.98C953.56 430.39 953.71 430.88 953.71 431.47C953.71 432.47 953.4 433.27 952.79 433.87C952.18 434.45 951.17 434.75 949.77 434.75L945.75 434.75ZM947.78 432.87L950.23 432.87C951.2 432.87 951.68 432.4 951.68 431.47C951.68 431.04 951.55 430.7 951.29 430.47C951.04 430.23 950.69 430.11 950.25 430.11L947.78 430.11L947.78 432.87ZM947.78 428.46L949.96 428.46C950.37 428.46 950.69 428.36 950.92 428.17C951.16 427.97 951.29 427.68 951.29 427.3C951.29 426.9 951.17 426.6 950.94 426.4C950.71 426.2 950.38 426.1 949.96 426.1L947.78 426.1L947.78 428.46ZM961.25 433.86C960.55 434.6 959.65 434.97 958.57 434.97C957.49 434.97 956.6 434.6 955.89 433.86C955.19 433.12 954.84 432.08 954.84 430.76C954.84 429.46 955.2 428.43 955.92 427.68C956.65 426.92 957.53 426.55 958.57 426.55C959.61 426.55 960.5 426.92 961.22 427.68C961.94 428.43 962.3 429.46 962.3 430.76C962.3 432.08 961.95 433.12 961.25 433.86ZM957.25 432.58C957.57 433 958.01 433.21 958.57 433.21C959.13 433.21 959.57 433 959.89 432.58C960.22 432.15 960.38 431.54 960.38 430.76C960.38 429.98 960.21 429.38 959.88 428.96C959.56 428.52 959.12 428.31 958.57 428.31C958.02 428.31 957.58 428.52 957.25 428.94C956.93 429.36 956.77 429.97 956.77 430.76C956.77 431.55 956.93 432.16 957.25 432.58ZM964.29 431.9L964.29 428.43L963.06 428.43L963.06 426.77L964.34 426.77L964.34 424.82L966.19 424.82L966.19 426.77L968.2 426.77L968.2 428.43L966.22 428.43L966.22 431.72C966.22 432.14 966.29 432.44 966.43 432.61C966.57 432.78 966.86 432.87 967.29 432.87L967.93 432.87L967.93 434.75L967.11 434.75C966.03 434.75 965.29 434.52 964.9 434.07C964.49 433.62 964.29 432.9 964.29 431.9ZM969.96 431.9L969.96 428.43L968.73 428.43L968.73 426.77L970.01 426.77L970.01 424.82L971.86 424.82L971.86 426.77L973.87 426.77L973.87 428.43L971.89 428.43L971.89 431.72C971.89 432.14 971.96 432.44 972.1 432.61C972.24 432.78 972.52 432.87 972.96 432.87L973.6 432.87L973.6 434.75L972.78 434.75C971.7 434.75 970.96 434.52 970.56 434.07C970.16 433.62 969.96 432.9 969.96 431.9ZM981.25 433.86C980.55 434.6 979.66 434.97 978.58 434.97C977.49 434.97 976.6 434.6 975.9 433.86C975.2 433.12 974.85 432.08 974.85 430.76C974.85 429.46 975.21 428.43 975.93 427.68C976.65 426.92 977.53 426.55 978.58 426.55C979.62 426.55 980.5 426.92 981.22 427.68C981.94 428.43 982.31 429.46 982.31 430.76C982.31 432.08 981.96 433.12 981.25 433.86ZM977.25 432.58C977.57 433 978.02 433.21 978.58 433.21C979.14 433.21 979.58 433 979.9 432.58C980.22 432.15 980.38 431.54 980.38 430.76C980.38 429.98 980.22 429.38 979.89 428.96C979.56 428.52 979.13 428.31 978.58 428.31C978.02 428.31 977.58 428.52 977.25 428.94C976.93 429.36 976.77 429.97 976.77 430.76C976.77 431.55 976.93 432.16 977.25 432.58ZM983.89 434.75L983.89 426.77L985.68 426.77L985.68 427.54L985.71 427.54C985.89 427.26 986.15 427.03 986.49 426.83C986.84 426.64 987.23 426.55 987.64 426.55C988.06 426.55 988.45 426.65 988.82 426.85C989.2 427.04 989.48 427.29 989.67 427.6L989.7 427.6C989.9 427.29 990.18 427.04 990.55 426.85C990.93 426.65 991.33 426.55 991.77 426.55C992.72 426.55 993.48 426.8 994.03 427.3C994.59 427.8 994.87 428.46 994.87 429.29L994.87 434.75L993.08 434.75L993.08 429.69C993.08 429.3 992.97 428.98 992.74 428.73C992.51 428.48 992.17 428.35 991.7 428.35C991.26 428.35 990.92 428.47 990.67 428.7C990.44 428.93 990.33 429.23 990.33 429.59L990.33 434.75L988.54 434.75L988.54 429.69C988.54 429.31 988.42 428.99 988.18 428.74C987.94 428.48 987.6 428.35 987.16 428.35C986.7 428.35 986.36 428.47 986.13 428.7C985.9 428.93 985.79 429.23 985.79 429.59L985.79 434.75L983.89 434.75Z" />
	<path id="Layer" fill-rule="evenodd" class="shp0" d="M955.11 327.97L955.11 317.44L957.2 317.44L960.25 324.27L960.28 324.27L963.33 317.44L965.44 317.44L965.44 327.97L963.45 327.97L963.45 321.5L963.42 321.5L960.43 327.97L960.1 327.97L957.11 321.5L957.08 321.5L957.08 327.97L955.11 327.97ZM967.69 327.97L967.69 319.99L969.65 319.99L969.65 327.97L967.69 327.97ZM967.69 318.84L967.69 316.99L969.65 316.99L969.65 318.84L967.69 318.84ZM976.81 327.97L976.81 327.2L976.78 327.2C976.73 327.27 976.66 327.36 976.56 327.47C976.47 327.58 976.24 327.73 975.87 327.92C975.5 328.1 975.11 328.19 974.68 328.19C973.62 328.19 972.78 327.81 972.15 327.05C971.53 326.29 971.22 325.26 971.22 323.98C971.22 322.69 971.56 321.66 972.24 320.91C972.92 320.15 973.72 319.77 974.65 319.77C975.07 319.77 975.44 319.85 975.77 320.02C976.12 320.18 976.35 320.35 976.47 320.51L976.66 320.76L976.69 320.76L976.69 316.99L978.65 316.99L978.65 327.97L976.81 327.97ZM976.69 324.7L976.69 323.24C976.69 322.76 976.54 322.36 976.23 322.02C975.93 321.69 975.51 321.53 974.98 321.53C974.41 321.53 973.96 321.73 973.64 322.15C973.33 322.56 973.17 323.17 973.17 323.98C973.17 324.78 973.33 325.39 973.64 325.82C973.96 326.23 974.41 326.43 974.98 326.43C975.51 326.43 975.93 326.27 976.23 325.94C976.54 325.59 976.69 325.18 976.69 324.7ZM984.66 327.97L984.66 317.44L988.93 317.44C990 317.44 990.87 317.74 991.55 318.36C992.22 318.96 992.55 319.77 992.55 320.79C992.55 321.81 992.23 322.63 991.58 323.23C990.94 323.83 990.05 324.13 988.93 324.13L986.69 324.13L986.69 327.97L984.66 327.97ZM986.69 322.25L988.9 322.25C989.35 322.25 989.72 322.12 990.01 321.86C990.3 321.59 990.45 321.23 990.45 320.79C990.45 320.28 990.3 319.91 990 319.68C989.71 319.44 989.34 319.32 988.9 319.32L986.69 319.32L986.69 322.25ZM993.69 327.97L993.69 319.99L995.64 319.99L995.64 327.97L993.69 327.97ZM993.69 318.84L993.69 316.99L995.64 316.99L995.64 318.84L993.69 318.84ZM997.29 327.97L997.29 326.33L1001.53 321.83L1001.53 321.8L997.46 321.8L997.46 319.99L1004.03 319.99L1004.03 321.6L999.88 326.06L999.88 326.09L1004.18 326.09L1004.18 327.97L997.29 327.97ZM1005.38 327.97L1005.38 326.33L1009.63 321.83L1009.63 321.8L1005.55 321.8L1005.55 319.99L1012.12 319.99L1012.12 321.6L1007.97 326.06L1007.97 326.09L1012.27 326.09L1012.27 327.97L1005.38 327.97ZM1018.47 327.97L1018.47 327.2L1018.44 327.2C1018.42 327.23 1018.39 327.27 1018.37 327.32C1018.34 327.36 1018.26 327.44 1018.14 327.55C1018.02 327.65 1017.88 327.76 1017.73 327.85C1017.58 327.94 1017.38 328.02 1017.12 328.09C1016.86 328.16 1016.57 328.19 1016.27 328.19C1015.31 328.19 1014.59 327.97 1014.11 327.51C1013.64 327.05 1013.4 326.49 1013.4 325.83C1013.4 325.14 1013.61 324.61 1014.02 324.25C1014.43 323.89 1015.13 323.59 1016.11 323.35C1017.02 323.13 1017.59 322.95 1017.82 322.82C1018.05 322.69 1018.17 322.51 1018.17 322.27C1018.17 322.02 1018.05 321.82 1017.82 321.66C1017.6 321.5 1017.27 321.42 1016.82 321.42C1016.29 321.42 1015.9 321.54 1015.67 321.79C1015.44 322.02 1015.26 322.33 1015.13 322.73L1013.51 322.06C1013.7 321.38 1014.07 320.84 1014.62 320.42C1015.17 319.99 1015.89 319.77 1016.79 319.77C1017.76 319.77 1018.55 320.02 1019.18 320.54C1019.8 321.05 1020.11 321.84 1020.11 322.91L1020.11 327.97L1018.47 327.97ZM1016.5 324.7C1016 324.82 1015.67 324.97 1015.51 325.14C1015.36 325.3 1015.28 325.48 1015.28 325.69C1015.28 326.24 1015.67 326.51 1016.45 326.51C1017.05 326.51 1017.49 326.4 1017.78 326.18C1018.08 325.94 1018.23 325.66 1018.23 325.33L1018.23 323.95L1018.2 323.95C1018.16 324.03 1018.11 324.1 1018.06 324.15C1018.02 324.19 1017.87 324.26 1017.61 324.37C1017.35 324.47 1016.98 324.58 1016.5 324.7Z" />
	<path id="Layer" fill-rule="evenodd" class="shp0" d="M850.25 311.19L850.25 300.66L852.34 300.66L855.4 307.49L855.43 307.49L858.48 300.66L860.59 300.66L860.59 311.19L858.6 311.19L858.6 304.72L858.57 304.72L855.58 311.19L855.25 311.19L852.25 304.72L852.22 304.72L852.22 311.19L850.25 311.19ZM862.84 311.19L862.84 303.21L864.79 303.21L864.79 311.19L862.84 311.19ZM862.84 302.06L862.84 300.21L864.79 300.21L864.79 302.06L862.84 302.06ZM871.96 311.19L871.96 310.42L871.93 310.42C871.88 310.49 871.81 310.58 871.71 310.69C871.62 310.8 871.39 310.95 871.01 311.14C870.65 311.32 870.26 311.41 869.83 311.41C868.77 311.41 867.93 311.03 867.3 310.27C866.68 309.51 866.37 308.48 866.37 307.2C866.37 305.91 866.71 304.88 867.39 304.13C868.07 303.37 868.87 302.99 869.8 302.99C870.22 302.99 870.59 303.07 870.92 303.25C871.26 303.41 871.49 303.57 871.62 303.73L871.81 303.98L871.84 303.98L871.84 300.21L873.8 300.21L873.8 311.19L871.96 311.19ZM871.84 307.92L871.84 306.46C871.84 305.98 871.69 305.58 871.37 305.24C871.07 304.91 870.66 304.75 870.13 304.75C869.55 304.75 869.11 304.96 868.79 305.37C868.48 305.78 868.32 306.39 868.32 307.2C868.32 308 868.48 308.61 868.79 309.04C869.11 309.45 869.55 309.65 870.13 309.65C870.66 309.65 871.07 309.49 871.37 309.16C871.69 308.81 871.84 308.4 871.84 307.92ZM879.81 311.19L879.81 300.66L881.9 300.66L884.95 307.49L884.98 307.49L888.03 300.66L890.14 300.66L890.14 311.19L888.15 311.19L888.15 304.72L888.12 304.72L885.13 311.19L884.8 311.19L881.81 304.72L881.78 304.72L881.78 311.19L879.81 311.19ZM896.93 311.19L896.93 310.42L896.9 310.42C896.88 310.45 896.86 310.49 896.83 310.54C896.8 310.58 896.72 310.66 896.6 310.77C896.48 310.88 896.35 310.98 896.2 311.07C896.05 311.16 895.84 311.24 895.58 311.31C895.32 311.38 895.04 311.41 894.74 311.41C893.78 311.41 893.05 311.19 892.57 310.73C892.1 310.27 891.86 309.71 891.86 309.05C891.86 308.36 892.07 307.83 892.48 307.47C892.89 307.11 893.59 306.81 894.57 306.57C895.48 306.35 896.06 306.17 896.29 306.04C896.52 305.91 896.63 305.73 896.63 305.49C896.63 305.24 896.52 305.05 896.29 304.88C896.07 304.72 895.73 304.64 895.28 304.64C894.75 304.64 894.37 304.76 894.14 305.01C893.9 305.24 893.72 305.55 893.59 305.95L891.97 305.28C892.16 304.6 892.53 304.06 893.08 303.64C893.63 303.21 894.36 302.99 895.25 302.99C896.22 302.99 897.02 303.25 897.64 303.76C898.26 304.27 898.57 305.06 898.57 306.13L898.57 311.19L896.93 311.19ZM894.96 307.92C894.46 308.04 894.13 308.19 893.97 308.36C893.82 308.52 893.74 308.7 893.74 308.92C893.74 309.46 894.14 309.73 894.92 309.73C895.51 309.73 895.95 309.62 896.24 309.4C896.54 309.17 896.69 308.88 896.69 308.56L896.69 307.17L896.66 307.17C896.62 307.25 896.58 307.32 896.53 307.37C896.49 307.41 896.34 307.48 896.08 307.59C895.81 307.69 895.44 307.8 894.96 307.92ZM900.53 311.19L900.53 303.21L902.38 303.21L902.38 304.06L902.41 304.06C902.56 303.76 902.78 303.52 903.07 303.34C903.37 303.16 903.7 303.07 904.05 303.07C904.3 303.07 904.54 303.12 904.77 303.21L904.47 305.11C904.25 305.03 904.04 304.99 903.85 304.99C902.94 304.99 902.48 305.6 902.48 306.81L902.48 311.19L900.53 311.19ZM906.05 311.19L906.05 300.21L908.01 300.21L908.01 306.51L908.04 306.51L910.94 303.21L913.39 303.21L910.52 306.45L913.65 311.19L911.48 311.19L909.04 307.55L909.01 307.55L908.01 308.69L908.01 311.19L906.05 311.19ZM919.58 308.43L920.95 309.64C920.14 310.82 919.04 311.41 917.66 311.41C916.54 311.41 915.64 311.03 914.93 310.27C914.23 309.5 913.88 308.47 913.88 307.2C913.88 305.93 914.23 304.91 914.92 304.15C915.62 303.37 916.5 302.99 917.57 302.99C918.63 302.99 919.5 303.37 920.18 304.15C920.88 304.91 921.22 305.93 921.22 307.2L921.22 307.79L915.87 307.79C915.9 308.4 916.06 308.87 916.36 309.2C916.67 309.52 917.1 309.68 917.63 309.68C918.08 309.68 918.45 309.57 918.74 309.35C919.04 309.12 919.32 308.81 919.58 308.43ZM915.87 306.33L919.33 306.33C919.28 305.82 919.1 305.42 918.8 305.14C918.5 304.85 918.09 304.7 917.57 304.7C917.09 304.7 916.69 304.86 916.38 305.17C916.08 305.48 915.91 305.87 915.87 306.33ZM923.2 308.34L923.2 304.87L921.97 304.87L921.97 303.21L923.25 303.21L923.25 301.26L925.1 301.26L925.1 303.21L927.11 303.21L927.11 304.87L925.13 304.87L925.13 308.16C925.13 308.58 925.2 308.88 925.34 309.05C925.48 309.22 925.76 309.31 926.2 309.31L926.84 309.31L926.84 311.19L926.01 311.19C924.94 311.19 924.2 310.96 923.8 310.51C923.4 310.06 923.2 309.34 923.2 308.34Z" />
	<path id="Layer" fill-rule="evenodd" class="shp0" d="M1165.67 427.12L1165.06 425.39L1161.05 425.39L1160.45 427.12L1158.43 427.12L1162.24 416.59L1163.97 416.59L1167.76 427.12L1165.67 427.12ZM1163.05 419.6L1161.62 423.7L1164.49 423.7L1163.08 419.6L1163.05 419.6ZM1172.79 427.12L1172.79 416.59L1174.82 416.59L1174.82 425.24L1179.17 425.24L1179.17 427.12L1172.79 427.12ZM1180.44 427.12L1180.44 419.15L1182.4 419.15L1182.4 427.12L1180.44 427.12ZM1180.44 417.99L1180.44 416.14L1182.4 416.14L1182.4 417.99L1180.44 417.99ZM1184.5 427.12L1184.5 419.15L1186.38 419.15L1186.38 419.91L1186.41 419.91C1186.63 419.63 1186.93 419.4 1187.31 419.21C1187.69 419.02 1188.09 418.92 1188.51 418.92C1189.39 418.92 1190.09 419.19 1190.59 419.72C1191.09 420.24 1191.34 420.97 1191.34 421.9L1191.34 427.12L1189.38 427.12L1189.38 422.38C1189.38 421.83 1189.28 421.42 1189.07 421.15C1188.86 420.87 1188.5 420.73 1187.99 420.73C1187.5 420.73 1187.13 420.87 1186.86 421.15C1186.59 421.42 1186.45 421.78 1186.45 422.24L1186.45 427.12L1184.5 427.12ZM1193.37 427.12L1193.37 416.14L1195.32 416.14L1195.32 422.44L1195.35 422.44L1198.26 419.15L1200.71 419.15L1197.83 422.38L1200.96 427.12L1198.8 427.12L1196.36 423.48L1196.33 423.48L1195.32 424.62L1195.32 427.12L1193.37 427.12Z" />
	<path id="Layer" fill-rule="evenodd" class="shp0" d="M1422.2 527.8L1421.59 526.07L1417.58 526.07L1416.98 527.8L1414.96 527.8L1418.77 517.27L1420.5 517.27L1424.29 527.8L1422.2 527.8ZM1419.58 520.28L1418.15 524.38L1421.02 524.38L1419.61 520.28L1419.58 520.28ZM1430.62 527.8L1428.57 517.27L1430.63 517.27L1431.99 524.43L1432.03 524.43L1434.45 517.27L1435.48 517.27L1437.9 524.43L1437.94 524.43L1439.3 517.27L1441.31 517.27L1439.27 527.8L1437.16 527.8L1434.99 521.25L1434.9 521.25L1432.72 527.8L1430.62 527.8ZM1442.82 527.8L1442.82 519.82L1444.78 519.82L1444.78 527.8L1442.82 527.8ZM1442.82 518.67L1442.82 516.82L1444.78 516.82L1444.78 518.67L1442.82 518.67ZM1446.87 527.8L1446.87 519.82L1448.75 519.82L1448.75 520.59L1448.78 520.59C1449 520.31 1449.3 520.08 1449.69 519.89C1450.07 519.7 1450.47 519.6 1450.89 519.6C1451.77 519.6 1452.46 519.87 1452.97 520.4C1453.47 520.92 1453.72 521.64 1453.72 522.58L1453.72 527.8L1451.76 527.8L1451.76 523.06C1451.76 522.51 1451.66 522.1 1451.45 521.83C1451.24 521.55 1450.87 521.41 1450.36 521.41C1449.88 521.41 1449.51 521.55 1449.23 521.83C1448.96 522.1 1448.83 522.46 1448.83 522.92L1448.83 527.8L1446.87 527.8ZM1460.92 525.04L1462.29 526.25C1461.48 527.43 1460.38 528.02 1458.99 528.02C1457.88 528.02 1456.97 527.64 1456.27 526.88C1455.57 526.11 1455.22 525.08 1455.22 523.81C1455.22 522.54 1455.56 521.52 1456.26 520.76C1456.96 519.98 1457.84 519.6 1458.9 519.6C1459.97 519.6 1460.84 519.98 1461.52 520.76C1462.21 521.52 1462.56 522.54 1462.56 523.81L1462.56 524.4L1457.2 524.4C1457.23 525.01 1457.4 525.48 1457.7 525.81C1458.01 526.13 1458.43 526.29 1458.96 526.29C1459.41 526.29 1459.79 526.18 1460.08 525.96C1460.38 525.73 1460.66 525.42 1460.92 525.04ZM1457.2 522.94L1460.66 522.94C1460.61 522.43 1460.44 522.03 1460.14 521.75C1459.84 521.46 1459.43 521.31 1458.9 521.31C1458.42 521.31 1458.03 521.47 1457.72 521.78C1457.41 522.09 1457.24 522.48 1457.2 522.94Z" />
	<path id="Layer" class="shp1" d="M1278.98 279.15L1423.56 279.15C1427.03 279.15 1429.83 281.95 1429.83 285.42L1429.83 367.46C1429.83 370.93 1427.03 373.73 1423.56 373.73L1278.98 373.73C1275.51 373.73 1272.71 370.93 1272.71 367.46L1272.71 285.42C1272.71 281.95 1275.51 279.15 1278.98 279.15Z" />
	<g id="Layer" style="opacity: 0.149">
		<g id="Clip-Path" clip-path="url(#cp1)">
			<g id="Layer">
				<path id="Layer" class="shp2" d="M1369.88 158.93L1174.26 354.4L1170.29 350.43L1365.91 154.96L1369.88 158.93Z" />
				<path id="Layer" class="shp2" d="M1377.82 166.86L1182.2 362.33L1178.23 358.36L1373.85 162.9L1377.82 166.86Z" />
				<path id="Layer" class="shp2" d="M1385.77 174.8L1190.15 370.27L1186.18 366.3L1381.8 170.84L1385.77 174.8Z" />
				<path id="Layer" class="shp2" d="M1393.71 182.74L1198.09 378.21L1194.12 374.24L1389.74 178.77L1393.71 182.74Z" />
				<path id="Layer" class="shp2" d="M1401.65 190.68L1206.04 386.15L1202.06 382.18L1397.68 186.71L1401.65 190.68Z" />
				<path id="Layer" class="shp2" d="M1409.6 198.62L1213.98 394.08L1210.01 390.11L1405.63 194.65L1409.6 198.62Z" />
				<path id="Layer" class="shp2" d="M1417.54 206.55L1221.92 402.02L1217.95 398.05L1413.57 202.59L1417.54 206.55Z" />
				<path id="Layer" class="shp2" d="M1425.49 214.49L1229.87 409.96L1225.9 405.99L1421.51 210.52L1425.49 214.49Z" />
				<path id="Layer" class="shp2" d="M1433.43 222.43L1237.81 417.9L1233.84 413.93L1429.46 218.46L1433.43 222.43Z" />
				<path id="Layer" class="shp2" d="M1441.37 230.37L1245.76 425.83L1241.78 421.87L1437.4 226.4L1441.37 230.37Z" />
				<path id="Layer" class="shp2" d="M1449.32 238.3L1253.7 433.77L1249.73 429.8L1445.35 234.34L1449.32 238.3Z" />
				<path id="Layer" class="shp2" d="M1457.26 246.24L1261.64 441.71L1257.67 437.74L1453.29 242.27L1457.26 246.24Z" />
				<path id="Layer" class="shp2" d="M1465.21 254.18L1269.59 449.65L1265.62 445.68L1461.23 250.21L1465.21 254.18Z" />
				<path id="Layer" class="shp2" d="M1473.15 262.12L1277.53 457.59L1273.56 453.62L1469.18 258.15L1473.15 262.12Z" />
				<path id="Layer" class="shp2" d="M1481.09 270.06L1285.47 465.52L1281.5 461.56L1477.12 266.09L1481.09 270.06Z" />
				<path id="Layer" class="shp2" d="M1489.04 277.99L1293.42 473.46L1289.45 469.49L1485.07 274.03L1489.04 277.99Z" />
				<path id="Layer" class="shp2" d="M1496.98 285.93L1301.36 481.4L1297.39 477.43L1493.01 281.96L1496.98 285.93Z" />
				<path id="Layer" class="shp2" d="M1504.93 293.87L1309.31 489.34L1305.34 485.37L1500.95 289.9L1504.93 293.87Z" />
				<path id="Layer" class="shp2" d="M1512.87 301.81L1317.25 497.27L1313.28 493.31L1508.9 297.84L1512.87 301.81Z" />
				<path id="Layer" class="shp2" d="M1520.81 309.74L1325.19 505.21L1321.22 501.24L1516.84 305.78L1520.81 309.74Z" />
				<path id="Layer" class="shp2" d="M1528.76 317.68L1333.14 513.15L1329.17 509.18L1524.79 313.71L1528.76 317.68Z" />
			</g>
		</g>
	</g>
	<path id="Layer" fill-rule="evenodd" class="shp3" d="M1355.56 332.54L1354.56 329.66L1347.86 329.66L1346.86 332.54L1343.5 332.54L1349.84 315L1352.73 315L1359.04 332.54L1355.56 332.54ZM1351.2 320.01L1348.82 326.85L1353.6 326.85L1351.25 320.01L1351.2 320.01Z" />
	<path id="Layer" class="shp1" d="M560.5 208.98L680.68 208.98C684.15 208.98 686.95 211.78 686.95 215.25L686.95 347.63C686.95 351.1 684.15 353.9 680.68 353.9L560.5 353.9C557.04 353.9 554.24 351.1 554.24 347.63L554.24 215.25C554.24 211.78 557.04 208.98 560.5 208.98Z" />
	<g id="Layer" style="opacity: 0.149">
		<g id="Clip-Path" clip-path="url(#cp2)">
			<g id="Layer">
				<path id="Layer" class="shp2" d="M640.73 111.64L445.11 307.11L441.14 303.14L636.76 107.67L640.73 111.64Z" />
				<path id="Layer" class="shp2" d="M648.67 119.58L453.05 315.04L449.08 311.08L644.7 115.61L648.67 119.58Z" />
				<path id="Layer" class="shp2" d="M656.61 127.52L461 322.98L457.02 319.01L652.64 123.55L656.61 127.52Z" />
				<path id="Layer" class="shp2" d="M664.56 135.45L468.94 330.92L464.97 326.95L660.59 131.48L664.56 135.45Z" />
				<path id="Layer" class="shp2" d="M672.5 143.39L476.88 338.86L472.91 334.89L668.53 139.42L672.5 143.39Z" />
				<path id="Layer" class="shp2" d="M680.44 151.33L484.83 346.8L480.85 342.83L676.47 147.36L680.44 151.33Z" />
				<path id="Layer" class="shp2" d="M688.39 159.27L492.77 354.73L488.8 350.77L684.42 155.3L688.39 159.27Z" />
				<path id="Layer" class="shp2" d="M696.33 167.2L500.72 362.67L496.74 358.7L692.36 163.23L696.33 167.2Z" />
				<path id="Layer" class="shp2" d="M704.28 175.14L508.66 370.61L504.69 366.64L700.31 171.17L704.28 175.14Z" />
				<path id="Layer" class="shp2" d="M712.22 183.08L516.6 378.55L512.63 374.58L708.25 179.11L712.22 183.08Z" />
				<path id="Layer" class="shp2" d="M720.17 191.02L524.55 386.48L520.58 382.52L716.19 187.05L720.17 191.02Z" />
				<path id="Layer" class="shp2" d="M728.11 198.95L532.49 394.42L528.52 390.45L724.14 194.98L728.11 198.95Z" />
				<path id="Layer" class="shp2" d="M736.05 206.89L540.44 402.36L536.46 398.39L732.08 202.92L736.05 206.89Z" />
				<path id="Layer" class="shp2" d="M744 214.83L548.38 410.3L544.41 406.33L740.03 210.86L744 214.83Z" />
				<path id="Layer" class="shp2" d="M751.94 222.77L556.32 418.24L552.35 414.27L747.97 218.8L751.94 222.77Z" />
				<path id="Layer" class="shp2" d="M759.89 230.71L564.27 426.17L560.3 422.21L755.91 226.74L759.89 230.71Z" />
				<path id="Layer" class="shp2" d="M767.83 238.64L572.21 434.11L568.24 430.14L763.86 234.67L767.83 238.64Z" />
				<path id="Layer" class="shp2" d="M775.77 246.58L580.15 442.05L576.18 438.08L771.8 242.61L775.77 246.58Z" />
				<path id="Layer" class="shp2" d="M783.72 254.52L588.1 449.99L584.13 446.02L779.74 250.55L783.72 254.52Z" />
				<path id="Layer" class="shp2" d="M791.66 262.46L596.04 457.92L592.07 453.96L787.69 258.49L791.66 262.46Z" />
				<path id="Layer" class="shp2" d="M799.61 270.39L603.99 465.86L600.02 461.89L795.63 266.42L799.61 270.39Z" />
			</g>
		</g>
	</g>
	<path id="Layer" fill-rule="evenodd" class="shp3" d="M614.46 288.31L614.46 270.76L621.9 270.76C623.46 270.76 624.7 271.22 625.64 272.14C626.59 273.04 627.07 274.15 627.07 275.47C627.07 276.94 626.43 278.05 625.16 278.8L625.16 278.83C625.92 279.15 626.53 279.66 626.99 280.36C627.48 281.04 627.72 281.87 627.72 282.84C627.72 284.51 627.21 285.85 626.19 286.85C625.17 287.82 623.49 288.31 621.15 288.31L614.46 288.31ZM617.84 285.17L621.93 285.17C623.53 285.17 624.34 284.39 624.34 282.84C624.34 282.12 624.12 281.57 623.68 281.19C623.27 280.78 622.69 280.58 621.95 280.58L617.84 280.58L617.84 285.17ZM617.84 277.83L621.48 277.83C622.16 277.83 622.7 277.67 623.08 277.35C623.48 277.02 623.68 276.53 623.68 275.9C623.68 275.23 623.49 274.73 623.11 274.39C622.72 274.06 622.18 273.89 621.48 273.89L617.84 273.89L617.84 277.83Z" />
	<path id="Layer" fill-rule="evenodd" class="shp4" d="M841.68 903.05L840.89 900.77L835.59 900.77L834.8 903.05L832.14 903.05L837.16 889.17L839.44 889.17L844.44 903.05L841.68 903.05ZM838.23 893.14L836.35 898.55L840.14 898.55L838.27 893.14L838.23 893.14ZM846.07 899.3L846.07 894.72L844.45 894.72L844.45 892.54L846.13 892.54L846.13 889.96L848.57 889.96L848.57 892.54L851.23 892.54L851.23 894.72L848.61 894.72L848.61 899.06C848.61 899.62 848.7 900.01 848.89 900.23C849.07 900.46 849.45 900.57 850.02 900.57L850.87 900.57L850.87 903.05L849.78 903.05C848.36 903.05 847.39 902.75 846.87 902.16C846.34 901.56 846.07 900.61 846.07 899.3ZM853.55 899.3L853.55 894.72L851.92 894.72L851.92 892.54L853.61 892.54L853.61 889.96L856.05 889.96L856.05 892.54L858.7 892.54L858.7 894.72L856.09 894.72L856.09 899.06C856.09 899.62 856.18 900.01 856.36 900.23C856.55 900.46 856.92 900.57 857.49 900.57L858.35 900.57L858.35 903.05L857.26 903.05C855.84 903.05 854.87 902.75 854.34 902.16C853.81 901.56 853.55 900.61 853.55 899.3ZM866.48 903.05L866.48 902.04L866.44 902.04C866.41 902.08 866.38 902.13 866.34 902.2C866.3 902.25 866.2 902.35 866.04 902.5C865.88 902.64 865.7 902.77 865.5 902.89C865.31 903.01 865.03 903.12 864.69 903.21C864.35 903.3 863.98 903.35 863.58 903.35C862.31 903.35 861.36 903.05 860.73 902.46C860.1 901.85 859.79 901.11 859.79 900.23C859.79 899.32 860.06 898.63 860.61 898.15C861.15 897.68 862.07 897.28 863.36 896.96C864.56 896.67 865.32 896.44 865.62 896.27C865.93 896.1 866.08 895.85 866.08 895.54C866.08 895.22 865.93 894.95 865.62 894.74C865.33 894.53 864.89 894.42 864.29 894.42C863.59 894.42 863.09 894.58 862.79 894.9C862.48 895.2 862.24 895.62 862.07 896.15L859.93 895.26C860.18 894.37 860.67 893.65 861.4 893.1C862.13 892.53 863.08 892.24 864.26 892.24C865.54 892.24 866.59 892.58 867.41 893.25C868.23 893.93 868.64 894.97 868.64 896.39L868.64 903.05L866.48 903.05ZM863.88 898.75C863.22 898.91 862.78 899.1 862.57 899.32C862.37 899.53 862.27 899.78 862.27 900.06C862.27 900.77 862.79 901.13 863.82 901.13C864.6 901.13 865.18 900.98 865.56 900.69C865.96 900.39 866.16 900.02 866.16 899.58L866.16 897.76L866.12 897.76C866.07 897.86 866.01 897.95 865.94 898.01C865.89 898.07 865.69 898.17 865.35 898.31C865 898.44 864.51 898.59 863.88 898.75ZM877.52 898.81L879.96 899.44C879.72 900.7 879.21 901.66 878.41 902.34C877.62 903.01 876.62 903.35 875.42 903.35C873.99 903.35 872.81 902.86 871.89 901.88C870.98 900.9 870.52 899.54 870.52 897.8C870.52 896.06 870.99 894.71 871.93 893.73C872.88 892.74 874.05 892.24 875.44 892.24C876.62 892.24 877.6 892.59 878.39 893.27C879.19 893.96 879.68 894.88 879.86 896.03L877.46 896.49C877.21 895.2 876.54 894.56 875.44 894.56C874.71 894.56 874.13 894.84 873.69 895.4C873.27 895.94 873.06 896.74 873.06 897.8C873.06 898.85 873.27 899.66 873.69 900.22C874.12 900.76 874.7 901.03 875.44 901.03C876.6 901.03 877.3 900.29 877.52 898.81ZM881.94 903.05L881.94 888.57L884.52 888.57L884.52 896.88L884.56 896.88L888.39 892.54L891.62 892.54L887.83 896.8L891.96 903.05L889.1 903.05L885.89 898.25L885.85 898.25L884.52 899.76L884.52 903.05L881.94 903.05ZM899.79 899.42L901.59 901.01C900.52 902.57 899.07 903.35 897.25 903.35C895.78 903.35 894.58 902.85 893.66 901.84C892.73 900.82 892.27 899.48 892.27 897.8C892.27 896.12 892.73 894.78 893.64 893.77C894.56 892.75 895.73 892.24 897.13 892.24C898.53 892.24 899.68 892.75 900.58 893.77C901.49 894.78 901.95 896.12 901.95 897.8L901.95 898.57L894.89 898.57C894.93 899.38 895.15 900 895.54 900.43C895.95 900.86 896.51 901.07 897.21 901.07C897.8 901.07 898.29 900.92 898.67 900.63C899.07 900.33 899.44 899.92 899.79 899.42ZM894.89 896.65L899.45 896.65C899.38 895.97 899.15 895.45 898.75 895.08C898.36 894.7 897.81 894.5 897.13 894.5C896.49 894.5 895.97 894.71 895.56 895.12C895.16 895.53 894.94 896.04 894.89 896.65ZM904.02 903.05L904.02 892.54L906.46 892.54L906.46 893.65L906.5 893.65C906.7 893.25 906.99 892.94 907.37 892.7C907.77 892.46 908.2 892.34 908.66 892.34C908.99 892.34 909.31 892.41 909.61 892.54L909.22 895.04C908.93 894.93 908.65 894.88 908.4 894.88C907.2 894.88 906.6 895.68 906.6 897.28L906.6 903.05L904.02 903.05ZM910.51 899.58L912.83 898.99C913.01 900.45 913.8 901.19 915.19 901.19C915.82 901.19 916.33 901.09 916.7 900.89C917.08 900.68 917.27 900.39 917.27 900.02C917.27 899.71 917.13 899.49 916.84 899.34C916.54 899.18 915.94 898.97 915.01 898.71C914.76 898.64 914.57 898.59 914.44 898.55C913.22 898.21 912.33 897.8 911.76 897.34C911.19 896.86 910.91 896.24 910.91 895.46C910.91 894.58 911.26 893.83 911.96 893.2C912.67 892.56 913.64 892.24 914.87 892.24C917.23 892.24 918.7 893.27 919.29 895.34L917.15 895.99C916.97 895.49 916.7 895.09 916.36 894.8C916.03 894.51 915.54 894.37 914.89 894.37C914.39 894.37 913.99 894.46 913.68 894.66C913.39 894.85 913.25 895.07 913.25 895.34C913.25 895.63 913.42 895.86 913.76 896.03C914.12 896.19 915 896.47 916.4 896.86C917.63 897.19 918.46 897.62 918.9 898.13C919.35 898.63 919.57 899.28 919.57 900.08C919.57 900.92 919.2 901.68 918.46 902.36C917.73 903.02 916.68 903.35 915.29 903.35C913.83 903.35 912.71 902.99 911.92 902.26C911.14 901.52 910.67 900.63 910.51 899.58Z" />
	<path id="Layer" fill-rule="evenodd" class="shp5" d="M973.93 93.05L973.93 79.17L978.57 79.17C979.37 79.17 980.11 79.31 980.81 79.59C981.51 79.86 982.15 80.27 982.72 80.82C983.29 81.36 983.74 82.08 984.07 83C984.41 83.9 984.58 84.93 984.58 86.09C984.58 87.36 984.41 88.46 984.07 89.4C983.72 90.34 983.25 91.07 982.66 91.58C982.06 92.09 981.42 92.46 980.71 92.69C980.03 92.93 979.27 93.05 978.45 93.05L973.93 93.05ZM976.61 90.57L978.45 90.57C978.93 90.57 979.35 90.52 979.7 90.41C980.06 90.29 980.4 90.08 980.71 89.78C981.03 89.47 981.28 89.02 981.45 88.41C981.62 87.79 981.71 87.02 981.71 86.09C981.71 84.54 981.42 83.42 980.83 82.72C980.27 82.01 979.51 81.65 978.57 81.65L976.61 81.65L976.61 90.57ZM993.49 89.42L995.3 91.01C994.23 92.57 992.78 93.35 990.95 93.35C989.49 93.35 988.29 92.85 987.36 91.84C986.44 90.82 985.98 89.47 985.98 87.8C985.98 86.12 986.43 84.77 987.34 83.77C988.27 82.75 989.43 82.24 990.83 82.24C992.24 82.24 993.39 82.75 994.29 83.77C995.2 84.77 995.65 86.12 995.65 87.8L995.65 88.57L988.59 88.57C988.63 89.38 988.85 90 989.25 90.43C989.66 90.86 990.21 91.07 990.91 91.07C991.51 91.07 992 90.92 992.38 90.63C992.78 90.33 993.15 89.92 993.49 89.42ZM988.59 86.65L993.16 86.65C993.09 85.97 992.86 85.45 992.46 85.08C992.06 84.7 991.52 84.5 990.83 84.5C990.2 84.5 989.68 84.71 989.27 85.12C988.87 85.53 988.65 86.04 988.59 86.65ZM998.26 93.05L998.26 84.72L996.64 84.72L996.64 82.54L998.32 82.54L998.32 81.05C998.32 80.15 998.55 79.52 999.02 79.15C999.49 78.77 1000.18 78.57 1001.08 78.57L1003.14 78.57L1003.14 80.86L1001.62 80.86C1001.3 80.86 1001.07 80.92 1000.94 81.05C1000.82 81.17 1000.76 81.38 1000.76 81.69L1000.76 82.54L1003.42 82.54L1003.42 84.72L1000.84 84.72L1000.84 93.05L998.26 93.05ZM1011.64 89.42L1013.44 91.01C1012.37 92.57 1010.92 93.35 1009.1 93.35C1007.63 93.35 1006.44 92.85 1005.51 91.84C1004.59 90.82 1004.12 89.47 1004.12 87.8C1004.12 86.12 1004.58 84.77 1005.49 83.77C1006.42 82.75 1007.58 82.24 1008.98 82.24C1010.38 82.24 1011.53 82.75 1012.43 83.77C1013.34 84.77 1013.8 86.12 1013.8 87.8L1013.8 88.57L1006.74 88.57C1006.78 89.38 1007 90 1007.39 90.43C1007.8 90.86 1008.36 91.07 1009.06 91.07C1009.65 91.07 1010.14 90.92 1010.53 90.63C1010.92 90.33 1011.29 89.92 1011.64 89.42ZM1006.74 86.65L1011.3 86.65C1011.23 85.97 1011 85.45 1010.61 85.08C1010.21 84.7 1009.67 84.5 1008.98 84.5C1008.35 84.5 1007.82 84.71 1007.41 85.12C1007.02 85.53 1006.79 86.04 1006.74 86.65ZM1015.87 93.05L1015.87 82.54L1018.35 82.54L1018.35 83.55L1018.39 83.55C1018.68 83.18 1019.08 82.87 1019.58 82.62C1020.08 82.37 1020.61 82.24 1021.17 82.24C1022.33 82.24 1023.24 82.59 1023.9 83.29C1024.57 83.98 1024.9 84.94 1024.9 86.17L1024.9 93.05L1022.32 93.05L1022.32 86.8C1022.32 86.08 1022.18 85.54 1021.9 85.18C1021.62 84.81 1021.15 84.62 1020.47 84.62C1019.84 84.62 1019.34 84.81 1018.99 85.18C1018.63 85.54 1018.45 86.02 1018.45 86.63L1018.45 93.05L1015.87 93.05ZM1034.25 93.05L1034.25 92.04L1034.21 92.04C1034.15 92.13 1034.05 92.25 1033.92 92.4C1033.8 92.54 1033.49 92.74 1033 92.99C1032.53 93.23 1032.01 93.35 1031.44 93.35C1030.05 93.35 1028.94 92.85 1028.11 91.84C1027.29 90.84 1026.88 89.49 1026.88 87.8C1026.88 86.09 1027.33 84.74 1028.22 83.75C1029.12 82.75 1030.18 82.24 1031.4 82.24C1031.95 82.24 1032.45 82.36 1032.88 82.58C1033.33 82.79 1033.64 83 1033.8 83.21L1034.05 83.55L1034.09 83.55L1034.09 78.57L1036.67 78.57L1036.67 93.05L1034.25 93.05ZM1034.09 88.75L1034.09 86.82C1034.09 86.19 1033.89 85.65 1033.48 85.22C1033.08 84.78 1032.54 84.56 1031.83 84.56C1031.08 84.56 1030.49 84.83 1030.07 85.38C1029.66 85.92 1029.45 86.72 1029.45 87.8C1029.45 88.85 1029.66 89.66 1030.07 90.22C1030.49 90.76 1031.08 91.03 1031.83 91.03C1032.54 91.03 1033.08 90.81 1033.48 90.37C1033.89 89.92 1034.09 89.38 1034.09 88.75ZM1046.26 89.42L1048.07 91.01C1047 92.57 1045.55 93.35 1043.72 93.35C1042.26 93.35 1041.06 92.85 1040.14 91.84C1039.21 90.82 1038.75 89.47 1038.75 87.8C1038.75 86.12 1039.2 84.77 1040.12 83.77C1041.04 82.75 1042.21 82.24 1043.61 82.24C1045.01 82.24 1046.16 82.75 1047.06 83.77C1047.97 84.77 1048.42 86.12 1048.42 87.8L1048.42 88.57L1041.36 88.57C1041.4 89.38 1041.62 90 1042.02 90.43C1042.43 90.86 1042.98 91.07 1043.68 91.07C1044.28 91.07 1044.77 90.92 1045.15 90.63C1045.55 90.33 1045.92 89.92 1046.26 89.42ZM1041.36 86.65L1045.93 86.65C1045.86 85.97 1045.63 85.45 1045.23 85.08C1044.83 84.7 1044.29 84.5 1043.61 84.5C1042.97 84.5 1042.45 84.71 1042.04 85.12C1041.64 85.53 1041.42 86.04 1041.36 86.65ZM1050.5 93.05L1050.5 82.54L1052.94 82.54L1052.94 83.65L1052.98 83.65C1053.18 83.25 1053.47 82.94 1053.85 82.7C1054.25 82.46 1054.68 82.34 1055.14 82.34C1055.47 82.34 1055.79 82.41 1056.09 82.54L1055.69 85.04C1055.4 84.93 1055.13 84.88 1054.88 84.88C1053.68 84.88 1053.08 85.68 1053.08 87.28L1053.08 93.05L1050.5 93.05ZM1056.99 89.58L1059.31 88.99C1059.49 90.45 1060.28 91.19 1061.67 91.19C1062.3 91.19 1062.8 91.09 1063.18 90.89C1063.56 90.68 1063.75 90.39 1063.75 90.02C1063.75 89.71 1063.61 89.49 1063.31 89.34C1063.02 89.18 1062.42 88.97 1061.49 88.71C1061.24 88.64 1061.05 88.59 1060.91 88.55C1059.7 88.21 1058.81 87.8 1058.24 87.34C1057.67 86.86 1057.38 86.24 1057.38 85.46C1057.38 84.58 1057.74 83.83 1058.44 83.2C1059.15 82.56 1060.12 82.24 1061.35 82.24C1063.7 82.24 1065.18 83.27 1065.77 85.34L1063.63 85.99C1063.45 85.49 1063.18 85.09 1062.84 84.8C1062.51 84.51 1062.02 84.37 1061.37 84.37C1060.87 84.37 1060.46 84.46 1060.16 84.66C1059.87 84.85 1059.72 85.07 1059.72 85.34C1059.72 85.63 1059.9 85.86 1060.24 86.03C1060.6 86.19 1061.48 86.47 1062.88 86.86C1064.11 87.19 1064.94 87.62 1065.38 88.13C1065.83 88.64 1066.05 89.28 1066.05 90.08C1066.05 90.92 1065.68 91.68 1064.94 92.36C1064.21 93.02 1063.16 93.35 1061.77 93.35C1060.31 93.35 1059.19 92.98 1058.4 92.26C1057.62 91.52 1057.15 90.62 1056.99 89.58Z" />
</svg>