<svg width="708" height="708" viewBox="0 0 708 708" fill="none" xmlns="http://www.w3.org/2000/svg">
<path d="M388.913 479V472.098H390.283L392.285 476.574H392.305L394.306 472.098H395.687V479H394.385V474.76H394.365L392.403 479H392.186L390.224 474.76H390.205V479H388.913ZM397.162 479V473.774H398.444V479H397.162ZM397.162 473.015V471.802H398.444V473.015H397.162ZM403.064 476.86V475.904C403.064 475.588 402.962 475.322 402.758 475.105C402.561 474.888 402.288 474.78 401.94 474.78C401.565 474.78 401.273 474.915 401.062 475.184C400.859 475.454 400.757 475.855 400.757 476.387C400.757 476.913 400.859 477.314 401.062 477.59C401.273 477.86 401.565 477.994 401.94 477.994C402.288 477.994 402.561 477.886 402.758 477.669C402.962 477.445 403.064 477.176 403.064 476.86ZM403.143 479V478.497H403.123C403.09 478.543 403.041 478.602 402.975 478.675C402.916 478.747 402.765 478.846 402.522 478.97C402.285 479.089 402.025 479.148 401.743 479.148C401.053 479.148 400.5 478.898 400.086 478.399C399.679 477.899 399.475 477.229 399.475 476.387C399.475 475.539 399.698 474.869 400.145 474.376C400.592 473.876 401.118 473.626 401.723 473.626C401.999 473.626 402.246 473.682 402.462 473.794C402.686 473.899 402.837 474.004 402.916 474.109L403.044 474.277H403.064V471.802H404.346V479H403.143ZM409.617 479V473.331H407.596V472.098H412.97V473.331H410.948V479H409.617ZM414.205 477.58C414.416 477.856 414.705 477.994 415.073 477.994C415.441 477.994 415.73 477.856 415.941 477.58C416.151 477.298 416.256 476.9 416.256 476.387C416.256 475.874 416.148 475.48 415.931 475.204C415.721 474.921 415.435 474.78 415.073 474.78C414.712 474.78 414.422 474.918 414.205 475.194C413.995 475.47 413.89 475.868 413.89 476.387C413.89 476.906 413.995 477.304 414.205 477.58ZM416.828 478.418C416.368 478.905 415.783 479.148 415.073 479.148C414.363 479.148 413.778 478.905 413.318 478.418C412.858 477.932 412.628 477.255 412.628 476.387C412.628 475.533 412.865 474.859 413.338 474.366C413.811 473.873 414.39 473.626 415.073 473.626C415.757 473.626 416.335 473.873 416.809 474.366C417.282 474.859 417.518 475.533 417.518 476.387C417.518 477.255 417.288 477.932 416.828 478.418ZM419.84 475.845V476.92C419.84 477.222 419.941 477.478 420.145 477.689C420.349 477.892 420.622 477.994 420.964 477.994C421.338 477.994 421.644 477.856 421.881 477.58C422.124 477.304 422.245 476.906 422.245 476.387C422.245 475.868 422.127 475.47 421.89 475.194C421.654 474.918 421.345 474.78 420.964 474.78C420.622 474.78 420.349 474.885 420.145 475.095C419.941 475.299 419.84 475.549 419.84 475.845ZM418.558 481.218V473.774H419.78V474.277H419.8C419.813 474.257 419.83 474.234 419.849 474.208C419.869 474.175 419.918 474.123 419.997 474.05C420.083 473.978 420.175 473.912 420.273 473.853C420.372 473.794 420.503 473.741 420.668 473.695C420.839 473.649 421.019 473.626 421.21 473.626C421.828 473.626 422.367 473.876 422.827 474.376C423.294 474.869 423.527 475.539 423.527 476.387C423.527 477.242 423.304 477.915 422.857 478.408C422.41 478.901 421.867 479.148 421.23 479.148C421.039 479.148 420.862 479.125 420.697 479.079C420.54 479.033 420.411 478.98 420.313 478.921C420.214 478.855 420.129 478.793 420.056 478.734C419.984 478.668 419.932 478.612 419.899 478.566L419.859 478.497H419.84V481.218H418.558Z" fill="#7986A3"/>
<path d="M511.589 432L511.194 430.866H508.562L508.167 432H506.846L509.341 425.098H510.474L512.959 432H511.589ZM509.873 427.07L508.936 429.762H510.82L509.893 427.07H509.873ZM516.261 432V425.098H517.592V430.768H520.442V432H516.261ZM522.508 430.58C522.718 430.856 523.007 430.994 523.376 430.994C523.744 430.994 524.033 430.856 524.243 430.58C524.454 430.298 524.559 429.9 524.559 429.387C524.559 428.874 524.45 428.48 524.233 428.204C524.023 427.921 523.737 427.78 523.376 427.78C523.014 427.78 522.725 427.918 522.508 428.194C522.298 428.47 522.192 428.868 522.192 429.387C522.192 429.906 522.298 430.304 522.508 430.58ZM525.131 431.418C524.67 431.905 524.085 432.148 523.376 432.148C522.666 432.148 522.081 431.905 521.62 431.418C521.16 430.932 520.93 430.255 520.93 429.387C520.93 428.533 521.167 427.859 521.64 427.366C522.113 426.873 522.692 426.626 523.376 426.626C524.059 426.626 524.638 426.873 525.111 427.366C525.584 427.859 525.821 428.533 525.821 429.387C525.821 430.255 525.591 430.932 525.131 431.418ZM528.142 428.904V429.86C528.142 430.176 528.24 430.445 528.438 430.669C528.641 430.886 528.918 430.994 529.266 430.994C529.641 430.994 529.93 430.86 530.134 430.59C530.344 430.314 530.449 429.913 530.449 429.387C530.449 428.855 530.344 428.454 530.134 428.184C529.93 427.915 529.641 427.78 529.266 427.78C528.918 427.78 528.641 427.888 528.438 428.105C528.24 428.322 528.142 428.588 528.142 428.904ZM526.86 432V424.802H528.142V427.277H528.162C528.175 427.257 528.191 427.234 528.211 427.208C528.231 427.175 528.28 427.123 528.359 427.05C528.444 426.978 528.533 426.912 528.625 426.853C528.724 426.794 528.849 426.741 529 426.695C529.157 426.649 529.322 426.626 529.493 426.626C530.137 426.626 530.669 426.883 531.09 427.395C531.517 427.902 531.731 428.565 531.731 429.387C531.731 430.229 531.524 430.899 531.11 431.399C530.702 431.898 530.153 432.148 529.463 432.148C529.18 432.148 528.924 432.095 528.694 431.99C528.464 431.878 528.306 431.77 528.221 431.665L528.083 431.497H528.063V432H526.86ZM534.044 428.904V429.86C534.044 430.176 534.143 430.445 534.34 430.669C534.544 430.886 534.82 430.994 535.168 430.994C535.543 430.994 535.832 430.86 536.036 430.59C536.246 430.314 536.352 429.913 536.352 429.387C536.352 428.855 536.246 428.454 536.036 428.184C535.832 427.915 535.543 427.78 535.168 427.78C534.82 427.78 534.544 427.888 534.34 428.105C534.143 428.322 534.044 428.588 534.044 428.904ZM532.763 432V424.802H534.044V427.277H534.064C534.077 427.257 534.094 427.234 534.113 427.208C534.133 427.175 534.182 427.123 534.261 427.05C534.347 426.978 534.435 426.912 534.527 426.853C534.626 426.794 534.751 426.741 534.902 426.695C535.06 426.649 535.224 426.626 535.395 426.626C536.039 426.626 536.572 426.883 536.992 427.395C537.42 427.902 537.633 428.565 537.633 429.387C537.633 430.229 537.426 430.899 537.012 431.399C536.605 431.898 536.056 432.148 535.366 432.148C535.083 432.148 534.827 432.095 534.597 431.99C534.366 431.878 534.209 431.77 534.123 431.665L533.985 431.497H533.965V432H532.763ZM538.877 434.218L539.922 431.744L537.832 426.774H539.133L540.484 430.314H540.504L541.854 426.774H543.156L540.149 434.218H538.877Z" fill="#7986A3"/>
<path d="M553.376 346L552.982 344.866H550.349L549.955 346H548.634L551.128 339.098H552.262L554.747 346H553.376ZM551.661 341.07L550.724 343.762H552.607L551.68 341.07H551.661ZM558.049 346V339.098H559.419L561.421 343.574H561.44L563.442 339.098H564.822V346H563.521V341.76H563.501L561.539 346H561.322L559.36 341.76H559.34V346H558.049ZM569.276 346V345.497H569.256C569.243 345.517 569.227 345.543 569.207 345.576C569.187 345.602 569.138 345.652 569.059 345.724C568.98 345.796 568.891 345.862 568.793 345.921C568.694 345.98 568.559 346.033 568.389 346.079C568.218 346.125 568.034 346.148 567.836 346.148C567.205 346.148 566.732 346 566.417 345.704C566.108 345.402 565.953 345.034 565.953 344.6C565.953 344.146 566.088 343.801 566.357 343.565C566.627 343.328 567.084 343.131 567.728 342.973C568.326 342.828 568.701 342.713 568.852 342.628C569.003 342.542 569.079 342.421 569.079 342.263C569.079 342.105 569.003 341.974 568.852 341.869C568.707 341.764 568.487 341.711 568.191 341.711C567.843 341.711 567.593 341.79 567.442 341.948C567.291 342.099 567.172 342.306 567.087 342.569L566.022 342.125C566.147 341.685 566.39 341.326 566.752 341.05C567.113 340.768 567.587 340.626 568.172 340.626C568.809 340.626 569.332 340.794 569.739 341.129C570.147 341.464 570.351 341.984 570.351 342.687V346H569.276ZM567.984 343.86C567.656 343.939 567.439 344.035 567.333 344.146C567.235 344.252 567.186 344.373 567.186 344.511C567.186 344.866 567.442 345.044 567.955 345.044C568.342 345.044 568.632 344.971 568.822 344.827C569.02 344.675 569.118 344.491 569.118 344.275V343.367H569.098C569.072 343.42 569.043 343.463 569.01 343.496C568.983 343.522 568.885 343.571 568.714 343.643C568.543 343.709 568.3 343.782 567.984 343.86ZM571.633 346V340.774H572.914V346H571.633ZM571.633 340.015V338.802H572.914V340.015H571.633ZM574.29 346V340.774H575.523V341.277H575.542C575.687 341.093 575.884 340.939 576.134 340.814C576.384 340.689 576.647 340.626 576.923 340.626C577.501 340.626 577.955 340.801 578.283 341.149C578.612 341.491 578.776 341.967 578.776 342.579V346H577.495V342.894C577.495 342.533 577.426 342.263 577.288 342.086C577.15 341.902 576.913 341.81 576.578 341.81C576.262 341.81 576.016 341.902 575.838 342.086C575.661 342.263 575.572 342.503 575.572 342.805V346H574.29Z" fill="#7986A3"/>
<path d="M603.878 169L603.484 167.866H600.851L600.457 169H599.135L601.63 162.098H602.764L605.249 169H603.878ZM602.162 164.07L601.226 166.762H603.109L602.182 164.07H602.162ZM608.551 169V162.098H611.351C612.061 162.098 612.633 162.299 613.066 162.7C613.507 163.094 613.727 163.626 613.727 164.297C613.727 164.796 613.596 165.22 613.333 165.569C613.076 165.917 612.721 166.164 612.268 166.308L613.737 169H612.297L610.907 166.436H609.882V169H608.551ZM609.882 165.283H611.242C611.998 165.283 612.376 164.954 612.376 164.297C612.376 163.633 611.998 163.301 611.242 163.301H609.882V165.283ZM617.698 169V168.497H617.678C617.665 168.517 617.649 168.543 617.629 168.576C617.609 168.602 617.56 168.652 617.481 168.724C617.402 168.796 617.313 168.862 617.215 168.921C617.116 168.98 616.982 169.033 616.811 169.079C616.64 169.125 616.456 169.148 616.258 169.148C615.627 169.148 615.154 169 614.839 168.704C614.53 168.402 614.375 168.034 614.375 167.6C614.375 167.146 614.51 166.801 614.779 166.565C615.049 166.328 615.506 166.131 616.15 165.973C616.748 165.828 617.123 165.713 617.274 165.628C617.425 165.542 617.501 165.421 617.501 165.263C617.501 165.105 617.425 164.974 617.274 164.869C617.129 164.764 616.909 164.711 616.613 164.711C616.265 164.711 616.015 164.79 615.864 164.948C615.713 165.099 615.595 165.306 615.509 165.569L614.444 165.125C614.569 164.685 614.812 164.326 615.174 164.05C615.535 163.768 616.009 163.626 616.594 163.626C617.231 163.626 617.754 163.794 618.161 164.129C618.569 164.464 618.773 164.984 618.773 165.687V169H617.698ZM616.406 166.86C616.078 166.939 615.861 167.035 615.756 167.146C615.657 167.252 615.608 167.373 615.608 167.511C615.608 167.866 615.864 168.044 616.377 168.044C616.765 168.044 617.054 167.971 617.244 167.827C617.442 167.675 617.54 167.491 617.54 167.275V166.367H617.521C617.494 166.42 617.465 166.463 617.432 166.496C617.406 166.522 617.307 166.571 617.136 166.643C616.965 166.709 616.722 166.782 616.406 166.86ZM620.321 169V164.859H619.512V163.774H620.35V163.035C620.35 162.588 620.466 162.272 620.696 162.088C620.932 161.898 621.274 161.802 621.721 161.802H622.746V162.936H621.987C621.829 162.936 621.718 162.969 621.652 163.035C621.593 163.094 621.563 163.199 621.563 163.35V163.774H622.884V164.859H621.603V169H620.321ZM623.845 167.136V164.859H623.037V163.774H623.875V162.492H625.087V163.774H626.409V164.859H625.107V167.018C625.107 167.294 625.153 167.488 625.245 167.6C625.337 167.712 625.525 167.768 625.807 167.768H626.231V169H625.689C624.986 169 624.502 168.852 624.239 168.556C623.977 168.261 623.845 167.787 623.845 167.136ZM630.784 167.196L631.681 167.984C631.148 168.76 630.429 169.148 629.522 169.148C628.792 169.148 628.197 168.898 627.737 168.399C627.277 167.892 627.047 167.222 627.047 166.387C627.047 165.552 627.274 164.885 627.727 164.386C628.187 163.879 628.766 163.626 629.462 163.626C630.159 163.626 630.731 163.879 631.178 164.386C631.632 164.885 631.858 165.552 631.858 166.387V166.772H628.348C628.368 167.173 628.476 167.482 628.674 167.698C628.877 167.909 629.153 168.014 629.502 168.014C629.798 168.014 630.041 167.942 630.232 167.797C630.429 167.646 630.613 167.445 630.784 167.196ZM628.348 165.815H630.616C630.583 165.48 630.468 165.22 630.271 165.036C630.074 164.846 629.804 164.75 629.462 164.75C629.147 164.75 628.887 164.852 628.684 165.056C628.486 165.26 628.375 165.513 628.348 165.815ZM632.89 169V163.774H634.103V164.326H634.122C634.221 164.129 634.366 163.971 634.556 163.853C634.753 163.735 634.967 163.676 635.197 163.676C635.361 163.676 635.519 163.709 635.67 163.774L635.473 165.017C635.329 164.964 635.194 164.938 635.069 164.938C634.471 164.938 634.172 165.335 634.172 166.131V169H632.89ZM636.116 167.275L637.27 166.979C637.362 167.708 637.753 168.073 638.443 168.073C638.758 168.073 639.008 168.024 639.192 167.925C639.383 167.82 639.478 167.675 639.478 167.491C639.478 167.34 639.406 167.229 639.261 167.156C639.117 167.077 638.814 166.972 638.354 166.841C638.229 166.808 638.134 166.782 638.068 166.762C637.463 166.591 637.02 166.39 636.737 166.16C636.454 165.924 636.313 165.611 636.313 165.224C636.313 164.79 636.487 164.415 636.836 164.1C637.191 163.784 637.674 163.626 638.285 163.626C639.455 163.626 640.188 164.139 640.484 165.164L639.419 165.49C639.327 165.24 639.196 165.043 639.025 164.898C638.86 164.754 638.617 164.681 638.295 164.681C638.045 164.681 637.845 164.731 637.694 164.829C637.549 164.921 637.477 165.033 637.477 165.164C637.477 165.309 637.562 165.424 637.733 165.51C637.91 165.588 638.348 165.727 639.044 165.924C639.656 166.088 640.07 166.298 640.287 166.555C640.51 166.805 640.622 167.127 640.622 167.521C640.622 167.942 640.438 168.32 640.07 168.655C639.708 168.984 639.182 169.148 638.492 169.148C637.769 169.148 637.21 168.967 636.816 168.606C636.428 168.237 636.195 167.794 636.116 167.275Z" fill="#7986A3"/>
<path d="M493 169L492.606 167.866H489.973L489.579 169H488.258L490.752 162.098H491.886L494.371 169H493ZM491.285 164.07L490.348 166.762H492.231L491.305 164.07H491.285ZM498.521 169L497.18 162.098H498.531L499.418 166.791H499.448L501.035 162.098H501.706L503.293 166.791H503.323L504.21 162.098H505.531L504.19 169H502.81L501.39 164.711H501.331L499.901 169H498.521ZM506.52 169V163.774H507.801V169H506.52ZM506.52 163.015V161.802H507.801V163.015H506.52ZM509.177 169V163.774H510.41V164.277H510.429C510.574 164.093 510.771 163.939 511.021 163.814C511.271 163.689 511.534 163.626 511.81 163.626C512.388 163.626 512.842 163.801 513.17 164.149C513.499 164.491 513.663 164.967 513.663 165.579V169H512.382V165.894C512.382 165.533 512.313 165.263 512.174 165.086C512.036 164.902 511.8 164.81 511.465 164.81C511.149 164.81 510.903 164.902 510.725 165.086C510.548 165.263 510.459 165.503 510.459 165.805V169H509.177ZM518.237 166.86V165.904C518.237 165.588 518.135 165.322 517.931 165.105C517.734 164.888 517.461 164.78 517.113 164.78C516.738 164.78 516.446 164.915 516.235 165.184C516.031 165.454 515.93 165.855 515.93 166.387C515.93 166.913 516.031 167.314 516.235 167.59C516.446 167.86 516.738 167.994 517.113 167.994C517.461 167.994 517.734 167.886 517.931 167.669C518.135 167.445 518.237 167.176 518.237 166.86ZM518.316 169V168.497H518.296C518.263 168.543 518.214 168.602 518.148 168.675C518.089 168.747 517.938 168.846 517.695 168.97C517.458 169.089 517.198 169.148 516.916 169.148C516.225 169.148 515.673 168.898 515.259 168.399C514.852 167.899 514.648 167.229 514.648 166.387C514.648 165.539 514.871 164.869 515.318 164.376C515.765 163.876 516.291 163.626 516.896 163.626C517.172 163.626 517.418 163.682 517.635 163.794C517.859 163.899 518.01 164.004 518.089 164.109L518.217 164.277H518.237V161.802H519.519V169H518.316ZM522.128 167.58C522.338 167.856 522.627 167.994 522.996 167.994C523.364 167.994 523.653 167.856 523.863 167.58C524.074 167.298 524.179 166.9 524.179 166.387C524.179 165.874 524.07 165.48 523.853 165.204C523.643 164.921 523.357 164.78 522.996 164.78C522.634 164.78 522.345 164.918 522.128 165.194C521.917 165.47 521.812 165.868 521.812 166.387C521.812 166.906 521.917 167.304 522.128 167.58ZM524.751 168.418C524.29 168.905 523.705 169.148 522.996 169.148C522.286 169.148 521.701 168.905 521.24 168.418C520.78 167.932 520.55 167.255 520.55 166.387C520.55 165.533 520.787 164.859 521.26 164.366C521.733 163.873 522.312 163.626 522.996 163.626C523.679 163.626 524.258 163.873 524.731 164.366C525.204 164.859 525.441 165.533 525.441 166.387C525.441 167.255 525.211 167.932 524.751 168.418ZM527.239 169L526.086 163.774H527.338L528.028 167.265H528.058L529.221 163.774H530.385L531.459 167.255H531.479L532.268 163.774H533.5L532.248 169H530.986L529.793 165.243H529.773L528.482 169H527.239Z" fill="#7986A3"/>
<path d="M454.148 200L453.753 198.866H451.121L450.726 200H449.405L451.9 193.098H453.034L455.518 200H454.148ZM452.432 195.07L451.495 197.762H453.379L452.452 195.07H452.432ZM461.423 200.148C460.536 200.148 459.813 199.842 459.254 199.231C458.702 198.613 458.426 197.683 458.426 196.441C458.426 195.349 458.718 194.495 459.303 193.877C459.895 193.259 460.598 192.95 461.413 192.95C462.11 192.95 462.702 193.161 463.188 193.581C463.681 194.002 463.977 194.574 464.075 195.297L462.744 195.514C462.58 194.626 462.14 194.183 461.423 194.183C460.97 194.183 460.585 194.38 460.27 194.774C459.954 195.169 459.796 195.724 459.796 196.441C459.796 197.282 459.947 197.906 460.25 198.314C460.559 198.715 460.95 198.915 461.423 198.915C461.85 198.915 462.186 198.794 462.429 198.551C462.679 198.307 462.804 197.966 462.804 197.525H461.522V196.391H464.075V197.308C464.075 198.182 463.829 198.876 463.336 199.389C462.843 199.895 462.205 200.148 461.423 200.148ZM468.141 200V199.497H468.121C468.108 199.517 468.092 199.543 468.072 199.576C468.052 199.602 468.003 199.652 467.924 199.724C467.845 199.796 467.756 199.862 467.658 199.921C467.559 199.98 467.424 200.033 467.254 200.079C467.083 200.125 466.899 200.148 466.701 200.148C466.07 200.148 465.597 200 465.282 199.704C464.973 199.402 464.818 199.034 464.818 198.6C464.818 198.146 464.953 197.801 465.222 197.565C465.492 197.328 465.949 197.131 466.593 196.973C467.191 196.828 467.566 196.713 467.717 196.628C467.868 196.542 467.944 196.421 467.944 196.263C467.944 196.105 467.868 195.974 467.717 195.869C467.572 195.764 467.352 195.711 467.056 195.711C466.708 195.711 466.458 195.79 466.307 195.948C466.156 196.099 466.037 196.306 465.952 196.569L464.887 196.125C465.012 195.685 465.255 195.326 465.617 195.05C465.978 194.768 466.452 194.626 467.037 194.626C467.674 194.626 468.197 194.794 468.604 195.129C469.012 195.464 469.216 195.984 469.216 196.687V200H468.141ZM466.849 197.86C466.521 197.939 466.304 198.035 466.199 198.146C466.1 198.252 466.051 198.373 466.051 198.511C466.051 198.866 466.307 199.044 466.82 199.044C467.208 199.044 467.497 198.971 467.687 198.827C467.885 198.675 467.983 198.491 467.983 198.275V197.367H467.963C467.937 197.42 467.908 197.463 467.875 197.496C467.848 197.522 467.75 197.571 467.579 197.643C467.408 197.709 467.165 197.782 466.849 197.86ZM470.498 200V194.774H471.71V195.326H471.73C471.829 195.129 471.973 194.971 472.164 194.853C472.361 194.735 472.575 194.676 472.805 194.676C472.969 194.676 473.127 194.709 473.278 194.774L473.081 196.017C472.936 195.964 472.802 195.938 472.677 195.938C472.078 195.938 471.779 196.335 471.779 197.131V200H470.498ZM477.362 197.86V196.904C477.362 196.588 477.26 196.322 477.056 196.105C476.859 195.888 476.586 195.78 476.238 195.78C475.863 195.78 475.571 195.915 475.36 196.184C475.157 196.454 475.055 196.855 475.055 197.387C475.055 197.913 475.157 198.314 475.36 198.59C475.571 198.86 475.863 198.994 476.238 198.994C476.586 198.994 476.859 198.886 477.056 198.669C477.26 198.445 477.362 198.176 477.362 197.86ZM477.441 200V199.497H477.421C477.388 199.543 477.339 199.602 477.273 199.675C477.214 199.747 477.063 199.846 476.82 199.97C476.583 200.089 476.323 200.148 476.041 200.148C475.351 200.148 474.798 199.898 474.384 199.399C473.977 198.899 473.773 198.229 473.773 197.387C473.773 196.539 473.996 195.869 474.443 195.376C474.89 194.876 475.416 194.626 476.021 194.626C476.297 194.626 476.544 194.682 476.761 194.794C476.984 194.899 477.135 195.004 477.214 195.109L477.342 195.277H477.362V192.802H478.644V200H477.441ZM483.412 198.196L484.31 198.984C483.777 199.76 483.057 200.148 482.15 200.148C481.421 200.148 480.826 199.898 480.366 199.399C479.905 198.892 479.675 198.222 479.675 197.387C479.675 196.552 479.902 195.885 480.356 195.386C480.816 194.879 481.394 194.626 482.091 194.626C482.788 194.626 483.36 194.879 483.807 195.386C484.26 195.885 484.487 196.552 484.487 197.387V197.772H480.977C480.997 198.173 481.105 198.482 481.302 198.698C481.506 198.909 481.782 199.014 482.131 199.014C482.426 199.014 482.67 198.942 482.86 198.797C483.057 198.646 483.241 198.445 483.412 198.196ZM480.977 196.815H483.245C483.212 196.48 483.097 196.22 482.9 196.036C482.702 195.846 482.433 195.75 482.091 195.75C481.776 195.75 481.516 195.852 481.312 196.056C481.115 196.26 481.003 196.513 480.977 196.815ZM485.519 200V194.774H486.751V195.277H486.771C486.915 195.093 487.113 194.939 487.362 194.814C487.612 194.689 487.875 194.626 488.151 194.626C488.73 194.626 489.183 194.801 489.512 195.149C489.841 195.491 490.005 195.967 490.005 196.579V200H488.723V196.894C488.723 196.533 488.654 196.263 488.516 196.086C488.378 195.902 488.141 195.81 487.806 195.81C487.491 195.81 487.244 195.902 487.067 196.086C486.889 196.263 486.8 196.503 486.8 196.805V200H485.519Z" fill="#7986A3"/>
<path d="M439.49 325V318.098H440.861L442.863 322.574H442.882L444.884 318.098H446.264V325H444.963V320.76H444.943L442.981 325H442.764L440.802 320.76H440.782V325H439.49ZM447.74 325V319.774H449.022V325H447.74ZM447.74 319.015V317.802H449.022V319.015H447.74ZM453.642 322.86V321.904C453.642 321.588 453.54 321.322 453.336 321.105C453.139 320.888 452.866 320.78 452.517 320.78C452.143 320.78 451.85 320.915 451.64 321.184C451.436 321.454 451.334 321.855 451.334 322.387C451.334 322.913 451.436 323.314 451.64 323.59C451.85 323.86 452.143 323.994 452.517 323.994C452.866 323.994 453.139 323.886 453.336 323.669C453.54 323.445 453.642 323.176 453.642 322.86ZM453.72 325V324.497H453.701C453.668 324.543 453.619 324.602 453.553 324.675C453.494 324.747 453.342 324.846 453.099 324.97C452.863 325.089 452.603 325.148 452.32 325.148C451.63 325.148 451.078 324.898 450.664 324.399C450.256 323.899 450.053 323.229 450.053 322.387C450.053 321.539 450.276 320.869 450.723 320.376C451.17 319.876 451.696 319.626 452.301 319.626C452.577 319.626 452.823 319.682 453.04 319.794C453.264 319.899 453.415 320.004 453.494 320.109L453.622 320.277H453.642V317.802H454.923V325H453.72ZM462.817 322.259L464.198 322.565C464.086 323.367 463.794 323.998 463.32 324.458C462.847 324.918 462.229 325.148 461.467 325.148C460.579 325.148 459.856 324.842 459.297 324.231C458.745 323.613 458.469 322.683 458.469 321.441C458.469 320.349 458.762 319.495 459.347 318.877C459.938 318.259 460.642 317.95 461.457 317.95C462.167 317.95 462.768 318.174 463.261 318.621C463.761 319.061 464.05 319.656 464.129 320.405L462.808 320.612C462.748 320.192 462.61 319.85 462.393 319.587C462.177 319.317 461.868 319.183 461.467 319.183C461.013 319.183 460.629 319.38 460.313 319.774C459.998 320.169 459.84 320.724 459.84 321.441C459.84 322.282 459.991 322.906 460.293 323.314C460.602 323.715 460.993 323.915 461.467 323.915C462.242 323.915 462.693 323.363 462.817 322.259ZM465.186 323.146V319.774H466.468V323.008C466.468 323.337 466.531 323.57 466.655 323.708C466.78 323.846 466.981 323.915 467.257 323.915C467.566 323.915 467.816 323.837 468.006 323.679C468.197 323.514 468.292 323.258 468.292 322.91V319.774H469.574V325H468.351V324.497H468.332C468.01 324.931 467.556 325.148 466.971 325.148C466.366 325.148 465.916 324.967 465.62 324.606C465.331 324.244 465.186 323.758 465.186 323.146ZM472.237 321.904V322.86C472.237 323.176 472.336 323.445 472.533 323.669C472.737 323.886 473.013 323.994 473.361 323.994C473.736 323.994 474.025 323.86 474.229 323.59C474.439 323.314 474.544 322.913 474.544 322.387C474.544 321.855 474.439 321.454 474.229 321.184C474.025 320.915 473.736 320.78 473.361 320.78C473.013 320.78 472.737 320.888 472.533 321.105C472.336 321.322 472.237 321.588 472.237 321.904ZM470.955 325V317.802H472.237V320.277H472.257C472.27 320.257 472.286 320.234 472.306 320.208C472.326 320.175 472.375 320.123 472.454 320.05C472.539 319.978 472.628 319.912 472.72 319.853C472.819 319.794 472.944 319.741 473.095 319.695C473.253 319.649 473.417 319.626 473.588 319.626C474.232 319.626 474.764 319.883 475.185 320.395C475.612 320.902 475.826 321.565 475.826 322.387C475.826 323.229 475.619 323.899 475.205 324.399C474.797 324.898 474.248 325.148 473.558 325.148C473.276 325.148 473.019 325.095 472.789 324.99C472.559 324.878 472.401 324.77 472.316 324.665L472.178 324.497H472.158V325H470.955ZM478.139 321.904V322.86C478.139 323.176 478.238 323.445 478.435 323.669C478.639 323.886 478.915 323.994 479.263 323.994C479.638 323.994 479.927 323.86 480.131 323.59C480.341 323.314 480.447 322.913 480.447 322.387C480.447 321.855 480.341 321.454 480.131 321.184C479.927 320.915 479.638 320.78 479.263 320.78C478.915 320.78 478.639 320.888 478.435 321.105C478.238 321.322 478.139 321.588 478.139 321.904ZM476.858 325V317.802H478.139V320.277H478.159C478.172 320.257 478.189 320.234 478.208 320.208C478.228 320.175 478.277 320.123 478.356 320.05C478.442 319.978 478.531 319.912 478.623 319.853C478.721 319.794 478.846 319.741 478.997 319.695C479.155 319.649 479.319 319.626 479.49 319.626C480.134 319.626 480.667 319.883 481.088 320.395C481.515 320.902 481.728 321.565 481.728 322.387C481.728 323.229 481.521 323.899 481.107 324.399C480.7 324.898 480.151 325.148 479.461 325.148C479.178 325.148 478.922 325.095 478.692 324.99C478.461 324.878 478.304 324.77 478.218 324.665L478.08 324.497H478.061V325H476.858ZM482.972 327.218L484.017 324.744L481.927 319.774H483.228L484.579 323.314H484.599L485.949 319.774H487.251L484.244 327.218H482.972Z" fill="#7986A3"/>
<path d="M380.48 380V373.098H381.851L383.852 377.574H383.872L385.873 373.098H387.254V380H385.952V375.76H385.933L383.97 380H383.754L381.791 375.76H381.772V380H380.48ZM388.73 380V374.774H390.011V380H388.73ZM388.73 374.015V372.802H390.011V374.015H388.73ZM394.631 377.86V376.904C394.631 376.588 394.529 376.322 394.325 376.105C394.128 375.888 393.855 375.78 393.507 375.78C393.132 375.78 392.84 375.915 392.63 376.184C392.426 376.454 392.324 376.855 392.324 377.387C392.324 377.913 392.426 378.314 392.63 378.59C392.84 378.86 393.132 378.994 393.507 378.994C393.855 378.994 394.128 378.886 394.325 378.669C394.529 378.445 394.631 378.176 394.631 377.86ZM394.71 380V379.497H394.69C394.657 379.543 394.608 379.602 394.542 379.675C394.483 379.747 394.332 379.846 394.089 379.97C393.852 380.089 393.593 380.148 393.31 380.148C392.62 380.148 392.068 379.898 391.653 379.399C391.246 378.899 391.042 378.229 391.042 377.387C391.042 376.539 391.266 375.869 391.713 375.376C392.16 374.876 392.685 374.626 393.29 374.626C393.566 374.626 393.813 374.682 394.03 374.794C394.253 374.899 394.404 375.004 394.483 375.109L394.611 375.277H394.631V372.802H395.913V380H394.71ZM403.807 377.259L405.187 377.565C405.076 378.367 404.783 378.998 404.31 379.458C403.837 379.918 403.219 380.148 402.456 380.148C401.569 380.148 400.846 379.842 400.287 379.231C399.735 378.613 399.459 377.683 399.459 376.441C399.459 375.349 399.751 374.495 400.336 373.877C400.928 373.259 401.631 372.95 402.446 372.95C403.156 372.95 403.758 373.174 404.251 373.621C404.75 374.061 405.04 374.656 405.118 375.405L403.797 375.612C403.738 375.192 403.6 374.85 403.383 374.587C403.166 374.317 402.857 374.183 402.456 374.183C402.003 374.183 401.618 374.38 401.303 374.774C400.987 375.169 400.829 375.724 400.829 376.441C400.829 377.282 400.981 377.906 401.283 378.314C401.592 378.715 401.983 378.915 402.456 378.915C403.232 378.915 403.682 378.363 403.807 377.259ZM409.203 380V379.497H409.183C409.17 379.517 409.154 379.543 409.134 379.576C409.114 379.602 409.065 379.652 408.986 379.724C408.907 379.796 408.818 379.862 408.72 379.921C408.621 379.98 408.486 380.033 408.316 380.079C408.145 380.125 407.961 380.148 407.763 380.148C407.132 380.148 406.659 380 406.344 379.704C406.035 379.402 405.88 379.034 405.88 378.6C405.88 378.146 406.015 377.801 406.284 377.565C406.554 377.328 407.011 377.131 407.655 376.973C408.253 376.828 408.628 376.713 408.779 376.628C408.93 376.542 409.006 376.421 409.006 376.263C409.006 376.105 408.93 375.974 408.779 375.869C408.634 375.764 408.414 375.711 408.118 375.711C407.77 375.711 407.52 375.79 407.369 375.948C407.218 376.099 407.099 376.306 407.014 376.569L405.949 376.125C406.074 375.685 406.317 375.326 406.679 375.05C407.04 374.768 407.514 374.626 408.099 374.626C408.736 374.626 409.259 374.794 409.666 375.129C410.074 375.464 410.278 375.984 410.278 376.687V380H409.203ZM407.911 377.86C407.583 377.939 407.366 378.035 407.261 378.146C407.162 378.252 407.113 378.373 407.113 378.511C407.113 378.866 407.369 379.044 407.882 379.044C408.27 379.044 408.559 378.971 408.749 378.827C408.947 378.675 409.045 378.491 409.045 378.275V377.367H409.025C408.999 377.42 408.97 377.463 408.937 377.496C408.91 377.522 408.812 377.571 408.641 377.643C408.47 377.709 408.227 377.782 407.911 377.86ZM411.826 378.136V375.859H411.017V374.774H411.855V373.492H413.068V374.774H414.389V375.859H413.088V378.018C413.088 378.294 413.134 378.488 413.226 378.6C413.318 378.712 413.505 378.768 413.788 378.768H414.212V380H413.67C412.966 380 412.483 379.852 412.22 379.556C411.957 379.261 411.826 378.787 411.826 378.136ZM416.132 380L414.978 374.774H416.23L416.921 378.265H416.95L418.114 374.774H419.277L420.352 378.255H420.372L421.16 374.774H422.393L421.141 380H419.879L418.686 376.243H418.666L417.374 380H416.132ZM426.256 380V379.497H426.236C426.223 379.517 426.206 379.543 426.187 379.576C426.167 379.602 426.118 379.652 426.039 379.724C425.96 379.796 425.871 379.862 425.772 379.921C425.674 379.98 425.539 380.033 425.368 380.079C425.197 380.125 425.013 380.148 424.816 380.148C424.185 380.148 423.712 380 423.396 379.704C423.087 379.402 422.933 379.034 422.933 378.6C422.933 378.146 423.068 377.801 423.337 377.565C423.607 377.328 424.063 377.131 424.708 376.973C425.306 376.828 425.68 376.713 425.832 376.628C425.983 376.542 426.058 376.421 426.058 376.263C426.058 376.105 425.983 375.974 425.832 375.869C425.687 375.764 425.467 375.711 425.171 375.711C424.823 375.711 424.573 375.79 424.422 375.948C424.27 376.099 424.152 376.306 424.067 376.569L423.002 376.125C423.127 375.685 423.37 375.326 423.731 375.05C424.093 374.768 424.566 374.626 425.151 374.626C425.789 374.626 426.311 374.794 426.719 375.129C427.127 375.464 427.33 375.984 427.33 376.687V380H426.256ZM424.964 377.86C424.635 377.939 424.418 378.035 424.313 378.146C424.215 378.252 424.165 378.373 424.165 378.511C424.165 378.866 424.422 379.044 424.934 379.044C425.322 379.044 425.611 378.971 425.802 378.827C425.999 378.675 426.098 378.491 426.098 378.275V377.367H426.078C426.052 377.42 426.022 377.463 425.989 377.496C425.963 377.522 425.864 377.571 425.694 377.643C425.523 377.709 425.279 377.782 424.964 377.86ZM428.612 380V372.802H429.943V380H428.612ZM431.328 380V372.802H432.609V376.934H432.629L434.532 374.774H436.139L434.256 376.894L436.307 380H434.887L433.29 377.614H433.27L432.609 378.363V380H431.328Z" fill="#7986A3"/>
<path d="M324.359 351V344.098H325.729L327.731 348.574H327.751L329.752 344.098H331.133V351H329.831V346.76H329.811L327.849 351H327.632L325.67 346.76H325.651V351H324.359ZM332.609 351V345.774H333.89V351H332.609ZM332.609 345.015V343.802H333.89V345.015H332.609ZM338.51 348.86V347.904C338.51 347.588 338.408 347.322 338.204 347.105C338.007 346.888 337.734 346.78 337.386 346.78C337.011 346.78 336.719 346.915 336.508 347.184C336.305 347.454 336.203 347.855 336.203 348.387C336.203 348.913 336.305 349.314 336.508 349.59C336.719 349.86 337.011 349.994 337.386 349.994C337.734 349.994 338.007 349.886 338.204 349.669C338.408 349.445 338.51 349.176 338.51 348.86ZM338.589 351V350.497H338.569C338.536 350.543 338.487 350.602 338.421 350.675C338.362 350.747 338.211 350.846 337.968 350.97C337.731 351.089 337.471 351.148 337.189 351.148C336.499 351.148 335.946 350.898 335.532 350.399C335.125 349.899 334.921 349.229 334.921 348.387C334.921 347.539 335.144 346.869 335.591 346.376C336.038 345.876 336.564 345.626 337.169 345.626C337.445 345.626 337.692 345.682 337.909 345.794C338.132 345.899 338.283 346.004 338.362 346.109L338.49 346.277H338.51V343.802H339.792V351H338.589ZM347.686 348.259L349.066 348.565C348.955 349.367 348.662 349.998 348.189 350.458C347.716 350.918 347.098 351.148 346.335 351.148C345.448 351.148 344.725 350.842 344.166 350.231C343.614 349.613 343.338 348.683 343.338 347.441C343.338 346.349 343.63 345.495 344.215 344.877C344.807 344.259 345.51 343.95 346.325 343.95C347.035 343.95 347.637 344.174 348.13 344.621C348.629 345.061 348.918 345.656 348.997 346.405L347.676 346.612C347.617 346.192 347.479 345.85 347.262 345.587C347.045 345.317 346.736 345.183 346.335 345.183C345.882 345.183 345.497 345.38 345.182 345.774C344.866 346.169 344.708 346.724 344.708 347.441C344.708 348.282 344.859 348.906 345.162 349.314C345.471 349.715 345.862 349.915 346.335 349.915C347.111 349.915 347.561 349.363 347.686 348.259ZM351.337 349.58C351.547 349.856 351.836 349.994 352.204 349.994C352.572 349.994 352.862 349.856 353.072 349.58C353.282 349.298 353.387 348.9 353.387 348.387C353.387 347.874 353.279 347.48 353.062 347.204C352.852 346.921 352.566 346.78 352.204 346.78C351.843 346.78 351.553 346.918 351.337 347.194C351.126 347.47 351.021 347.868 351.021 348.387C351.021 348.906 351.126 349.304 351.337 349.58ZM353.959 350.418C353.499 350.905 352.914 351.148 352.204 351.148C351.494 351.148 350.909 350.905 350.449 350.418C349.989 349.932 349.759 349.255 349.759 348.387C349.759 347.533 349.996 346.859 350.469 346.366C350.942 345.873 351.521 345.626 352.204 345.626C352.888 345.626 353.466 345.873 353.94 346.366C354.413 346.859 354.649 347.533 354.649 348.387C354.649 349.255 354.419 349.932 353.959 350.418ZM355.639 349.146V345.774H356.921V349.008C356.921 349.337 356.984 349.57 357.109 349.708C357.234 349.846 357.434 349.915 357.71 349.915C358.019 349.915 358.269 349.837 358.459 349.679C358.65 349.514 358.745 349.258 358.745 348.91V345.774H360.027V351H358.805V350.497H358.785C358.463 350.931 358.009 351.148 357.424 351.148C356.819 351.148 356.369 350.967 356.073 350.606C355.784 350.244 355.639 349.758 355.639 349.146ZM361.408 351V345.774H362.621V346.326H362.641C362.739 346.129 362.884 345.971 363.075 345.853C363.272 345.735 363.485 345.676 363.716 345.676C363.88 345.676 364.038 345.709 364.189 345.774L363.992 347.017C363.847 346.964 363.712 346.938 363.587 346.938C362.989 346.938 362.69 347.335 362.69 348.131V351H361.408ZM365.391 349.136V346.859H364.583V345.774H365.421V344.492H366.634V345.774H367.955V346.859H366.653V349.018C366.653 349.294 366.699 349.488 366.791 349.6C366.883 349.712 367.071 349.768 367.353 349.768H367.777V351H367.235C366.532 351 366.049 350.852 365.786 350.556C365.523 350.261 365.391 349.787 365.391 349.136ZM369.342 353.218L370.387 350.744L368.297 345.774H369.599L370.949 349.314H370.969L372.32 345.774H373.622L370.614 353.218H369.342ZM377.24 351V350.497H377.221C377.208 350.517 377.191 350.543 377.171 350.576C377.152 350.602 377.102 350.652 377.024 350.724C376.945 350.796 376.856 350.862 376.757 350.921C376.659 350.98 376.524 351.033 376.353 351.079C376.182 351.125 375.998 351.148 375.801 351.148C375.17 351.148 374.697 351 374.381 350.704C374.072 350.402 373.918 350.034 373.918 349.6C373.918 349.146 374.052 348.801 374.322 348.565C374.591 348.328 375.048 348.131 375.692 347.973C376.291 347.828 376.665 347.713 376.817 347.628C376.968 347.542 377.043 347.421 377.043 347.263C377.043 347.105 376.968 346.974 376.817 346.869C376.672 346.764 376.452 346.711 376.156 346.711C375.808 346.711 375.558 346.79 375.407 346.948C375.255 347.099 375.137 347.306 375.052 347.569L373.987 347.125C374.112 346.685 374.355 346.326 374.716 346.05C375.078 345.768 375.551 345.626 376.136 345.626C376.774 345.626 377.296 345.794 377.704 346.129C378.111 346.464 378.315 346.984 378.315 347.687V351H377.24ZM375.949 348.86C375.62 348.939 375.403 349.035 375.298 349.146C375.199 349.252 375.15 349.373 375.15 349.511C375.15 349.866 375.407 350.044 375.919 350.044C376.307 350.044 376.596 349.971 376.787 349.827C376.984 349.675 377.083 349.491 377.083 349.275V348.367H377.063C377.037 348.42 377.007 348.463 376.974 348.496C376.948 348.522 376.849 348.571 376.678 348.643C376.508 348.709 376.264 348.782 375.949 348.86ZM379.597 351V345.774H380.81V346.326H380.83C380.928 346.129 381.073 345.971 381.263 345.853C381.461 345.735 381.674 345.676 381.904 345.676C382.069 345.676 382.226 345.709 382.378 345.774L382.18 347.017C382.036 346.964 381.901 346.938 381.776 346.938C381.178 346.938 380.879 347.335 380.879 348.131V351H379.597ZM386.462 348.86V347.904C386.462 347.588 386.36 347.322 386.156 347.105C385.959 346.888 385.686 346.78 385.337 346.78C384.963 346.78 384.67 346.915 384.46 347.184C384.256 347.454 384.154 347.855 384.154 348.387C384.154 348.913 384.256 349.314 384.46 349.59C384.67 349.86 384.963 349.994 385.337 349.994C385.686 349.994 385.959 349.886 386.156 349.669C386.36 349.445 386.462 349.176 386.462 348.86ZM386.54 351V350.497H386.521C386.488 350.543 386.439 350.602 386.373 350.675C386.314 350.747 386.162 350.846 385.919 350.97C385.683 351.089 385.423 351.148 385.14 351.148C384.45 351.148 383.898 350.898 383.484 350.399C383.076 349.899 382.873 349.229 382.873 348.387C382.873 347.539 383.096 346.869 383.543 346.376C383.99 345.876 384.516 345.626 385.121 345.626C385.397 345.626 385.643 345.682 385.86 345.794C386.084 345.899 386.235 346.004 386.314 346.109L386.442 346.277H386.462V343.802H387.743V351H386.54Z" fill="#7986A3"/>
<path d="M260.473 373V366.098H261.844L263.845 370.574H263.865L265.867 366.098H267.247V373H265.946V368.76H265.926L263.964 373H263.747L261.785 368.76H261.765V373H260.473ZM268.723 373V367.774H270.005V373H268.723ZM268.723 367.015V365.802H270.005V367.015H268.723ZM274.624 370.86V369.904C274.624 369.588 274.523 369.322 274.319 369.105C274.122 368.888 273.849 368.78 273.5 368.78C273.126 368.78 272.833 368.915 272.623 369.184C272.419 369.454 272.317 369.855 272.317 370.387C272.317 370.913 272.419 371.314 272.623 371.59C272.833 371.86 273.126 371.994 273.5 371.994C273.849 371.994 274.122 371.886 274.319 371.669C274.523 371.445 274.624 371.176 274.624 370.86ZM274.703 373V372.497H274.684C274.651 372.543 274.601 372.602 274.536 372.675C274.477 372.747 274.325 372.846 274.082 372.97C273.845 373.089 273.586 373.148 273.303 373.148C272.613 373.148 272.061 372.898 271.647 372.399C271.239 371.899 271.035 371.229 271.035 370.387C271.035 369.539 271.259 368.869 271.706 368.376C272.153 367.876 272.679 367.626 273.283 367.626C273.56 367.626 273.806 367.682 274.023 367.794C274.246 367.899 274.398 368.004 274.477 368.109L274.605 368.277H274.624V365.802H275.906V373H274.703ZM279.847 373V366.098H281.178V371.768H284.027V373H279.847ZM284.861 373V367.774H286.143V373H284.861ZM284.861 367.015V365.802H286.143V367.015H284.861ZM287.518 373V367.774H288.751V368.277H288.771C288.915 368.093 289.112 367.939 289.362 367.814C289.612 367.689 289.875 367.626 290.151 367.626C290.729 367.626 291.183 367.801 291.512 368.149C291.84 368.491 292.005 368.967 292.005 369.579V373H290.723V369.894C290.723 369.533 290.654 369.263 290.516 369.086C290.378 368.902 290.141 368.81 289.806 368.81C289.49 368.81 289.244 368.902 289.066 369.086C288.889 369.263 288.8 369.503 288.8 369.805V373H287.518ZM293.334 373V365.802H294.616V369.934H294.636L296.539 367.774H298.146L296.263 369.894L298.313 373H296.894L295.296 370.614H295.277L294.616 371.363V373H293.334Z" fill="#7986A3"/>
<path d="M177.489 405V398.098H180.418C181.029 398.098 181.519 398.279 181.887 398.64C182.261 398.995 182.449 399.432 182.449 399.952C182.449 400.53 182.199 400.967 181.699 401.263V401.273C181.995 401.398 182.235 401.598 182.419 401.874C182.61 402.144 182.705 402.469 182.705 402.851C182.705 403.508 182.505 404.034 182.104 404.428C181.703 404.809 181.042 405 180.122 405H177.489ZM178.82 403.768H180.427C181.059 403.768 181.374 403.462 181.374 402.851C181.374 402.568 181.289 402.351 181.118 402.2C180.953 402.042 180.727 401.963 180.437 401.963H178.82V403.768ZM178.82 400.879H180.25C180.519 400.879 180.73 400.816 180.881 400.691C181.039 400.56 181.118 400.369 181.118 400.119C181.118 399.856 181.042 399.659 180.891 399.528C180.74 399.396 180.526 399.331 180.25 399.331H178.82V400.879ZM186.357 405V398.098H187.688V403.768H190.538V405H186.357ZM192.604 403.58C192.815 403.856 193.104 403.994 193.472 403.994C193.84 403.994 194.129 403.856 194.34 403.58C194.55 403.298 194.655 402.9 194.655 402.387C194.655 401.874 194.547 401.48 194.33 401.204C194.119 400.921 193.833 400.78 193.472 400.78C193.11 400.78 192.821 400.918 192.604 401.194C192.394 401.47 192.289 401.868 192.289 402.387C192.289 402.906 192.394 403.304 192.604 403.58ZM195.227 404.418C194.767 404.905 194.182 405.148 193.472 405.148C192.762 405.148 192.177 404.905 191.717 404.418C191.257 403.932 191.027 403.255 191.027 402.387C191.027 401.533 191.263 400.859 191.736 400.366C192.21 399.873 192.788 399.626 193.472 399.626C194.155 399.626 194.734 399.873 195.207 400.366C195.68 400.859 195.917 401.533 195.917 402.387C195.917 403.255 195.687 403.932 195.227 404.418ZM198.238 401.904V402.86C198.238 403.176 198.337 403.445 198.534 403.669C198.738 403.886 199.014 403.994 199.362 403.994C199.737 403.994 200.026 403.86 200.23 403.59C200.44 403.314 200.545 402.913 200.545 402.387C200.545 401.855 200.44 401.454 200.23 401.184C200.026 400.915 199.737 400.78 199.362 400.78C199.014 400.78 198.738 400.888 198.534 401.105C198.337 401.322 198.238 401.588 198.238 401.904ZM196.956 405V397.802H198.238V400.277H198.258C198.271 400.257 198.287 400.234 198.307 400.208C198.327 400.175 198.376 400.123 198.455 400.05C198.541 399.978 198.629 399.912 198.721 399.853C198.82 399.794 198.945 399.741 199.096 399.695C199.254 399.649 199.418 399.626 199.589 399.626C200.233 399.626 200.766 399.883 201.186 400.395C201.614 400.902 201.827 401.565 201.827 402.387C201.827 403.229 201.62 403.899 201.206 404.399C200.798 404.898 200.25 405.148 199.559 405.148C199.277 405.148 199.02 405.095 198.79 404.99C198.56 404.878 198.403 404.77 198.317 404.665L198.179 404.497H198.159V405H196.956ZM204.141 401.904V402.86C204.141 403.176 204.239 403.445 204.436 403.669C204.64 403.886 204.916 403.994 205.265 403.994C205.639 403.994 205.929 403.86 206.132 403.59C206.343 403.314 206.448 402.913 206.448 402.387C206.448 401.855 206.343 401.454 206.132 401.184C205.929 400.915 205.639 400.78 205.265 400.78C204.916 400.78 204.64 400.888 204.436 401.105C204.239 401.322 204.141 401.588 204.141 401.904ZM202.859 405V397.802H204.141V400.277H204.16C204.174 400.257 204.19 400.234 204.21 400.208C204.229 400.175 204.279 400.123 204.358 400.05C204.443 399.978 204.532 399.912 204.624 399.853C204.722 399.794 204.847 399.741 204.998 399.695C205.156 399.649 205.321 399.626 205.491 399.626C206.136 399.626 206.668 399.883 207.089 400.395C207.516 400.902 207.73 401.565 207.73 402.387C207.73 403.229 207.523 403.899 207.108 404.399C206.701 404.898 206.152 405.148 205.462 405.148C205.179 405.148 204.923 405.095 204.693 404.99C204.463 404.878 204.305 404.77 204.22 404.665L204.081 404.497H204.062V405H202.859ZM208.973 407.218L210.018 404.744L207.928 399.774H209.229L210.58 403.314H210.6L211.951 399.774H213.252L210.245 407.218H208.973Z" fill="#7986A3"/>
<path d="M185.277 281V274.098H188.205C188.816 274.098 189.306 274.279 189.674 274.64C190.049 274.995 190.236 275.432 190.236 275.952C190.236 276.53 189.987 276.967 189.487 277.263V277.273C189.783 277.398 190.023 277.598 190.207 277.874C190.397 278.144 190.493 278.469 190.493 278.851C190.493 279.508 190.292 280.034 189.891 280.428C189.49 280.809 188.83 281 187.909 281H185.277ZM186.608 279.768H188.215C188.846 279.768 189.162 279.462 189.162 278.851C189.162 278.568 189.076 278.351 188.905 278.2C188.741 278.042 188.514 277.963 188.225 277.963H186.608V279.768ZM186.608 276.879H188.038C188.307 276.879 188.517 276.816 188.669 276.691C188.826 276.56 188.905 276.369 188.905 276.119C188.905 275.856 188.83 275.659 188.678 275.528C188.527 275.396 188.314 275.331 188.038 275.331H186.608V276.879ZM194.145 281V274.098H195.515L197.517 278.574H197.537L199.538 274.098H200.919V281H199.617V276.76H199.597L197.635 281H197.418L195.456 276.76H195.437V281H194.145ZM205.372 281V280.497H205.352C205.339 280.517 205.323 280.543 205.303 280.576C205.283 280.602 205.234 280.652 205.155 280.724C205.076 280.796 204.988 280.862 204.889 280.921C204.79 280.98 204.656 281.033 204.485 281.079C204.314 281.125 204.13 281.148 203.933 281.148C203.302 281.148 202.828 281 202.513 280.704C202.204 280.402 202.049 280.034 202.049 279.6C202.049 279.146 202.184 278.801 202.454 278.565C202.723 278.328 203.18 278.131 203.824 277.973C204.422 277.828 204.797 277.713 204.948 277.628C205.099 277.542 205.175 277.421 205.175 277.263C205.175 277.105 205.099 276.974 204.948 276.869C204.804 276.764 204.583 276.711 204.288 276.711C203.939 276.711 203.689 276.79 203.538 276.948C203.387 277.099 203.269 277.306 203.183 277.569L202.118 277.125C202.243 276.685 202.487 276.326 202.848 276.05C203.21 275.768 203.683 275.626 204.268 275.626C204.905 275.626 205.428 275.794 205.836 276.129C206.243 276.464 206.447 276.984 206.447 277.687V281H205.372ZM204.081 278.86C203.752 278.939 203.535 279.035 203.43 279.146C203.331 279.252 203.282 279.373 203.282 279.511C203.282 279.866 203.538 280.044 204.051 280.044C204.439 280.044 204.728 279.971 204.919 279.827C205.116 279.675 205.214 279.491 205.214 279.275V278.367H205.195C205.168 278.42 205.139 278.463 205.106 278.496C205.08 278.522 204.981 278.571 204.81 278.643C204.639 278.709 204.396 278.782 204.081 278.86ZM207.729 281V275.774H209.011V281H207.729ZM207.729 275.015V273.802H209.011V275.015H207.729ZM210.386 281V275.774H211.619V276.277H211.639C211.783 276.093 211.98 275.939 212.23 275.814C212.48 275.689 212.743 275.626 213.019 275.626C213.597 275.626 214.051 275.801 214.38 276.149C214.708 276.491 214.873 276.967 214.873 277.579V281H213.591V277.894C213.591 277.533 213.522 277.263 213.384 277.086C213.246 276.902 213.009 276.81 212.674 276.81C212.358 276.81 212.112 276.902 211.934 277.086C211.757 277.263 211.668 277.503 211.668 277.805V281H210.386Z" fill="#7986A3"/>
<path d="M45.9831 188V181.098H48.9115C49.5228 181.098 50.0125 181.279 50.3806 181.64C50.7553 181.995 50.9426 182.432 50.9426 182.952C50.9426 183.53 50.6928 183.967 50.1933 184.263V184.273C50.4891 184.398 50.729 184.598 50.913 184.874C51.1037 185.144 51.199 185.469 51.199 185.851C51.199 186.508 50.9985 187.034 50.5975 187.428C50.1965 187.809 49.5359 188 48.6157 188H45.9831ZM47.3142 186.768H48.9213C49.5524 186.768 49.8679 186.462 49.8679 185.851C49.8679 185.568 49.7824 185.351 49.6115 185.2C49.4472 185.042 49.2204 184.963 48.9312 184.963H47.3142V186.768ZM47.3142 183.879H48.7439C49.0134 183.879 49.2237 183.816 49.3749 183.691C49.5326 183.56 49.6115 183.369 49.6115 183.119C49.6115 182.856 49.5359 182.659 49.3847 182.528C49.2336 182.396 49.0199 182.331 48.7439 182.331H47.3142V183.879ZM54.8512 188V181.098H57.7796C58.3909 181.098 58.8806 181.279 59.2487 181.64C59.6234 181.995 59.8108 182.432 59.8108 182.952C59.8108 183.53 59.561 183.967 59.0614 184.263V184.273C59.3572 184.398 59.5971 184.598 59.7812 184.874C59.9718 185.144 60.0671 185.469 60.0671 185.851C60.0671 186.508 59.8666 187.034 59.4657 187.428C59.0647 187.809 58.4041 188 57.4838 188H54.8512ZM56.1823 186.768H57.7895C58.4205 186.768 58.736 186.462 58.736 185.851C58.736 185.568 58.6506 185.351 58.4797 185.2C58.3153 185.042 58.0886 184.963 57.7993 184.963H56.1823V186.768ZM56.1823 183.879H57.612C57.8815 183.879 58.0919 183.816 58.243 183.691C58.4008 183.56 58.4797 183.369 58.4797 183.119C58.4797 182.856 58.4041 182.659 58.2529 182.528C58.1017 182.396 57.8881 182.331 57.612 182.331H56.1823V183.879ZM64.1335 188V187.497H64.1138C64.1006 187.517 64.0842 187.543 64.0645 187.576C64.0447 187.602 63.9954 187.652 63.9166 187.724C63.8377 187.796 63.749 187.862 63.6504 187.921C63.5518 187.98 63.417 188.033 63.2461 188.079C63.0752 188.125 62.8911 188.148 62.6939 188.148C62.0629 188.148 61.5896 188 61.2741 187.704C60.9652 187.402 60.8107 187.034 60.8107 186.6C60.8107 186.146 60.9454 185.801 61.215 185.565C61.4845 185.328 61.9413 185.131 62.5855 184.973C63.1836 184.828 63.5583 184.713 63.7095 184.628C63.8607 184.542 63.9363 184.421 63.9363 184.263C63.9363 184.105 63.8607 183.974 63.7095 183.869C63.5649 183.764 63.3447 183.711 63.0489 183.711C62.7005 183.711 62.4507 183.79 62.2995 183.948C62.1484 184.099 62.03 184.306 61.9446 184.569L60.8797 184.125C61.0046 183.685 61.2478 183.326 61.6093 183.05C61.9709 182.768 62.4442 182.626 63.0292 182.626C63.6668 182.626 64.1894 182.794 64.5969 183.129C65.0044 183.464 65.2082 183.984 65.2082 184.687V188H64.1335ZM62.8418 185.86C62.5132 185.939 62.2963 186.035 62.1911 186.146C62.0925 186.252 62.0432 186.373 62.0432 186.511C62.0432 186.866 62.2995 187.044 62.8123 187.044C63.2001 187.044 63.4893 186.971 63.6799 186.827C63.8771 186.675 63.9757 186.491 63.9757 186.275V185.367H63.956C63.9297 185.42 63.9001 185.463 63.8673 185.496C63.841 185.522 63.7424 185.571 63.5715 185.643C63.4006 185.709 63.1574 185.782 62.8418 185.86ZM69.6256 185.89L70.8384 186.205C70.7201 186.83 70.4637 187.31 70.0693 187.645C69.6749 187.98 69.1786 188.148 68.5805 188.148C67.8706 188.148 67.2855 187.905 66.8254 187.418C66.3718 186.932 66.1451 186.255 66.1451 185.387C66.1451 184.526 66.3784 183.852 66.8451 183.366C67.3184 182.873 67.9001 182.626 68.5903 182.626C69.1754 182.626 69.6651 182.797 70.0595 183.139C70.4539 183.481 70.6971 183.938 70.7891 184.51L69.596 184.736C69.4711 184.099 69.1359 183.78 68.5903 183.78C68.2288 183.78 67.9396 183.918 67.7227 184.194C67.5123 184.464 67.4071 184.861 67.4071 185.387C67.4071 185.913 67.5123 186.314 67.7227 186.59C67.933 186.86 68.2222 186.994 68.5903 186.994C69.1688 186.994 69.5139 186.626 69.6256 185.89ZM71.8245 188V180.802H73.1063V184.934H73.126L75.029 182.774H76.6362L74.7529 184.894L76.8038 188H75.384L73.7867 185.614H73.7669L73.1063 186.363V188H71.8245Z" fill="#7986A3"/>
<path d="M325.285 285V278.098H326.656L328.658 282.574H328.677L330.679 278.098H332.059V285H330.758V280.76H330.738L328.776 285H328.559L326.597 280.76H326.577V285H325.285ZM333.535 285V279.774H334.817V285H333.535ZM333.535 279.015V277.802H334.817V279.015H333.535ZM339.437 282.86V281.904C339.437 281.588 339.335 281.322 339.131 281.105C338.934 280.888 338.661 280.78 338.312 280.78C337.938 280.78 337.645 280.915 337.435 281.184C337.231 281.454 337.129 281.855 337.129 282.387C337.129 282.913 337.231 283.314 337.435 283.59C337.645 283.86 337.938 283.994 338.312 283.994C338.661 283.994 338.934 283.886 339.131 283.669C339.335 283.445 339.437 283.176 339.437 282.86ZM339.515 285V284.497H339.496C339.463 284.543 339.414 284.602 339.348 284.675C339.289 284.747 339.137 284.846 338.894 284.97C338.658 285.089 338.398 285.148 338.115 285.148C337.425 285.148 336.873 284.898 336.459 284.399C336.051 283.899 335.848 283.229 335.848 282.387C335.848 281.539 336.071 280.869 336.518 280.376C336.965 279.876 337.491 279.626 338.096 279.626C338.372 279.626 338.618 279.682 338.835 279.794C339.059 279.899 339.21 280.004 339.289 280.109L339.417 280.277H339.437V277.802H340.718V285H339.515ZM344.659 285V278.098H347.587C348.198 278.098 348.688 278.279 349.056 278.64C349.431 278.995 349.618 279.432 349.618 279.952C349.618 280.53 349.368 280.967 348.869 281.263V281.273C349.165 281.398 349.405 281.598 349.589 281.874C349.779 282.144 349.875 282.469 349.875 282.851C349.875 283.508 349.674 284.034 349.273 284.428C348.872 284.809 348.212 285 347.291 285H344.659ZM345.99 283.768H347.597C348.228 283.768 348.543 283.462 348.543 282.851C348.543 282.568 348.458 282.351 348.287 282.2C348.123 282.042 347.896 281.963 347.607 281.963H345.99V283.768ZM345.99 280.879H347.419C347.689 280.879 347.899 280.816 348.05 280.691C348.208 280.56 348.287 280.369 348.287 280.119C348.287 279.856 348.212 279.659 348.06 279.528C347.909 279.396 347.696 279.331 347.419 279.331H345.99V280.879ZM352.196 283.58C352.406 283.856 352.695 283.994 353.063 283.994C353.431 283.994 353.721 283.856 353.931 283.58C354.141 283.298 354.247 282.9 354.247 282.387C354.247 281.874 354.138 281.48 353.921 281.204C353.711 280.921 353.425 280.78 353.063 280.78C352.702 280.78 352.413 280.918 352.196 281.194C351.985 281.47 351.88 281.868 351.88 282.387C351.88 282.906 351.985 283.304 352.196 283.58ZM354.818 284.418C354.358 284.905 353.773 285.148 353.063 285.148C352.353 285.148 351.768 284.905 351.308 284.418C350.848 283.932 350.618 283.255 350.618 282.387C350.618 281.533 350.855 280.859 351.328 280.366C351.801 279.873 352.38 279.626 353.063 279.626C353.747 279.626 354.325 279.873 354.799 280.366C355.272 280.859 355.509 281.533 355.509 282.387C355.509 283.255 355.279 283.932 354.818 284.418ZM356.814 283.136V280.859H356.006V279.774H356.844V278.492H358.057V279.774H359.378V280.859H358.076V283.018C358.076 283.294 358.122 283.488 358.214 283.6C358.306 283.712 358.494 283.768 358.776 283.768H359.2V285H358.658C357.955 285 357.471 284.852 357.209 284.556C356.946 284.261 356.814 283.787 356.814 283.136ZM360.531 283.136V280.859H359.722V279.774H360.56V278.492H361.773V279.774H363.094V280.859H361.793V283.018C361.793 283.294 361.839 283.488 361.931 283.6C362.023 283.712 362.21 283.768 362.493 283.768H362.917V285H362.375C361.671 285 361.188 284.852 360.925 284.556C360.662 284.261 360.531 283.787 360.531 283.136ZM365.31 283.58C365.521 283.856 365.81 283.994 366.178 283.994C366.546 283.994 366.835 283.856 367.046 283.58C367.256 283.298 367.361 282.9 367.361 282.387C367.361 281.874 367.253 281.48 367.036 281.204C366.825 280.921 366.539 280.78 366.178 280.78C365.816 280.78 365.527 280.918 365.31 281.194C365.1 281.47 364.995 281.868 364.995 282.387C364.995 282.906 365.1 283.304 365.31 283.58ZM367.933 284.418C367.473 284.905 366.888 285.148 366.178 285.148C365.468 285.148 364.883 284.905 364.423 284.418C363.963 283.932 363.733 283.255 363.733 282.387C363.733 281.533 363.969 280.859 364.442 280.366C364.916 279.873 365.494 279.626 366.178 279.626C366.861 279.626 367.44 279.873 367.913 280.366C368.386 280.859 368.623 281.533 368.623 282.387C368.623 283.255 368.393 283.932 367.933 284.418ZM369.662 285V279.774H370.836V280.277H370.855C370.974 280.093 371.145 279.939 371.368 279.814C371.598 279.689 371.848 279.626 372.118 279.626C372.394 279.626 372.653 279.692 372.896 279.824C373.14 279.948 373.324 280.113 373.449 280.317H373.468C373.6 280.113 373.787 279.948 374.03 279.824C374.274 279.692 374.54 279.626 374.829 279.626C375.453 279.626 375.946 279.791 376.308 280.119C376.676 280.448 376.86 280.882 376.86 281.421V285H375.687V281.687C375.687 281.431 375.611 281.22 375.46 281.056C375.315 280.892 375.089 280.81 374.78 280.81C374.49 280.81 374.267 280.885 374.109 281.036C373.958 281.187 373.882 281.381 373.882 281.618V285H372.709V281.687C372.709 281.437 372.63 281.23 372.472 281.066C372.315 280.895 372.091 280.81 371.802 280.81C371.506 280.81 371.283 280.885 371.132 281.036C370.98 281.187 370.905 281.381 370.905 281.618V285H369.662Z" fill="#7986A3"/>
<path d="M350.792 215V208.098H352.162L354.164 212.574H354.184L356.185 208.098H357.566V215H356.264V210.76H356.244L354.282 215H354.065L352.103 210.76H352.083V215H350.792ZM359.041 215V209.774H360.323V215H359.041ZM359.041 209.015V207.802H360.323V209.015H359.041ZM364.943 212.86V211.904C364.943 211.588 364.841 211.322 364.637 211.105C364.44 210.888 364.167 210.78 363.819 210.78C363.444 210.78 363.152 210.915 362.941 211.184C362.737 211.454 362.636 211.855 362.636 212.387C362.636 212.913 362.737 213.314 362.941 213.59C363.152 213.86 363.444 213.994 363.819 213.994C364.167 213.994 364.44 213.886 364.637 213.669C364.841 213.445 364.943 213.176 364.943 212.86ZM365.022 215V214.497H365.002C364.969 214.543 364.92 214.602 364.854 214.675C364.795 214.747 364.644 214.846 364.401 214.97C364.164 215.089 363.904 215.148 363.622 215.148C362.931 215.148 362.379 214.898 361.965 214.399C361.558 213.899 361.354 213.229 361.354 212.387C361.354 211.539 361.577 210.869 362.024 210.376C362.471 209.876 362.997 209.626 363.602 209.626C363.878 209.626 364.124 209.682 364.341 209.794C364.565 209.899 364.716 210.004 364.795 210.109L364.923 210.277H364.943V207.802H366.225V215H365.022ZM370.165 215V208.098H372.965C373.668 208.098 374.24 208.299 374.681 208.7C375.121 209.094 375.341 209.626 375.341 210.297C375.341 210.967 375.128 211.5 374.701 211.894C374.28 212.289 373.701 212.486 372.965 212.486H371.496V215H370.165ZM371.496 211.253H372.945C373.241 211.253 373.484 211.168 373.675 210.997C373.866 210.819 373.961 210.586 373.961 210.297C373.961 209.962 373.862 209.718 373.665 209.567C373.475 209.409 373.235 209.331 372.945 209.331H371.496V211.253ZM376.084 215V209.774H377.366V215H376.084ZM376.084 209.015V207.802H377.366V209.015H376.084ZM378.446 215V213.925L381.227 210.977V210.957H378.555V209.774H382.863V210.829L380.142 213.748V213.768H382.962V215H378.446ZM383.752 215V213.925L386.532 210.977V210.957H383.86V209.774H388.169V210.829L385.448 213.748V213.768H388.267V215H383.752ZM392.331 215V214.497H392.311C392.298 214.517 392.281 214.543 392.262 214.576C392.242 214.602 392.193 214.652 392.114 214.724C392.035 214.796 391.946 214.862 391.847 214.921C391.749 214.98 391.614 215.033 391.443 215.079C391.272 215.125 391.088 215.148 390.891 215.148C390.26 215.148 389.787 215 389.471 214.704C389.162 214.402 389.008 214.034 389.008 213.6C389.008 213.146 389.143 212.801 389.412 212.565C389.682 212.328 390.138 212.131 390.783 211.973C391.381 211.828 391.755 211.713 391.907 211.628C392.058 211.542 392.133 211.421 392.133 211.263C392.133 211.105 392.058 210.974 391.907 210.869C391.762 210.764 391.542 210.711 391.246 210.711C390.898 210.711 390.648 210.79 390.497 210.948C390.345 211.099 390.227 211.306 390.142 211.569L389.077 211.125C389.202 210.685 389.445 210.326 389.806 210.05C390.168 209.768 390.641 209.626 391.226 209.626C391.864 209.626 392.386 209.794 392.794 210.129C393.202 210.464 393.405 210.984 393.405 211.687V215H392.331ZM391.039 212.86C390.71 212.939 390.493 213.035 390.388 213.146C390.29 213.252 390.24 213.373 390.24 213.511C390.24 213.866 390.497 214.044 391.009 214.044C391.397 214.044 391.686 213.971 391.877 213.827C392.074 213.675 392.173 213.491 392.173 213.275V212.367H392.153C392.127 212.42 392.097 212.463 392.064 212.496C392.038 212.522 391.939 212.571 391.769 212.643C391.598 212.709 391.354 212.782 391.039 212.86Z" fill="#7986A3"/>
<path d="M282.056 204V197.098H283.426L285.428 201.574H285.448L287.449 197.098H288.83V204H287.528V199.76H287.508L285.546 204H285.329L283.367 199.76H283.347V204H282.056ZM290.305 204V198.774H291.587V204H290.305ZM290.305 198.015V196.802H291.587V198.015H290.305ZM296.207 201.86V200.904C296.207 200.588 296.105 200.322 295.901 200.105C295.704 199.888 295.431 199.78 295.083 199.78C294.708 199.78 294.416 199.915 294.205 200.184C294.001 200.454 293.9 200.855 293.9 201.387C293.9 201.913 294.001 202.314 294.205 202.59C294.416 202.86 294.708 202.994 295.083 202.994C295.431 202.994 295.704 202.886 295.901 202.669C296.105 202.445 296.207 202.176 296.207 201.86ZM296.286 204V203.497H296.266C296.233 203.543 296.184 203.602 296.118 203.675C296.059 203.747 295.908 203.846 295.665 203.97C295.428 204.089 295.168 204.148 294.886 204.148C294.195 204.148 293.643 203.898 293.229 203.399C292.822 202.899 292.618 202.229 292.618 201.387C292.618 200.539 292.841 199.869 293.288 199.376C293.735 198.876 294.261 198.626 294.866 198.626C295.142 198.626 295.388 198.682 295.605 198.794C295.829 198.899 295.98 199.004 296.059 199.109L296.187 199.277H296.207V196.802H297.489V204H296.286ZM301.429 204V197.098H302.799L304.801 201.574H304.821L306.822 197.098H308.203V204H306.901V199.76H306.881L304.919 204H304.702L302.74 199.76H302.721V204H301.429ZM312.656 204V203.497H312.637C312.623 203.517 312.607 203.543 312.587 203.576C312.568 203.602 312.518 203.652 312.439 203.724C312.36 203.796 312.272 203.862 312.173 203.921C312.075 203.98 311.94 204.033 311.769 204.079C311.598 204.125 311.414 204.148 311.217 204.148C310.586 204.148 310.112 204 309.797 203.704C309.488 203.402 309.333 203.034 309.333 202.6C309.333 202.146 309.468 201.801 309.738 201.565C310.007 201.328 310.464 201.131 311.108 200.973C311.706 200.828 312.081 200.713 312.232 200.628C312.383 200.542 312.459 200.421 312.459 200.263C312.459 200.105 312.383 199.974 312.232 199.869C312.088 199.764 311.867 199.711 311.572 199.711C311.223 199.711 310.973 199.79 310.822 199.948C310.671 200.099 310.553 200.306 310.467 200.569L309.402 200.125C309.527 199.685 309.771 199.326 310.132 199.05C310.494 198.768 310.967 198.626 311.552 198.626C312.19 198.626 312.712 198.794 313.12 199.129C313.527 199.464 313.731 199.984 313.731 200.687V204H312.656ZM311.365 201.86C311.036 201.939 310.819 202.035 310.714 202.146C310.615 202.252 310.566 202.373 310.566 202.511C310.566 202.866 310.822 203.044 311.335 203.044C311.723 203.044 312.012 202.971 312.203 202.827C312.4 202.675 312.498 202.491 312.498 202.275V201.367H312.479C312.452 201.42 312.423 201.463 312.39 201.496C312.364 201.522 312.265 201.571 312.094 201.643C311.923 201.709 311.68 201.782 311.365 201.86ZM315.013 204V198.774H316.226V199.326H316.245C316.344 199.129 316.489 198.971 316.679 198.853C316.876 198.735 317.09 198.676 317.32 198.676C317.484 198.676 317.642 198.709 317.793 198.774L317.596 200.017C317.452 199.964 317.317 199.938 317.192 199.938C316.594 199.938 316.295 200.335 316.295 201.131V204H315.013ZM318.633 204V196.802H319.915V200.934H319.935L321.838 198.774H323.445L321.562 200.894L323.613 204H322.193L320.595 201.614H320.576L319.915 202.363V204H318.633ZM327.504 202.196L328.401 202.984C327.869 203.76 327.149 204.148 326.242 204.148C325.512 204.148 324.917 203.898 324.457 203.399C323.997 202.892 323.767 202.222 323.767 201.387C323.767 200.552 323.994 199.885 324.447 199.386C324.908 198.879 325.486 198.626 326.183 198.626C326.88 198.626 327.451 198.879 327.898 199.386C328.352 199.885 328.579 200.552 328.579 201.387V201.772H325.069C325.088 202.173 325.197 202.482 325.394 202.698C325.598 202.909 325.874 203.014 326.222 203.014C326.518 203.014 326.761 202.942 326.952 202.797C327.149 202.646 327.333 202.445 327.504 202.196ZM325.069 200.815H327.336C327.303 200.48 327.188 200.22 326.991 200.036C326.794 199.846 326.525 199.75 326.183 199.75C325.867 199.75 325.608 199.852 325.404 200.056C325.207 200.26 325.095 200.513 325.069 200.815ZM329.876 202.136V199.859H329.068V198.774H329.906V197.492H331.119V198.774H332.44V199.859H331.139V202.018C331.139 202.294 331.185 202.488 331.277 202.6C331.369 202.712 331.556 202.768 331.839 202.768H332.263V204H331.72C331.017 204 330.534 203.852 330.271 203.556C330.008 203.261 329.876 202.787 329.876 202.136Z" fill="#7986A3"/>
<path d="M488.825 280L488.431 278.866H485.798L485.404 280H484.083L486.577 273.098H487.711L490.196 280H488.825ZM487.11 275.07L486.173 277.762H488.056L487.129 275.07H487.11ZM493.498 280V273.098H494.829V278.768H497.678V280H493.498ZM498.512 280V274.774H499.794V280H498.512ZM498.512 274.015V272.802H499.794V274.015H498.512ZM501.17 280V274.774H502.402V275.277H502.422C502.566 275.093 502.764 274.939 503.013 274.814C503.263 274.689 503.526 274.626 503.802 274.626C504.381 274.626 504.834 274.801 505.163 275.149C505.492 275.491 505.656 275.967 505.656 276.579V280H504.374V276.894C504.374 276.533 504.305 276.263 504.167 276.086C504.029 275.902 503.792 275.81 503.457 275.81C503.142 275.81 502.895 275.902 502.718 276.086C502.54 276.263 502.451 276.503 502.451 276.805V280H501.17ZM506.985 280V272.802H508.267V276.934H508.287L510.19 274.774H511.797L509.914 276.894L511.965 280H510.545L508.948 277.614H508.928L508.267 278.363V280H506.985Z" fill="#7986A3"/>
<path d="M656.996 346L656.601 344.866H653.969L653.574 346H652.253L654.748 339.098H655.882L658.366 346H656.996ZM655.28 341.07L654.344 343.762H656.227L655.3 341.07H655.28ZM662.516 346L661.175 339.098H662.526L663.413 343.791H663.443L665.031 339.098H665.701L667.288 343.791H667.318L668.205 339.098H669.527L668.186 346H666.805L665.385 341.711H665.326L663.897 346H662.516ZM670.515 346V340.774H671.797V346H670.515ZM670.515 340.015V338.802H671.797V340.015H670.515ZM673.172 346V340.774H674.405V341.277H674.425C674.569 341.093 674.766 340.939 675.016 340.814C675.266 340.689 675.529 340.626 675.805 340.626C676.383 340.626 676.837 340.801 677.166 341.149C677.494 341.491 677.659 341.967 677.659 342.579V346H676.377V342.894C676.377 342.533 676.308 342.263 676.17 342.086C676.032 341.902 675.795 341.81 675.46 341.81C675.144 341.81 674.898 341.902 674.72 342.086C674.543 342.263 674.454 342.503 674.454 342.805V346H673.172ZM682.38 344.196L683.277 344.984C682.745 345.76 682.025 346.148 681.118 346.148C680.388 346.148 679.793 345.898 679.333 345.399C678.873 344.892 678.643 344.222 678.643 343.387C678.643 342.552 678.87 341.885 679.323 341.386C679.784 340.879 680.362 340.626 681.059 340.626C681.756 340.626 682.327 340.879 682.774 341.386C683.228 341.885 683.455 342.552 683.455 343.387V343.772H679.945C679.964 344.173 680.073 344.482 680.27 344.698C680.474 344.909 680.75 345.014 681.098 345.014C681.394 345.014 681.637 344.942 681.828 344.797C682.025 344.646 682.209 344.445 682.38 344.196ZM679.945 342.815H682.212C682.18 342.48 682.065 342.22 681.867 342.036C681.67 341.846 681.401 341.75 681.059 341.75C680.743 341.75 680.484 341.852 680.28 342.056C680.083 342.26 679.971 342.513 679.945 342.815Z" fill="#7986A3"/>
<rect opacity="0.5" x="559" y="183" width="103" height="62" rx="4.1083" fill="#4D5F83" fill-opacity="0.15" stroke="#4D5F83" stroke-width="1.64332" stroke-miterlimit="16"/>
<g opacity="0.15">
<mask id="mask0" mask-type="alpha" maskUnits="userSpaceOnUse" x="559" y="183" width="103" height="62">
<rect x="559" y="183" width="103" height="62" rx="4.1083" fill="#C4C4C4"/>
</mask>
<g mask="url(#mask0)">
<rect width="182.241" height="3.70032" transform="matrix(-0.703677 0.703134 -0.703677 -0.703134 622.699 104.186)" fill="#4D5F83"/>
<rect width="182.241" height="3.70032" transform="matrix(-0.703676 0.703134 -0.703676 -0.703134 627.906 109.389)" fill="#4D5F83"/>
<rect width="182.241" height="3.70032" transform="matrix(-0.703676 0.703134 -0.703676 -0.703134 633.114 114.594)" fill="#4D5F83"/>
<rect width="182.241" height="3.70032" transform="matrix(-0.703676 0.703134 -0.703676 -0.703134 638.322 119.797)" fill="#4D5F83"/>
<rect width="182.241" height="3.70032" transform="matrix(-0.703676 0.703134 -0.703676 -0.703134 643.529 125.001)" fill="#4D5F83"/>
<rect width="182.241" height="3.70032" transform="matrix(-0.703676 0.703134 -0.703676 -0.703134 648.737 130.204)" fill="#4D5F83"/>
<rect width="182.241" height="3.70032" transform="matrix(-0.703676 0.703134 -0.703676 -0.703134 653.945 135.408)" fill="#4D5F83"/>
<rect width="182.241" height="3.70032" transform="matrix(-0.703676 0.703134 -0.703676 -0.703134 659.152 140.611)" fill="#4D5F83"/>
<rect width="182.241" height="3.70032" transform="matrix(-0.703676 0.703134 -0.703676 -0.703134 664.36 145.814)" fill="#4D5F83"/>
<rect width="182.241" height="3.70032" transform="matrix(-0.703676 0.703134 -0.703676 -0.703134 669.567 151.018)" fill="#4D5F83"/>
<rect width="182.241" height="3.70032" transform="matrix(-0.703676 0.703134 -0.703676 -0.703134 674.775 156.222)" fill="#4D5F83"/>
<rect width="182.241" height="3.70032" transform="matrix(-0.703676 0.703134 -0.703676 -0.703134 679.983 161.425)" fill="#4D5F83"/>
<rect width="182.241" height="3.70032" transform="matrix(-0.703676 0.703134 -0.703676 -0.703134 685.191 166.629)" fill="#4D5F83"/>
<rect width="182.241" height="3.70032" transform="matrix(-0.703677 0.703134 -0.703677 -0.703134 690.398 171.833)" fill="#4D5F83"/>
<rect width="182.241" height="3.70032" transform="matrix(-0.703677 0.703134 -0.703677 -0.703134 695.605 177.037)" fill="#4D5F83"/>
<rect width="182.241" height="3.70032" transform="matrix(-0.703676 0.703134 -0.703676 -0.703134 700.814 182.241)" fill="#4D5F83"/>
<rect width="182.241" height="3.70032" transform="matrix(-0.703676 0.703134 -0.703676 -0.703134 706.021 187.444)" fill="#4D5F83"/>
<rect width="182.241" height="3.70032" transform="matrix(-0.703676 0.703134 -0.703676 -0.703134 711.229 192.647)" fill="#4D5F83"/>
<rect width="182.241" height="3.70032" transform="matrix(-0.703676 0.703134 -0.703676 -0.703134 716.436 197.851)" fill="#4D5F83"/>
<rect width="182.241" height="3.70032" transform="matrix(-0.703676 0.703134 -0.703676 -0.703134 721.644 203.055)" fill="#4D5F83"/>
<rect width="182.241" height="3.70032" transform="matrix(-0.703676 0.703134 -0.703676 -0.703134 726.853 208.258)" fill="#4D5F83"/>
</g>
</g>
<path d="M613.311 218L612.654 216.11H608.266L607.609 218H605.407L609.564 206.497H611.454L615.595 218H613.311ZM610.452 209.783L608.891 214.27H612.029L610.485 209.783H610.452Z" fill="#E5EBEF"/>
<rect opacity="0.5" x="88" y="137" width="87" height="95" rx="4.1083" fill="#4D5F83" fill-opacity="0.15" stroke="#4D5F83" stroke-width="1.64332" stroke-miterlimit="16"/>
<g opacity="0.15">
<mask id="mask1" mask-type="alpha" maskUnits="userSpaceOnUse" x="88" y="137" width="87" height="95">
<rect x="88" y="137" width="87" height="95" rx="4.1083" fill="#C4C4C4"/>
</mask>
<g mask="url(#mask1)">
<rect width="182.241" height="3.70032" transform="matrix(-0.703677 0.703134 -0.703677 -0.703134 144.699 73.1857)" fill="#4D5F83"/>
<rect width="182.241" height="3.70032" transform="matrix(-0.703676 0.703134 -0.703676 -0.703134 149.906 78.3892)" fill="#4D5F83"/>
<rect width="182.241" height="3.70032" transform="matrix(-0.703676 0.703134 -0.703676 -0.703134 155.114 83.5935)" fill="#4D5F83"/>
<rect width="182.241" height="3.70032" transform="matrix(-0.703676 0.703134 -0.703676 -0.703134 160.322 88.7965)" fill="#4D5F83"/>
<rect width="182.241" height="3.70032" transform="matrix(-0.703676 0.703134 -0.703676 -0.703134 165.529 94.0006)" fill="#4D5F83"/>
<rect width="182.241" height="3.70032" transform="matrix(-0.703676 0.703134 -0.703676 -0.703134 170.736 99.2043)" fill="#4D5F83"/>
<rect width="182.241" height="3.70032" transform="matrix(-0.703676 0.703134 -0.703676 -0.703134 175.945 104.408)" fill="#4D5F83"/>
<rect width="182.241" height="3.70032" transform="matrix(-0.703676 0.703134 -0.703676 -0.703134 181.152 109.611)" fill="#4D5F83"/>
<rect width="182.241" height="3.70032" transform="matrix(-0.703676 0.703134 -0.703676 -0.703134 186.36 114.814)" fill="#4D5F83"/>
<rect width="182.241" height="3.70032" transform="matrix(-0.703676 0.703134 -0.703676 -0.703134 191.567 120.018)" fill="#4D5F83"/>
<rect width="182.241" height="3.70032" transform="matrix(-0.703676 0.703134 -0.703676 -0.703134 196.775 125.222)" fill="#4D5F83"/>
<rect width="182.241" height="3.70032" transform="matrix(-0.703676 0.703134 -0.703676 -0.703134 201.983 130.425)" fill="#4D5F83"/>
<rect width="182.241" height="3.70032" transform="matrix(-0.703676 0.703134 -0.703676 -0.703134 207.191 135.629)" fill="#4D5F83"/>
<rect width="182.241" height="3.70032" transform="matrix(-0.703677 0.703134 -0.703677 -0.703134 212.398 140.833)" fill="#4D5F83"/>
<rect width="182.241" height="3.70032" transform="matrix(-0.703677 0.703134 -0.703677 -0.703134 217.605 146.037)" fill="#4D5F83"/>
<rect width="182.241" height="3.70032" transform="matrix(-0.703676 0.703134 -0.703676 -0.703134 222.814 151.241)" fill="#4D5F83"/>
<rect width="182.241" height="3.70032" transform="matrix(-0.703676 0.703134 -0.703676 -0.703134 228.021 156.444)" fill="#4D5F83"/>
<rect width="182.241" height="3.70032" transform="matrix(-0.703676 0.703134 -0.703676 -0.703134 233.229 161.647)" fill="#4D5F83"/>
<rect width="182.241" height="3.70032" transform="matrix(-0.703676 0.703134 -0.703676 -0.703134 238.436 166.851)" fill="#4D5F83"/>
<rect width="182.241" height="3.70032" transform="matrix(-0.703676 0.703134 -0.703676 -0.703134 243.644 172.055)" fill="#4D5F83"/>
<rect width="182.241" height="3.70032" transform="matrix(-0.703676 0.703134 -0.703676 -0.703134 248.853 177.258)" fill="#4D5F83"/>
</g>
</g>
<path d="M127.479 189V177.497H132.359C133.378 177.497 134.194 177.798 134.808 178.401C135.432 178.992 135.745 179.721 135.745 180.586C135.745 181.55 135.328 182.279 134.496 182.772V182.788C134.989 182.996 135.389 183.331 135.695 183.791C136.013 184.24 136.172 184.782 136.172 185.418C136.172 186.513 135.838 187.39 135.169 188.047C134.501 188.682 133.4 189 131.866 189H127.479ZM129.697 186.946H132.376C133.427 186.946 133.953 186.436 133.953 185.418C133.953 184.946 133.811 184.585 133.526 184.333C133.252 184.07 132.874 183.939 132.392 183.939H129.697V186.946ZM129.697 182.131H132.08C132.529 182.131 132.88 182.027 133.132 181.819C133.395 181.6 133.526 181.282 133.526 180.866C133.526 180.427 133.4 180.099 133.148 179.88C132.896 179.66 132.54 179.551 132.08 179.551H129.697V182.131Z" fill="#E5EBEF"/>
<path d="M276.436 592L275.916 590.505H272.445L271.925 592H270.183L273.472 582.9H274.967L278.243 592H276.436ZM274.174 585.5L272.939 589.049H275.422L274.2 585.5H274.174ZM279.314 589.543V586.54H278.248V585.11H279.353V583.42H280.952V585.11H282.694V586.54H280.978V589.387C280.978 589.751 281.038 590.007 281.16 590.154C281.281 590.301 281.528 590.375 281.901 590.375H282.46V592H281.745C280.817 592 280.18 591.805 279.834 591.415C279.487 591.025 279.314 590.401 279.314 589.543ZM284.214 589.543V586.54H283.148V585.11H284.253V583.42H285.852V585.11H287.594V586.54H285.878V589.387C285.878 589.751 285.939 590.007 286.06 590.154C286.181 590.301 286.428 590.375 286.801 590.375H287.36V592H286.645C285.718 592 285.081 591.805 284.734 591.415C284.387 591.025 284.214 590.401 284.214 589.543ZM292.69 592V591.337H292.664C292.646 591.363 292.625 591.398 292.599 591.441C292.573 591.476 292.508 591.541 292.404 591.636C292.3 591.731 292.183 591.818 292.053 591.896C291.923 591.974 291.745 592.043 291.52 592.104C291.294 592.165 291.052 592.195 290.792 592.195C289.96 592.195 289.336 592 288.92 591.61C288.512 591.211 288.309 590.726 288.309 590.154C288.309 589.556 288.486 589.101 288.842 588.789C289.197 588.477 289.799 588.217 290.649 588.009C291.437 587.818 291.931 587.667 292.131 587.554C292.33 587.441 292.43 587.281 292.43 587.073C292.43 586.865 292.33 586.692 292.131 586.553C291.94 586.414 291.65 586.345 291.26 586.345C290.8 586.345 290.471 586.449 290.272 586.657C290.072 586.856 289.916 587.129 289.804 587.476L288.4 586.891C288.564 586.31 288.885 585.838 289.362 585.474C289.838 585.101 290.462 584.915 291.234 584.915C292.074 584.915 292.763 585.136 293.301 585.578C293.838 586.02 294.107 586.705 294.107 587.632V592H292.69ZM290.987 589.179C290.553 589.283 290.267 589.409 290.129 589.556C289.999 589.695 289.934 589.855 289.934 590.037C289.934 590.505 290.272 590.739 290.948 590.739C291.459 590.739 291.84 590.644 292.092 590.453C292.352 590.254 292.482 590.011 292.482 589.725V588.529H292.456C292.421 588.598 292.382 588.655 292.339 588.698C292.304 588.733 292.174 588.798 291.949 588.893C291.723 588.98 291.403 589.075 290.987 589.179ZM299.931 589.218L301.53 589.634C301.374 590.457 301.036 591.09 300.516 591.532C299.996 591.974 299.341 592.195 298.553 592.195C297.617 592.195 296.845 591.874 296.239 591.233C295.641 590.592 295.342 589.699 295.342 588.555C295.342 587.42 295.649 586.531 296.265 585.89C296.889 585.24 297.656 584.915 298.566 584.915C299.337 584.915 299.983 585.14 300.503 585.591C301.023 586.042 301.343 586.644 301.465 587.398L299.892 587.697C299.727 586.856 299.285 586.436 298.566 586.436C298.089 586.436 297.708 586.618 297.422 586.982C297.144 587.337 297.006 587.862 297.006 588.555C297.006 589.248 297.144 589.777 297.422 590.141C297.699 590.496 298.08 590.674 298.566 590.674C299.328 590.674 299.783 590.189 299.931 589.218ZM302.83 592V582.51H304.52V587.957H304.546L307.055 585.11H309.174L306.691 587.905L309.395 592H307.523L305.417 588.854H305.391L304.52 589.842V592H302.83ZM314.526 589.621L315.709 590.661C315.007 591.684 314.058 592.195 312.862 592.195C311.9 592.195 311.115 591.866 310.509 591.207C309.902 590.54 309.599 589.656 309.599 588.555C309.599 587.454 309.898 586.575 310.496 585.916C311.102 585.249 311.865 584.915 312.784 584.915C313.702 584.915 314.456 585.249 315.046 585.916C315.644 586.575 315.943 587.454 315.943 588.555V589.062H311.315C311.341 589.591 311.484 589.998 311.744 590.284C312.012 590.561 312.376 590.7 312.836 590.7C313.226 590.7 313.546 590.605 313.798 590.414C314.058 590.215 314.3 589.95 314.526 589.621ZM311.315 587.801H314.305C314.261 587.359 314.11 587.017 313.85 586.774C313.59 586.523 313.234 586.397 312.784 586.397C312.368 586.397 312.025 586.531 311.757 586.8C311.497 587.069 311.349 587.402 311.315 587.801ZM317.303 592V585.11H318.902V585.838H318.928C319.058 585.578 319.248 585.37 319.5 585.214C319.76 585.058 320.041 584.98 320.345 584.98C320.561 584.98 320.769 585.023 320.969 585.11L320.709 586.748C320.518 586.679 320.34 586.644 320.176 586.644C319.387 586.644 318.993 587.168 318.993 588.217V592H317.303ZM321.556 589.725L323.077 589.335C323.198 590.297 323.714 590.778 324.624 590.778C325.04 590.778 325.369 590.713 325.612 590.583C325.863 590.444 325.989 590.254 325.989 590.011C325.989 589.812 325.894 589.664 325.703 589.569C325.512 589.465 325.114 589.326 324.507 589.153C324.342 589.11 324.217 589.075 324.13 589.049C323.333 588.824 322.748 588.559 322.375 588.256C322.002 587.944 321.816 587.532 321.816 587.021C321.816 586.449 322.046 585.955 322.505 585.539C322.973 585.123 323.61 584.915 324.416 584.915C325.959 584.915 326.925 585.591 327.315 586.943L325.911 587.372C325.79 587.043 325.616 586.783 325.391 586.592C325.174 586.401 324.854 586.306 324.429 586.306C324.1 586.306 323.835 586.371 323.636 586.501C323.445 586.622 323.35 586.77 323.35 586.943C323.35 587.134 323.463 587.285 323.688 587.398C323.922 587.502 324.498 587.684 325.417 587.944C326.223 588.161 326.769 588.438 327.055 588.776C327.35 589.105 327.497 589.53 327.497 590.05C327.497 590.605 327.254 591.103 326.769 591.545C326.292 591.978 325.599 592.195 324.689 592.195C323.736 592.195 322.999 591.957 322.479 591.48C321.968 590.995 321.66 590.41 321.556 589.725Z" fill="#24E8CC"/>
<path d="M364.888 59.375H366.097C366.409 59.375 366.682 59.3403 366.916 59.271C367.15 59.193 367.371 59.0543 367.579 58.855C367.787 58.6557 367.948 58.3567 368.06 57.958C368.173 57.5507 368.229 57.0437 368.229 56.437C368.229 55.423 368.039 54.6863 367.657 54.227C367.285 53.759 366.791 53.525 366.175 53.525H364.888V59.375ZM363.133 61V51.9H366.175C366.695 51.9 367.185 51.991 367.644 52.173C368.104 52.355 368.52 52.6237 368.892 52.979C369.265 53.3343 369.56 53.811 369.776 54.409C370.002 54.9983 370.114 55.6743 370.114 56.437C370.114 57.269 370.002 57.9927 369.776 58.608C369.551 59.2233 369.243 59.7 368.853 60.038C368.463 60.3673 368.039 60.61 367.579 60.766C367.129 60.922 366.635 61 366.097 61H363.133ZM375.956 58.621L377.139 59.661C376.437 60.6837 375.488 61.195 374.292 61.195C373.33 61.195 372.545 60.8657 371.939 60.207C371.332 59.5397 371.029 58.6557 371.029 57.555C371.029 56.4543 371.328 55.5747 371.926 54.916C372.532 54.2487 373.295 53.915 374.214 53.915C375.132 53.915 375.886 54.2487 376.476 54.916C377.074 55.5747 377.373 56.4543 377.373 57.555V58.062H372.745C372.771 58.5907 372.914 58.998 373.174 59.284C373.442 59.5613 373.806 59.7 374.266 59.7C374.656 59.7 374.976 59.6047 375.228 59.414C375.488 59.2147 375.73 58.9503 375.956 58.621ZM372.745 56.801H375.735C375.691 56.359 375.54 56.0167 375.28 55.774C375.02 55.5227 374.664 55.397 374.214 55.397C373.798 55.397 373.455 55.5313 373.187 55.8C372.927 56.0687 372.779 56.4023 372.745 56.801ZM379.084 61V55.54H378.018V54.11H379.123V53.135C379.123 52.5457 379.274 52.1297 379.578 51.887C379.89 51.6357 380.34 51.51 380.93 51.51H382.282V53.005H381.281C381.073 53.005 380.925 53.0483 380.839 53.135C380.761 53.213 380.722 53.3517 380.722 53.551V54.11H382.464V55.54H380.774V61H379.084ZM387.851 58.621L389.034 59.661C388.332 60.6837 387.383 61.195 386.187 61.195C385.225 61.195 384.441 60.8657 383.834 60.207C383.228 59.5397 382.924 58.6557 382.924 57.555C382.924 56.4543 383.223 55.5747 383.821 54.916C384.428 54.2487 385.191 53.915 386.109 53.915C387.028 53.915 387.782 54.2487 388.371 54.916C388.969 55.5747 389.268 56.4543 389.268 57.555V58.062H384.64C384.666 58.5907 384.809 58.998 385.069 59.284C385.338 59.5613 385.702 59.7 386.161 59.7C386.551 59.7 386.872 59.6047 387.123 59.414C387.383 59.2147 387.626 58.9503 387.851 58.621ZM384.64 56.801H387.63C387.587 56.359 387.435 56.0167 387.175 55.774C386.915 55.5227 386.56 55.397 386.109 55.397C385.693 55.397 385.351 55.5313 385.082 55.8C384.822 56.0687 384.675 56.4023 384.64 56.801ZM390.628 61V54.11H392.253V54.773H392.279C392.47 54.5303 392.73 54.3267 393.059 54.162C393.389 53.9973 393.735 53.915 394.099 53.915C394.862 53.915 395.46 54.1447 395.893 54.604C396.327 55.0547 396.543 55.683 396.543 56.489V61H394.853V56.905C394.853 56.4283 394.762 56.073 394.58 55.839C394.398 55.5963 394.086 55.475 393.644 55.475C393.228 55.475 392.903 55.5963 392.669 55.839C392.435 56.073 392.318 56.3893 392.318 56.788V61H390.628ZM402.573 58.179V56.918C402.573 56.502 402.439 56.151 402.17 55.865C401.91 55.579 401.551 55.436 401.091 55.436C400.597 55.436 400.212 55.6137 399.934 55.969C399.666 56.3243 399.531 56.853 399.531 57.555C399.531 58.2483 399.666 58.777 399.934 59.141C400.212 59.4963 400.597 59.674 401.091 59.674C401.551 59.674 401.91 59.531 402.17 59.245C402.439 58.9503 402.573 58.595 402.573 58.179ZM402.677 61V60.337H402.651C402.608 60.3977 402.543 60.4757 402.456 60.571C402.378 60.6663 402.179 60.7963 401.858 60.961C401.546 61.117 401.204 61.195 400.831 61.195C399.921 61.195 399.193 60.8657 398.647 60.207C398.11 59.5483 397.841 58.6643 397.841 57.555C397.841 56.437 398.136 55.553 398.725 54.903C399.315 54.2443 400.008 53.915 400.805 53.915C401.169 53.915 401.494 53.9887 401.78 54.136C402.075 54.2747 402.274 54.4133 402.378 54.552L402.547 54.773H402.573V51.51H404.263V61H402.677ZM410.55 58.621L411.733 59.661C411.031 60.6837 410.082 61.195 408.886 61.195C407.924 61.195 407.14 60.8657 406.533 60.207C405.927 59.5397 405.623 58.6557 405.623 57.555C405.623 56.4543 405.922 55.5747 406.52 54.916C407.127 54.2487 407.89 53.915 408.808 53.915C409.727 53.915 410.481 54.2487 411.07 54.916C411.668 55.5747 411.967 56.4543 411.967 57.555V58.062H407.339C407.365 58.5907 407.508 58.998 407.768 59.284C408.037 59.5613 408.401 59.7 408.86 59.7C409.25 59.7 409.571 59.6047 409.822 59.414C410.082 59.2147 410.325 58.9503 410.55 58.621ZM407.339 56.801H410.329C410.286 56.359 410.134 56.0167 409.874 55.774C409.614 55.5227 409.259 55.397 408.808 55.397C408.392 55.397 408.05 55.5313 407.781 55.8C407.521 56.0687 407.374 56.4023 407.339 56.801ZM413.327 61V54.11H414.926V54.838H414.952C415.082 54.578 415.273 54.37 415.524 54.214C415.784 54.058 416.066 53.98 416.369 53.98C416.586 53.98 416.794 54.0233 416.993 54.11L416.733 55.748C416.543 55.6787 416.365 55.644 416.2 55.644C415.412 55.644 415.017 56.1683 415.017 57.217V61H413.327ZM417.581 58.725L419.102 58.335C419.223 59.297 419.739 59.778 420.649 59.778C421.065 59.778 421.394 59.713 421.637 59.583C421.888 59.4443 422.014 59.2537 422.014 59.011C422.014 58.8117 421.919 58.6643 421.728 58.569C421.537 58.465 421.139 58.3263 420.532 58.153C420.367 58.1097 420.242 58.075 420.155 58.049C419.358 57.8237 418.773 57.5593 418.4 57.256C418.027 56.944 417.841 56.5323 417.841 56.021C417.841 55.449 418.071 54.955 418.53 54.539C418.998 54.123 419.635 53.915 420.441 53.915C421.984 53.915 422.95 54.591 423.34 55.943L421.936 56.372C421.815 56.0427 421.641 55.7827 421.416 55.592C421.199 55.4013 420.879 55.306 420.454 55.306C420.125 55.306 419.86 55.371 419.661 55.501C419.47 55.6223 419.375 55.7697 419.375 55.943C419.375 56.1337 419.488 56.2853 419.713 56.398C419.947 56.502 420.523 56.684 421.442 56.944C422.248 57.1607 422.794 57.438 423.08 57.776C423.375 58.1053 423.522 58.53 423.522 59.05C423.522 59.6047 423.279 60.103 422.794 60.545C422.317 60.9783 421.624 61.195 420.714 61.195C419.761 61.195 419.024 60.9567 418.504 60.48C417.993 59.9947 417.685 59.4097 417.581 58.725Z" fill="#F44348"/>
</svg>
