<svg width="708" height="708" viewBox="0 0 708 708" fill="none" xmlns="http://www.w3.org/2000/svg">
<path d="M587.318 178.681V220.058H553.388V210.955H512.839V189.439H555.043V178.681H587.318Z" fill="#202B43"/>
<path d="M474.772 429.427H483.047V450.116H476.427V488.183H454.083V493.148H436.704V487.355H414.361V420.324H440.842V415.359H450.773V420.324H474.772V429.427Z" fill="#202B43"/>
<path d="M608.007 370.671V324.329H564.147V370.671H608.007Z" fill="#202B43"/>
<path d="M548.423 324.329V325.984H505.391V314.398H484.702V329.294H483.047V351.638H502.908L506.218 348.328H564.146V324.329H548.423Z" fill="#202B43"/>
<path d="M478.909 329.294H483.047V344.19H478.909V362.396H431.739V359.086H420.981V314.398H478.909V329.294Z" fill="#202B43"/>
<path d="M622.902 378.947H670.9V422.807H618.764L555.871 462.529H532.7V479.08H483.047V429.427H483.874V401.291H509.528V417.842H551.733L621.247 377.292L622.902 378.947Z" fill="#202B43"/>
<path d="M398.637 113.305V29.7228L411.878 14.827H419.326L434.636 2L448.704 7.37905H456.979L463.186 13.5856V19.3785L469.806 25.9988V52.0665L474.772 57.0318V79.3755H444.98V113.305H398.637Z" fill="#202B43"/>
<rect x="444.98" y="79.3755" width="67.8587" height="86.0647" fill="#202B43"/>
<path d="M512.839 136.476H622.075V172.061H599.731V165.44H512.839V136.476Z" fill="#202B43"/>
<path d="M599.731 172.061V218.403H662.624V198.542H649.384V188.612H639.453V172.061H599.731Z" fill="#202B43"/>
<path d="M553.388 220.058H601.386V210.128H649.384V218.403V225.851H671.727V326.812H648.556V324.329H548.423V312.743H526.079V235.782H553.388V220.058Z" fill="#202B43"/>
<path d="M621.247 324.329H648.556V378.947H622.902L621.247 377.292V324.329Z" fill="#202B43"/>
<rect x="431.739" y="362.396" width="25.6539" height="52.9629" fill="#202B43"/>
<path d="M479.737 165.44H512.838V282.124H495.46V297.02H476.426V287.917H426.774V252.332H479.737V165.44Z" fill="#202B43"/>
<path d="M398.637 113.305V79.3755H318.366V135.649H250.015V163.785H382.914V113.305H398.637Z" fill="#202B43"/>
<path d="M233.956 135.649H255.472V229.161H289.401V271.366H215.75V209.3H153.684V181.991H233.956V135.649Z" fill="#202B43"/>
<path d="M222.37 277.159V271.366H230.645V277.159H289.401V300.33H215.75V277.159H222.37Z" fill="#202B43"/>
<path d="M153.684 209.3H185.131V288.745H167.752V320.191L168.58 339.225V357.431H54.3785V288.745H37V210.128H153.684V209.3Z" fill="#202B43"/>
<path d="M243.886 300.33H268.713V305.295H288.574V387.222H265.403L260.437 389.705H253.817V388.878H252.989L248.024 391.36H246.369V387.222H224.853V339.225L226.508 320.191V304.468H243.886V300.33Z" fill="#202B43"/>
<path d="M226.508 320.191H167.752L168.58 339.225H224.853L226.508 320.191Z" fill="#202B43"/>
<path d="M289.401 260.608V240.747H301.815V234.954L321.262 215.921H334.916V183.646H381.259V216.748H396.155L414.361 235.782V263.918H426.774V285.434H414.361V329.294H363.053V337.57H341.537V329.294H301.815V260.608H289.401Z" fill="#202B43"/>
<path d="M301.815 337.57H378.776V380.188L381.259 383.912V401.291L379.604 402.946V416.186L323.331 417.014V369.016H301.815V337.57Z" fill="#202B43"/>
<path d="M224.853 417.014H323.331L379.604 416.186H407.74V467.494H372.983V472.46H329.951V467.494H224.853V417.014Z" fill="#202B43"/>
<path d="M288.574 393.015V417.014H224.853V393.015H248.852L253.817 390.533V389.705H260.437V391.36H261.265L266.23 388.877H267.885V393.015H288.574Z" fill="#202B43"/>
<rect x="109.824" y="408.739" width="28.1365" height="38.8946" fill="#202B43"/>
<path d="M82.515 357.431H111.479L109.824 363.637V447.633H108.169V460.874H86.6527V416.187H82.515V357.431Z" fill="#202B43"/>
<path d="M59.3437 460.874H108.169V479.908H149.546V495.217H156.994V479.908H206.647V553.559H155.339V517.354H149.546V539.491H59.3437V460.874Z" fill="#202B43"/>
<path d="M139.616 580.868V553.559H206.647V542.801H253.817V520.457H327.469V542.801H372.984V522.94H414.361V507.216L430.084 493.148H476.427V575.903H353.122V570.11H276.161V581.696H253.817L252.99 580.868H139.616Z" fill="#202B43"/>
<path d="M276.16 581.696H253.817V678.932L292.711 705H367.19L411.878 675.208V652.037L406.085 640.038L411.878 630.521V623.9H372.156V575.903H353.122V623.9H276.16V581.696Z" fill="#202B43"/>
<path d="M224.853 479.494V467.494H293.539V479.08H302.642V484.873L305.125 487.769V520.457H282.781V512.182H225.68V482.39L224.853 479.494Z" fill="#202B43"/>
<path d="M317.538 472.46H407.74V518.802H401.947V522.94H390.362V518.802H385.396V495.631H317.538V472.46Z" fill="#202B43"/>
<g opacity="0.75">
<g opacity="0.75">
<path d="M548.423 324.329V325.984H505.39V314.398H484.702V329.294H483.047V351.638H502.908L506.218 348.328H564.146V324.329H548.423Z" fill="url(#paint0_linear)"/>
<path d="M478.909 329.294H483.046V344.19H478.909V362.396H431.739V359.086H420.98V314.398H478.909V329.294Z" fill="#182338"/>
<path opacity="0.8" d="M622.902 378.947H670.9V422.807H618.764L555.871 462.529H532.699V479.08H483.047V429.427H483.874V401.291H509.528V417.842H551.733L621.247 377.292L622.902 378.947Z" fill="url(#paint1_linear)"/>
<path opacity="0.8" d="M621.246 324.329H648.555V378.947H622.902L621.246 377.292V324.329Z" fill="url(#paint2_linear)"/>
<rect x="431.739" y="362.396" width="25.6539" height="52.9629" fill="url(#paint3_linear)"/>
<path d="M301.814 337.57H378.776V380.188L381.258 383.912V401.291L379.603 402.946V416.187L323.33 417.014V369.016H301.814V337.57Z" fill="url(#paint4_linear)"/>
<path d="M224.852 417.014H323.33L379.603 416.187H407.74V467.494H372.983V472.46H329.95V467.494H224.852V417.014Z" fill="#182338"/>
<path d="M288.573 393.015V417.014H224.852V393.015H248.851L253.816 390.533V389.705H260.437V391.36H261.264L266.229 388.878H267.884V393.015H288.573Z" fill="url(#paint5_linear)"/>
<path d="M139.615 580.868V553.559H206.646V542.801H253.816V520.457H327.468V542.801H372.983V522.94H414.36V507.216L430.083 493.148H476.426V575.903H353.122V570.11H276.16V581.695H253.816L252.989 580.868H139.615Z" fill="url(#paint6_radial)"/>
<path d="M224.852 479.494V467.494H293.538V479.08H302.641V484.873L305.124 487.769V520.457H282.78V512.182H225.68V482.39L224.852 479.494Z" fill="#182338"/>
</g>
<path d="M512.839 136.476H622.075V172.061H599.731V165.44H512.839V136.476Z" fill="url(#paint7_linear)"/>
<path d="M317.538 472.46H407.74V518.802H401.947V522.94H390.362V518.802H385.396V495.631H317.538V472.46Z" fill="url(#paint8_linear)"/>
<path d="M599.731 172.061V218.403H662.624V198.542H649.384V188.612H639.453V172.061H599.731Z" fill="#273552"/>
</g>
<path d="M648.557 224.196V209.3H602.214V224.196" stroke="#202B43" stroke-width="1.64332" stroke-dasharray="1.64 1.64"/>
<rect x="153.684" y="209.3" width="31.4467" height="0.827546" fill="#182338"/>
<rect x="243.887" y="300.33" width="24.8264" height="0.827546" fill="#182338"/>
<rect x="222.37" y="271.366" width="8.27545" height="0.827546" fill="#182338"/>
<rect x="255.472" y="135.649" width="0.827546" height="28.1365" fill="#182338"/>
<rect x="289.402" y="240.747" width="0.827546" height="19.8611" fill="#182338"/>
<rect x="82.5152" y="357.431" width="28.9641" height="0.827546" fill="#182338"/>
<rect x="206.647" y="556.869" width="0.827546" height="23.9988" fill="#182338"/>
<rect x="282.781" y="519.63" width="22.3437" height="0.827546" fill="#182338"/>
<rect x="224.853" y="467.494" width="68.6863" height="0.827546" fill="#182338"/>
<rect x="329.951" y="471.632" width="43.0324" height="0.827546" fill="#182338"/>
<rect x="390.362" y="522.112" width="11.5856" height="0.827546" fill="#182338"/>
<rect x="436.705" y="492.321" width="17.3785" height="0.827546" fill="#182338"/>
<rect x="440.843" y="415.359" width="9.93054" height="0.827546" fill="#182338"/>
<path fill-rule="evenodd" clip-rule="evenodd" d="M623.074 378.119L621.247 376.293L621.247 377.292L621.137 377.353L622.731 378.947H648.557V378.119H623.074Z" fill="#182338"/>
<rect x="478.91" y="329.294" width="0.827546" height="14.8958" fill="#182338"/>
<rect x="561.664" y="325.984" width="0.827546" height="22.3437" fill="#182338"/>
<rect x="562.491" y="324.329" width="28.9641" height="0.827546" fill="#182338"/>
<rect x="553.389" y="219.231" width="33.9294" height="0.827546" fill="#182338"/>
<rect x="512.839" y="189.439" width="0.827546" height="21.5162" fill="#182338"/>
<rect x="425.947" y="263.918" width="0.827546" height="21.5162" fill="#182338"/>
<rect x="512.839" y="136.476" width="0.827546" height="28.9641" fill="#182338"/>
<rect x="479.737" y="165.44" width="33.1018" height="0.827546" fill="#182338"/>
<rect x="599.731" y="165.44" width="22.3437" height="0.827546" fill="#182338"/>
<rect x="341.537" y="336.742" width="21.5162" height="0.827546" fill="#182338"/>
<path d="M621.248 324.329H649.384V326.812H648.557V325.156H621.248V324.329Z" fill="#182338"/>
<path d="M482.22 429.427H483.047V450.116H482.22V429.427Z" fill="#182338"/>
<rect x="224.853" y="416.186" width="63.721" height="0.827546" fill="#182338"/>
<path d="M323.331 415.359H379.604V416.186H323.331V415.359Z" fill="#182338"/>
<rect x="253.817" y="389.705" width="6.62036" height="0.827546" fill="#182338"/>
<path d="M167.752 320.191H168.58L169.407 339.225H168.58L167.752 320.191Z" fill="#182338"/>
<path d="M225.68 320.191H226.508L224.853 339.225H224.025L225.68 320.191Z" fill="#182338"/>
<g style="mix-blend-mode:screen" opacity="0.25">
<rect x="573.25" y="178.681" width="14.0683" height="11.5856" fill="#343F57"/>
<rect x="576.56" y="263.695" width="59.4187" height="21.2287" transform="rotate(-18.2003 576.56 263.695)" fill="#343F57"/>
<rect x="548.423" y="309.433" width="14.0683" height="16.5509" fill="#343F57"/>
<rect x="591.456" y="324.329" width="16.5509" height="15.7234" fill="#343F57"/>
<rect x="612.045" y="413.93" width="11.2169" height="10.656" transform="rotate(57.8268 612.045 413.93)" fill="#343F57"/>
<rect x="476.427" y="281.297" width="19.0335" height="15.7234" fill="#343F57"/>
<rect x="479.737" y="232.471" width="12.4132" height="19.0335" fill="#343F57"/>
<rect opacity="0.5" x="479.737" y="223.368" width="7.44791" height="9.103" fill="#273552"/>
<rect x="344.847" y="212.61" width="26.4815" height="5.79282" fill="#343F57"/>
<rect x="301.815" y="278.814" width="11.5856" height="50.4803" fill="#273552"/>
<path d="M391.19 249.85H330.779V296.192H340.709V306.123H377.121V296.192H391.19V249.85Z" fill="#273552"/>
<rect x="153.684" y="181.991" width="15.7234" height="12.4132" fill="#343F57"/>
<rect x="75.895" y="210.128" width="19.8611" height="16.5509" fill="#273552"/>
<path d="M42.793 247.367H37.0002V288.744H70.9295V252.332H42.793V247.367Z" fill="#343F57"/>
<rect x="118.099" y="340.052" width="19.8611" height="17.3785" fill="#343F57"/>
<rect x="87.3582" y="272.927" width="66.2036" height="26.4815" fill="#343F57"/>
<rect opacity="0.5" x="128.735" y="299.408" width="19.8611" height="15.7234" fill="#273552"/>
<rect opacity="0.5" x="164.91" y="270.912" width="20.1433" height="18.1289" fill="#273552"/>
<rect x="268.713" y="342.535" width="19.8611" height="16.5509" fill="#273552"/>
<rect x="109.824" y="408.739" width="28.1365" height="22.3437" fill="#343F57"/>
<rect x="156.994" y="479.908" width="15.7234" height="14.0683" fill="#343F57"/>
<rect x="224.853" y="431.91" width="19.8611" height="16.5509" fill="#343F57"/>
<rect x="365.536" y="402.946" width="14.0683" height="12.4132" fill="#273552"/>
<rect opacity="0.7" x="333.261" y="465.839" width="36.412" height="6.62036" fill="#343F57"/>
<rect opacity="0.35" x="336.572" y="460.046" width="29.7916" height="5.79282" fill="#273552"/>
<rect x="414.361" y="443.495" width="20.6886" height="18.206" fill="#343F57"/>
<rect x="459.876" y="472.46" width="16.5509" height="15.7234" fill="#343F57"/>
<rect x="372.984" y="561.834" width="18.206" height="14.0683" fill="#343F57"/>
<rect x="206.647" y="542.801" width="18.206" height="14.0683" fill="#343F57"/>
<rect opacity="0.5" x="273.678" y="467.494" width="19.8611" height="16.5509" fill="#273552"/>
</g>
<defs>
<linearGradient id="paint0_linear" x1="483.047" y1="351.638" x2="542.63" y2="351.638" gradientUnits="userSpaceOnUse">
<stop offset="0.229167" stop-color="#182338"/>
<stop offset="1" stop-color="#182338" stop-opacity="0"/>
</linearGradient>
<linearGradient id="paint1_linear" x1="483.047" y1="435.22" x2="554.629" y2="435.22" gradientUnits="userSpaceOnUse">
<stop stop-color="#182338" stop-opacity="0"/>
<stop offset="1" stop-color="#182338"/>
</linearGradient>
<linearGradient id="paint2_linear" x1="634.901" y1="324.329" x2="634.901" y2="378.947" gradientUnits="userSpaceOnUse">
<stop stop-color="#182338" stop-opacity="0"/>
<stop offset="1" stop-color="#182338"/>
</linearGradient>
<linearGradient id="paint3_linear" x1="444.565" y1="362.396" x2="444.565" y2="415.359" gradientUnits="userSpaceOnUse">
<stop offset="0.255208" stop-color="#182338"/>
<stop offset="1" stop-color="#182338" stop-opacity="0"/>
</linearGradient>
<linearGradient id="paint4_linear" x1="341.536" y1="337.57" x2="341.536" y2="417.014" gradientUnits="userSpaceOnUse">
<stop stop-color="#182338" stop-opacity="0"/>
<stop offset="1" stop-color="#182338"/>
</linearGradient>
<linearGradient id="paint5_linear" x1="256.713" y1="388.878" x2="256.713" y2="417.014" gradientUnits="userSpaceOnUse">
<stop stop-color="#182338" stop-opacity="0"/>
<stop offset="1" stop-color="#182338"/>
</linearGradient>
<radialGradient id="paint6_radial" cx="0" cy="0" r="1" gradientUnits="userSpaceOnUse" gradientTransform="translate(292.711 520.457) rotate(90) scale(61.2384 80.4799)">
<stop stop-color="#182338"/>
<stop offset="1" stop-color="#182338" stop-opacity="0"/>
</radialGradient>
<linearGradient id="paint7_linear" x1="528.976" y1="166.268" x2="598.076" y2="166.268" gradientUnits="userSpaceOnUse">
<stop stop-color="#273552" stop-opacity="0"/>
<stop offset="1" stop-color="#273552"/>
</linearGradient>
<linearGradient id="paint8_linear" x1="362.639" y1="472.46" x2="362.639" y2="522.94" gradientUnits="userSpaceOnUse">
<stop offset="0.4601" stop-color="#273552"/>
<stop offset="1" stop-color="#273552" stop-opacity="0"/>
</linearGradient>
</defs>
</svg>
